<svg width="40" height="40" viewBox="0 0 40 40" fill="none" xmlns="http://www.w3.org/2000/svg">
<path d="M15.3551 32.4973H8.84877C8.00688 32.4973 7.29427 32.2056 6.71094 31.6223C6.1276 31.039 5.83594 30.3264 5.83594 29.4845V7.1769C5.83594 6.33501 6.1276 5.6224 6.71094 5.03906C7.29427 4.45573 8.00688 4.16406 8.84877 4.16406H31.1564C31.9982 4.16406 32.7109 4.45573 33.2942 5.03906C33.8775 5.6224 34.1692 6.33501 34.1692 7.1769V29.4845C34.1692 30.3264 33.8775 31.039 33.2942 31.6223C32.7109 32.2056 31.9982 32.4973 31.1564 32.4973H24.65L21.057 36.0902C20.7557 36.3915 20.4043 36.5421 20.0026 36.5421C19.6009 36.5421 19.2494 36.3915 18.9481 36.0902L15.3551 32.4973ZM19.916 27.6736C20.3925 27.6736 20.7948 27.5096 21.1227 27.1816C21.4507 26.8536 21.6147 26.4514 21.6147 25.9749C21.6147 25.4984 21.4507 25.0962 21.1227 24.7682C20.7948 24.4402 20.3925 24.2762 19.916 24.2762C19.4395 24.2762 19.0373 24.4402 18.7093 24.7682C18.3813 25.0962 18.2174 25.4984 18.2174 25.9749C18.2174 26.4514 18.3813 26.8536 18.7093 27.1816C19.0373 27.5096 19.4395 27.6736 19.916 27.6736ZM22.9449 13.5871C22.9449 14.0914 22.8001 14.609 22.5106 15.14C22.2211 15.671 21.7473 16.2292 21.0891 16.8147C20.6383 17.2207 20.267 17.6058 19.9754 17.9701C19.6837 18.3344 19.446 18.7004 19.2622 19.0679C19.1404 19.3008 19.0517 19.531 18.9962 19.7586C18.9406 19.9861 18.8851 20.2388 18.8295 20.5166C18.7846 20.8371 18.869 21.1154 19.0827 21.3515C19.2964 21.5876 19.572 21.7057 19.9096 21.7057C20.213 21.7057 20.4828 21.5988 20.7189 21.3851C20.955 21.1715 21.1126 20.8873 21.1916 20.5326C21.275 20.1224 21.4347 19.7399 21.6708 19.3852C21.9069 19.0305 22.2942 18.5839 22.8326 18.0454C23.7301 17.148 24.3668 16.3713 24.7429 15.7153C25.119 15.0593 25.307 14.3499 25.307 13.5871C25.307 12.2153 24.8401 11.1058 23.9064 10.2586C22.9726 9.41138 21.7215 8.98777 20.1532 8.98777C19.0635 8.98777 18.087 9.2303 17.2237 9.71535C16.3605 10.2004 15.6671 10.8777 15.1436 11.7474C14.9919 12.0059 14.9823 12.2784 15.1148 12.5647C15.2472 12.851 15.4652 13.0476 15.7686 13.1544C16.0442 13.2612 16.3252 13.2612 16.6115 13.1544C16.8979 13.0476 17.1308 12.8734 17.3102 12.632C17.6585 12.1683 18.0683 11.8104 18.5394 11.5583C19.0106 11.3061 19.5485 11.1801 20.1532 11.1801C20.9716 11.1801 21.6415 11.3975 22.1628 11.8323C22.6842 12.2671 22.9449 12.8521 22.9449 13.5871Z" fill="#855EDB"/>
</svg>
