<svg width="15" height="16" viewBox="0 0 15 16" fill="none" xmlns="http://www.w3.org/2000/svg">
<path d="M7.03125 8.46872H3.90625C3.77344 8.46872 3.66211 8.42378 3.57227 8.33391C3.48242 8.24402 3.4375 8.13265 3.4375 7.99978C3.4375 7.86691 3.48242 7.7556 3.57227 7.66586C3.66211 7.57612 3.77344 7.53125 3.90625 7.53125H7.03125V4.40625C7.03125 4.27344 7.07619 4.16211 7.16606 4.07227C7.25595 3.98242 7.36732 3.9375 7.50019 3.9375C7.63306 3.9375 7.74437 3.98242 7.83411 4.07227C7.92385 4.16211 7.96872 4.27344 7.96872 4.40625V7.53125H11.0937C11.2265 7.53125 11.3379 7.57619 11.4277 7.66606C11.5175 7.75595 11.5625 7.86732 11.5625 8.00019C11.5625 8.13306 11.5175 8.24437 11.4277 8.33411C11.3379 8.42385 11.2265 8.46872 11.0937 8.46872H7.96872V11.5937C7.96872 11.7265 7.92378 11.8379 7.83391 11.9277C7.74402 12.0175 7.63265 12.0625 7.49978 12.0625C7.36691 12.0625 7.2556 12.0175 7.16586 11.9277C7.07612 11.8379 7.03125 11.7265 7.03125 11.5937V8.46872Z" fill="white"/>
</svg>
