<svg width="16" height="16" viewBox="0 0 16 16" fill="none" xmlns="http://www.w3.org/2000/svg">
<path d="M3.54107 13.6653C3.20966 13.6653 2.92595 13.5473 2.68995 13.3113C2.45394 13.0753 2.33594 12.7916 2.33594 12.4602V3.53717C2.33594 3.20575 2.45394 2.92205 2.68995 2.68605C2.92595 2.45004 3.20966 2.33203 3.54107 2.33203H12.4641C12.7955 2.33203 13.0792 2.45004 13.3152 2.68605C13.5512 2.92205 13.6692 3.20575 13.6692 3.53717V7.7538C13.5051 7.68372 13.3408 7.62433 13.1763 7.57562C13.0118 7.52689 12.8428 7.488 12.6693 7.45895V3.53717C12.6693 3.48588 12.6479 3.43886 12.6052 3.39612C12.5624 3.35338 12.5154 3.33202 12.4641 3.33202H3.54107C3.48978 3.33202 3.44277 3.35338 3.40002 3.39612C3.35729 3.43886 3.33592 3.48588 3.33592 3.53717V12.4602C3.33592 12.5115 3.35729 12.5585 3.40002 12.6012C3.44277 12.644 3.48978 12.6653 3.54107 12.6653H7.44619C7.47097 12.85 7.50772 13.0245 7.55644 13.189C7.60515 13.3536 7.66455 13.5123 7.73464 13.6653H3.54107ZM3.33592 12.0009V12.6653V3.33202V7.45895V7.40895V12.0009ZM4.83594 10.5886C4.83594 10.7304 4.88385 10.8491 4.97969 10.9448C5.07551 11.0405 5.19425 11.0884 5.33592 11.0884H7.51414C7.54319 10.9149 7.58635 10.7459 7.64362 10.5814C7.70089 10.4168 7.76328 10.2525 7.8308 10.0884H5.33592C5.19425 10.0884 5.07551 10.1364 4.97969 10.2322C4.88385 10.3281 4.83594 10.4469 4.83594 10.5886ZM4.83594 7.9989C4.83594 8.14063 4.88385 8.25936 4.97969 8.35508C5.07551 8.4508 5.19425 8.49867 5.33592 8.49867H9.06287C9.35005 8.25509 9.65645 8.05103 9.98207 7.8865C10.3077 7.72198 10.6564 7.6051 11.0282 7.53586C10.9532 7.51934 10.8699 7.50902 10.7782 7.50488C10.6865 7.50076 10.6032 7.4987 10.5282 7.4987H5.33592C5.19425 7.4987 5.07551 7.54663 4.97969 7.6425C4.88385 7.73838 4.83594 7.85718 4.83594 7.9989ZM4.83594 5.40917C4.83594 5.5509 4.88385 5.66963 4.97969 5.76535C5.07551 5.86107 5.19425 5.90893 5.33592 5.90893H10.6693C10.8109 5.90893 10.9297 5.86099 11.0255 5.76512C11.1213 5.66925 11.1692 5.55045 11.1692 5.40872C11.1692 5.26699 11.1213 5.14827 11.0255 5.05255C10.9297 4.95682 10.8109 4.90895 10.6693 4.90895H5.33592C5.19425 4.90895 5.07551 4.95689 4.97969 5.05277C4.88385 5.14864 4.83594 5.26744 4.83594 5.40917ZM12.0026 15.0371C11.1701 15.0371 10.462 14.7452 9.87824 14.1615C9.29448 13.5777 9.0026 12.8696 9.0026 12.0371C9.0026 11.2047 9.29448 10.4966 9.87824 9.9128C10.462 9.32904 11.1701 9.03717 12.0026 9.03717C12.8351 9.03717 13.5432 9.32904 14.1269 9.9128C14.7107 10.4966 15.0026 11.2047 15.0026 12.0371C15.0026 12.8696 14.7107 13.5777 14.1269 14.1615C13.5432 14.7452 12.8351 15.0371 12.0026 15.0371ZM11.7077 12.332V13.7038C11.7077 13.7824 11.7372 13.8512 11.7962 13.9102C11.8551 13.9692 11.924 13.9987 12.0026 13.9987C12.0812 13.9987 12.15 13.9692 12.209 13.9102C12.268 13.8512 12.2975 13.7824 12.2975 13.7038V12.332H13.6693C13.7479 12.332 13.8167 12.3025 13.8757 12.2435C13.9346 12.1846 13.9641 12.1158 13.9641 12.0371C13.9641 11.9585 13.9346 11.8897 13.8757 11.8307C13.8167 11.7718 13.7479 11.7423 13.6693 11.7423H12.2975V10.3705C12.2975 10.2918 12.268 10.223 12.209 10.1641C12.15 10.1051 12.0812 10.0756 12.0026 10.0756C11.924 10.0756 11.8551 10.1051 11.7962 10.1641C11.7372 10.223 11.7077 10.2918 11.7077 10.3705V11.7423H10.3359C10.2573 11.7423 10.1885 11.7718 10.1295 11.8307C10.0705 11.8897 10.0411 11.9585 10.0411 12.0371C10.0411 12.1158 10.0705 12.1846 10.1295 12.2435C10.1885 12.3025 10.2573 12.332 10.3359 12.332H11.7077Z" fill="#1B1B1B"/>
</svg>
