<svg width="16" height="16" viewBox="0 0 16 16" fill="none" xmlns="http://www.w3.org/2000/svg">
<path d="M12.0833 9.16732V7.16732H10.0833V6.16736H12.0833V4.16736H13.0833V6.16736H15.0833V7.16732H13.0833V9.16732H12.0833ZM5.99998 7.79552C5.35833 7.79552 4.80903 7.56706 4.35208 7.11012C3.89514 6.65318 3.66667 6.10388 3.66667 5.46222C3.66667 4.82056 3.89514 4.27126 4.35208 3.81432C4.80903 3.35738 5.35833 3.12891 5.99998 3.12891C6.64164 3.12891 7.19094 3.35738 7.64788 3.81432C8.10483 4.27126 8.3333 4.82056 8.3333 5.46222C8.3333 6.10388 8.10483 6.65318 7.64788 7.11012C7.19094 7.56706 6.64164 7.79552 5.99998 7.79552ZM1.00002 12.8724V11.3904C1.00002 11.0639 1.08868 10.7616 1.26602 10.4834C1.44337 10.2052 1.68034 9.99128 1.97692 9.84171C2.63589 9.51863 3.30064 9.27632 3.97115 9.11479C4.64166 8.95326 5.31794 8.87249 5.99998 8.87249C6.68203 8.87249 7.35831 8.95326 8.02882 9.11479C8.69933 9.27632 9.36407 9.51863 10.0231 9.84171C10.3196 9.99128 10.5566 10.2052 10.7339 10.4834C10.9113 10.7616 11 11.0639 11 11.3904V12.8724H1.00002ZM1.99998 11.8725H9.99998V11.3904C9.99998 11.2554 9.96088 11.1304 9.88267 11.0154C9.80447 10.9005 9.69827 10.8066 9.56408 10.734C8.98973 10.4511 8.40407 10.2368 7.80712 10.091C7.21016 9.94532 6.60778 9.87246 5.99998 9.87246C5.39218 9.87246 4.78981 9.94532 4.19285 10.091C3.59589 10.2368 3.01024 10.4511 2.43588 10.734C2.30169 10.8066 2.1955 10.9005 2.1173 11.0154C2.03909 11.1304 1.99998 11.2554 1.99998 11.3904V11.8725ZM5.99998 6.79556C6.36665 6.79556 6.68054 6.665 6.94165 6.40389C7.20276 6.14278 7.33332 5.82889 7.33332 5.46222C7.33332 5.09556 7.20276 4.78167 6.94165 4.52056C6.68054 4.25945 6.36665 4.12889 5.99998 4.12889C5.63332 4.12889 5.31943 4.25945 5.05832 4.52056C4.79721 4.78167 4.66665 5.09556 4.66665 5.46222C4.66665 5.82889 4.79721 6.14278 5.05832 6.40389C5.31943 6.665 5.63332 6.79556 5.99998 6.79556Z" fill="#1B1B1B"/>
</svg>
