<svg width="16" height="16" viewBox="0 0 16 16" fill="none" xmlns="http://www.w3.org/2000/svg">
<path d="M2.8692 13C2.53244 13 2.2474 12.8833 2.01406 12.65C1.78073 12.4166 1.66406 12.1316 1.66406 11.7948V4.20513C1.66406 3.86838 1.78073 3.58333 2.01406 3.35C2.2474 3.11667 2.53244 3 2.8692 3H6.52941L7.86275 4.33333H13.1256C13.4623 4.33333 13.7474 4.45 13.9807 4.68333C14.214 4.91667 14.3307 5.20171 14.3307 5.53847V11.7948C14.3307 12.1316 14.214 12.4166 13.9807 12.65C13.7474 12.8833 13.4623 13 13.1256 13H2.8692ZM2.8692 12H13.1256C13.1854 12 13.2345 11.9808 13.273 11.9423C13.3115 11.9038 13.3307 11.8547 13.3307 11.7948V5.53847C13.3307 5.47863 13.3115 5.42948 13.273 5.39102C13.2345 5.35255 13.1854 5.33332 13.1256 5.33332H7.4538L6.12046 3.99998H2.8692C2.80936 3.99998 2.76021 4.01922 2.72175 4.05768C2.68328 4.09615 2.66405 4.1453 2.66405 4.20513V11.7948C2.66405 11.8547 2.68328 11.9038 2.72175 11.9423C2.76021 11.9808 2.80936 12 2.8692 12Z" fill="#1B1B1B"/>
</svg>
