<svg width="16" height="16" viewBox="0 0 16 16" fill="none" xmlns="http://www.w3.org/2000/svg">
<path d="M9.2666 14.0372C9.07477 14.2286 8.83708 14.3243 8.55351 14.3243C8.26995 14.3243 8.03243 14.2286 7.84098 14.0372L1.97431 8.1705C1.87773 8.07393 1.80188 7.96276 1.74676 7.837C1.69163 7.71126 1.66406 7.57713 1.66406 7.43462V2.66795C1.66406 2.39531 1.76257 2.16049 1.95958 1.96349C2.15658 1.76647 2.3914 1.66797 2.66405 1.66797H7.43071C7.56831 1.66797 7.70012 1.69483 7.82613 1.74854C7.95215 1.80224 8.06137 1.87452 8.15378 1.9654L14.0204 7.84234C14.2162 8.03806 14.3151 8.27715 14.3172 8.55962C14.3194 8.84209 14.2247 9.07905 14.0333 9.2705L9.2666 14.0372ZM8.55091 13.3346L13.3205 8.56795L7.43358 2.66795H2.66405V7.43462L8.55091 13.3346ZM4.32996 5.16794C4.56123 5.16794 4.75806 5.08699 4.92045 4.9251C5.08283 4.76321 5.16403 4.56664 5.16403 4.33537C5.16403 4.1041 5.08308 3.90728 4.9212 3.74489C4.75931 3.5825 4.56273 3.5013 4.33146 3.5013C4.1002 3.5013 3.90337 3.58225 3.74098 3.74414C3.57859 3.90602 3.4974 4.1026 3.4974 4.33387C3.4974 4.56514 3.57834 4.76196 3.74023 4.92435C3.90212 5.08674 4.0987 5.16794 4.32996 5.16794Z" fill="#1B1B1B"/>
</svg>
