<svg width="16" height="16" viewBox="0 0 16 16" fill="none" xmlns="http://www.w3.org/2000/svg">
<path d="M9.26855 14.0359C9.07673 14.2274 8.83903 14.3231 8.55547 14.3231C8.2719 14.3231 8.03439 14.2274 7.84293 14.0359L1.97627 8.16928C1.87969 8.0727 1.80384 7.96154 1.74872 7.83578C1.69358 7.71004 1.66602 7.57591 1.66602 7.4334V2.66673C1.66602 2.39409 1.76452 2.15927 1.96153 1.96227C2.15853 1.76525 2.39335 1.66675 2.666 1.66675H7.43267C7.57027 1.66675 7.70207 1.6936 7.82808 1.74732C7.9541 1.80102 8.06332 1.8733 8.15573 1.96418L14.0224 7.84112C14.2181 8.03684 14.317 8.27593 14.3192 8.5584C14.3213 8.84087 14.2267 9.07783 14.0352 9.26928L9.26855 14.0359ZM8.55287 13.3334L13.3224 8.56673L7.43553 2.66673H2.666V7.4334L8.55287 13.3334ZM4.33192 5.16672C4.56318 5.16672 4.76001 5.08577 4.9224 4.92388C5.08479 4.76199 5.16598 4.56541 5.16598 4.33415C5.16598 4.10288 5.08504 3.90605 4.92315 3.74367C4.76126 3.58128 4.56468 3.50008 4.33342 3.50008C4.10215 3.50008 3.90532 3.58103 3.74293 3.74291C3.58054 3.9048 3.49935 4.10138 3.49935 4.33265C3.49935 4.56392 3.58029 4.76074 3.74218 4.92313C3.90407 5.08552 4.10065 5.16672 4.33192 5.16672Z" fill="#1B1B1B"/>
</svg>
