<svg width="16" height="16" viewBox="0 0 16 16" fill="none" xmlns="http://www.w3.org/2000/svg">
<path d="M3.53586 14.3307C3.20338 14.3307 2.91941 14.213 2.68395 13.9775C2.44847 13.742 2.33073 13.458 2.33073 13.1256V5.6602C2.13501 5.55934 1.97497 5.41596 1.85061 5.23006C1.72625 5.04416 1.66406 4.82985 1.66406 4.58711V2.8692C1.66406 2.53672 1.7818 2.25275 2.01728 2.01728C2.25275 1.7818 2.53672 1.66406 2.8692 1.66406H13.1256C13.458 1.66406 13.742 1.7818 13.9775 2.01728C14.213 2.25275 14.3307 2.53672 14.3307 2.8692V4.58711C14.3307 4.82985 14.2685 5.04416 14.1441 5.23006C14.0198 5.41596 13.8598 5.55934 13.664 5.6602V13.1256C13.664 13.458 13.5463 13.742 13.3108 13.9775C13.0753 14.213 12.7914 14.3307 12.4589 14.3307H3.53586ZM3.33071 5.79223V13.0935C3.33071 13.1619 3.35528 13.2185 3.40443 13.2634C3.45358 13.3083 3.51449 13.3307 3.58715 13.3307H12.4589C12.5187 13.3307 12.5679 13.3115 12.6063 13.273C12.6448 13.2345 12.664 13.1854 12.664 13.1256V5.79223H3.33071ZM2.8692 4.79226H13.1256C13.1854 4.79226 13.2345 4.77303 13.273 4.73456C13.3115 4.6961 13.3307 4.64695 13.3307 4.58711V2.8692C13.3307 2.80936 13.3115 2.76021 13.273 2.72175C13.2345 2.68328 13.1854 2.66405 13.1256 2.66405H2.8692C2.80936 2.66405 2.76021 2.68328 2.72175 2.72175C2.68328 2.76021 2.66405 2.80936 2.66405 2.8692V4.58711C2.66405 4.64695 2.68328 4.6961 2.72175 4.73456C2.76021 4.77303 2.80936 4.79226 2.8692 4.79226ZM6.1256 8.95248H9.86916V7.99738H6.1256V8.95248Z" fill="#1B1B1B"/>
</svg>
