<svg width="16" height="16" viewBox="0 0 16 16" fill="none" xmlns="http://www.w3.org/2000/svg">
<path d="M9.26855 14.0359C9.07673 14.2273 8.83903 14.3231 8.55547 14.3231C8.2719 14.3231 8.03439 14.2273 7.84293 14.0359L1.97627 8.16922C1.87969 8.07264 1.80384 7.96148 1.74872 7.83572C1.69358 7.70998 1.66602 7.57585 1.66602 7.43334V2.66667C1.66602 2.39403 1.76452 2.1592 1.96153 1.9622C2.15853 1.76519 2.39335 1.66669 2.666 1.66669H7.43267C7.57027 1.66669 7.70207 1.69354 7.82808 1.74725C7.9541 1.80095 8.06332 1.87324 8.15573 1.96412L14.0224 7.84105C14.2181 8.03678 14.317 8.27587 14.3192 8.55834C14.3213 8.8408 14.2267 9.07777 14.0352 9.26922L9.26855 14.0359ZM8.55287 13.3333L13.3224 8.56667L7.43553 2.66667H2.666V7.43334L8.55287 13.3333ZM4.33192 5.16665C4.56318 5.16665 4.76001 5.08571 4.9224 4.92382C5.08479 4.76193 5.16598 4.56535 5.16598 4.33409C5.16598 4.10282 5.08504 3.90599 4.92315 3.7436C4.76126 3.58122 4.56468 3.50002 4.33342 3.50002C4.10215 3.50002 3.90532 3.58097 3.74293 3.74285C3.58054 3.90474 3.49935 4.10132 3.49935 4.33259C3.49935 4.56385 3.58029 4.76068 3.74218 4.92307C3.90407 5.08546 4.10065 5.16665 4.33192 5.16665Z" fill="white"/>
</svg>
