<svg width="16" height="16" viewBox="0 0 16 16" fill="none" xmlns="http://www.w3.org/2000/svg">
<path d="M7.4974 11.1679H8.49736V8.50127H11.164V7.5013H8.49736V4.83464H7.4974V7.5013H4.83073V8.50127H7.4974V11.1679ZM7.9985 14.3346C7.12254 14.3346 6.29918 14.1684 5.52843 13.8359C4.75766 13.5035 4.08721 13.0523 3.51706 12.4824C2.94691 11.9125 2.49553 11.2424 2.16295 10.472C1.83036 9.70154 1.66406 8.87836 1.66406 8.0024C1.66406 7.12645 1.83028 6.30309 2.16273 5.53234C2.49517 4.76157 2.94634 4.09111 3.51623 3.52097C4.08613 2.95081 4.75629 2.49944 5.52671 2.16685C6.29712 1.83426 7.12031 1.66797 7.99626 1.66797C8.87222 1.66797 9.69557 1.83419 10.4663 2.16664C11.2371 2.49908 11.9076 2.95025 12.4777 3.52014C13.0479 4.09004 13.4992 4.7602 13.8318 5.53062C14.1644 6.30103 14.3307 7.12421 14.3307 8.00017C14.3307 8.87613 14.1645 9.69948 13.832 10.4702C13.4996 11.241 13.0484 11.9115 12.4785 12.4816C11.9086 13.0518 11.2385 13.5031 10.468 13.8357C9.69764 14.1683 8.87445 14.3346 7.9985 14.3346ZM7.99738 13.3346C9.48627 13.3346 10.7474 12.818 11.7807 11.7846C12.814 10.7513 13.3307 9.49018 13.3307 8.00129C13.3307 6.5124 12.814 5.25129 11.7807 4.21795C10.7474 3.18462 9.48627 2.66795 7.99738 2.66795C6.50849 2.66795 5.24738 3.18462 4.21405 4.21795C3.18071 5.25129 2.66405 6.5124 2.66405 8.00129C2.66405 9.49018 3.18071 10.7513 4.21405 11.7846C5.24738 12.818 6.50849 13.3346 7.99738 13.3346Z" fill="white"/>
</svg>
