<svg width="15" height="16" viewBox="0 0 15 16" fill="none" xmlns="http://www.w3.org/2000/svg">
<path d="M13.9283 9.54267L5.95957 1.57393C4.63145 0.192676 2.45332 0.192676 1.07207 1.5208C-0.30918 2.84893 -0.30918 5.08018 1.07207 6.4083L1.1252 6.46143L2.6127 8.00205L3.35645 7.2583L1.81582 5.71768C0.912695 4.81455 0.912695 3.27393 1.81582 2.3708C2.71895 1.46768 4.25957 1.41455 5.1627 2.31768C5.1627 2.31768 5.1627 2.31768 5.21582 2.3708L13.1314 10.2864C14.0877 11.1895 14.0877 12.7302 13.1846 13.6333C12.2814 14.5895 10.7408 14.5895 9.8377 13.6864C9.8377 13.6864 9.83769 13.6864 9.78457 13.6333L5.85332 9.70205C5.32207 9.1708 5.3752 8.3208 5.85332 7.84268C6.38457 7.36455 7.18145 7.36455 7.7127 7.84268L9.89082 10.0208L10.6346 9.27705L8.40332 7.0458C7.44707 6.14267 5.95957 6.1958 5.05645 7.15205C4.20645 8.05517 4.20645 9.48955 5.05645 10.4458L9.04082 14.4302C10.3689 15.8114 12.5471 15.8114 13.9283 14.4833C15.3096 13.1552 15.3096 10.9239 13.9283 9.54267Z" fill="black"/>
</svg>
