<svg width="17" height="17" viewBox="0 0 17 17" fill="none" xmlns="http://www.w3.org/2000/svg">
<path d="M4.50326 9.03213L6.85714 11.386C6.9552 11.4841 7.00538 11.6074 7.00766 11.7558C7.00992 11.9043 6.95975 12.0298 6.85714 12.1325C6.75452 12.2351 6.63011 12.2864 6.4839 12.2864C6.3377 12.2864 6.21329 12.2351 6.11068 12.1325L2.92727 8.94904C2.86098 8.88276 2.81421 8.81283 2.78696 8.73927C2.75972 8.66572 2.74609 8.58627 2.74609 8.5009C2.74609 8.41553 2.75972 8.33608 2.78696 8.26253C2.81421 8.18897 2.86098 8.11904 2.92727 8.05275L6.11068 4.86935C6.20875 4.77126 6.33202 4.72109 6.4805 4.71882C6.62898 4.71655 6.75452 4.76672 6.85714 4.86935C6.95975 4.97196 7.01106 5.09637 7.01106 5.24257C7.01106 5.38877 6.95975 5.51317 6.85714 5.61579L4.50326 7.96967H13.9895C14.1402 7.96967 14.2665 8.02052 14.3682 8.12222C14.4699 8.22393 14.5207 8.35015 14.5207 8.5009C14.5207 8.65164 14.4699 8.77787 14.3682 8.87957C14.2665 8.98128 14.1402 9.03213 13.9895 9.03213H4.50326Z" fill="#1B1B1B"/>
</svg>
