<svg width="16" height="16" viewBox="0 0 16 16" fill="none" xmlns="http://www.w3.org/2000/svg">
<path d="M0.835938 13.8346V10.8346H1.83594V12.8346H3.83594V13.8346H0.835938ZM12.1693 13.8346V12.8346H14.1693V10.8346H15.1693V13.8346H12.1693ZM2.66927 12.0013V4.00129H4.0026V12.0013H2.66927ZM4.66927 12.0013V4.00129H5.33594V12.0013H4.66927ZM6.66927 12.0013V4.00129H8.0026V12.0013H6.66927ZM8.66927 12.0013V4.00129H10.6693V12.0013H8.66927ZM11.3359 12.0013V4.00129H12.0026V12.0013H11.3359ZM12.6693 12.0013V4.00129H13.3359V12.0013H12.6693ZM0.835938 5.16794V2.16797H3.83594V3.16794H1.83594V5.16794H0.835938ZM14.1693 5.16794V3.16794H12.1693V2.16797H15.1693V5.16794H14.1693Z" fill="#1B1B1B"/>
</svg>
