<svg width="52" height="16" viewBox="0 0 52 16" fill="none" xmlns="http://www.w3.org/2000/svg">
<path d="M1.77734 15.3162V0H3.96534V15.3162H1.77734ZM5.05936 15.3162V0H7.24739V15.3162H5.05936ZM8.3414 15.3162V0H9.43542V15.3162H8.3414ZM11.6234 15.3162V0H13.8114V15.3162H11.6234ZM14.9055 15.3162V0H18.1875V15.3162H14.9055ZM19.2815 15.3162V0H20.3755V15.3162H19.2815ZM22.5635 15.3162V0H25.8456V15.3162H22.5635Z" fill="black"/>
<path d="M25.8457 15.3162V0H28.0337V15.3162H25.8457ZM29.1277 15.3162V0H31.3157V15.3162H29.1277ZM32.4098 15.3162V0H33.5038V15.3162H32.4098ZM35.6918 15.3162V0H37.8798V15.3162H35.6918ZM38.9738 15.3162V0H42.2558V15.3162H38.9738ZM43.3499 15.3162V0H44.4439V15.3162H43.3499ZM46.6319 15.3162V0H49.9139V15.3162H46.6319Z" fill="black"/>
</svg>
