<svg width="16" height="17" viewBox="0 0 16 17" fill="none" xmlns="http://www.w3.org/2000/svg">
<path d="M3.54107 14.8334C3.20432 14.8334 2.91927 14.7167 2.68594 14.4834C2.4526 14.2501 2.33594 13.965 2.33594 13.6283V4.70523C2.33594 4.36847 2.4526 4.08343 2.68594 3.85009C2.91927 3.61676 3.20432 3.50009 3.54107 3.50009H4.46415V2.08984H5.48977V3.50009H10.541V2.08984H11.541V3.50009H12.4641C12.8009 3.50009 13.0859 3.61676 13.3192 3.85009C13.5526 4.08343 13.6692 4.36847 13.6692 4.70523V13.6283C13.6692 13.965 13.5526 14.2501 13.3192 14.4834C13.0859 14.7167 12.8009 14.8334 12.4641 14.8334H3.54107ZM3.54107 13.8334H12.4641C12.5154 13.8334 12.5624 13.812 12.6052 13.7693C12.6479 13.7266 12.6693 13.6795 12.6693 13.6283V7.37189H3.33592V13.6283C3.33592 13.6795 3.35729 13.7266 3.40002 13.7693C3.44277 13.812 3.48978 13.8334 3.54107 13.8334ZM3.33592 6.37191H12.6693V4.70523C12.6693 4.65394 12.6479 4.60692 12.6052 4.56418C12.5624 4.52144 12.5154 4.50008 12.4641 4.50008H3.54107C3.48978 4.50008 3.44277 4.52144 3.40002 4.56418C3.35729 4.60692 3.33592 4.65394 3.33592 4.70523V6.37191Z" fill="#1B1B1B"/>
</svg>
