<svg width="16" height="16" viewBox="0 0 16 16" fill="none" xmlns="http://www.w3.org/2000/svg">
<path d="M1.19922 11.3904C1.19922 11.0468 1.2879 10.7402 1.46525 10.4706C1.6426 10.2009 1.87944 9.9911 2.17579 9.84116C2.80935 9.53127 3.44643 9.29235 4.08702 9.12441C4.72762 8.95646 5.43168 8.87249 6.1992 8.87249C6.96672 8.87249 7.67078 8.95646 8.31137 9.12441C8.95197 9.29235 9.58905 9.53127 10.2226 9.84116C10.519 9.9911 10.7558 10.2009 10.9332 10.4706C11.1105 10.7402 11.1992 11.0468 11.1992 11.3904V11.8596C11.1992 12.128 11.1007 12.3639 10.9037 12.5673C10.7067 12.7707 10.4676 12.8724 10.1864 12.8724H2.21202C1.93083 12.8724 1.69174 12.7739 1.49474 12.5769C1.29774 12.3799 1.19924 12.1408 1.19924 11.8596L1.19922 11.3904ZM13.7889 12.8724H12.2748C12.3586 12.7195 12.4225 12.5566 12.4665 12.384C12.5105 12.2113 12.5325 12.0365 12.5325 11.8596V11.3084C12.5325 10.8708 12.4254 10.4537 12.2111 10.0572C11.9968 9.66071 11.6928 9.3205 11.2992 9.03659C11.7462 9.10326 12.1706 9.20646 12.5723 9.34621C12.974 9.48595 13.3573 9.65112 13.7222 9.84171C14.0667 10.0255 14.3327 10.242 14.5203 10.4914C14.7079 10.7409 14.8017 11.0132 14.8017 11.3084V11.8596C14.8017 12.1408 14.7032 12.3799 14.5062 12.5769C14.3092 12.7739 14.0701 12.8724 13.7889 12.8724ZM6.1992 7.79552C5.55755 7.79552 5.00825 7.56706 4.5513 7.11012C4.09436 6.65318 3.86589 6.10388 3.86589 5.46222C3.86589 4.82056 4.09436 4.27126 4.5513 3.81432C5.00825 3.35738 5.55755 3.12891 6.1992 3.12891C6.84086 3.12891 7.39016 3.35738 7.8471 3.81432C8.30403 4.27126 8.5325 4.82056 8.5325 5.46222C8.5325 6.10388 8.30403 6.65318 7.8471 7.11012C7.39016 7.56706 6.84086 7.79552 6.1992 7.79552ZM11.9556 5.46222C11.9556 6.10388 11.7271 6.65318 11.2701 7.11012C10.8132 7.56706 10.2639 7.79552 9.62224 7.79552C9.54702 7.79552 9.4513 7.78698 9.33507 7.76989C9.21883 7.7528 9.12311 7.734 9.0479 7.71349C9.31081 7.39741 9.51286 7.04676 9.65405 6.66154C9.79524 6.27632 9.86584 5.87628 9.86584 5.46142C9.86584 5.04658 9.79383 4.64813 9.64982 4.26607C9.50581 3.88403 9.30517 3.53232 9.0479 3.21096C9.14362 3.17677 9.23935 3.15455 9.33507 3.14429C9.43079 3.13403 9.52651 3.12891 9.62224 3.12891C10.2639 3.12891 10.8132 3.35738 11.2701 3.81432C11.7271 4.27126 11.9556 4.82056 11.9556 5.46222ZM2.1992 11.8725H10.1992V11.3904C10.1992 11.2511 10.1644 11.1272 10.0947 11.0186C10.0251 10.9101 9.91458 10.8152 9.7633 10.734C9.21458 10.4511 8.64962 10.2368 8.06844 10.091C7.48724 9.94532 6.86416 9.87246 6.1992 9.87246C5.53425 9.87246 4.91117 9.94532 4.32997 10.091C3.74878 10.2368 3.18382 10.4511 2.6351 10.734C2.48382 10.8152 2.37335 10.9101 2.30369 11.0186C2.23403 11.1272 2.1992 11.2511 2.1992 11.3904V11.8725ZM6.1992 6.79556C6.56587 6.79556 6.87976 6.665 7.14087 6.40389C7.40198 6.14278 7.53254 5.82889 7.53254 5.46222C7.53254 5.09556 7.40198 4.78167 7.14087 4.52056C6.87976 4.25945 6.56587 4.12889 6.1992 4.12889C5.83254 4.12889 5.51865 4.25945 5.25754 4.52056C4.99642 4.78167 4.86587 5.09556 4.86587 5.46222C4.86587 5.82889 4.99642 6.14278 5.25754 6.40389C5.51865 6.665 5.83254 6.79556 6.1992 6.79556Z" fill="#1B1B1B"/>
</svg>
