<svg width="16" height="16" viewBox="0 0 16 16" fill="none" xmlns="http://www.w3.org/2000/svg">
<path d="M11.333 10.5435C10.8415 10.5435 10.4238 10.3715 10.0798 10.0275C9.73578 9.68351 9.56377 9.26578 9.56377 8.77433C9.56377 8.28289 9.73578 7.86515 10.0798 7.52113C10.4238 7.17712 10.8415 7.00511 11.333 7.00511C11.8244 7.00511 12.2422 7.17712 12.5862 7.52113C12.9302 7.86515 13.1022 8.28289 13.1022 8.77433C13.1022 9.26578 12.9302 9.68351 12.5862 10.0275C12.2422 10.3715 11.8244 10.5435 11.333 10.5435ZM11.333 9.54356C11.5475 9.54356 11.7294 9.46899 11.8785 9.31985C12.0277 9.1707 12.1022 8.98886 12.1022 8.77433C12.1022 8.5598 12.0277 8.37796 11.8785 8.22882C11.7294 8.07967 11.5475 8.0051 11.333 8.0051C11.1185 8.0051 10.9366 8.07967 10.7875 8.22882C10.6383 8.37796 10.5638 8.5598 10.5638 8.77433C10.5638 8.98886 10.6383 9.1707 10.7875 9.31985C10.9366 9.46899 11.1185 9.54356 11.333 9.54356ZM8.16634 14.8448C7.99561 14.8448 7.8525 14.7871 7.73701 14.6716C7.62152 14.5561 7.56377 14.413 7.56377 14.2422V13.1422C7.56377 12.9492 7.60977 12.7677 7.70176 12.5977C7.79376 12.4276 7.92255 12.2921 8.08812 12.191C8.41804 11.9927 8.69987 11.854 8.93364 11.775C9.1674 11.6959 9.47531 11.6246 9.85737 11.5612C9.98129 11.54 10.1035 11.5426 10.224 11.5688C10.3445 11.5951 10.4449 11.6555 10.5253 11.75L11.333 12.7487L12.124 11.75C12.2044 11.6474 12.3048 11.585 12.4253 11.5628C12.5458 11.5406 12.6686 11.54 12.7935 11.5612C13.1788 11.6246 13.4869 11.6957 13.7177 11.7743C13.9485 11.8529 14.2318 11.9918 14.5676 12.191C14.7334 12.2918 14.8629 12.4269 14.9561 12.5961C15.0492 12.7653 15.0979 12.9452 15.1022 13.1358V14.2422C15.1022 14.413 15.0445 14.5561 14.929 14.6716C14.8135 14.7871 14.6704 14.8448 14.4996 14.8448H8.16634ZM8.54709 13.8448H10.924L9.88941 12.5269C9.65391 12.5865 9.42495 12.664 9.20252 12.7594C8.9801 12.8548 8.76162 12.961 8.54709 13.0781V13.8448ZM11.7419 13.8448H14.1022V13.0781C13.8945 12.9542 13.6795 12.8474 13.4571 12.7576C13.2346 12.6679 13.0057 12.5931 12.7702 12.5333L11.7419 13.8448ZM3.33299 12.6653V3.33201V5.69228V5.41535V12.6653ZM3.54119 13.6653C3.20668 13.6653 2.92169 13.5473 2.68622 13.3113C2.45075 13.0753 2.33301 12.7916 2.33301 12.4602V3.53717C2.33301 3.20575 2.45101 2.92205 2.68702 2.68605C2.92302 2.45004 3.20673 2.33203 3.53814 2.33203H12.4612C12.7926 2.33203 13.0763 2.45004 13.3123 2.68605C13.5483 2.92205 13.6663 3.20575 13.6663 3.53717V6.43457C13.527 6.27644 13.3785 6.12837 13.2208 5.99035C13.0631 5.85231 12.8783 5.75638 12.6663 5.70253V3.53717C12.6663 3.47733 12.6471 3.42818 12.6086 3.38971C12.5702 3.35125 12.521 3.33201 12.4612 3.33201H3.53814C3.47831 3.33201 3.42916 3.35125 3.39069 3.38971C3.35222 3.42818 3.33299 3.47733 3.33299 3.53717V12.4602C3.33299 12.52 3.35222 12.5692 3.39069 12.6076C3.42916 12.6461 3.47831 12.6653 3.53814 12.6653H6.03556C6.01504 12.7448 5.99965 12.8243 5.98939 12.9038C5.97914 12.9833 5.97401 13.0628 5.97401 13.1422V13.6653H3.54119ZM5.33299 5.90893H9.64071C9.86549 5.75082 10.1084 5.6333 10.3695 5.55638C10.6306 5.47946 10.8962 5.43673 11.1663 5.42818V5.40895C11.1663 5.26728 11.1184 5.14853 11.0226 5.0527C10.9267 4.95687 10.808 4.90895 10.6663 4.90895H5.33299C5.19132 4.90895 5.07258 4.95689 4.97676 5.05276C4.88092 5.14864 4.83301 5.26744 4.83301 5.40917C4.83301 5.5509 4.88092 5.66963 4.97676 5.76535C5.07258 5.86107 5.19132 5.90893 5.33299 5.90893ZM5.33299 8.49866H8.00607C8.01462 8.3209 8.03855 8.14975 8.07786 7.98521C8.11718 7.82069 8.16846 7.65852 8.23171 7.4987H5.33299C5.19132 7.4987 5.07258 7.54663 4.97676 7.6425C4.88092 7.73838 4.83301 7.85718 4.83301 7.9989C4.83301 8.14063 4.88092 8.25936 4.97676 8.35508C5.07258 8.4508 5.19132 8.49866 5.33299 8.49866ZM5.33299 11.0884H6.91446C7.03279 10.9927 7.15713 10.9049 7.28747 10.8249C7.41782 10.745 7.55094 10.6739 7.68682 10.6115V10.4987C7.68682 10.3893 7.65777 10.2936 7.59966 10.2115C7.54154 10.1295 7.43385 10.0884 7.27659 10.0884H5.33299C5.19132 10.0884 5.07258 10.1364 4.97676 10.2322C4.88092 10.3281 4.83301 10.4469 4.83301 10.5886C4.83301 10.7304 4.88092 10.8491 4.97676 10.9448C5.07258 11.0405 5.19132 11.0884 5.33299 11.0884Z" fill="#1B1B1B"/>
</svg>
