<svg width="16" height="16" viewBox="0 0 16 16" fill="none" xmlns="http://www.w3.org/2000/svg">
<path d="M8.49935 5.83333V6.66668C8.49935 6.80835 8.54728 6.9271 8.64315 7.02293C8.73903 7.11875 8.85783 7.16667 8.99955 7.16667C9.14128 7.16667 9.26001 7.11875 9.35573 7.02293C9.45145 6.9271 9.49932 6.80835 9.49932 6.66668V5.83333H10.3327C10.4743 5.83333 10.5931 5.7854 10.6889 5.68953C10.7847 5.59365 10.8327 5.47485 10.8327 5.33313C10.8327 5.1914 10.7847 5.07267 10.6889 4.97695C10.5931 4.88123 10.4743 4.83336 10.3327 4.83336H9.49932V4.00001C9.49932 3.85835 9.45138 3.7396 9.35552 3.64376C9.25964 3.54794 9.14084 3.50003 8.99912 3.50003C8.85738 3.50003 8.73866 3.54794 8.64293 3.64376C8.54721 3.7396 8.49935 3.85835 8.49935 4.00001V4.83336H7.666C7.52433 4.83336 7.40559 4.8813 7.30977 4.97716C7.21393 5.07304 7.16602 5.19184 7.16602 5.33356C7.16602 5.4753 7.21393 5.59403 7.30977 5.68975C7.40559 5.78547 7.52433 5.83333 7.666 5.83333H8.49935ZM7.666 9.83333H10.3327C10.4743 9.83333 10.5931 9.7854 10.6889 9.68953C10.7847 9.59365 10.8327 9.47485 10.8327 9.33313C10.8327 9.1914 10.7847 9.07267 10.6889 8.97695C10.5931 8.88123 10.4743 8.83336 10.3327 8.83336H7.666C7.52433 8.83336 7.40559 8.8813 7.30977 8.97716C7.21393 9.07304 7.16602 9.19184 7.16602 9.33356C7.16602 9.4753 7.21393 9.59403 7.30977 9.68975C7.40559 9.78547 7.52433 9.83333 7.666 9.83333ZM5.53782 12.3333C5.20106 12.3333 4.91602 12.2167 4.68268 11.9833C4.44935 11.75 4.33268 11.465 4.33268 11.1282V2.20516C4.33268 1.86841 4.44935 1.58336 4.68268 1.35003C4.91602 1.1167 5.20106 1.00003 5.53782 1.00003H9.6673C9.82988 1.00003 9.98484 1.03123 10.1322 1.09363C10.2795 1.15602 10.4079 1.24191 10.5173 1.35131L13.3147 4.14871C13.4241 4.25813 13.51 4.3865 13.5724 4.53383C13.6348 4.68118 13.666 4.83614 13.666 4.99871V11.1282C13.666 11.465 13.5493 11.75 13.316 11.9833C13.0827 12.2167 12.7976 12.3333 12.4608 12.3333H5.53782ZM5.53782 11.3333H12.4608C12.5121 11.3333 12.5592 11.312 12.6019 11.2692C12.6446 11.2265 12.666 11.1795 12.666 11.1282V5L9.66602 2.00001H5.53782C5.48653 2.00001 5.43951 2.02138 5.39677 2.06411C5.35403 2.10686 5.33267 2.15388 5.33267 2.20516V11.1282C5.33267 11.1795 5.35403 11.2265 5.39677 11.2692C5.43951 11.312 5.48653 11.3333 5.53782 11.3333ZM2.87115 15C2.53439 15 2.24935 14.8833 2.01602 14.65C1.78268 14.4167 1.66602 14.1316 1.66602 13.7949V5.50003C1.66602 5.35836 1.71395 5.23961 1.80983 5.14378C1.90571 5.04795 2.02451 5.00003 2.16623 5.00003C2.30797 5.00003 2.42669 5.04795 2.52242 5.14378C2.61814 5.23961 2.666 5.35836 2.666 5.50003V13.7949C2.666 13.8462 2.68737 13.8932 2.7301 13.9359C2.77284 13.9786 2.81986 14 2.87115 14H9.16598C9.30765 14 9.4264 14.048 9.52223 14.1438C9.61807 14.2397 9.66598 14.3585 9.66598 14.5002C9.66598 14.642 9.61807 14.7607 9.52223 14.8564C9.4264 14.9521 9.30765 15 9.16598 15L2.87115 15Z" fill="white"/>
</svg>
