<svg width="16" height="16" viewBox="0 0 16 16" fill="none" xmlns="http://www.w3.org/2000/svg">
<path d="M8.49935 5.8333V6.66665C8.49935 6.80832 8.54728 6.92707 8.64315 7.0229C8.73903 7.11872 8.85783 7.16663 8.99955 7.16663C9.14128 7.16663 9.26001 7.11872 9.35573 7.0229C9.45145 6.92707 9.49932 6.80832 9.49932 6.66665V5.8333H10.3327C10.4743 5.8333 10.5931 5.78537 10.6889 5.6895C10.7847 5.59362 10.8327 5.47482 10.8327 5.3331C10.8327 5.19137 10.7847 5.07264 10.6889 4.97692C10.5931 4.8812 10.4743 4.83333 10.3327 4.83333H9.49932V3.99998C9.49932 3.85832 9.45138 3.73957 9.35552 3.64373C9.25964 3.54791 9.14084 3.5 8.99912 3.5C8.85738 3.5 8.73866 3.54791 8.64293 3.64373C8.54721 3.73957 8.49935 3.85832 8.49935 3.99998V4.83333H7.666C7.52433 4.83333 7.40559 4.88127 7.30977 4.97713C7.21393 5.07301 7.16602 5.19181 7.16602 5.33353C7.16602 5.47527 7.21393 5.59399 7.30977 5.68972C7.40559 5.78544 7.52433 5.8333 7.666 5.8333H8.49935ZM7.666 9.8333H10.3327C10.4743 9.8333 10.5931 9.78537 10.6889 9.6895C10.7847 9.59362 10.8327 9.47482 10.8327 9.3331C10.8327 9.19137 10.7847 9.07264 10.6889 8.97692C10.5931 8.8812 10.4743 8.83333 10.3327 8.83333H7.666C7.52433 8.83333 7.40559 8.88127 7.30977 8.97713C7.21393 9.07301 7.16602 9.19181 7.16602 9.33353C7.16602 9.47527 7.21393 9.594 7.30977 9.68972C7.40559 9.78544 7.52433 9.8333 7.666 9.8333ZM5.53782 12.3333C5.20106 12.3333 4.91602 12.2166 4.68268 11.9833C4.44935 11.75 4.33268 11.4649 4.33268 11.1282V2.20513C4.33268 1.86838 4.44935 1.58333 4.68268 1.35C4.91602 1.11667 5.20106 1 5.53782 1H9.6673C9.82988 1 9.98484 1.0312 10.1322 1.0936C10.2795 1.15599 10.4079 1.24188 10.5173 1.35128L13.3147 4.14868C13.4241 4.2581 13.51 4.38647 13.5724 4.5338C13.6348 4.68114 13.666 4.83611 13.666 4.99868V11.1282C13.666 11.4649 13.5493 11.75 13.316 11.9833C13.0827 12.2166 12.7976 12.3333 12.4608 12.3333H5.53782ZM5.53782 11.3333H12.4608C12.5121 11.3333 12.5592 11.312 12.6019 11.2692C12.6446 11.2265 12.666 11.1795 12.666 11.1282V4.99997L9.66602 1.99998H5.53782C5.48653 1.99998 5.43951 2.02135 5.39677 2.06408C5.35403 2.10683 5.33267 2.15385 5.33267 2.20513V11.1282C5.33267 11.1795 5.35403 11.2265 5.39677 11.2692C5.43951 11.312 5.48653 11.3333 5.53782 11.3333ZM2.87115 15C2.53439 15 2.24935 14.8833 2.01602 14.65C1.78268 14.4166 1.66602 14.1316 1.66602 13.7948V5.5C1.66602 5.35833 1.71395 5.23958 1.80983 5.14375C1.90571 5.04792 2.02451 5 2.16623 5C2.30797 5 2.42669 5.04792 2.52242 5.14375C2.61814 5.23958 2.666 5.35833 2.666 5.5V13.7948C2.666 13.8461 2.68737 13.8931 2.7301 13.9359C2.77284 13.9786 2.81986 14 2.87115 14H9.16598C9.30765 14 9.4264 14.0479 9.52223 14.1438C9.61807 14.2397 9.66598 14.3585 9.66598 14.5002C9.66598 14.6419 9.61807 14.7606 9.52223 14.8564C9.4264 14.9521 9.30765 15 9.16598 15L2.87115 15Z" fill="#1B1B1B"/>
</svg>
