<svg width="38" height="26" viewBox="0 0 38 26" fill="none" xmlns="http://www.w3.org/2000/svg">
<rect width="38" height="26" rx="6" fill="#F3F4F8"/>
<path d="M19.0004 13.7907L15.1955 17.5955C15.0917 17.6994 14.9612 17.7525 14.804 17.7549C14.6468 17.7573 14.5138 17.7042 14.4052 17.5955C14.2965 17.4869 14.2422 17.3552 14.2422 17.2004C14.2422 17.0456 14.2965 16.9138 14.4052 16.8052L18.21 13.0004L14.4052 9.19553C14.3013 9.09169 14.2482 8.96117 14.2458 8.80396C14.2434 8.64676 14.2965 8.51383 14.4052 8.40518C14.5138 8.29652 14.6456 8.24219 14.8004 8.24219C14.9552 8.24219 15.0869 8.29652 15.1955 8.40518L19.0004 12.21L22.8052 8.40518C22.909 8.30133 23.0395 8.24821 23.1968 8.24581C23.354 8.24339 23.4869 8.29652 23.5955 8.40518C23.7042 8.51383 23.7585 8.64556 23.7585 8.80036C23.7585 8.95516 23.7042 9.08688 23.5955 9.19553L19.7907 13.0004L23.5955 16.8052C23.6994 16.909 23.7525 17.0395 23.7549 17.1968C23.7573 17.354 23.7042 17.4869 23.5955 17.5955C23.4869 17.7042 23.3552 17.7585 23.2004 17.7585C23.0456 17.7585 22.9138 17.7042 22.8052 17.5955L19.0004 13.7907Z" fill="#1B1B1B"/>
</svg>
