<svg width="16" height="16" viewBox="0 0 16 16" fill="none" xmlns="http://www.w3.org/2000/svg">
<circle cx="8" cy="8" r="8" fill="#F3F4F8"/>
<path d="M8.00177 5.99918C8.09201 5.99918 8.17601 6.01358 8.25376 6.04239C8.33152 6.07119 8.40544 6.12063 8.47552 6.19071L11.8408 9.55599C11.9445 9.65966 11.9975 9.78998 11.9999 9.94694C12.0023 10.1039 11.9493 10.2366 11.8408 10.3451C11.7323 10.4536 11.6008 10.5078 11.4463 10.5078C11.2917 10.5078 11.1602 10.4536 11.0517 10.3451L8.00177 7.29515L4.95182 10.3451C4.84815 10.4488 4.71783 10.5018 4.56087 10.5042C4.40392 10.5066 4.27121 10.4536 4.16273 10.3451C4.05424 10.2366 4 10.1051 4 9.95053C4 9.79598 4.05424 9.66447 4.16273 9.55599L7.52802 6.19071C7.59809 6.12063 7.67201 6.07119 7.74978 6.04239C7.82753 6.01358 7.91152 5.99918 8.00177 5.99918Z" fill="black"/>
</svg>
