<svg width="12" height="12" viewBox="0 0 12 12" fill="none" xmlns="http://www.w3.org/2000/svg">
<path d="M3.53845 6.8846C3.66088 6.8846 3.76521 6.84149 3.85142 6.75526C3.93764 6.66905 3.98075 6.56472 3.98075 6.44229C3.98075 6.31985 3.93764 6.21553 3.85142 6.12931C3.76521 6.0431 3.66088 5.99999 3.53845 5.99999C3.41602 5.99999 3.31169 6.0431 3.22548 6.12931C3.13926 6.21553 3.09615 6.31985 3.09615 6.44229C3.09615 6.56472 3.13926 6.66905 3.22548 6.75526C3.31169 6.84149 3.41602 6.8846 3.53845 6.8846ZM3.53845 5.44229C3.66088 5.44229 3.76521 5.39918 3.85142 5.31296C3.93764 5.22675 3.98075 5.12242 3.98075 4.99999C3.98075 4.87755 3.93764 4.77323 3.85142 4.68701C3.76521 4.6008 3.66088 4.55769 3.53845 4.55769C3.41602 4.55769 3.31169 4.6008 3.22548 4.68701C3.13926 4.77323 3.09615 4.87755 3.09615 4.99999C3.09615 5.12242 3.13926 5.22675 3.22548 5.31296C3.31169 5.39918 3.41602 5.44229 3.53845 5.44229ZM3.53845 3.99999C3.66088 3.99999 3.76521 3.95688 3.85142 3.87066C3.93764 3.78445 3.98075 3.68012 3.98075 3.55769C3.98075 3.43525 3.93764 3.33093 3.85142 3.24471C3.76521 3.15849 3.66088 3.11538 3.53845 3.11538C3.41602 3.11538 3.31169 3.15849 3.22548 3.24471C3.13926 3.33093 3.09615 3.43525 3.09615 3.55769C3.09615 3.68012 3.13926 3.78445 3.22548 3.87066C3.31169 3.95688 3.41602 3.99999 3.53845 3.99999ZM5.43268 6.81729H6.99999C7.1064 6.81729 7.1955 6.78139 7.26729 6.70959C7.33908 6.6378 7.37498 6.5487 7.37498 6.44229C7.37498 6.33588 7.33908 6.24678 7.26729 6.17499C7.1955 6.1032 7.1064 6.0673 6.99999 6.0673H5.43268C5.32627 6.0673 5.23717 6.1032 5.16537 6.17499C5.09358 6.24678 5.05769 6.33588 5.05769 6.44229C5.05769 6.5487 5.09358 6.6378 5.16537 6.70959C5.23717 6.78139 5.32627 6.81729 5.43268 6.81729ZM5.43268 5.37498H8.49999C8.6064 5.37498 8.6955 5.33908 8.76729 5.26729C8.83908 5.1955 8.87498 5.1064 8.87498 4.99999C8.87498 4.89358 8.83908 4.80448 8.76729 4.73269C8.6955 4.6609 8.6064 4.625 8.49999 4.625H5.43268C5.32627 4.625 5.23717 4.6609 5.16537 4.73269C5.09358 4.80448 5.05769 4.89358 5.05769 4.99999C5.05769 5.1064 5.09358 5.1955 5.16537 5.26729C5.23717 5.33908 5.32627 5.37498 5.43268 5.37498ZM5.43268 3.93268H8.49999C8.6064 3.93268 8.6955 3.89678 8.76729 3.82499C8.83908 3.7532 8.87498 3.6641 8.87498 3.55769C8.87498 3.45128 8.83908 3.36218 8.76729 3.29039C8.6955 3.21859 8.6064 3.18269 8.49999 3.18269H5.43268C5.32627 3.18269 5.23717 3.21859 5.16537 3.29039C5.09358 3.36218 5.05769 3.45128 5.05769 3.55769C5.05769 3.6641 5.09358 3.7532 5.16537 3.82499C5.23717 3.89678 5.32627 3.93268 5.43268 3.93268ZM3.01923 8.74998L2.01828 9.75093C1.87597 9.89323 1.71235 9.92543 1.52741 9.84755C1.34247 9.76967 1.25 9.62945 1.25 9.42689V2.15385C1.25 1.90128 1.3375 1.6875 1.5125 1.5125C1.6875 1.3375 1.90128 1.25 2.15385 1.25H9.84613C10.0987 1.25 10.3125 1.3375 10.4875 1.5125C10.6625 1.6875 10.75 1.90128 10.75 2.15385V7.84613C10.75 8.09869 10.6625 8.31248 10.4875 8.48748C10.3125 8.66248 10.0987 8.74998 9.84613 8.74998H3.01923ZM2.7 7.99999H9.84613C9.88459 7.99999 9.91986 7.98396 9.95191 7.95191C9.98396 7.91985 9.99999 7.88459 9.99999 7.84613V2.15385C9.99999 2.11538 9.98396 2.08012 9.95191 2.04806C9.91986 2.01601 9.88459 1.99999 9.84613 1.99999H2.15385C2.11538 1.99999 2.08012 2.01601 2.04806 2.04806C2.01601 2.08012 1.99999 2.11538 1.99999 2.15385V8.6923L2.7 7.99999Z" fill="#F3F4F8"/>
</svg>
