<svg width="12" height="12" viewBox="0 0 12 12" fill="none" xmlns="http://www.w3.org/2000/svg">
<path d="M3.5365 6.8846C3.65893 6.8846 3.76326 6.84149 3.84947 6.75526C3.93569 6.66905 3.9788 6.56472 3.9788 6.44229C3.9788 6.31985 3.93569 6.21553 3.84947 6.12931C3.76326 6.0431 3.65893 5.99999 3.5365 5.99999C3.41406 5.99999 3.30974 6.0431 3.22352 6.12931C3.13731 6.21553 3.0942 6.31985 3.0942 6.44229C3.0942 6.56472 3.13731 6.66905 3.22352 6.75526C3.30974 6.84149 3.41406 6.8846 3.5365 6.8846ZM3.5365 5.44229C3.65893 5.44229 3.76326 5.39918 3.84947 5.31296C3.93569 5.22675 3.9788 5.12242 3.9788 4.99999C3.9788 4.87755 3.93569 4.77323 3.84947 4.68701C3.76326 4.6008 3.65893 4.55769 3.5365 4.55769C3.41406 4.55769 3.30974 4.6008 3.22352 4.68701C3.13731 4.77323 3.0942 4.87755 3.0942 4.99999C3.0942 5.12242 3.13731 5.22675 3.22352 5.31296C3.30974 5.39918 3.41406 5.44229 3.5365 5.44229ZM3.5365 3.99999C3.65893 3.99999 3.76326 3.95688 3.84947 3.87066C3.93569 3.78445 3.9788 3.68012 3.9788 3.55769C3.9788 3.43525 3.93569 3.33093 3.84947 3.24471C3.76326 3.15849 3.65893 3.11538 3.5365 3.11538C3.41406 3.11538 3.30974 3.15849 3.22352 3.24471C3.13731 3.33093 3.0942 3.43525 3.0942 3.55769C3.0942 3.68012 3.13731 3.78445 3.22352 3.87066C3.30974 3.95688 3.41406 3.99999 3.5365 3.99999ZM5.43072 6.81729H6.99803C7.10444 6.81729 7.19354 6.78139 7.26533 6.70959C7.33713 6.6378 7.37302 6.5487 7.37302 6.44229C7.37302 6.33588 7.33713 6.24678 7.26533 6.17499C7.19354 6.1032 7.10444 6.0673 6.99803 6.0673H5.43072C5.32431 6.0673 5.23521 6.1032 5.16342 6.17499C5.09163 6.24678 5.05573 6.33588 5.05573 6.44229C5.05573 6.5487 5.09163 6.6378 5.16342 6.70959C5.23521 6.78139 5.32431 6.81729 5.43072 6.81729ZM5.43072 5.37498H8.49804C8.60444 5.37498 8.69354 5.33908 8.76533 5.26729C8.83713 5.1955 8.87302 5.1064 8.87302 4.99999C8.87302 4.89358 8.83713 4.80448 8.76533 4.73269C8.69354 4.6609 8.60444 4.625 8.49804 4.625H5.43072C5.32431 4.625 5.23521 4.6609 5.16342 4.73269C5.09163 4.80448 5.05573 4.89358 5.05573 4.99999C5.05573 5.1064 5.09163 5.1955 5.16342 5.26729C5.23521 5.33908 5.32431 5.37498 5.43072 5.37498ZM5.43072 3.93268H8.49804C8.60444 3.93268 8.69354 3.89678 8.76533 3.82499C8.83713 3.7532 8.87302 3.6641 8.87302 3.55769C8.87302 3.45128 8.83713 3.36218 8.76533 3.29039C8.69354 3.21859 8.60444 3.18269 8.49804 3.18269H5.43072C5.32431 3.18269 5.23521 3.21859 5.16342 3.29039C5.09163 3.36218 5.05573 3.45128 5.05573 3.55769C5.05573 3.6641 5.09163 3.7532 5.16342 3.82499C5.23521 3.89678 5.32431 3.93268 5.43072 3.93268ZM3.01727 8.74998L2.01632 9.75093C1.87401 9.89323 1.71039 9.92543 1.52546 9.84755C1.34052 9.76967 1.24805 9.62945 1.24805 9.42689V2.15385C1.24805 1.90128 1.33555 1.6875 1.51055 1.5125C1.68555 1.3375 1.89933 1.25 2.1519 1.25H9.84417C10.0967 1.25 10.3105 1.3375 10.4855 1.5125C10.6605 1.6875 10.748 1.90128 10.748 2.15385V7.84613C10.748 8.09869 10.6605 8.31248 10.4855 8.48748C10.3105 8.66248 10.0967 8.74998 9.84417 8.74998H3.01727ZM2.69805 7.99999H9.84417C9.88264 7.99999 9.9179 7.98396 9.94996 7.95191C9.98201 7.91985 9.99804 7.88459 9.99804 7.84613V2.15385C9.99804 2.11538 9.98201 2.08012 9.94996 2.04806C9.9179 2.01601 9.88264 1.99999 9.84417 1.99999H2.1519C2.11343 1.99999 2.07817 2.01601 2.04611 2.04806C2.01406 2.08012 1.99803 2.11538 1.99803 2.15385V8.6923L2.69805 7.99999Z" fill="#1B1B1B"/>
</svg>
