<svg width="382" height="300" viewBox="0 0 382 300" fill="none" xmlns="http://www.w3.org/2000/svg">
<path d="M310.82 104.704L369.509 87.134L344.055 65.4403L349.507 9.86375L284.735 65.6076L310.82 104.704Z" fill="url(#paint0_linear_12_4)"/>
<path d="M310.82 104.704L369.509 87.134L344.055 65.4403L349.507 9.86375L284.735 65.6076L310.82 104.704Z" fill="black" fill-opacity="0.25"/>
<path d="M63.6354 184.386L4.33911 220.216L38.144 233.179L36.9434 269.254L67.5371 232.333L63.6354 184.386Z" fill="url(#paint1_linear_12_4)"/>
<path d="M63.6354 184.386L4.33911 220.216L38.144 233.179L36.9434 269.254L67.5371 232.333L63.6354 184.386Z" fill="black" fill-opacity="0.25"/>
<g filter="url(#filter0_d_12_4)">
<path d="M35.8922 187.618L316.5 30L325 97.0001L56.8826 248.548L35.8922 187.618Z" fill="#FCAE18"/>
<path d="M35.8922 187.618L316.5 30L325 97.0001L56.8826 248.548L35.8922 187.618Z" fill="url(#paint2_linear_12_4)"/>
</g>
<path d="M73.9677 208.045C74.5646 208.116 75.0509 208.484 75.4265 209.151C75.793 209.802 75.9627 210.445 75.9356 211.082C75.9156 211.693 75.73 212.333 75.3785 213.003C74.6219 214.436 73.2027 215.739 71.1209 216.911C69.0554 218.075 67.1511 218.441 65.408 218.009C63.672 217.551 62.2634 216.363 61.1823 214.444C59.6523 211.728 59.0131 208.938 59.2645 206.076C59.4767 203.942 60.3591 202.01 61.9118 200.278C62.7206 199.394 63.613 198.677 64.5888 198.127C65.5646 197.578 66.3901 197.198 67.0651 196.989C67.7402 196.781 68.3787 196.678 68.9806 196.682C70.2934 196.692 71.2063 197.153 71.7193 198.063C72.1866 198.893 72.2039 199.836 71.7714 200.894C71.3673 201.85 70.8725 202.493 70.287 202.823C69.7015 203.153 69.2639 203.346 68.9741 203.402C68.7094 202.78 68.4716 202.282 68.2609 201.908C68.041 201.517 67.8451 201.189 67.6731 200.921C67.5011 200.654 67.3011 200.413 67.0732 200.199C66.5716 199.688 66.0687 199.575 65.5645 199.859C65.0766 200.134 64.7134 200.65 64.4749 201.405C64.2435 202.135 64.1363 203.01 64.1532 204.029C64.1922 206.342 64.8027 208.548 65.9845 210.646C66.5526 211.654 67.2861 212.291 68.1851 212.556C69.075 212.804 70.1299 212.585 71.3497 211.898C72.2604 211.385 72.9773 210.585 73.5003 209.497C73.7278 209.026 73.8836 208.542 73.9677 208.045ZM77.9445 204.616C76.213 201.542 75.599 198.588 76.1026 195.755C76.6122 192.704 78.3389 190.35 81.2826 188.691C83.4132 187.491 85.3083 187.109 86.9681 187.545C88.6187 187.965 90.0578 189.265 91.2854 191.444C93.1544 194.762 93.7883 197.865 93.1871 200.753C92.5838 203.6 90.8754 205.816 88.0618 207.4C85.8662 208.637 83.9248 209.013 82.2375 208.528C80.5574 208.018 79.1264 206.714 77.9445 204.616ZM81.5159 195.951C82.4331 199.291 83.5422 202.116 84.8432 204.425C85.1547 204.978 85.5006 205.383 85.8811 205.64C86.2778 205.888 86.7201 205.875 87.208 205.6C87.7122 205.316 88.0547 204.973 88.2354 204.571C88.407 204.153 88.4636 203.607 88.4052 202.933C88.3008 201.835 87.9053 200.258 87.2187 198.202C86.5392 196.121 86.0004 194.689 85.6023 193.907C85.1951 193.108 84.8266 192.415 84.4967 191.83C84.1669 191.244 83.8072 190.815 83.4176 190.542C83.028 190.268 82.5892 190.269 82.1013 190.544C81.6296 190.81 81.3136 191.181 81.1533 191.656C80.863 192.548 80.9839 193.98 81.5159 195.951ZM99.5447 200.289L93.4021 182.539L98.6472 179.584L108.692 188.516L104.478 176.3L107.199 174.799L113.279 192.552L107.693 195.699L98.1744 187.017L102.228 198.778L99.5447 200.289ZM128.468 173.07C128.745 176.299 129.721 179.402 131.398 182.378C131.133 182.934 130.675 183.396 130.024 183.762C129.39 184.12 128.783 184.258 128.202 184.178C127.63 184.115 127.217 183.951 126.962 183.688C126.793 184.34 126.444 184.976 125.915 185.595C125.402 186.206 124.796 186.708 124.096 187.102C123.397 187.496 122.674 187.753 121.928 187.873C121.198 187.985 120.455 187.921 119.699 187.683C118.035 187.163 116.612 185.854 115.431 183.756C113.598 180.503 113.003 177.411 113.643 174.479C114.296 171.455 116.209 169.049 119.38 167.263C121.576 166.026 123.384 165.757 124.806 166.455C125.252 166.676 125.598 167.006 125.846 167.445C126.084 167.867 126.211 168.321 126.226 168.805C126.249 169.264 126.196 169.722 126.069 170.179C125.736 171.224 125.138 171.989 124.276 172.474C123.935 172.667 123.569 172.798 123.18 172.867C122.97 172.342 122.705 171.796 122.384 171.226C122.063 170.657 121.805 170.256 121.61 170.023C121.431 169.782 121.233 169.582 121.016 169.426C120.558 169.106 120.092 169.079 119.621 169.344C119.165 169.601 118.819 170.128 118.583 170.925C118.354 171.697 118.265 172.604 118.316 173.646C118.448 175.972 119.132 178.232 120.369 180.428C120.937 181.436 121.618 182.188 122.411 182.684C123.274 183.227 124.079 183.287 124.827 182.866C125.087 182.719 125.295 182.517 125.449 182.258C125.62 181.991 125.726 181.781 125.769 181.628L123.787 176.285L128.468 173.07ZM135.586 179.987L129.534 162.282C131.043 161.196 132.969 159.994 135.311 158.674C137.669 157.346 139.585 156.716 141.06 156.785C142.534 156.855 143.661 157.581 144.439 158.963C145.209 160.329 145.479 161.645 145.249 162.91C145.035 164.166 144.396 165.276 143.332 166.239C144.369 167.433 145.511 168.397 146.76 169.129C147.922 169.824 148.937 170.141 149.803 170.082C149.944 170.902 149.845 171.601 149.505 172.178C149.192 172.762 148.677 173.255 147.961 173.658C147.262 174.052 146.521 174.202 145.739 174.106C144.948 173.995 144.118 173.681 143.248 173.164C141.386 172.027 139.669 170.177 138.097 167.614L138.267 167.517C139.453 166.807 140.172 165.973 140.426 165.016C140.67 164.043 140.421 162.898 139.679 161.58C138.754 159.938 137.582 159.473 136.163 160.187L135.626 160.489C135.48 160.572 135.37 160.644 135.298 160.706L140.807 177.046L135.586 179.987ZM164.859 164.139C162.777 165.312 160.805 164.473 158.943 161.623L154.747 163.987C154.843 164.918 154.96 165.773 155.099 166.552L155.509 168.764L152.094 170.687L150.708 150.258L155.953 147.303L163.657 158.582C164.781 160.198 165.811 161.075 166.746 161.213C166.805 162.422 166.176 163.397 164.859 164.139ZM154.5 161.78L157.866 159.884L154.042 153.779L153.671 153.12L154.096 157.926L154.5 161.78ZM164.939 147.801C164.148 147.689 163.501 147.186 162.997 146.292C162.484 145.381 162.387 144.525 162.707 143.723C163.043 142.913 163.723 142.219 164.748 141.642C165.399 141.275 166.56 140.771 168.234 140.128L170.03 139.438C170.62 139.191 171.199 138.908 171.768 138.587C172.354 138.257 172.773 137.86 173.026 137.396C173.905 137.587 174.555 138.056 174.976 138.805C175.398 139.553 175.426 140.383 175.062 141.295C174.699 142.249 174.079 142.974 173.201 143.468C172.778 143.707 172.193 143.961 171.445 144.232C172.059 147.186 172.857 149.532 173.837 151.273C174.817 153.013 176.003 154.091 177.394 154.507C177.4 155.468 177.18 156.256 176.734 156.872C176.297 157.503 175.623 158.076 174.712 158.589C173.818 159.093 172.948 159.261 172.104 159.094C171.267 158.901 170.56 158.292 169.983 157.268C169.314 156.081 168.756 154.328 168.307 152.01C167.867 149.708 167.718 147.542 167.86 145.512C167.361 145.729 166.868 145.975 166.38 146.25C165.371 146.818 164.891 147.335 164.939 147.801ZM182.2 148.972C181.843 148.337 181.517 147.568 181.221 146.663L177.384 135.231L182.776 132.194L186.678 143.685C186.962 144.532 187.265 145.24 187.586 145.81C187.897 146.363 188.249 146.721 188.642 146.886C189.051 147.041 189.475 146.995 189.914 146.748C190.353 146.5 190.679 146.242 190.891 145.972C191.103 145.703 191.245 145.365 191.317 144.961C191.445 144.16 191.248 142.975 190.728 141.404L186.85 129.899L190.533 127.823L194.422 139.291C195.268 141.857 195.326 143.956 194.595 145.589C193.889 147.187 192.332 148.663 189.925 150.019C188.12 151.036 186.517 151.425 185.118 151.185C183.887 150.978 182.915 150.24 182.2 148.972ZM209.635 133.325C210.164 133.541 210.643 134.031 211.074 134.796C211.495 135.544 211.546 136.319 211.226 137.12C210.914 137.896 210.253 138.568 209.245 139.136C208.659 139.466 207.875 139.822 206.891 140.205C204.946 140.937 203.713 141.449 203.193 141.742C202.689 142.026 202.34 142.244 202.147 142.395C201.945 142.531 201.682 142.711 201.359 142.936L195.24 125.172L200.583 122.162L205.702 136.954C205.932 136.868 206.144 136.769 206.339 136.659L206.949 136.316C208.315 135.546 209.21 134.549 209.635 133.325ZM226.295 129.531C224.213 130.704 222.241 129.865 220.379 127.015L216.183 129.379C216.279 130.31 216.396 131.165 216.535 131.944L216.945 134.156L213.53 136.08L212.144 115.65L217.389 112.695L225.093 123.974C226.217 125.59 227.247 126.467 228.182 126.605C228.241 127.814 227.612 128.789 226.295 129.531ZM215.936 127.172L219.302 125.276L215.478 119.171L215.107 118.512L215.532 123.318L215.936 127.172ZM226.375 113.193C225.584 113.081 224.937 112.578 224.433 111.684C223.92 110.773 223.823 109.917 224.143 109.116C224.479 108.305 225.159 107.611 226.184 107.034C226.834 106.667 227.996 106.163 229.67 105.52L231.466 104.83C232.056 104.583 232.635 104.3 233.204 103.979C233.79 103.649 234.209 103.252 234.462 102.789C235.341 102.979 235.991 103.449 236.412 104.197C236.833 104.945 236.862 105.775 236.497 106.687C236.135 107.641 235.515 108.366 234.636 108.86C234.214 109.099 233.629 109.353 232.881 109.624C233.495 112.578 234.292 114.925 235.273 116.665C236.253 118.405 237.439 119.483 238.83 119.899C238.836 120.86 238.616 121.648 238.17 122.264C237.733 122.896 237.059 123.468 236.148 123.981C235.254 124.485 234.384 124.653 233.54 124.486C232.703 124.293 231.996 123.685 231.419 122.66C230.75 121.473 230.191 119.72 229.743 117.402C229.303 115.1 229.154 112.934 229.296 110.905C228.797 111.121 228.304 111.367 227.816 111.642C226.807 112.21 226.327 112.727 226.375 113.193ZM244.938 118.387L238.966 100.54L244.334 97.5169L250.256 115.391L244.938 118.387ZM252.426 106.327C250.695 103.253 250.081 100.3 250.585 97.4664C251.094 94.4156 252.821 92.061 255.765 90.4028C257.895 89.2026 259.79 88.8206 261.45 89.2568C263.101 89.6768 264.54 90.9764 265.767 93.1558C267.636 96.4736 268.27 99.5766 267.669 102.465C267.066 105.311 265.357 107.527 262.544 109.112C260.348 110.349 258.407 110.725 256.719 110.24C255.039 109.729 253.608 108.425 252.426 106.327ZM255.998 97.6628C256.915 101.003 258.024 103.827 259.325 106.137C259.637 106.69 259.983 107.095 260.363 107.352C260.76 107.599 261.202 107.586 261.69 107.311C262.194 107.027 262.537 106.684 262.717 106.282C262.889 105.864 262.946 105.318 262.887 104.644C262.783 103.546 262.387 101.969 261.701 99.9136C261.021 97.8326 260.482 96.4007 260.084 95.618C259.677 94.819 259.308 94.1268 258.979 93.5413C258.649 92.9558 258.289 92.5264 257.9 92.2531C257.51 91.9798 257.071 91.9806 256.583 92.2554C256.112 92.5211 255.796 92.892 255.635 93.3679C255.345 94.2599 255.466 95.6915 255.998 97.6628ZM274.027 102.001L267.884 84.2505L273.129 81.2959L283.174 90.2277L278.96 78.0115L281.681 76.5104L287.761 94.2637L282.175 97.4107L272.656 88.7288L276.71 100.489L274.027 102.001ZM295.98 74.787C295.949 74.1617 295.805 73.6213 295.548 73.1659C295.292 72.7105 295.07 72.3746 294.884 72.1581C294.689 71.9254 294.479 71.7435 294.256 71.6125C293.773 71.3271 293.288 71.3218 292.8 71.5966C292.199 71.9356 291.778 72.4621 291.537 73.176C291.273 73.9246 291.343 74.6567 291.746 75.3723C292.002 75.8277 292.386 76.1472 292.896 76.331C293.414 76.4893 294.008 76.5936 294.68 76.644C295.351 76.6945 296.054 76.7266 296.791 76.7404C297.527 76.7541 298.249 76.8188 298.957 76.9342C300.583 77.1966 301.735 77.9295 302.413 79.1331C302.871 79.9462 303.077 80.8262 303.032 81.7729C302.994 82.6942 302.759 83.6085 302.328 84.5157C301.389 86.5012 299.887 88.0757 297.822 89.2392C296.147 90.1829 294.727 90.6291 293.563 90.578C292.389 90.5106 291.569 90.0621 291.102 89.2327C290.268 87.7527 290.323 86.5004 291.267 85.4759C291.528 85.1788 291.903 84.8928 292.391 84.618C292.895 84.334 293.491 84.1374 294.179 84.0281C294.295 84.8415 294.522 85.5491 294.861 86.1509C295.594 87.452 296.424 87.8414 297.351 87.3192C297.953 86.9802 298.374 86.4537 298.614 85.7398C298.871 85.0166 298.862 84.4111 298.587 83.9232C298.303 83.419 297.898 83.0797 297.371 82.9051C296.86 82.7214 296.291 82.6241 295.664 82.6133C295.027 82.5862 294.355 82.5902 293.646 82.6252C292.954 82.6511 292.262 82.6017 291.57 82.477C289.96 82.2055 288.752 81.3542 287.946 79.923C287.424 78.9959 287.189 78.0463 287.241 77.0742C287.284 76.0858 287.534 75.1415 287.991 74.2413C288.896 72.4247 290.243 71.0125 292.032 70.0047C293.837 68.9878 295.322 68.5049 296.487 68.556C297.667 68.598 298.514 69.0744 299.027 69.9851C299.476 70.7821 299.533 71.6067 299.199 72.459C298.901 73.1842 298.426 73.73 297.776 74.0965C297.125 74.4629 296.527 74.6931 295.98 74.787Z" fill="white"/>
<defs>
<filter id="filter0_d_12_4" x="11.198" y="7.5305" width="362.968" height="292.408" filterUnits="userSpaceOnUse" color-interpolation-filters="sRGB">
<feFlood flood-opacity="0" result="BackgroundImageFix"/>
<feColorMatrix in="SourceAlpha" type="matrix" values="0 0 0 0 0 0 0 0 0 0 0 0 0 0 0 0 0 0 127 0" result="hardAlpha"/>
<feOffset dx="12.2358" dy="14.4605"/>
<feGaussianBlur stdDeviation="18.465"/>
<feComposite in2="hardAlpha" operator="out"/>
<feColorMatrix type="matrix" values="0 0 0 0 0.270833 0 0 0 0 0.00338542 0 0 0 0 0.211995 0 0 0 0.1 0"/>
<feBlend mode="normal" in2="BackgroundImageFix" result="effect1_dropShadow_12_4"/>
<feBlend mode="normal" in="SourceGraphic" in2="effect1_dropShadow_12_4" result="shape"/>
</filter>
<linearGradient id="paint0_linear_12_4" x1="309.308" y1="27.7614" x2="342.65" y2="102.677" gradientUnits="userSpaceOnUse">
<stop stop-color="#FF6978"/>
<stop offset="1" stop-color="#FB2FE5"/>
</linearGradient>
<linearGradient id="paint1_linear_12_4" x1="33.3888" y1="192.226" x2="62.5929" y2="257.845" gradientUnits="userSpaceOnUse">
<stop stop-color="#FF6978"/>
<stop offset="1" stop-color="#FB2FE5"/>
</linearGradient>
<linearGradient id="paint2_linear_12_4" x1="169.774" y1="90.2595" x2="204.976" y2="179.342" gradientUnits="userSpaceOnUse">
<stop stop-color="#FF6978"/>
<stop offset="1" stop-color="#FB2FE5"/>
</linearGradient>
</defs>
</svg>
