<svg width="32" height="32" viewBox="0 0 32 32" fill="none" xmlns="http://www.w3.org/2000/svg">
<g clip-path="url(#clip0_4565_108029)">
<path fill-rule="evenodd" clip-rule="evenodd" d="M2.71006 9.93761H4.79168C4.97324 9.93761 5.12155 10.0859 5.12155 10.2675V11.6657C5.12155 11.8473 4.97324 11.9956 4.79168 11.9956H2.71006C2.5285 11.9956 2.38019 11.8473 2.38019 11.6657V10.2675C2.38019 10.0859 2.5285 9.93761 2.71006 9.93761ZM2.47731 12.5998H5.02443C5.28737 12.5998 5.50174 12.8142 5.50174 13.0771V16.7573C5.50174 16.9516 5.60062 17.1485 5.78962 17.1953L7.55755 17.7863C7.62886 17.8174 7.67261 17.8839 7.67261 17.9618V19.9948C7.67261 20.0998 7.58686 20.186 7.48142 20.186H3.43193C2.64312 20.186 2 19.5425 2 18.7537V13.0771C2 12.8142 2.21437 12.5998 2.47731 12.5998ZM25.4639 17.677C25.9032 16.5465 26.6452 15.5901 27.4357 14.2496C28.4582 12.5167 28.4857 8.74587 27.0258 6.0465C26.3696 4.83331 25.6914 3.85244 24.6891 3.15944C21.621 1.0367 13.0779 1.82726 11.5672 5.54337C10.9127 7.15293 10.284 8.37487 9.86273 10.1397C9.81942 10.3213 9.78354 10.4827 9.83517 10.6621L10.0386 11.3674C10.1016 11.5857 10.0824 11.8018 9.95986 11.9934L7.78986 15.391C7.66299 15.5901 7.75661 15.86 7.96836 15.9567L8.75936 16.3194C9.11373 16.4813 9.28261 16.8628 9.20123 17.2434L9.14479 17.5077C9.09098 17.7614 9.19161 17.9452 9.43661 18.0327L11.1144 18.3971C11.9059 18.7239 11.7475 19.8268 11.1105 19.9161L9.71048 20.1873C9.63436 20.2022 9.52279 20.3798 9.49086 20.554C9.47817 20.6226 9.46592 20.6865 9.50354 20.7456L9.86929 21.3187C10.0679 21.6306 10.1427 21.9697 10.0644 22.3315C9.72317 23.8995 10.2385 24.5575 11.6337 24.4394L13.7359 23.3207C14.6442 23.3382 14.883 23.6112 15.1171 24.2206L15.3302 24.932C15.384 25.1114 15.5113 25.2413 15.6893 25.2991C15.8674 25.3564 16.0468 25.3253 16.1951 25.2111L24.7526 18.6263C25.0864 18.3695 25.3113 18.0694 25.4639 17.677ZM19.8311 30H28.8922C29.2916 30 29.6346 29.8058 29.8394 29.4632C30.0446 29.1202 30.0533 28.726 29.8647 28.3743L26.8246 22.7165C26.7393 22.5581 26.5975 22.4584 26.4194 22.4321C26.2418 22.4055 26.0773 22.4597 25.9496 22.5866L19.4422 29.0572C19.2803 29.2182 19.234 29.4479 19.321 29.6588C19.4081 29.8696 19.6028 30 19.8311 30ZM13.9306 28.4198L12.9834 29.6443C12.9305 29.7126 12.9222 29.7992 12.9598 29.8766C12.9978 29.9541 13.0718 30 13.158 30H14.3086C14.3786 30 14.4394 29.9707 14.4823 29.9151C14.5256 29.86 14.5396 29.7939 14.5225 29.7261L14.2207 28.5173C14.1769 28.3423 14.0658 28.2846 13.9306 28.4198ZM14.6717 28.0085L15.2212 29.6259C15.2982 29.8534 15.503 30 15.7432 30H17.3168C17.4682 30 17.5986 29.9462 17.7058 29.8394L25.9036 21.6884C26.0323 21.5611 26.0869 21.3953 26.0603 21.2159L25.8695 19.9349C25.8398 19.7363 25.7164 19.5801 25.53 19.5048C25.3432 19.4296 25.1459 19.4567 24.9866 19.5797L14.8572 27.3943C14.6673 27.5408 14.5947 27.7814 14.6717 28.0085Z" fill="#1B1B1B"/>
</g>
<defs>
<clipPath id="clip0_4565_108029">
<rect width="32" height="32" fill="white"/>
</clipPath>
</defs>
</svg>
