<svg width="27" height="27" viewBox="0 0 27 27" fill="none" xmlns="http://www.w3.org/2000/svg">
<g opacity="0.2" clip-path="url(#clip0_4282_50978)">
<path fill-rule="evenodd" clip-rule="evenodd" d="M2.66445 8.82411H4.36186C4.50991 8.82411 4.63085 8.94504 4.63085 9.09309V10.2333C4.63085 10.3813 4.50991 10.5023 4.36186 10.5023H2.66445C2.5164 10.5023 2.39546 10.3813 2.39546 10.2333V9.09309C2.39546 8.94504 2.5164 8.82411 2.66445 8.82411ZM2.47466 10.9949H4.55165C4.76606 10.9949 4.94086 11.1697 4.94086 11.3841V14.3851C4.94086 14.5435 5.02149 14.704 5.1756 14.7422L6.61722 15.2242C6.67537 15.2495 6.71105 15.3037 6.71105 15.3672V17.025C6.71105 17.1107 6.64113 17.1809 6.55515 17.1809H3.25309C2.60987 17.1809 2.08545 16.6562 2.08545 16.0129V11.3841C2.08545 11.1697 2.26026 10.9949 2.47466 10.9949ZM21.2186 15.135C21.5768 14.2131 22.1818 13.4333 22.8264 12.3402C23.6602 10.9271 23.6826 7.85232 22.4922 5.65119C21.9571 4.66192 21.4041 3.86209 20.5868 3.297C18.0849 1.56606 11.1187 2.2107 9.88682 5.24093C9.35313 6.5534 8.84048 7.5498 8.49693 8.98892C8.46161 9.13697 8.43236 9.26862 8.47446 9.41488L8.64035 9.98996C8.69172 10.168 8.67602 10.3442 8.57613 10.5005L6.80666 13.271C6.7032 13.4333 6.77955 13.6534 6.95221 13.7323L7.59721 14.028C7.88618 14.16 8.02388 14.4711 7.95753 14.7814L7.91151 14.9969C7.86763 15.2038 7.94968 15.3537 8.14946 15.425L9.51759 15.7222C10.1629 15.9887 10.0338 16.888 9.51438 16.9608L8.37278 17.182C8.31071 17.1941 8.21974 17.339 8.1937 17.481C8.18335 17.537 8.17336 17.5891 8.20404 17.6372L8.50228 18.1046C8.66425 18.3589 8.72525 18.6354 8.66139 18.9304C8.38313 20.209 8.80338 20.7456 9.94105 20.6492L11.6552 19.737C12.3958 19.7513 12.5906 19.9739 12.7815 20.4709L12.9552 21.0509C12.9991 21.1972 13.1029 21.3032 13.2481 21.3503C13.3933 21.397 13.5396 21.3717 13.6605 21.2786L20.6385 15.9091C20.9107 15.6997 21.0941 15.455 21.2186 15.135ZM16.6254 25.1835H24.0141C24.3398 25.1835 24.6195 25.0251 24.7864 24.7458C24.9537 24.4661 24.9609 24.1447 24.8071 23.8578L22.3281 19.2444C22.2585 19.1152 22.1429 19.0339 21.9977 19.0125C21.8529 18.9907 21.7187 19.035 21.6146 19.1384L16.3083 24.4147C16.1763 24.546 16.1385 24.7333 16.2095 24.9053C16.2805 25.0772 16.4392 25.1835 16.6254 25.1835ZM11.814 23.8949L11.0416 24.8935C10.9985 24.9491 10.9917 25.0198 11.0224 25.0829C11.0534 25.1461 11.1137 25.1835 11.184 25.1835H12.1222C12.1793 25.1835 12.2289 25.1596 12.2638 25.1143C12.2992 25.0694 12.3106 25.0155 12.2967 24.9602L12.0505 23.9745C12.0148 23.8318 11.9242 23.7847 11.814 23.8949ZM12.4183 23.5596L12.8664 24.8785C12.9292 25.064 13.0961 25.1835 13.292 25.1835H14.5752C14.6986 25.1835 14.805 25.1396 14.8924 25.0526L21.5771 18.406C21.682 18.3022 21.7266 18.167 21.7048 18.0207L21.5493 16.9762C21.525 16.8142 21.4244 16.6868 21.2725 16.6255C21.1201 16.5641 20.9592 16.5862 20.8294 16.6865L12.5696 23.0587C12.4147 23.1782 12.3555 23.3744 12.4183 23.5596Z" fill="white"/>
</g>
<defs>
<clipPath id="clip0_4282_50978">
<rect width="26.0937" height="26.0937" fill="white" transform="translate(0.45459 0.722656)"/>
</clipPath>
</defs>
</svg>
