<svg width="16" height="17" viewBox="0 0 16 17" fill="none" xmlns="http://www.w3.org/2000/svg">
<path d="M10.2143 9.316C10.2143 9.628 10.1333 9.922 9.97133 10.198C9.81533 10.468 9.58133 10.693 9.26933 10.873C8.96333 11.047 8.60033 11.149 8.18033 11.179V11.908H7.60433V11.17C7.00433 11.116 6.52133 10.936 6.15533 10.63C5.78933 10.318 5.60033 9.898 5.58833 9.37H6.93833C6.97433 9.802 7.19633 10.063 7.60433 10.153V8.434C7.17233 8.326 6.82433 8.218 6.56033 8.11C6.29633 8.002 6.06833 7.828 5.87633 7.588C5.68433 7.348 5.58833 7.021 5.58833 6.607C5.58833 6.085 5.77433 5.659 6.14633 5.329C6.52433 4.999 7.01033 4.81 7.60433 4.762V4.033H8.18033V4.762C8.75633 4.81 9.21533 4.984 9.55733 5.284C9.90533 5.584 10.1003 5.998 10.1423 6.526H8.78333C8.76533 6.352 8.70233 6.202 8.59433 6.076C8.49233 5.944 8.35433 5.851 8.18033 5.797V7.498C8.63033 7.612 8.98433 7.723 9.24233 7.831C9.50633 7.933 9.73433 8.104 9.92633 8.344C10.1183 8.578 10.2143 8.902 10.2143 9.316ZM6.90233 6.544C6.90233 6.742 6.96233 6.904 7.08233 7.03C7.20233 7.15 7.37633 7.249 7.60433 7.327V5.77C7.38833 5.8 7.21733 5.881 7.09133 6.013C6.96533 6.145 6.90233 6.322 6.90233 6.544ZM8.18033 10.171C8.40833 10.129 8.58533 10.036 8.71133 9.892C8.84333 9.748 8.90933 9.574 8.90933 9.37C8.90933 9.172 8.84633 9.013 8.72033 8.893C8.59433 8.773 8.41433 8.674 8.18033 8.596V10.171Z" fill="#1B1B1B"/>
</svg>
