<svg width="40" height="41" viewBox="0 0 40 41" fill="none" xmlns="http://www.w3.org/2000/svg">
<circle cx="20" cy="20.5" r="20" fill="#81D152"/>
<path d="M19.2503 14.2116V10.5193H20.7502V14.2116H19.2503ZM25.3233 16.7308L24.2945 15.702L26.8733 13.0385L27.9368 14.1173L25.3233 16.7308ZM26.7887 21.75V20.25H30.481V21.75H26.7887ZM19.2503 31.4807V27.7981H20.7502V31.4807H19.2503ZM14.6964 16.6904L12.0388 14.127L13.1272 13.0731L15.7406 15.677L14.6964 16.6904ZM26.8579 28.9615L24.2945 26.2981L25.3079 25.2942L27.9271 27.8423L26.8579 28.9615ZM9.51953 21.75V20.25H13.2118V21.75H9.51953ZM13.1176 28.9615L12.0734 27.8731L14.6522 25.2942L15.1945 25.8058L15.7464 26.3327L13.1176 28.9615ZM20.0025 26.5C18.4754 26.5 17.1766 25.9655 16.1061 24.8965C15.0355 23.8275 14.5003 22.5294 14.5003 21.0023C14.5003 19.4751 15.0348 18.1763 16.1038 17.1058C17.1728 16.0353 18.4708 15.5 19.998 15.5C21.5251 15.5 22.824 16.0345 23.8945 17.1035C24.965 18.1725 25.5002 19.4706 25.5002 20.9977C25.5002 22.5249 24.9657 23.8237 23.8967 24.8942C22.8277 25.9647 21.5297 26.5 20.0025 26.5Z" fill="white"/>
</svg>
