<svg width="40" height="41" viewBox="0 0 40 41" fill="none" xmlns="http://www.w3.org/2000/svg">
<circle cx="20" cy="20.5" r="20" fill="#81D152"/>
<path d="M13.3077 25.0008C12.8026 25.0008 12.375 24.8258 12.025 24.4758C11.675 24.1258 11.5 23.6983 11.5 23.1931V17.8086C11.5 17.3034 11.675 16.8759 12.025 16.5259C12.375 16.1759 12.8026 16.0009 13.3077 16.0009H26.6923C27.1974 16.0009 27.625 16.1759 27.975 16.5259C28.325 16.8759 28.5 17.3034 28.5 17.8086V23.1931C28.5 23.6983 28.325 24.1258 27.975 24.4758C27.625 24.8258 27.1974 25.0008 26.6923 25.0008H13.3077ZM11.5 13.8086V12.3086H28.5V13.8086H11.5ZM11.5 28.6931V27.1931H28.5V28.6931H11.5Z" fill="white"/>
</svg>
