<svg width="40" height="41" viewBox="0 0 40 41" fill="none" xmlns="http://www.w3.org/2000/svg">
<circle cx="20" cy="20.5" r="20" fill="#D7D311"/>
<path d="M13.2464 29.6135C12.7605 29.6135 12.3473 29.4433 12.0069 29.1029C11.6665 28.7625 11.4964 28.3494 11.4964 27.8635V24.1423C11.4964 23.6565 11.6665 23.2433 12.0069 22.9029C12.3473 22.5626 12.7605 22.3924 13.2464 22.3924H26.7463C27.2322 22.3924 27.6453 22.5626 27.9857 22.9029C28.3261 23.2433 28.4963 23.6565 28.4963 24.1423V27.8635C28.4963 28.3494 28.3261 28.7625 27.9857 29.1029C27.6453 29.4433 27.2322 29.6135 26.7463 29.6135H13.2464ZM14.5886 20.8924L10.2656 18.4174L15.8136 17.4847L14.304 12.0232L18.9233 15.3078L21.7213 10.3828L22.654 15.9597L28.1155 14.4501L24.8405 19.0693L28.0636 20.8924H14.5886Z" fill="white"/>
</svg>
