<svg width="40" height="41" viewBox="0 0 40 41" fill="none" xmlns="http://www.w3.org/2000/svg">
<circle cx="20" cy="20.5" r="20" fill="#D7D311"/>
<path d="M13.3077 29.5C12.8026 29.5 12.375 29.325 12.025 28.975C11.675 28.625 11.5 28.1974 11.5 27.6923V21.5538L14 24.0538L18 20.0538L22 24.0538L26 20.0538L28.5 22.5538V27.6923C28.5 28.1974 28.325 28.625 27.975 28.975C27.625 29.325 27.1974 29.5 26.6923 29.5H13.3077ZM13.3077 12.5H26.6923C27.1974 12.5 27.625 12.675 27.975 13.025C28.325 13.375 28.5 13.8026 28.5 14.3077V20.4307L26 17.9308L22 21.9308L18 17.9308L14 21.9308L11.5 19.4308V14.3077C11.5 13.8026 11.675 13.375 12.025 13.025C12.375 12.675 12.8026 12.5 13.3077 12.5Z" fill="white"/>
</svg>
