<svg width="177" height="114" viewBox="0 0 177 114" fill="none" xmlns="http://www.w3.org/2000/svg">
<rect width="177" height="114" fill="#F3F4F8"/>
<path d="M75.6154 73.9999C74.6051 73.9999 73.75 73.6499 73.05 72.9499C72.35 72.2499 72 71.3948 72 70.3845V43.6154C72 42.6051 72.35 41.75 73.05 41.05C73.75 40.35 74.6051 40 75.6154 40H102.384C103.395 40 104.25 40.35 104.95 41.05C105.65 41.75 106 42.6051 106 43.6154V70.3845C106 71.3948 105.65 72.2499 104.95 72.9499C104.25 73.6499 103.395 73.9999 102.384 73.9999H75.6154ZM80.3078 66.4999H97.846C98.2075 66.4999 98.4755 66.3358 98.6498 66.0076C98.8242 65.6794 98.7973 65.3615 98.5691 65.0538L93.7999 58.6654C93.6127 58.4244 93.3717 58.3039 93.0769 58.3039C92.782 58.3039 92.541 58.4244 92.3538 58.6654L87.4615 65.0384L84.1846 60.8385C83.9974 60.6103 83.7596 60.4962 83.4712 60.4962C83.1827 60.4962 82.9449 60.6167 82.7577 60.8577L79.6039 65.0538C79.3629 65.3615 79.3295 65.6794 79.5039 66.0076C79.6783 66.3358 79.9462 66.4999 80.3078 66.4999Z" fill="#594585"/>
</svg>
