<svg width="107" height="69" viewBox="0 0 107 69" fill="none" xmlns="http://www.w3.org/2000/svg">
<rect width="107" height="69" fill="#D4D4D4"/>
<path d="M42.9231 44.8124C42.2285 44.8124 41.6406 44.5718 41.1594 44.0906C40.6781 43.6093 40.4375 43.0214 40.4375 42.3268V26.6731C40.4375 25.9785 40.6781 25.3906 41.1594 24.9094C41.6406 24.4281 42.2285 24.1875 42.9231 24.1875H50.4723L53.2223 26.9375H64.0768C64.7714 26.9375 65.3593 27.1781 65.8406 27.6594C66.3218 28.1406 66.5624 28.7285 66.5624 29.4231V42.3268C66.5624 43.0214 66.3218 43.6093 65.8406 44.0906C65.3593 44.5718 64.7714 44.8124 64.0768 44.8124H42.9231Z" fill="#747474"/>
</svg>
