<svg width="107" height="69" viewBox="0 0 107 69" fill="none" xmlns="http://www.w3.org/2000/svg">
<rect width="107" height="69" fill="#D4D4D4"/>
<path d="M44.2981 47.5624C43.6124 47.5624 43.0267 47.3196 42.541 46.8339C42.0553 46.3483 41.8125 45.7626 41.8125 45.0768V29.6795C41.4088 29.4715 41.0787 29.1758 40.8223 28.7924C40.5658 28.409 40.4375 27.9669 40.4375 27.4663V23.9231C40.4375 23.2374 40.6803 22.6517 41.166 22.166C41.6517 21.6803 42.2374 21.4375 42.9231 21.4375H64.0768C64.7626 21.4375 65.3483 21.6803 65.8339 22.166C66.3196 22.6517 66.5624 23.2374 66.5624 23.9231V27.4663C66.5624 27.9669 66.4342 28.409 66.1777 28.7924C65.9212 29.1758 65.5911 29.4715 65.1874 29.6795V45.0768C65.1874 45.7626 64.9446 46.3483 64.4589 46.8339C63.9733 47.3196 63.3876 47.5624 62.7018 47.5624H44.2981ZM42.9231 27.8894H64.0768C64.2003 27.8894 64.3016 27.8497 64.381 27.7704C64.4603 27.6911 64.5 27.5897 64.5 27.4663V23.9231C64.5 23.7997 64.4603 23.6983 64.381 23.619C64.3016 23.5396 64.2003 23.5 64.0768 23.5H42.9231C42.7997 23.5 42.6983 23.5396 42.619 23.619C42.5396 23.6983 42.5 23.7997 42.5 23.9231V27.4663C42.5 27.5897 42.5396 27.6911 42.619 27.7704C42.6983 27.8497 42.7997 27.8894 42.9231 27.8894Z" fill="#747474"/>
</svg>
