<svg width="107" height="69" viewBox="0 0 107 69" fill="none" xmlns="http://www.w3.org/2000/svg">
<rect width="107" height="69" fill="#D4D4D4"/>
<path d="M53.6655 42.0264C54.925 42.0264 55.9326 41.0188 55.9326 39.7593C55.9326 38.4998 54.925 37.4922 53.6655 37.4922C52.406 37.4922 51.3984 38.4998 51.3984 39.7593C51.3984 41.0188 52.406 42.0264 53.6655 42.0264Z" fill="#747474"/>
<path d="M50.1875 46.2617V47.5571H57.2047V46.2617C57.2047 45.1461 56.7009 44.1385 55.8013 43.4548L55.6933 43.3828L55.5853 43.4188C54.3978 44.0306 52.9944 44.0306 51.8069 43.4188L51.6989 43.3828L51.5909 43.4548C50.6913 44.1385 50.1875 45.1461 50.1875 46.2617Z" fill="#747474"/>
<path d="M67.3459 27.5873L66.1943 24.7804C65.7985 23.7728 65.4746 22.6932 65.2587 21.6137C65.1507 21.1099 64.7189 20.75 64.1791 20.75H43.1275C42.6237 20.75 42.1559 21.1099 42.0479 21.6137C41.832 22.6932 41.5441 23.7728 41.1123 24.7804L39.9968 27.5873C39.7089 28.271 39.6729 28.9907 39.8888 29.6025C40.2846 30.718 41.2922 31.4377 42.4798 31.4377C43.2715 31.4377 43.9912 31.1139 44.531 30.5021C44.8908 30.1063 45.5745 30.1063 45.9344 30.5021C46.4742 31.1139 47.1939 31.4377 47.9856 31.4377H48.2015C48.9572 31.4377 49.6769 31.1139 50.1807 30.5741C50.3606 30.3942 50.6125 30.2862 50.8284 30.2862C51.1523 30.3222 51.3682 30.4301 51.5482 30.5741C52.052 31.1139 52.8077 31.4377 53.5634 31.4377H53.8512C54.6069 31.4377 55.3266 31.1139 55.8664 30.5741C56.0464 30.3942 56.2623 30.2862 56.5502 30.2862C56.8021 30.2862 57.054 30.3942 57.2339 30.5741C57.7377 31.1139 58.4934 31.4377 59.2131 31.4377H59.429C60.2207 31.4377 60.9404 31.1139 61.4802 30.5021C61.8401 30.1063 62.5238 30.1063 62.8836 30.5021C63.3874 31.0779 64.1431 31.4377 64.9348 31.4377C66.1223 31.4377 67.1299 30.718 67.5258 29.6025C67.6697 28.9907 67.6337 28.271 67.3459 27.5873Z" fill="#747474"/>
<path d="M65.3644 33.2777C64.2848 33.4217 63.1333 33.1338 62.2337 32.486L62.1257 32.4141L62.0177 32.486C61.226 33.0258 60.3264 33.3137 59.3908 33.3137H59.1749C58.2752 33.3137 57.3756 33.0258 56.6199 32.522L56.4759 32.45L56.368 32.522C55.6123 33.0258 54.7126 33.3137 53.777 33.3137H53.4891C52.5535 33.3137 51.6899 33.0258 50.8982 32.522L50.8622 32.45L50.7542 32.522C49.9985 33.0258 49.0989 33.3137 48.1992 33.3137H47.9833C47.0477 33.3137 46.1121 33.0258 45.3564 32.486L45.2484 32.4141L45.1405 32.486C44.3488 33.0258 43.4491 33.3137 42.5135 33.3137C42.3336 33.3137 42.1896 33.2777 41.9737 33.2777L41.7578 33.2417V47.564H48.3072V46.2685C48.3072 44.7212 48.9909 43.2817 50.1425 42.2381L50.2504 42.1302L50.1785 41.9862C49.7466 41.3025 49.5307 40.5468 49.5307 39.7551C49.5307 37.4521 51.402 35.6168 53.6691 35.6168C55.9721 35.6168 57.8074 37.488 57.8074 39.7551C57.8074 40.5468 57.5915 41.3025 57.1597 41.9862L57.0877 42.1302L57.1957 42.2381C58.3832 43.2817 59.0309 44.7212 59.0309 46.2685V47.564H65.5803V33.4576L65.5443 33.2777H65.3644Z" fill="#747474"/>
</svg>
