<svg width="7" height="7" viewBox="0 0 7 7" fill="none" xmlns="http://www.w3.org/2000/svg">
<path d="M0.744349 7C0.536352 7 0.360295 6.92794 0.216177 6.78382C0.072059 6.6397 0 6.46365 0 6.25565V0.74435C0 0.536353 0.072059 0.360295 0.216177 0.216177C0.360295 0.072059 0.536352 0 0.744349 0H3.0328C3.12043 0 3.19381 0.0295651 3.25293 0.0886947C3.31205 0.147817 3.34161 0.221194 3.34161 0.308824C3.34161 0.396455 3.31205 0.469832 3.25293 0.528955C3.19381 0.588077 3.12043 0.617639 3.0328 0.617639H0.744349C0.712671 0.617639 0.683631 0.630836 0.65723 0.65723C0.630835 0.683631 0.617638 0.712671 0.617638 0.74435V6.25565C0.617638 6.28733 0.630835 6.31637 0.65723 6.34277C0.683631 6.36916 0.712671 6.38236 0.744349 6.38236H6.25565C6.28733 6.38236 6.31637 6.36916 6.34277 6.34277C6.36916 6.31637 6.38236 6.28733 6.38236 6.25565V3.9672C6.38236 3.87957 6.41192 3.80619 6.47105 3.74707C6.53017 3.68795 6.60354 3.65839 6.69118 3.65839C6.77881 3.65839 6.85218 3.68795 6.9113 3.74707C6.97043 3.80619 7 3.87957 7 3.9672V6.25565C7 6.46365 6.92794 6.6397 6.78382 6.78382C6.6397 6.92794 6.46365 7 6.25565 7H0.744349ZM6.38236 1.05157L2.77782 4.6561C2.72081 4.71312 2.64915 4.74229 2.56284 4.74361C2.47653 4.74492 2.40355 4.71576 2.34389 4.6561C2.28424 4.59645 2.25442 4.52413 2.25442 4.43915C2.25442 4.35415 2.28424 4.28183 2.34389 4.22218L5.94843 0.617639H4.63235C4.54471 0.617639 4.47134 0.588077 4.41222 0.528955C4.35309 0.469832 4.32353 0.396455 4.32353 0.308824C4.32353 0.221194 4.35309 0.147817 4.41222 0.0886947C4.47134 0.0295651 4.54471 0 4.63235 0H7V2.36765C7 2.45528 6.97043 2.52866 6.9113 2.58778C6.85218 2.64691 6.77881 2.67647 6.69118 2.67647C6.60354 2.67647 6.53017 2.64691 6.47105 2.58778C6.41192 2.52866 6.38236 2.45528 6.38236 2.36765V1.05157Z" fill="#1B1B1B"/>
</svg>
