<svg width="20" height="20" viewBox="0 0 20 20" fill="none" xmlns="http://www.w3.org/2000/svg">
<path d="M9.99998 12.8429C9.89955 12.8429 9.80607 12.8269 9.71954 12.7949C9.633 12.7628 9.55074 12.7078 9.47275 12.6298L6.88142 10.0385C6.75749 9.91456 6.69633 9.76953 6.69794 9.60341C6.69953 9.43728 6.76069 9.28958 6.88142 9.1603C7.01069 9.03104 7.15919 8.96427 7.32692 8.95999C7.49465 8.95571 7.64316 9.01821 7.77244 9.14749L9.375 10.7501V4.37503C9.375 4.19768 9.43483 4.04918 9.55448 3.92953C9.67413 3.80986 9.82263 3.75003 9.99998 3.75003C10.1773 3.75003 10.3258 3.80986 10.4455 3.92953C10.5651 4.04918 10.625 4.19768 10.625 4.37503V10.7501L12.2275 9.14749C12.3515 9.02356 12.4986 8.96239 12.669 8.96399C12.8394 8.9656 12.9893 9.03104 13.1185 9.1603C13.2393 9.28958 13.3018 9.43595 13.306 9.59941C13.3103 9.76286 13.2478 9.90923 13.1185 10.0385L10.5272 12.6298C10.4492 12.7078 10.367 12.7628 10.2804 12.7949C10.1939 12.8269 10.1004 12.8429 9.99998 12.8429ZM5.25642 16.25C4.83547 16.25 4.47917 16.1042 4.1875 15.8125C3.89583 15.5208 3.75 15.1645 3.75 14.7436V13.109C3.75 12.9316 3.80983 12.7831 3.9295 12.6635C4.04915 12.5438 4.19765 12.484 4.375 12.484C4.55235 12.484 4.70085 12.5438 4.8205 12.6635C4.94015 12.7831 4.99998 12.9316 4.99998 13.109V14.7436C4.99998 14.8077 5.02669 14.8665 5.0801 14.9199C5.13353 14.9733 5.19231 15 5.25642 15H14.7435C14.8077 15 14.8664 14.9733 14.9199 14.9199C14.9733 14.8665 15 14.8077 15 14.7436V13.109C15 12.9316 15.0598 12.7831 15.1795 12.6635C15.2991 12.5438 15.4476 12.484 15.625 12.484C15.8023 12.484 15.9508 12.5438 16.0705 12.6635C16.1901 12.7831 16.25 12.9316 16.25 13.109V14.7436C16.25 15.1645 16.1041 15.5208 15.8125 15.8125C15.5208 16.1042 15.1645 16.25 14.7435 16.25H5.25642Z" fill="#1B1B1B"/>
</svg>
