<svg width="13" height="12" viewBox="0 0 13 12" fill="none" xmlns="http://www.w3.org/2000/svg">
<path d="M11 8.72941H9.74706V10H9.24706V8.72941H8V8.27647H9.24706V7H9.74706V8.27647H11V8.72941Z" fill="#594585"/>
<path d="M10.6563 2.36062L9.66413 1.3685C9.43736 1.14173 9.12555 1 8.81374 1C8.50193 1 8.19012 1.11339 7.96335 1.3685L7.33973 1.99212L3.48464 5.81887L2.63425 6.69761L2.6059 6.72595C2.57756 6.7543 2.54921 6.81099 2.54921 6.86768L2.01063 9.67397C1.98228 9.759 2.01063 9.87239 2.09567 9.92908C2.15236 9.98577 2.20905 10.0141 2.29409 10.0141C2.32244 10.0141 2.32244 10.0141 2.35079 10.0141L5.18542 9.50389H5.21376C5.27045 9.50389 5.32715 9.47554 5.35549 9.41885L6.23423 8.54011L10.6563 4.0614C10.883 3.83463 10.9964 3.52282 10.9964 3.21101C11.0248 2.8992 10.883 2.58739 10.6563 2.36062ZM2.63425 9.36216L3.00275 7.4913L4.53345 9.022L2.63425 9.36216ZM5.12872 8.79523L3.22952 6.89603L3.71141 6.41414L5.61061 8.31334L5.12872 8.79523ZM6.00746 7.9165L4.10826 6.01729L7.50981 2.58739L9.40901 4.48659L6.00746 7.9165ZM10.2594 3.66455L9.83421 4.08975L7.93501 2.19054L8.3602 1.76535C8.61532 1.53858 9.01217 1.53858 9.26728 1.76535L10.2594 2.75747C10.3728 2.87086 10.4578 3.04093 10.4578 3.21101C10.4578 3.38109 10.3728 3.55117 10.2594 3.66455Z" fill="#594585"/>
</svg>
