<svg width="8" height="8" viewBox="0 0 8 8" fill="none" xmlns="http://www.w3.org/2000/svg">
<path d="M1.66405 6.33463H2.08456L5.49675 2.92244L5.07625 2.50193L1.66405 5.91412V6.33463ZM1.16406 6.83462V5.70643L5.56086 1.31156C5.61127 1.26578 5.66692 1.2304 5.72783 1.20543C5.78873 1.18045 5.8526 1.16797 5.91944 1.16797C5.98627 1.16797 6.05101 1.17983 6.11366 1.20355C6.17631 1.22727 6.23178 1.26498 6.28007 1.31669L6.68712 1.72886C6.73883 1.77715 6.77569 1.83272 6.7977 1.89556C6.81971 1.9584 6.83071 2.02124 6.83071 2.08408C6.83071 2.15111 6.81927 2.21507 6.79637 2.27598C6.77348 2.33689 6.73707 2.39255 6.68712 2.44295L2.29225 6.83462H1.16406ZM5.28281 2.71587L5.07625 2.50193L5.49675 2.92244L5.28281 2.71587Z" fill="#8B8B8B"/>
</svg>
