<svg width="20" height="21" viewBox="0 0 20 21" fill="none" xmlns="http://www.w3.org/2000/svg">
<path d="M4.45994 16.4783H5.46823L13.679 8.28008L13.1662 7.75947L12.6581 7.25924L4.45994 15.47V16.4783ZM3.97384 17.7014C3.76372 17.7014 3.58835 17.6311 3.44775 17.4905C3.30713 17.3499 3.23682 17.1745 3.23682 16.9644V15.5594C3.23682 15.3628 3.27498 15.1739 3.3513 14.9925C3.42761 14.8111 3.53267 14.6535 3.66649 14.5197L13.8201 4.37862C13.9383 4.2605 14.0744 4.17112 14.2286 4.11049C14.3828 4.04985 14.5399 4.01953 14.6998 4.01953C14.865 4.01953 15.0213 4.04985 15.1687 4.11049C15.3161 4.17112 15.453 4.26468 15.5795 4.39118L16.5596 5.38378C16.6861 5.50192 16.7775 5.63469 16.834 5.78208C16.8905 5.92948 16.9187 6.08577 16.9187 6.25095C16.9187 6.40252 16.8905 6.55541 16.834 6.7096C16.7775 6.8638 16.6861 7.00415 16.5596 7.13065L6.41851 17.2717C6.2847 17.4055 6.1271 17.5106 5.94573 17.5869C5.76433 17.6632 5.57537 17.7014 5.37884 17.7014H3.97384ZM13.679 8.28008L13.1662 7.75947L12.6581 7.25924L13.679 8.28008Z" fill="white"/>
</svg>
