<svg width="145" height="124" viewBox="0 0 145 124" fill="none" xmlns="http://www.w3.org/2000/svg">
<path d="M90.5009 10.012C87.6484 7.15943 83.8729 5.59331 79.8317 5.59331C75.7906 5.59331 72.0151 7.15943 69.1765 10.012C63.3035 15.885 63.3035 25.4635 69.1765 31.3365C72.0291 34.1891 75.8045 35.7552 79.8317 35.7552C83.8589 35.7552 87.6484 34.1891 90.5009 31.3365C96.3739 25.4495 96.3739 15.885 90.5009 10.012ZM89.0187 29.8543C86.5717 32.3013 83.3136 33.6577 79.8457 33.6577C76.3779 33.6577 73.1198 32.3013 70.6727 29.8543C65.6107 24.7923 65.6107 16.5562 70.6727 11.4942C73.1198 9.04717 76.3779 7.6908 79.8457 7.6908C83.3136 7.6908 86.5717 9.04717 89.0187 11.4942C94.0807 16.5562 94.0807 24.7923 89.0187 29.8543Z" fill="black"/>
<path d="M115.318 48.5359L102.789 36.0069C101.629 34.8463 100.007 34.287 98.3845 34.4687L96.6226 32.7069C102.412 24.6385 101.698 13.3121 94.4552 6.05475C90.5538 2.15342 85.366 0 79.8426 0C74.3193 0 69.1315 2.15342 65.2301 6.05475C57.1758 14.1091 57.1758 27.2254 65.2301 35.2938C69.2573 39.3209 74.557 41.3345 79.8426 41.3345C84.0656 41.3345 88.2885 40.0201 91.8683 37.4612L93.6301 39.2231C93.4484 40.8451 93.9937 42.4672 95.1683 43.6278L107.697 56.1568C108.718 57.1776 110.074 57.7369 111.515 57.7369C112.955 57.7369 114.311 57.1776 115.332 56.1568C117.416 54.0593 117.416 50.6334 115.318 48.5359ZM66.6984 33.7975C63.1886 30.2877 61.2589 25.6313 61.2589 20.6673C61.2589 15.7032 63.1886 11.0468 66.6984 7.53698C70.2082 4.02718 74.8786 2.09749 79.8287 2.09749C84.7787 2.09749 89.4491 4.02718 92.9589 7.53698C96.4687 11.0468 98.3984 15.7032 98.3984 20.6673C98.3984 25.6313 96.4687 30.2877 92.9589 33.7975C85.7296 41.0409 73.9417 41.0409 66.6984 33.7975ZM113.836 54.6746C112.55 55.961 110.466 55.961 109.18 54.6746L96.6505 42.1456C95.8535 41.3485 95.5319 40.2019 95.7696 39.0832C95.8535 38.7336 95.7416 38.3701 95.4899 38.1184L93.5043 36.1328C93.8259 35.8531 94.1475 35.5874 94.4412 35.2798C94.7348 34.9721 95.0145 34.6505 95.2942 34.3429L97.2798 36.3285C97.5315 36.5802 97.895 36.6921 98.2446 36.6082C99.3633 36.3565 100.496 36.6781 101.307 37.4891L113.836 50.0181C114.465 50.6474 114.801 51.4724 114.801 52.3533C114.801 53.2343 114.465 54.0453 113.836 54.6746Z" fill="black"/>
<path d="M50.9133 50.6233L60.2122 39.5626L69.5111 50.6233C69.7068 50.8611 70.0005 51.0009 70.3081 51.0009H97.0301C97.6035 51.0009 98.0789 50.5255 98.0789 49.9521C98.0789 49.3788 97.6035 48.9034 97.0301 48.9034H70.7975L62.4635 38.9893H63.4563C64.0296 38.9893 64.5051 38.5138 64.5051 37.9405C64.5051 37.3672 64.0296 36.8918 63.4563 36.8918H39.2513C38.9437 36.8918 38.65 37.0316 38.4542 37.2693L28.3583 49.281C28.0926 49.5886 28.0367 50.0221 28.2045 50.3996C28.3723 50.7632 28.7499 51.0009 29.1554 51.0009H50.1163C50.4239 51.0009 50.7176 50.8611 50.9133 50.6233ZM31.4067 48.9034L39.7407 38.9893H57.9609L49.6269 48.9034H31.4067Z" fill="black"/>
<path d="M76.117 68.8785H65.1541C64.5808 68.8785 64.1054 69.3539 64.1054 69.9272C64.1054 70.5006 64.5808 70.976 65.1541 70.976H76.117C76.6903 70.976 77.1657 70.5006 77.1657 69.9272C77.1657 69.3539 76.6903 68.8785 76.117 68.8785Z" fill="black"/>
<path d="M76.117 72.9533H65.1541C64.5808 72.9533 64.1054 73.4287 64.1054 74.0021C64.1054 74.5754 64.5808 75.0508 65.1541 75.0508H76.117C76.6903 75.0508 77.1657 74.5754 77.1657 74.0021C77.1657 73.4287 76.6903 72.9533 76.117 72.9533Z" fill="black"/>
<path d="M84.7691 15.7294C84.3636 15.3239 83.6924 15.3239 83.2869 15.7294L79.833 19.1833L76.3792 15.7294C75.9737 15.3239 75.3025 15.3239 74.8969 15.7294C74.4914 16.1349 74.4914 16.8061 74.8969 17.2116L78.3508 20.6655L74.8969 24.1194C74.4914 24.5249 74.4914 25.1961 74.8969 25.6016C75.1067 25.8114 75.3724 25.9092 75.6381 25.9092C75.9037 25.9092 76.1694 25.8114 76.3792 25.6016L79.833 22.1477L83.2869 25.6016C83.4966 25.8114 83.7623 25.9092 84.028 25.9092C84.2937 25.9092 84.5594 25.8114 84.7691 25.6016C85.1746 25.1961 85.1746 24.5249 84.7691 24.1194L81.3153 20.6655L84.7691 17.2116C85.1886 16.8061 85.1886 16.1349 84.7691 15.7294Z" fill="black"/>
<path d="M97.4367 53.0962C96.8633 53.0962 96.3879 53.5716 96.3879 54.1449V77.8885H61.2619V44.4406C61.2619 43.8672 60.7865 43.3918 60.2132 43.3918C59.6399 43.3918 59.1645 43.8672 59.1645 44.4406V77.8885H40.301V54.1449C40.301 53.5716 39.8256 53.0962 39.2523 53.0962C38.679 53.0962 38.2035 53.5716 38.2035 54.1449V78.9513C38.2035 79.5246 38.679 80 39.2523 80H97.4227C97.996 80 98.4714 79.5246 98.4714 78.9513V54.1449C98.4854 53.5576 98.01 53.0962 97.4367 53.0962Z" fill="black"/>
<path d="M18.1611 106.063C17.7231 106.063 17.3271 105.988 16.9731 105.838C16.6251 105.688 16.3491 105.472 16.1451 105.19C15.9411 104.908 15.8361 104.575 15.8301 104.191H17.1801C17.1981 104.449 17.2881 104.653 17.4501 104.803C17.6181 104.953 17.8461 105.028 18.1341 105.028C18.4281 105.028 18.6591 104.959 18.8271 104.821C18.9951 104.677 19.0791 104.491 19.0791 104.263C19.0791 104.077 19.0221 103.924 18.9081 103.804C18.7941 103.684 18.6501 103.591 18.4761 103.525C18.3081 103.453 18.0741 103.375 17.7741 103.291C17.3661 103.171 17.0331 103.054 16.7751 102.94C16.5231 102.82 16.3041 102.643 16.1181 102.409C15.9381 102.169 15.8481 101.851 15.8481 101.455C15.8481 101.083 15.9411 100.759 16.1271 100.483C16.3131 100.207 16.5741 99.997 16.9101 99.853C17.2461 99.703 17.6301 99.628 18.0621 99.628C18.7101 99.628 19.2351 99.787 19.6371 100.105C20.0451 100.417 20.2701 100.855 20.3121 101.419H18.9261C18.9141 101.203 18.8211 101.026 18.6471 100.888C18.4791 100.744 18.2541 100.672 17.9721 100.672C17.7261 100.672 17.5281 100.735 17.3781 100.861C17.2341 100.987 17.1621 101.17 17.1621 101.41C17.1621 101.578 17.2161 101.719 17.3241 101.833C17.4381 101.941 17.5761 102.031 17.7381 102.103C17.9061 102.169 18.1401 102.247 18.4401 102.337C18.8481 102.457 19.1811 102.577 19.4391 102.697C19.6971 102.817 19.9191 102.997 20.1051 103.237C20.2911 103.477 20.3841 103.792 20.3841 104.182C20.3841 104.518 20.2971 104.83 20.1231 105.118C19.9491 105.406 19.6941 105.637 19.3581 105.811C19.0221 105.979 18.6231 106.063 18.1611 106.063ZM23.6905 106.081C23.2105 106.081 22.7785 105.976 22.3945 105.766C22.0105 105.55 21.7075 105.247 21.4855 104.857C21.2695 104.467 21.1615 104.017 21.1615 103.507C21.1615 102.997 21.2725 102.547 21.4945 102.157C21.7225 101.767 22.0315 101.467 22.4215 101.257C22.8115 101.041 23.2465 100.933 23.7265 100.933C24.2065 100.933 24.6415 101.041 25.0315 101.257C25.4215 101.467 25.7275 101.767 25.9495 102.157C26.1775 102.547 26.2915 102.997 26.2915 103.507C26.2915 104.017 26.1745 104.467 25.9405 104.857C25.7125 105.247 25.4005 105.55 25.0045 105.766C24.6145 105.976 24.1765 106.081 23.6905 106.081ZM23.6905 104.983C23.9185 104.983 24.1315 104.929 24.3295 104.821C24.5335 104.707 24.6955 104.539 24.8155 104.317C24.9355 104.095 24.9955 103.825 24.9955 103.507C24.9955 103.033 24.8695 102.67 24.6175 102.418C24.3715 102.16 24.0685 102.031 23.7085 102.031C23.3485 102.031 23.0455 102.16 22.7995 102.418C22.5595 102.67 22.4395 103.033 22.4395 103.507C22.4395 103.981 22.5565 104.347 22.7905 104.605C23.0305 104.857 23.3305 104.983 23.6905 104.983ZM28.4757 101.788C28.6377 101.524 28.8477 101.317 29.1057 101.167C29.3697 101.017 29.6697 100.942 30.0057 100.942V102.265H29.6727C29.2767 102.265 28.9767 102.358 28.7727 102.544C28.5747 102.73 28.4757 103.054 28.4757 103.516V106H27.2157V101.014H28.4757V101.788ZM32.1144 101.788C32.2764 101.524 32.4864 101.317 32.7444 101.167C33.0084 101.017 33.3084 100.942 33.6444 100.942V102.265H33.3114C32.9154 102.265 32.6154 102.358 32.4114 102.544C32.2134 102.73 32.1144 103.054 32.1144 103.516V106H30.8544V101.014H32.1144V101.788ZM39.2631 101.014L36.1761 108.358H34.8351L35.9151 105.874L33.9171 101.014H35.3301L36.6171 104.497L37.9221 101.014H39.2631ZM41.3193 104.677L40.2663 107.206H39.4563L40.0413 104.677H41.3193ZM47.9835 102.049V104.461C47.9835 104.629 48.0225 104.752 48.1005 104.83C48.1845 104.902 48.3225 104.938 48.5145 104.938H49.0995V106H48.3075C47.2455 106 46.7145 105.484 46.7145 104.452V102.049H46.1205V101.014H46.7145V99.781H47.9835V101.014H49.0995V102.049H47.9835ZM52.8138 100.942C53.1918 100.942 53.5278 101.026 53.8218 101.194C54.1158 101.356 54.3438 101.599 54.5058 101.923C54.6738 102.241 54.7578 102.625 54.7578 103.075V106H53.4978V103.246C53.4978 102.85 53.3988 102.547 53.2008 102.337C53.0028 102.121 52.7328 102.013 52.3908 102.013C52.0428 102.013 51.7668 102.121 51.5628 102.337C51.3648 102.547 51.2658 102.85 51.2658 103.246V106H50.0058V99.34H51.2658V101.635C51.4278 101.419 51.6438 101.251 51.9138 101.131C52.1838 101.005 52.4838 100.942 52.8138 100.942ZM60.591 103.399C60.591 103.579 60.579 103.741 60.555 103.885H56.91C56.94 104.245 57.066 104.527 57.288 104.731C57.51 104.935 57.783 105.037 58.107 105.037C58.575 105.037 58.908 104.836 59.106 104.434H60.465C60.321 104.914 60.045 105.31 59.637 105.622C59.229 105.928 58.728 106.081 58.134 106.081C57.654 106.081 57.222 105.976 56.838 105.766C56.46 105.55 56.163 105.247 55.947 104.857C55.737 104.467 55.632 104.017 55.632 103.507C55.632 102.991 55.737 102.538 55.947 102.148C56.157 101.758 56.451 101.458 56.829 101.248C57.207 101.038 57.642 100.933 58.134 100.933C58.608 100.933 59.031 101.035 59.403 101.239C59.781 101.443 60.072 101.734 60.276 102.112C60.486 102.484 60.591 102.913 60.591 103.399ZM59.286 103.039C59.28 102.715 59.163 102.457 58.935 102.265C58.707 102.067 58.428 101.968 58.098 101.968C57.786 101.968 57.522 102.064 57.306 102.256C57.096 102.442 56.967 102.703 56.919 103.039H59.286ZM62.7706 101.788C62.9326 101.524 63.1426 101.317 63.4006 101.167C63.6646 101.017 63.9646 100.942 64.3006 100.942V102.265H63.9676C63.5716 102.265 63.2716 102.358 63.0676 102.544C62.8696 102.73 62.7706 103.054 62.7706 103.516V106H61.5106V101.014H62.7706V101.788ZM69.7843 103.399C69.7843 103.579 69.7723 103.741 69.7483 103.885H66.1033C66.1333 104.245 66.2593 104.527 66.4813 104.731C66.7033 104.935 66.9763 105.037 67.3003 105.037C67.7683 105.037 68.1013 104.836 68.2993 104.434H69.6583C69.5143 104.914 69.2383 105.31 68.8303 105.622C68.4223 105.928 67.9213 106.081 67.3273 106.081C66.8473 106.081 66.4153 105.976 66.0313 105.766C65.6533 105.55 65.3563 105.247 65.1403 104.857C64.9303 104.467 64.8253 104.017 64.8253 103.507C64.8253 102.991 64.9303 102.538 65.1403 102.148C65.3503 101.758 65.6443 101.458 66.0223 101.248C66.4003 101.038 66.8353 100.933 67.3273 100.933C67.8013 100.933 68.2243 101.035 68.5963 101.239C68.9743 101.443 69.2653 101.734 69.4693 102.112C69.6793 102.484 69.7843 102.913 69.7843 103.399ZM68.4793 103.039C68.4733 102.715 68.3563 102.457 68.1283 102.265C67.9003 102.067 67.6213 101.968 67.2913 101.968C66.9793 101.968 66.7153 102.064 66.4993 102.256C66.2893 102.442 66.1603 102.703 66.1123 103.039H68.4793ZM71.496 98.818L71.388 100.726H70.533L70.416 98.818H71.496ZM74.3698 106.081C73.9618 106.081 73.5958 106.009 73.2718 105.865C72.9478 105.715 72.6898 105.514 72.4978 105.262C72.3118 105.01 72.2098 104.731 72.1918 104.425H73.4608C73.4848 104.617 73.5778 104.776 73.7398 104.902C73.9078 105.028 74.1148 105.091 74.3608 105.091C74.6008 105.091 74.7868 105.043 74.9188 104.947C75.0568 104.851 75.1258 104.728 75.1258 104.578C75.1258 104.416 75.0418 104.296 74.8738 104.218C74.7118 104.134 74.4508 104.044 74.0908 103.948C73.7188 103.858 73.4128 103.765 73.1728 103.669C72.9388 103.573 72.7348 103.426 72.5608 103.228C72.3928 103.03 72.3088 102.763 72.3088 102.427C72.3088 102.151 72.3868 101.899 72.5428 101.671C72.7048 101.443 72.9328 101.263 73.2268 101.131C73.5268 100.999 73.8778 100.933 74.2798 100.933C74.8738 100.933 75.3478 101.083 75.7018 101.383C76.0558 101.677 76.2508 102.076 76.2868 102.58H75.0808C75.0628 102.382 74.9788 102.226 74.8288 102.112C74.6848 101.992 74.4898 101.932 74.2438 101.932C74.0158 101.932 73.8388 101.974 73.7128 102.058C73.5928 102.142 73.5328 102.259 73.5328 102.409C73.5328 102.577 73.6168 102.706 73.7848 102.796C73.9528 102.88 74.2138 102.967 74.5678 103.057C74.9278 103.147 75.2248 103.24 75.4588 103.336C75.6928 103.432 75.8938 103.582 76.0618 103.786C76.2358 103.984 76.3258 104.248 76.3318 104.578C76.3318 104.866 76.2508 105.124 76.0888 105.352C75.9328 105.58 75.7048 105.76 75.4048 105.892C75.1108 106.018 74.7658 106.081 74.3698 106.081ZM82.2736 100.942C82.8676 100.942 83.3476 101.131 83.7136 101.509C84.0796 101.881 84.2626 102.403 84.2626 103.075V106H83.0026V103.246C83.0026 102.85 82.9036 102.547 82.7056 102.337C82.5076 102.121 82.2376 102.013 81.8956 102.013C81.5476 102.013 81.2716 102.121 81.0676 102.337C80.8696 102.547 80.7706 102.85 80.7706 103.246V106H79.5106V101.014H80.7706V101.635C80.9386 101.419 81.1516 101.251 81.4096 101.131C81.6736 101.005 81.9616 100.942 82.2736 100.942ZM87.6748 106.081C87.1948 106.081 86.7628 105.976 86.3788 105.766C85.9948 105.55 85.6918 105.247 85.4698 104.857C85.2538 104.467 85.1458 104.017 85.1458 103.507C85.1458 102.997 85.2568 102.547 85.4788 102.157C85.7068 101.767 86.0158 101.467 86.4058 101.257C86.7958 101.041 87.2308 100.933 87.7108 100.933C88.1908 100.933 88.6258 101.041 89.0158 101.257C89.4058 101.467 89.7118 101.767 89.9338 102.157C90.1618 102.547 90.2758 102.997 90.2758 103.507C90.2758 104.017 90.1588 104.467 89.9248 104.857C89.6968 105.247 89.3848 105.55 88.9888 105.766C88.5988 105.976 88.1608 106.081 87.6748 106.081ZM87.6748 104.983C87.9028 104.983 88.1158 104.929 88.3138 104.821C88.5178 104.707 88.6798 104.539 88.7998 104.317C88.9198 104.095 88.9798 103.825 88.9798 103.507C88.9798 103.033 88.8538 102.67 88.6018 102.418C88.3558 102.16 88.0528 102.031 87.6928 102.031C87.3328 102.031 87.0298 102.16 86.7838 102.418C86.5438 102.67 86.4238 103.033 86.4238 103.507C86.4238 103.981 86.5408 104.347 86.7748 104.605C87.0148 104.857 87.3148 104.983 87.6748 104.983ZM93.9836 100.42C93.7616 100.42 93.5756 100.351 93.4256 100.213C93.2816 100.069 93.2096 99.892 93.2096 99.682C93.2096 99.472 93.2816 99.298 93.4256 99.16C93.5756 99.016 93.7616 98.944 93.9836 98.944C94.2056 98.944 94.3886 99.016 94.5326 99.16C94.6826 99.298 94.7576 99.472 94.7576 99.682C94.7576 99.892 94.6826 100.069 94.5326 100.213C94.3886 100.351 94.2056 100.42 93.9836 100.42ZM94.6046 101.014V106H93.3446V101.014H94.6046ZM98.6125 100.942C99.2065 100.942 99.6865 101.131 100.053 101.509C100.419 101.881 100.602 102.403 100.602 103.075V106H99.3415V103.246C99.3415 102.85 99.2425 102.547 99.0445 102.337C98.8465 102.121 98.5765 102.013 98.2345 102.013C97.8865 102.013 97.6105 102.121 97.4065 102.337C97.2085 102.547 97.1095 102.85 97.1095 103.246V106H95.8495V101.014H97.1095V101.635C97.2775 101.419 97.4905 101.251 97.7485 101.131C98.0125 101.005 98.3005 100.942 98.6125 100.942ZM101.476 103.489C101.476 102.985 101.575 102.538 101.773 102.148C101.977 101.758 102.25 101.458 102.592 101.248C102.94 101.038 103.327 100.933 103.753 100.933C104.125 100.933 104.449 101.008 104.725 101.158C105.007 101.308 105.232 101.497 105.4 101.725V101.014H106.669V106H105.4V105.271C105.238 105.505 105.013 105.7 104.725 105.856C104.443 106.006 104.116 106.081 103.744 106.081C103.324 106.081 102.94 105.973 102.592 105.757C102.25 105.541 101.977 105.238 101.773 104.848C101.575 104.452 101.476 103.999 101.476 103.489ZM105.4 103.507C105.4 103.201 105.34 102.94 105.22 102.724C105.1 102.502 104.938 102.334 104.734 102.22C104.53 102.1 104.311 102.04 104.077 102.04C103.843 102.04 103.627 102.097 103.429 102.211C103.231 102.325 103.069 102.493 102.943 102.715C102.823 102.931 102.763 103.189 102.763 103.489C102.763 103.789 102.823 104.053 102.943 104.281C103.069 104.503 103.231 104.674 103.429 104.794C103.633 104.914 103.849 104.974 104.077 104.974C104.311 104.974 104.53 104.917 104.734 104.803C104.938 104.683 105.1 104.515 105.22 104.299C105.34 104.077 105.4 103.813 105.4 103.507ZM107.575 103.507C107.575 102.991 107.68 102.541 107.89 102.157C108.1 101.767 108.391 101.467 108.763 101.257C109.135 101.041 109.561 100.933 110.041 100.933C110.659 100.933 111.169 101.089 111.571 101.401C111.979 101.707 112.252 102.139 112.39 102.697H111.031C110.959 102.481 110.836 102.313 110.662 102.193C110.494 102.067 110.284 102.004 110.032 102.004C109.672 102.004 109.387 102.136 109.177 102.4C108.967 102.658 108.862 103.027 108.862 103.507C108.862 103.981 108.967 104.35 109.177 104.614C109.387 104.872 109.672 105.001 110.032 105.001C110.542 105.001 110.875 104.773 111.031 104.317H112.39C112.252 104.857 111.979 105.286 111.571 105.604C111.163 105.922 110.653 106.081 110.041 106.081C109.561 106.081 109.135 105.976 108.763 105.766C108.391 105.55 108.1 105.25 107.89 104.866C107.68 104.476 107.575 104.023 107.575 103.507ZM114.78 102.049V104.461C114.78 104.629 114.819 104.752 114.897 104.83C114.981 104.902 115.119 104.938 115.311 104.938H115.896V106H115.104C114.042 106 113.511 105.484 113.511 104.452V102.049H112.917V101.014H113.511V99.781H114.78V101.014H115.896V102.049H114.78ZM117.442 100.42C117.22 100.42 117.034 100.351 116.884 100.213C116.74 100.069 116.668 99.892 116.668 99.682C116.668 99.472 116.74 99.298 116.884 99.16C117.034 99.016 117.22 98.944 117.442 98.944C117.664 98.944 117.847 99.016 117.991 99.16C118.141 99.298 118.216 99.472 118.216 99.682C118.216 99.892 118.141 100.069 117.991 100.213C117.847 100.351 117.664 100.42 117.442 100.42ZM118.063 101.014V106H116.803V101.014H118.063ZM121.387 104.839L122.647 101.014H123.988L122.143 106H120.613L118.777 101.014H120.127L121.387 104.839ZM129.33 103.399C129.33 103.579 129.318 103.741 129.294 103.885H125.649C125.679 104.245 125.805 104.527 126.027 104.731C126.249 104.935 126.522 105.037 126.846 105.037C127.314 105.037 127.647 104.836 127.845 104.434H129.204C129.06 104.914 128.784 105.31 128.376 105.622C127.968 105.928 127.467 106.081 126.873 106.081C126.393 106.081 125.961 105.976 125.577 105.766C125.199 105.55 124.902 105.247 124.686 104.857C124.476 104.467 124.371 104.017 124.371 103.507C124.371 102.991 124.476 102.538 124.686 102.148C124.896 101.758 125.19 101.458 125.568 101.248C125.946 101.038 126.381 100.933 126.873 100.933C127.347 100.933 127.77 101.035 128.142 101.239C128.52 101.443 128.811 101.734 129.015 102.112C129.225 102.484 129.33 102.913 129.33 103.399ZM128.025 103.039C128.019 102.715 127.902 102.457 127.674 102.265C127.446 102.067 127.167 101.968 126.837 101.968C126.525 101.968 126.261 102.064 126.045 102.256C125.835 102.442 125.706 102.703 125.658 103.039H128.025ZM47.4645 117.399C47.4645 117.579 47.4525 117.741 47.4285 117.885H43.7835C43.8135 118.245 43.9395 118.527 44.1615 118.731C44.3835 118.935 44.6565 119.037 44.9805 119.037C45.4485 119.037 45.7815 118.836 45.9795 118.434H47.3385C47.1945 118.914 46.9185 119.31 46.5105 119.622C46.1025 119.928 45.6015 120.081 45.0075 120.081C44.5275 120.081 44.0955 119.976 43.7115 119.766C43.3335 119.55 43.0365 119.247 42.8205 118.857C42.6105 118.467 42.5055 118.017 42.5055 117.507C42.5055 116.991 42.6105 116.538 42.8205 116.148C43.0305 115.758 43.3245 115.458 43.7025 115.248C44.0805 115.038 44.5155 114.933 45.0075 114.933C45.4815 114.933 45.9045 115.035 46.2765 115.239C46.6545 115.443 46.9455 115.734 47.1495 116.112C47.3595 116.484 47.4645 116.913 47.4645 117.399ZM46.1595 117.039C46.1535 116.715 46.0365 116.457 45.8085 116.265C45.5805 116.067 45.3015 115.968 44.9715 115.968C44.6595 115.968 44.3955 116.064 44.1795 116.256C43.9695 116.442 43.8405 116.703 43.7925 117.039H46.1595ZM51.1472 114.942C51.7412 114.942 52.2212 115.131 52.5872 115.509C52.9532 115.881 53.1362 116.403 53.1362 117.075V120H51.8762V117.246C51.8762 116.85 51.7772 116.547 51.5792 116.337C51.3812 116.121 51.1112 116.013 50.7692 116.013C50.4212 116.013 50.1452 116.121 49.9412 116.337C49.7432 116.547 49.6442 116.85 49.6442 117.246V120H48.3842V115.014H49.6442V115.635C49.8122 115.419 50.0252 115.251 50.2832 115.131C50.5472 115.005 50.8352 114.942 51.1472 114.942ZM55.8014 116.049V118.461C55.8014 118.629 55.8404 118.752 55.9184 118.83C56.0024 118.902 56.1404 118.938 56.3324 118.938H56.9174V120H56.1254C55.0634 120 54.5324 119.484 54.5324 118.452V116.049H53.9384V115.014H54.5324V113.781H55.8014V115.014H56.9174V116.049H55.8014ZM59.0836 115.788C59.2456 115.524 59.4556 115.317 59.7136 115.167C59.9776 115.017 60.2776 114.942 60.6136 114.942V116.265H60.2806C59.8846 116.265 59.5846 116.358 59.3806 116.544C59.1826 116.73 59.0836 117.054 59.0836 117.516V120H57.8236V115.014H59.0836V115.788ZM62.1013 114.42C61.8793 114.42 61.6933 114.351 61.5433 114.213C61.3993 114.069 61.3273 113.892 61.3273 113.682C61.3273 113.472 61.3993 113.298 61.5433 113.16C61.6933 113.016 61.8793 112.944 62.1013 112.944C62.3233 112.944 62.5063 113.016 62.6503 113.16C62.8003 113.298 62.8753 113.472 62.8753 113.682C62.8753 113.892 62.8003 114.069 62.6503 114.213C62.5063 114.351 62.3233 114.42 62.1013 114.42ZM62.7223 115.014V120H61.4623V115.014H62.7223ZM68.6022 117.399C68.6022 117.579 68.5902 117.741 68.5662 117.885H64.9212C64.9512 118.245 65.0772 118.527 65.2992 118.731C65.5212 118.935 65.7942 119.037 66.1182 119.037C66.5862 119.037 66.9192 118.836 67.1172 118.434H68.4762C68.3322 118.914 68.0562 119.31 67.6482 119.622C67.2402 119.928 66.7392 120.081 66.1452 120.081C65.6652 120.081 65.2332 119.976 64.8492 119.766C64.4712 119.55 64.1742 119.247 63.9582 118.857C63.7482 118.467 63.6432 118.017 63.6432 117.507C63.6432 116.991 63.7482 116.538 63.9582 116.148C64.1682 115.758 64.4622 115.458 64.8402 115.248C65.2182 115.038 65.6532 114.933 66.1452 114.933C66.6192 114.933 67.0422 115.035 67.4142 115.239C67.7922 115.443 68.0832 115.734 68.2872 116.112C68.4972 116.484 68.6022 116.913 68.6022 117.399ZM67.2972 117.039C67.2912 116.715 67.1742 116.457 66.9462 116.265C66.7182 116.067 66.4392 115.968 66.1092 115.968C65.7972 115.968 65.5332 116.064 65.3172 116.256C65.1072 116.442 64.9782 116.703 64.9302 117.039H67.2972ZM71.4299 120.081C71.0219 120.081 70.6559 120.009 70.3319 119.865C70.0079 119.715 69.7499 119.514 69.5579 119.262C69.3719 119.01 69.2699 118.731 69.2519 118.425H70.5209C70.5449 118.617 70.6379 118.776 70.7999 118.902C70.9679 119.028 71.1749 119.091 71.4209 119.091C71.6609 119.091 71.8469 119.043 71.9789 118.947C72.1169 118.851 72.1859 118.728 72.1859 118.578C72.1859 118.416 72.1019 118.296 71.9339 118.218C71.7719 118.134 71.5109 118.044 71.1509 117.948C70.7789 117.858 70.4729 117.765 70.2329 117.669C69.9989 117.573 69.7949 117.426 69.6209 117.228C69.4529 117.03 69.3689 116.763 69.3689 116.427C69.3689 116.151 69.4469 115.899 69.6029 115.671C69.7649 115.443 69.9929 115.263 70.2869 115.131C70.5869 114.999 70.9379 114.933 71.3399 114.933C71.9339 114.933 72.4079 115.083 72.7619 115.383C73.1159 115.677 73.3109 116.076 73.3469 116.58H72.1409C72.1229 116.382 72.0389 116.226 71.8889 116.112C71.7449 115.992 71.5499 115.932 71.3039 115.932C71.0759 115.932 70.8989 115.974 70.7729 116.058C70.6529 116.142 70.5929 116.259 70.5929 116.409C70.5929 116.577 70.6769 116.706 70.8449 116.796C71.0129 116.88 71.2739 116.967 71.6279 117.057C71.9879 117.147 72.2849 117.24 72.5189 117.336C72.7529 117.432 72.9539 117.582 73.1219 117.786C73.2959 117.984 73.3859 118.248 73.3919 118.578C73.3919 118.866 73.3109 119.124 73.1489 119.352C72.9929 119.58 72.7649 119.76 72.4649 119.892C72.1709 120.018 71.8259 120.081 71.4299 120.081ZM78.8567 116.049H77.9837V120H76.7057V116.049H76.1387V115.014H76.7057V114.762C76.7057 114.15 76.8797 113.7 77.2277 113.412C77.5757 113.124 78.1007 112.989 78.8027 113.007V114.069C78.4967 114.063 78.2837 114.114 78.1637 114.222C78.0437 114.33 77.9837 114.525 77.9837 114.807V115.014H78.8567V116.049ZM81.8872 120.081C81.4072 120.081 80.9752 119.976 80.5912 119.766C80.2072 119.55 79.9042 119.247 79.6822 118.857C79.4662 118.467 79.3582 118.017 79.3582 117.507C79.3582 116.997 79.4692 116.547 79.6912 116.157C79.9192 115.767 80.2282 115.467 80.6182 115.257C81.0082 115.041 81.4432 114.933 81.9232 114.933C82.4032 114.933 82.8382 115.041 83.2282 115.257C83.6182 115.467 83.9242 115.767 84.1462 116.157C84.3742 116.547 84.4882 116.997 84.4882 117.507C84.4882 118.017 84.3712 118.467 84.1372 118.857C83.9092 119.247 83.5972 119.55 83.2012 119.766C82.8112 119.976 82.3732 120.081 81.8872 120.081ZM81.8872 118.983C82.1152 118.983 82.3282 118.929 82.5262 118.821C82.7302 118.707 82.8922 118.539 83.0122 118.317C83.1322 118.095 83.1922 117.825 83.1922 117.507C83.1922 117.033 83.0662 116.67 82.8142 116.418C82.5682 116.16 82.2652 116.031 81.9052 116.031C81.5452 116.031 81.2422 116.16 80.9962 116.418C80.7562 116.67 80.6362 117.033 80.6362 117.507C80.6362 117.981 80.7532 118.347 80.9872 118.605C81.2272 118.857 81.5272 118.983 81.8872 118.983ZM90.1195 115.014V120H88.8505V119.37C88.6885 119.586 88.4755 119.757 88.2115 119.883C87.9535 120.003 87.6715 120.063 87.3655 120.063C86.9755 120.063 86.6305 119.982 86.3305 119.82C86.0305 119.652 85.7935 119.409 85.6195 119.091C85.4515 118.767 85.3675 118.383 85.3675 117.939V115.014H86.6275V117.759C86.6275 118.155 86.7265 118.461 86.9245 118.677C87.1225 118.887 87.3925 118.992 87.7345 118.992C88.0825 118.992 88.3555 118.887 88.5535 118.677C88.7515 118.461 88.8505 118.155 88.8505 117.759V115.014H90.1195ZM94.1257 114.942C94.7197 114.942 95.1997 115.131 95.5657 115.509C95.9317 115.881 96.1147 116.403 96.1147 117.075V120H94.8547V117.246C94.8547 116.85 94.7557 116.547 94.5577 116.337C94.3597 116.121 94.0897 116.013 93.7477 116.013C93.3997 116.013 93.1237 116.121 92.9197 116.337C92.7217 116.547 92.6227 116.85 92.6227 117.246V120H91.3627V115.014H92.6227V115.635C92.7907 115.419 93.0037 115.251 93.2617 115.131C93.5257 115.005 93.8137 114.942 94.1257 114.942ZM96.9889 117.489C96.9889 116.985 97.0879 116.538 97.2859 116.148C97.4899 115.758 97.7659 115.458 98.1139 115.248C98.4619 115.038 98.8489 114.933 99.2749 114.933C99.5989 114.933 99.9079 115.005 100.202 115.149C100.496 115.287 100.73 115.473 100.904 115.707V113.34H102.182V120H100.904V119.262C100.748 119.508 100.529 119.706 100.247 119.856C99.9649 120.006 99.6379 120.081 99.2659 120.081C98.8459 120.081 98.4619 119.973 98.1139 119.757C97.7659 119.541 97.4899 119.238 97.2859 118.848C97.0879 118.452 96.9889 117.999 96.9889 117.489ZM100.913 117.507C100.913 117.201 100.853 116.94 100.733 116.724C100.613 116.502 100.451 116.334 100.247 116.22C100.043 116.1 99.8239 116.04 99.5899 116.04C99.3559 116.04 99.1399 116.097 98.9419 116.211C98.7439 116.325 98.5819 116.493 98.4559 116.715C98.3359 116.931 98.2759 117.189 98.2759 117.489C98.2759 117.789 98.3359 118.053 98.4559 118.281C98.5819 118.503 98.7439 118.674 98.9419 118.794C99.1459 118.914 99.3619 118.974 99.5899 118.974C99.8239 118.974 100.043 118.917 100.247 118.803C100.451 118.683 100.613 118.515 100.733 118.299C100.853 118.077 100.913 117.813 100.913 117.507Z" fill="#747474"/>
</svg>
