<svg width="16" height="16" viewBox="0 0 16 16" fill="none" xmlns="http://www.w3.org/2000/svg">
<path d="M5.99998 11.8385H9.99998C10.1419 11.8385 10.2607 11.7906 10.3564 11.6949C10.4521 11.5992 10.5 11.4804 10.5 11.3385C10.5 11.1966 10.4521 11.0778 10.3564 10.9821C10.2607 10.8864 10.1419 10.8385 9.99998 10.8385H5.99998C5.85811 10.8385 5.73931 10.8864 5.64358 10.9821C5.54786 11.0778 5.5 11.1966 5.5 11.3385C5.5 11.4804 5.54786 11.5992 5.64358 11.6949C5.73931 11.7906 5.85811 11.8385 5.99998 11.8385ZM5.99998 9.17184H9.99998C10.1419 9.17184 10.2607 9.12398 10.3564 9.02826C10.4521 8.93254 10.5 8.81374 10.5 8.67186C10.5 8.52998 10.4521 8.41118 10.3564 8.31546C10.2607 8.21974 10.1419 8.17188 9.99998 8.17188H5.99998C5.85811 8.17188 5.73931 8.21974 5.64358 8.31546C5.54786 8.41118 5.5 8.52998 5.5 8.67186C5.5 8.81374 5.54786 8.93254 5.64358 9.02826C5.73931 9.12398 5.85811 9.17184 5.99998 9.17184ZM4.20513 14.3385C3.86838 14.3385 3.58333 14.2218 3.35 13.9885C3.11667 13.7552 3 13.4701 3 13.1334V2.87701C3 2.54025 3.11667 2.25521 3.35 2.02188C3.58333 1.78854 3.86838 1.67188 4.20513 1.67188H9.00128C9.16196 1.67188 9.31644 1.70308 9.46473 1.76548C9.61302 1.82786 9.74187 1.91376 9.85128 2.02316L12.6487 4.82056C12.7581 4.92997 12.844 5.05882 12.9064 5.20711C12.9688 5.3554 13 5.50988 13 5.67056V13.1334C13 13.4701 12.8833 13.7552 12.65 13.9885C12.4166 14.2218 12.1316 14.3385 11.7948 14.3385H4.20513ZM9 5.06928V2.67186H4.20513C4.15384 2.67186 4.10683 2.69323 4.06408 2.73596C4.02135 2.7787 3.99998 2.82572 3.99998 2.87701V13.1334C3.99998 13.1847 4.02135 13.2317 4.06408 13.2744C4.10683 13.3172 4.15384 13.3385 4.20513 13.3385H11.7948C11.8461 13.3385 11.8931 13.3172 11.9359 13.2744C11.9786 13.2317 12 13.1847 12 13.1334V5.67184H9.60257C9.43078 5.67184 9.28741 5.61436 9.17245 5.49939C9.05748 5.38444 9 5.24106 9 5.06928Z" fill="#1B1B1B"/>
</svg>
