<svg width="40" height="41" viewBox="0 0 40 41" fill="none" xmlns="http://www.w3.org/2000/svg">
<circle cx="20" cy="20.5" r="20" fill="#FF9D4F"/>
<path d="M20 25.75C21.5972 25.75 22.9548 25.1909 24.0729 24.0729C25.1909 22.9548 25.75 21.5972 25.75 20C25.75 18.6461 25.3323 17.4497 24.4971 16.4106C23.6618 15.3715 22.5872 14.7006 21.2731 14.3981C20.9987 14.3647 20.7596 14.4369 20.5558 14.6144C20.3519 14.792 20.25 15.0179 20.25 15.2923V20.0961L16.8577 23.4885C16.6539 23.6923 16.5635 23.9298 16.5866 24.2009C16.6096 24.4721 16.7314 24.6897 16.9519 24.8538C17.3968 25.173 17.8813 25.4022 18.4053 25.5413C18.9294 25.6804 19.4609 25.75 20 25.75ZM20.0016 29.5C18.6877 29.5 17.4527 29.2506 16.2966 28.752C15.1404 28.2533 14.1347 27.5765 13.2795 26.7217C12.4243 25.8669 11.7472 24.8616 11.2483 23.706C10.7494 22.5504 10.5 21.3156 10.5 20.0017C10.5 18.6877 10.7493 17.4527 11.248 16.2966C11.7467 15.1404 12.4234 14.1347 13.2783 13.2795C14.1331 12.4243 15.1383 11.7472 16.294 11.2483C17.4496 10.7494 18.6844 10.5 19.9983 10.5C21.3122 10.5 22.5473 10.7493 23.7034 11.248C24.8596 11.7467 25.8652 12.4234 26.7205 13.2783C27.5757 14.1331 28.2527 15.1383 28.7516 16.294C29.2505 17.4496 29.5 18.6844 29.5 19.9983C29.5 21.3122 29.2506 22.5473 28.752 23.7034C28.2533 24.8596 27.5765 25.8652 26.7217 26.7205C25.8669 27.5757 24.8616 28.2527 23.706 28.7516C22.5504 29.2505 21.3156 29.5 20.0016 29.5Z" fill="white"/>
</svg>
