<svg width="40" height="41" viewBox="0 0 40 41" fill="none" xmlns="http://www.w3.org/2000/svg">
<circle cx="20" cy="20.5" r="20" fill="#FF9D4F"/>
<path d="M17.5558 27.3673C15.5481 27.0301 13.8702 26.0785 12.5221 24.5125C11.174 22.9464 10.5 21.1089 10.5 19C10.5 16.6389 11.3262 14.6319 12.9785 12.9792C14.6308 11.3264 16.6372 10.5 18.9977 10.5C21.3582 10.5 23.3653 11.3264 25.0192 12.9792C26.673 14.6319 27.5 16.6389 27.5 19C27.5 19.8384 27.3749 20.6385 27.1249 21.4C26.8749 22.1616 26.5326 22.8616 26.098 23.5H20.95C20.0102 23.5 19.2099 23.8292 18.5491 24.4875C17.8882 25.1458 17.5417 25.9416 17.5096 26.875C17.5096 26.957 17.5122 27.039 17.5173 27.1211C17.5224 27.2031 17.5353 27.2852 17.5558 27.3673ZM21 22.0538L22.0538 21L19.7499 18.6961V14.25H18.25V19.3038L21 22.0538ZM21 29H27C27.55 29 28.0208 28.8041 28.4125 28.4125C28.8041 28.0208 29 27.55 29 27C29 26.45 28.8041 25.9791 28.4125 25.5875C28.0208 25.1958 27.55 25 27 25H21C20.45 25 19.9791 25.1958 19.5875 25.5875C19.1958 25.9791 19 26.45 19 27C19 27.55 19.1958 28.0208 19.5875 28.4125C19.9791 28.8041 20.45 29 21 29ZM21.0003 27.8654C20.7552 27.8654 20.5497 27.7824 20.3836 27.6167C20.2176 27.4509 20.1346 27.2454 20.1346 27.0003C20.1346 26.7552 20.2175 26.5497 20.3833 26.3836C20.5491 26.2176 20.7545 26.1346 20.9997 26.1346C21.2447 26.1346 21.4503 26.2175 21.6163 26.3833C21.7823 26.5491 21.8653 26.7546 21.8653 26.9997C21.8653 27.2447 21.7824 27.4503 21.6166 27.6163C21.4508 27.7823 21.2454 27.8654 21.0003 27.8654ZM24.0003 27.8654C23.7552 27.8654 23.5497 27.7824 23.3836 27.6167C23.2176 27.4509 23.1346 27.2454 23.1346 27.0003C23.1346 26.7552 23.2175 26.5497 23.3833 26.3836C23.5491 26.2176 23.7546 26.1346 23.9997 26.1346C24.2447 26.1346 24.4503 26.2175 24.6163 26.3833C24.7823 26.5491 24.8654 26.7546 24.8654 26.9997C24.8654 27.2447 24.7825 27.4503 24.6167 27.6163C24.4509 27.7823 24.2454 27.8654 24.0003 27.8654ZM27.0003 27.8654C26.7552 27.8654 26.5497 27.7824 26.3836 27.6167C26.2176 27.4509 26.1346 27.2454 26.1346 27.0003C26.1346 26.7552 26.2175 26.5497 26.3833 26.3836C26.5491 26.2176 26.7546 26.1346 26.9997 26.1346C27.2447 26.1346 27.4503 26.2175 27.6163 26.3833C27.7823 26.5491 27.8654 26.7546 27.8654 26.9997C27.8654 27.2447 27.7824 27.4503 27.6167 27.6163C27.4509 27.7823 27.2454 27.8654 27.0003 27.8654Z" fill="white"/>
</svg>
