<svg width="27" height="27" viewBox="0 0 27 27" fill="none" xmlns="http://www.w3.org/2000/svg">
<path d="M19.8398 20.1447C19.6958 19.9046 19.5037 19.7365 19.2636 19.6165L17.511 18.8242L15.9024 20.6489C15.8544 20.7209 15.7824 20.7689 15.7344 20.8409L17.8471 21.8013L19.4317 24.5382C19.6717 24.9464 20.1039 25.1864 20.536 25.1864C20.7521 25.1864 20.9682 25.1384 21.1843 25.0184C21.8085 24.6583 22.0006 23.866 21.6644 23.2658L19.8398 20.1447Z" fill="white"/>
<path d="M20.9687 13.7329L16.8873 14.093C16.5512 14.117 16.2631 14.2851 16.047 14.5252L14.3904 16.3738L11.9176 14.7893L13.5981 14.2611C13.9343 14.165 14.1743 13.901 14.2944 13.5888L15.0146 11.4521C15.2067 10.8999 14.8946 10.2757 14.3424 10.1076C13.7902 9.91557 13.166 10.2277 12.9979 10.7799L12.4457 12.3884L10.261 13.0847C9.66076 13.2767 9.13258 13.6849 8.79646 14.2131L7.78811 15.8696C7.476 16.3738 7.33195 16.974 7.40398 17.5502L7.66807 20.2152C7.69208 20.4552 7.78811 20.6713 7.95617 20.8394L9.78081 22.8081C9.99688 23.0241 10.285 23.1442 10.5731 23.1442C10.8372 23.1442 11.1013 23.0481 11.2933 22.8561C11.7255 22.4479 11.7495 21.7757 11.3413 21.3435L9.7568 19.639L9.61275 18.2705L13.334 20.0711C13.5021 20.1671 13.6942 20.1911 13.8862 20.1911C14.2464 20.1911 14.6065 20.0471 14.8466 19.759L17.6075 16.6379L21.1848 16.3258C21.881 16.2538 22.4092 15.6536 22.3612 14.9333C22.3132 14.1891 21.689 13.6609 20.9687 13.7329Z" fill="white"/>
<path d="M5.87494 15.3637C7.12095 15.3334 8.10652 14.2988 8.07627 13.0528C8.04602 11.8068 7.0114 10.8212 5.76539 10.8515C4.51937 10.8817 3.5338 11.9163 3.56405 13.1624C3.5943 14.4084 4.62892 15.3939 5.87494 15.3637Z" fill="white"/>
<path d="M10.1675 7.6334C10.6477 7.6334 11.0318 7.24927 11.0318 6.7691V3.21586C11.0318 2.7357 10.6477 2.35156 10.1675 2.35156C9.68736 2.35156 9.30322 2.7357 9.30322 3.21586V6.7691C9.32723 7.24927 9.71136 7.6334 10.1675 7.6334Z" fill="white"/>
<path d="M14.1524 8.40293C14.6326 8.40293 15.0167 8.0188 15.0167 7.53863V3.98539C15.0167 3.50523 14.6326 3.12109 14.1524 3.12109C13.6722 3.12109 13.2881 3.50523 13.2881 3.98539V7.53863C13.2881 8.0188 13.6722 8.40293 14.1524 8.40293Z" fill="white"/>
<path d="M18.1114 9.16856C18.5915 9.16856 18.9757 8.78443 18.9757 8.30426V4.75102C18.9757 4.27085 18.5915 3.88672 18.1114 3.88672C17.6312 3.88672 17.2471 4.27085 17.2471 4.75102V8.30426C17.2711 8.78443 17.6552 9.16856 18.1114 9.16856Z" fill="white"/>
</svg>
