<svg width="32" height="32" viewBox="0 0 32 32" fill="none" xmlns="http://www.w3.org/2000/svg">
<path d="M24.0269 23.8186C23.8502 23.5241 23.6147 23.318 23.3203 23.1708L21.1709 22.1992L19.1983 24.4369C19.1394 24.5252 19.0511 24.5841 18.9922 24.6724L21.5831 25.8501L23.5264 29.2066C23.8208 29.7071 24.3508 30.0015 24.8807 30.0015C25.1457 30.0015 25.4107 29.9426 25.6757 29.7954C26.4412 29.3538 26.6767 28.3822 26.2645 27.6461L24.0269 23.8186Z" fill="#1B1B1B"/>
<path d="M25.4114 15.957L20.4061 16.3986C19.9939 16.4281 19.6406 16.6342 19.3756 16.9286L17.3441 19.1957L14.3115 17.2525L16.3725 16.6047C16.7847 16.4869 17.0791 16.1631 17.2263 15.7803L18.1096 13.1599C18.3451 12.4827 17.9624 11.7172 17.2852 11.5111C16.608 11.2756 15.8425 11.6583 15.6364 12.3355L14.9592 14.3082L12.2799 15.162C11.5439 15.3976 10.8961 15.8981 10.4839 16.5458L9.24735 18.5774C8.8646 19.1957 8.68794 19.9317 8.77627 20.6384L9.10014 23.9065C9.12958 24.2009 9.24735 24.4659 9.45345 24.672L11.6911 27.0863C11.9561 27.3513 12.3094 27.4985 12.6627 27.4985C12.9866 27.4985 13.3104 27.3807 13.546 27.1452C14.076 26.6447 14.1054 25.8203 13.6049 25.2903L11.6617 23.1999L11.485 21.5216L16.0486 23.7298C16.2547 23.8476 16.4903 23.8771 16.7258 23.8771C17.1674 23.8771 17.6091 23.7004 17.9035 23.3471L21.2894 19.5195L25.6764 19.1368C26.5302 19.0485 27.178 18.3124 27.1191 17.4291C27.0602 16.5164 26.2947 15.8686 25.4114 15.957Z" fill="#1B1B1B"/>
<path d="M6.90113 17.9586C8.42918 17.9215 9.63784 16.6527 9.60074 15.1246C9.56364 13.5966 8.29484 12.3879 6.76678 12.425C5.23873 12.4621 4.03007 13.7309 4.06717 15.259C4.10427 16.787 5.37308 17.9957 6.90113 17.9586Z" fill="#1B1B1B"/>
<path d="M12.1654 8.47739C12.7543 8.47739 13.2253 8.00631 13.2253 7.41746V3.05994C13.2253 2.47108 12.7543 2 12.1654 2C11.5766 2 11.1055 2.47108 11.1055 3.05994V7.41746C11.1349 8.00631 11.606 8.47739 12.1654 8.47739Z" fill="#1B1B1B"/>
<path d="M17.0521 9.4188C17.641 9.4188 18.1121 8.94772 18.1121 8.35886V4.00134C18.1121 3.41249 17.641 2.94141 17.0521 2.94141C16.4633 2.94141 15.9922 3.41249 15.9922 4.00134V8.35886C15.9922 8.94772 16.4633 9.4188 17.0521 9.4188Z" fill="#1B1B1B"/>
<path d="M21.9076 10.3602C22.4964 10.3602 22.9675 9.88912 22.9675 9.30027V4.94275C22.9675 4.3539 22.4964 3.88281 21.9076 3.88281C21.3187 3.88281 20.8477 4.3539 20.8477 4.94275V9.30027C20.8771 9.88912 21.3482 10.3602 21.9076 10.3602Z" fill="#1B1B1B"/>
</svg>
