<svg width="12" height="12" viewBox="0 0 12 12" fill="none" xmlns="http://www.w3.org/2000/svg">
<path d="M2.50298 5.98472L2.50297 5.98472C2.20419 5.58746 2.01255 5.24707 1.90901 4.96148L1.90901 4.96147C1.80218 4.66683 1.75 4.37186 1.75 4.07421C1.75 3.49004 1.94154 3.02537 2.32134 2.64556C2.70115 2.26575 3.16582 2.07422 3.74999 2.07422C4.10503 2.07422 4.43775 2.1564 4.75486 2.32307L4.75487 2.32307C5.07221 2.48986 5.35425 2.73174 5.60023 3.05917L5.99999 3.59127L6.39974 3.05917C6.64573 2.73174 6.92777 2.48986 7.24511 2.32307L7.24511 2.32307C7.56223 2.1564 7.89494 2.07422 8.24999 2.07422C8.83416 2.07422 9.29883 2.26575 9.67863 2.64556C10.0584 3.02537 10.25 3.49004 10.25 4.07421C10.25 4.37186 10.1978 4.66683 10.091 4.96147L10.091 4.96148C9.98742 5.24707 9.79578 5.58746 9.497 5.98472L9.86763 6.26347L9.497 5.98472C9.19881 6.38121 8.78747 6.84402 8.257 7.37449C7.72472 7.90677 7.04531 8.54668 6.21714 9.29511C6.21698 9.29526 6.21682 9.2954 6.21666 9.29554L5.99999 9.49032L5.78403 9.29619C5.78374 9.29593 5.78346 9.29567 5.78318 9.29542C4.95815 8.54693 4.2792 7.90673 3.74485 7.37397C3.21287 6.84356 2.80095 6.38092 2.50298 5.98472Z" stroke="#747474"/>
</svg>
