<svg width="12" height="12" viewBox="0 0 12 12" fill="none" xmlns="http://www.w3.org/2000/svg">
<path d="M5.99999 10.1626L5.44808 9.66651C4.61923 8.91458 3.93382 8.26843 3.39182 7.72804C2.84984 7.18766 2.42036 6.70673 2.10338 6.28526C1.78638 5.86378 1.56491 5.47933 1.43895 5.13189C1.31298 4.78446 1.25 4.4319 1.25 4.07421C1.25 3.3646 1.48926 2.77053 1.96779 2.29201C2.44631 1.81348 3.04038 1.57422 3.74999 1.57422C4.18653 1.57422 4.59903 1.67631 4.98749 1.88048C5.37595 2.08465 5.71345 2.37744 5.99999 2.75884C6.28653 2.37744 6.62403 2.08465 7.01249 1.88048C7.40095 1.67631 7.81345 1.57422 8.24999 1.57422C8.9596 1.57422 9.55366 1.81348 10.0322 2.29201C10.5107 2.77053 10.75 3.3646 10.75 4.07421C10.75 4.4319 10.687 4.78446 10.561 5.13189C10.4351 5.47933 10.2136 5.86378 9.8966 6.28526C9.57962 6.70673 9.15093 7.18766 8.61055 7.72804C8.07017 8.26843 7.38395 8.91458 6.5519 9.66651L5.99999 10.1626Z" fill="#D62424"/>
</svg>
