<svg width="9" height="8" viewBox="0 0 9 8" fill="none" xmlns="http://www.w3.org/2000/svg">
<path d="M7.494 2.93748H3.23153C2.59798 2.93748 2.05278 3.13788 1.5959 3.53869C1.13903 3.9395 0.910597 4.43582 0.910597 5.02767C0.910597 5.61951 1.13903 6.11678 1.5959 6.51946C2.05278 6.92214 2.59798 7.12348 3.23153 7.12348H7.13323C7.26243 7.12348 7.37061 7.16543 7.45778 7.24934C7.54494 7.33324 7.58853 7.43737 7.58853 7.56173C7.58853 7.68609 7.54494 7.79023 7.45778 7.87413C7.37061 7.95804 7.26243 8 7.13323 8H3.23153C2.34348 8 1.58288 7.71382 0.949723 7.14145C0.316574 6.56909 0 5.86449 0 5.02767C0 4.19085 0.316574 3.4872 0.949723 2.9167C1.58288 2.34622 2.34348 2.06097 3.23153 2.06097H7.494L6.12454 0.742788C6.04048 0.661874 5.99748 0.560177 5.99554 0.437696C5.9936 0.315206 6.0366 0.211634 6.12454 0.12698C6.21249 0.042327 6.31911 0 6.44442 0C6.56972 0 6.67635 0.042327 6.7643 0.12698L8.84472 2.1295C8.90154 2.1842 8.94162 2.24188 8.96497 2.30256C8.98832 2.36325 9 2.4288 9 2.49922C9 2.56965 8.98832 2.6352 8.96497 2.69587C8.94162 2.75656 8.90154 2.81425 8.84472 2.86893L6.7643 4.87147C6.68024 4.95237 6.57459 4.99377 6.44735 4.99565C6.32009 4.99751 6.21249 4.95612 6.12454 4.87147C6.0366 4.78682 5.99262 4.68418 5.99262 4.56356C5.99262 4.44295 6.0366 4.34032 6.12454 4.25566L7.494 2.93748Z" fill="black"/>
</svg>
