<svg width="16" height="16" viewBox="0 0 16 16" fill="none" xmlns="http://www.w3.org/2000/svg">
<path d="M6.81599 11.5435L12.4185 5.94099L11.5403 5.0628L6.81599 9.78716L4.44099 7.41216L3.5628 8.29034L6.81599 11.5435ZM8.00007 15.9153C6.90513 15.9153 5.87593 15.7075 4.91249 15.292C3.94903 14.8764 3.11096 14.3125 2.39828 13.6001C1.68559 12.8877 1.12137 12.05 0.705636 11.087C0.289899 10.124 0.0820312 9.09502 0.0820312 8.00007C0.0820312 6.90513 0.289809 5.87593 0.705365 4.91249C1.12092 3.94903 1.68488 3.11096 2.39724 2.39828C3.10961 1.68559 3.94732 1.12137 4.91034 0.705636C5.87336 0.2899 6.90234 0.0820312 7.99728 0.0820312C9.09223 0.0820312 10.1214 0.28981 11.0849 0.705366C12.0483 1.12092 12.8864 1.68488 13.5991 2.39724C14.3118 3.10961 14.876 3.94732 15.2917 4.91034C15.7075 5.87336 15.9153 6.90234 15.9153 7.99728C15.9153 9.09223 15.7075 10.1214 15.292 11.0849C14.8764 12.0483 14.3125 12.8864 13.6001 13.5991C12.8877 14.3118 12.05 14.876 11.087 15.2917C10.124 15.7075 9.09502 15.9153 8.00007 15.9153Z" fill="#27AF2C"/>
</svg>
