<svg width="40" height="32" viewBox="0 0 40 32" fill="none" xmlns="http://www.w3.org/2000/svg">
<rect width="40" height="32" rx="4" fill="white"/>
<path d="M15.3359 15.3359C15.0633 15.3359 14.8285 15.2374 14.6315 15.0404C14.4344 14.8434 14.3359 14.6086 14.3359 14.3359V11.3359C14.3359 11.0633 14.4344 10.8285 14.6315 10.6315C14.8285 10.4344 15.0633 10.3359 15.3359 10.3359H18.3359C18.6086 10.3359 18.8434 10.4344 19.0404 10.6315C19.2374 10.8285 19.3359 11.0633 19.3359 11.3359V14.3359C19.3359 14.6086 19.2374 14.8434 19.0404 15.0404C18.8434 15.2374 18.6086 15.3359 18.3359 15.3359H15.3359ZM15.3359 21.6692C15.0633 21.6692 14.8285 21.5707 14.6315 21.3737C14.4344 21.1767 14.3359 20.9419 14.3359 20.6693V17.6692C14.3359 17.3966 14.4344 17.1618 14.6315 16.9648C14.8285 16.7678 15.0633 16.6693 15.3359 16.6693H18.3359C18.6086 16.6693 18.8434 16.7678 19.0404 16.9648C19.2374 17.1618 19.3359 17.3966 19.3359 17.6692V20.6693C19.3359 20.9419 19.2374 21.1767 19.0404 21.3737C18.8434 21.5707 18.6086 21.6692 18.3359 21.6692H15.3359ZM21.6692 15.3359C21.3966 15.3359 21.1618 15.2374 20.9648 15.0404C20.7678 14.8434 20.6693 14.6086 20.6693 14.3359V11.3359C20.6693 11.0633 20.7678 10.8285 20.9648 10.6315C21.1618 10.4344 21.3966 10.3359 21.6692 10.3359H24.6693C24.9419 10.3359 25.1767 10.4344 25.3737 10.6315C25.5707 10.8285 25.6692 11.0633 25.6692 11.3359V14.3359C25.6692 14.6086 25.5707 14.8434 25.3737 15.0404C25.1767 15.2374 24.9419 15.3359 24.6693 15.3359H21.6692ZM21.6692 21.6692C21.3966 21.6692 21.1618 21.5707 20.9648 21.3737C20.7678 21.1767 20.6693 20.9419 20.6693 20.6693V17.6692C20.6693 17.3966 20.7678 17.1618 20.9648 16.9648C21.1618 16.7678 21.3966 16.6693 21.6692 16.6693H24.6693C24.9419 16.6693 25.1767 16.7678 25.3737 16.9648C25.5707 17.1618 25.6692 17.3966 25.6692 17.6692V20.6693C25.6692 20.9419 25.5707 21.1767 25.3737 21.3737C25.1767 21.5707 24.9419 21.6692 24.6693 21.6692H21.6692ZM15.3359 14.3359H18.3359V11.3359H15.3359V14.3359ZM21.6692 14.3359H24.6693V11.3359H21.6692V14.3359ZM21.6692 20.6693H24.6693V17.6692H21.6692V20.6693ZM15.3359 20.6693H18.3359V17.6692H15.3359V20.6693Z" fill="#1B1B1B"/>
</svg>
