<svg width="16" height="16" viewBox="0 0 16 16" fill="none" xmlns="http://www.w3.org/2000/svg">
<path d="M3.33592 7.33592C3.06328 7.33592 2.82845 7.23742 2.63145 7.04042C2.43444 6.84341 2.33594 6.60858 2.33594 6.33594V3.33592C2.33594 3.06328 2.43444 2.82845 2.63145 2.63145C2.82845 2.43444 3.06328 2.33594 3.33592 2.33594H6.33594C6.60858 2.33594 6.84341 2.43444 7.04042 2.63145C7.23742 2.82845 7.33592 3.06328 7.33592 3.33592V6.33594C7.33592 6.60858 7.23742 6.84341 7.04042 7.04042C6.84341 7.23742 6.60858 7.33592 6.33594 7.33592H3.33592ZM3.33592 13.6692C3.06328 13.6692 2.82845 13.5707 2.63145 13.3737C2.43444 13.1767 2.33594 12.9419 2.33594 12.6693V9.66924C2.33594 9.39659 2.43444 9.16177 2.63145 8.96476C2.82845 8.76776 3.06328 8.66925 3.33592 8.66925H6.33594C6.60858 8.66925 6.84341 8.76776 7.04042 8.96476C7.23742 9.16177 7.33592 9.39659 7.33592 9.66924V12.6693C7.33592 12.9419 7.23742 13.1767 7.04042 13.3737C6.84341 13.5707 6.60858 13.6692 6.33594 13.6692H3.33592ZM9.66924 7.33592C9.39659 7.33592 9.16177 7.23742 8.96475 7.04042C8.76775 6.84341 8.66925 6.60858 8.66925 6.33594V3.33592C8.66925 3.06328 8.76775 2.82845 8.96475 2.63145C9.16177 2.43444 9.39659 2.33594 9.66924 2.33594H12.6693C12.9419 2.33594 13.1767 2.43444 13.3737 2.63145C13.5707 2.82845 13.6692 3.06328 13.6692 3.33592V6.33594C13.6692 6.60858 13.5707 6.84341 13.3737 7.04042C13.1767 7.23742 12.9419 7.33592 12.6693 7.33592H9.66924ZM9.66924 13.6692C9.39659 13.6692 9.16177 13.5707 8.96475 13.3737C8.76775 13.1767 8.66925 12.9419 8.66925 12.6693V9.66924C8.66925 9.39659 8.76775 9.16177 8.96475 8.96476C9.16177 8.76776 9.39659 8.66925 9.66924 8.66925H12.6693C12.9419 8.66925 13.1767 8.76776 13.3737 8.96476C13.5707 9.16177 13.6692 9.39659 13.6692 9.66924V12.6693C13.6692 12.9419 13.5707 13.1767 13.3737 13.3737C13.1767 13.5707 12.9419 13.6692 12.6693 13.6692H9.66924ZM3.33592 6.33594H6.33594V3.33592H3.33592V6.33594ZM9.66924 6.33594H12.6693V3.33592H9.66924V6.33594ZM9.66924 12.6693H12.6693V9.66924H9.66924V12.6693ZM3.33592 12.6693H6.33594V9.66924H3.33592V12.6693Z" fill="#1B1B1B"/>
</svg>
