<svg width="16" height="16" viewBox="0 0 16 16" fill="none" xmlns="http://www.w3.org/2000/svg">
<path d="M7.9867 13.6692C6.64654 13.6692 5.46534 13.2603 4.44312 12.4423C3.4209 11.6244 2.76578 10.5778 2.47775 9.30257C2.44185 9.17009 2.46343 9.04831 2.54249 8.9372C2.62154 8.82609 2.7335 8.76156 2.87835 8.7436C3.01469 8.72566 3.13692 8.75258 3.24504 8.82437C3.35315 8.89617 3.42857 9.00173 3.4713 9.14104C3.72516 10.171 4.27196 11.0165 5.1117 11.6776C5.95144 12.3387 6.90977 12.6693 7.9867 12.6693C9.28671 12.6693 10.3895 12.2165 11.295 11.3109C12.2006 10.4054 12.6534 9.30259 12.6534 8.00259C12.6534 6.70259 12.2006 5.59981 11.295 4.69425C10.3895 3.7887 9.28671 3.33592 7.9867 3.33592C7.2585 3.33592 6.57603 3.49767 5.93927 3.82117C5.30253 4.14467 4.75424 4.58975 4.2944 5.15642H5.538C5.67966 5.15642 5.7984 5.20436 5.89424 5.30024C5.99007 5.3961 6.03799 5.5149 6.03799 5.65664C6.03799 5.79836 5.99007 5.91708 5.89424 6.0128C5.7984 6.10854 5.67966 6.1564 5.538 6.1564H3.25597C3.08525 6.1564 2.94214 6.09865 2.82665 5.98315C2.71117 5.86767 2.65342 5.72456 2.65342 5.55384V3.27182C2.65342 3.13015 2.70135 3.0114 2.79722 2.91557C2.8931 2.81974 3.0119 2.77182 3.15362 2.77182C3.29535 2.77182 3.41408 2.81974 3.5098 2.91557C3.60553 3.0114 3.65339 3.13015 3.65339 3.27182V4.35132C4.19441 3.71287 4.84227 3.21735 5.59697 2.86479C6.35167 2.51222 7.14825 2.33594 7.9867 2.33594C8.77335 2.33594 9.51018 2.48466 10.1972 2.7821C10.8842 3.07954 11.4833 3.4838 11.9944 3.9949C12.5055 4.50602 12.9098 5.10504 13.2072 5.79197C13.5046 6.4789 13.6533 7.21565 13.6533 8.00222C13.6533 8.78879 13.5046 9.52566 13.2072 10.2128C12.9098 10.9 12.5055 11.4992 11.9944 12.0103C11.4833 12.5214 10.8842 12.9256 10.1972 13.2231C9.51018 13.5205 8.77335 13.6692 7.9867 13.6692ZM8.50592 7.80002L10.3393 9.63337C10.4316 9.72568 10.4788 9.8417 10.4809 9.98144C10.4831 10.1212 10.4358 10.2393 10.3393 10.3359C10.2427 10.4325 10.1256 10.4808 9.98799 10.4808C9.85039 10.4808 9.7333 10.4325 9.63672 10.3359L7.6867 8.38592C7.62432 8.32352 7.57859 8.25553 7.54954 8.18195C7.52047 8.10838 7.50594 8.03235 7.50594 7.95387V5.16924C7.50594 5.02758 7.55388 4.90884 7.64976 4.813C7.74563 4.71717 7.86443 4.66925 8.00616 4.66925C8.14789 4.66925 8.26662 4.71717 8.36234 4.813C8.45806 4.90884 8.50592 5.02758 8.50592 5.16924V7.80002Z" fill="#1B1B1B"/>
</svg>
