<svg width="160" height="110" viewBox="0 0 160 110" fill="none" xmlns="http://www.w3.org/2000/svg">
<path d="M43.6405 47.3696C43.5638 46.6638 44.0704 46.0253 44.7703 45.948C45.4702 45.8708 46.1035 46.3816 46.1801 47.0873C46.5101 50.0245 47.2066 52.8373 48.2132 55.4822C49.2497 58.211 50.6195 60.7584 52.2593 63.0738C52.6659 63.6519 52.5326 64.4584 51.9594 64.8684C51.3861 65.2783 50.5862 65.144 50.1796 64.5659C48.4099 62.0657 46.9367 59.3267 45.8235 56.3996C44.747 53.5632 44.0004 50.5386 43.6438 47.3696L43.6405 47.3696ZM78.7156 21.3413C78.7156 20.6288 79.2889 20.0508 79.9954 20.0508C80.702 20.0508 81.2753 20.6288 81.2753 21.3413V44.8824C81.2753 45.3529 81.022 45.7662 80.6487 45.9914L66.4673 55.7742C65.884 56.1741 65.0908 56.0228 64.6942 55.4347C64.2976 54.8466 64.4476 54.0468 65.0308 53.6469L78.7191 44.2031V21.3374L78.7156 21.3413ZM54.0822 69.2141C53.5823 68.7133 53.579 67.8967 54.0756 67.3926C54.5722 66.8885 55.382 66.8851 55.882 67.3859L56.1386 67.6413C56.6386 68.142 56.6419 68.9586 56.1453 69.4627C55.6487 69.9668 54.8388 69.9702 54.3389 69.4695L54.0822 69.2141ZM58.9949 73.3644C58.4183 72.9578 58.2783 72.1547 58.6783 71.5766C59.0816 70.9952 59.8781 70.8541 60.4514 71.2573C63.7776 73.6031 67.5371 75.3573 71.5535 76.3823C75.423 77.3703 79.5325 77.6828 83.735 77.2023H83.7516C93.0535 76.1302 101.043 71.3581 106.439 64.4893C111.841 57.6134 114.648 48.624 113.575 39.1235V39.1067C112.498 29.6233 107.759 21.5104 100.967 16.0362C94.1673 10.5617 85.3082 7.72529 76.0029 8.79063C74.4797 8.96538 72.99 9.24096 71.5435 9.60727C70.8136 9.7921 70.097 10.0005 69.3938 10.229L74.9731 13.8551C75.5663 14.2382 75.7396 15.038 75.3597 15.6362C74.9797 16.2344 74.1865 16.4092 73.5933 16.026L65.7609 10.938C65.241 10.5986 65.0277 9.91637 65.2877 9.32825L69.1072 0.761999C69.3938 0.113392 70.1504 -0.175583 70.7937 0.110036C71.4369 0.399054 71.7235 1.16195 71.4403 1.81055L68.8073 7.71857C69.5072 7.49341 70.2137 7.29178 70.927 7.1103C72.4835 6.7171 74.08 6.42137 75.7164 6.2332C85.7247 5.08389 95.251 8.13193 102.56 14.0198C109.845 19.8875 114.935 28.5817 116.108 38.7438L116.128 38.9219C117.251 49.0841 114.235 58.706 108.442 66.0789C102.65 73.4555 94.0843 78.5803 84.1153 79.7504L83.9419 79.7705C79.4592 80.2746 75.0701 79.9352 70.9405 78.8799C66.6278 77.7777 62.5883 75.8889 59.0022 73.3617L58.9949 73.3644Z" fill="black"/>
<path d="M31.352 106.063C30.914 106.063 30.518 105.988 30.164 105.838C29.816 105.688 29.54 105.472 29.336 105.19C29.132 104.908 29.027 104.575 29.021 104.191H30.371C30.389 104.449 30.479 104.653 30.641 104.803C30.809 104.953 31.037 105.028 31.325 105.028C31.619 105.028 31.85 104.959 32.018 104.821C32.186 104.677 32.27 104.491 32.27 104.263C32.27 104.077 32.213 103.924 32.099 103.804C31.985 103.684 31.841 103.591 31.667 103.525C31.499 103.453 31.265 103.375 30.965 103.291C30.557 103.171 30.224 103.054 29.966 102.94C29.714 102.82 29.495 102.643 29.309 102.409C29.129 102.169 29.039 101.851 29.039 101.455C29.039 101.083 29.132 100.759 29.318 100.483C29.504 100.207 29.765 99.997 30.101 99.853C30.437 99.703 30.821 99.628 31.253 99.628C31.901 99.628 32.426 99.787 32.828 100.105C33.236 100.417 33.461 100.855 33.503 101.419H32.117C32.105 101.203 32.012 101.026 31.838 100.888C31.67 100.744 31.445 100.672 31.163 100.672C30.917 100.672 30.719 100.735 30.569 100.861C30.425 100.987 30.353 101.17 30.353 101.41C30.353 101.578 30.407 101.719 30.515 101.833C30.629 101.941 30.767 102.031 30.929 102.103C31.097 102.169 31.331 102.247 31.631 102.337C32.039 102.457 32.372 102.577 32.63 102.697C32.888 102.817 33.11 102.997 33.296 103.237C33.482 103.477 33.575 103.792 33.575 104.182C33.575 104.518 33.488 104.83 33.314 105.118C33.14 105.406 32.885 105.637 32.549 105.811C32.213 105.979 31.814 106.063 31.352 106.063ZM36.8814 106.081C36.4014 106.081 35.9694 105.976 35.5854 105.766C35.2014 105.55 34.8984 105.247 34.6764 104.857C34.4604 104.467 34.3524 104.017 34.3524 103.507C34.3524 102.997 34.4634 102.547 34.6854 102.157C34.9134 101.767 35.2224 101.467 35.6124 101.257C36.0024 101.041 36.4374 100.933 36.9174 100.933C37.3974 100.933 37.8324 101.041 38.2224 101.257C38.6124 101.467 38.9184 101.767 39.1404 102.157C39.3684 102.547 39.4824 102.997 39.4824 103.507C39.4824 104.017 39.3654 104.467 39.1314 104.857C38.9034 105.247 38.5914 105.55 38.1954 105.766C37.8054 105.976 37.3674 106.081 36.8814 106.081ZM36.8814 104.983C37.1094 104.983 37.3224 104.929 37.5204 104.821C37.7244 104.707 37.8864 104.539 38.0064 104.317C38.1264 104.095 38.1864 103.825 38.1864 103.507C38.1864 103.033 38.0604 102.67 37.8084 102.418C37.5624 102.16 37.2594 102.031 36.8994 102.031C36.5394 102.031 36.2364 102.16 35.9904 102.418C35.7504 102.67 35.6304 103.033 35.6304 103.507C35.6304 103.981 35.7474 104.347 35.9814 104.605C36.2214 104.857 36.5214 104.983 36.8814 104.983ZM41.6666 101.788C41.8286 101.524 42.0386 101.317 42.2966 101.167C42.5606 101.017 42.8606 100.942 43.1966 100.942V102.265H42.8636C42.4676 102.265 42.1676 102.358 41.9636 102.544C41.7656 102.73 41.6666 103.054 41.6666 103.516V106H40.4066V101.014H41.6666V101.788ZM45.3053 101.788C45.4673 101.524 45.6773 101.317 45.9353 101.167C46.1993 101.017 46.4993 100.942 46.8353 100.942V102.265H46.5023C46.1063 102.265 45.8063 102.358 45.6023 102.544C45.4043 102.73 45.3053 103.054 45.3053 103.516V106H44.0453V101.014H45.3053V101.788ZM52.454 101.014L49.367 108.358H48.026L49.106 105.874L47.108 101.014H48.521L49.808 104.497L51.113 101.014H52.454ZM54.5102 104.677L53.4572 107.206H52.6472L53.2322 104.677H54.5102ZM60.3259 100.942C60.9199 100.942 61.3999 101.131 61.7659 101.509C62.1319 101.881 62.3149 102.403 62.3149 103.075V106H61.0549V103.246C61.0549 102.85 60.9559 102.547 60.7579 102.337C60.5599 102.121 60.2899 102.013 59.9479 102.013C59.5999 102.013 59.3239 102.121 59.1199 102.337C58.9219 102.547 58.8229 102.85 58.8229 103.246V106H57.5629V101.014H58.8229V101.635C58.9909 101.419 59.2039 101.251 59.4619 101.131C59.7259 101.005 60.0139 100.942 60.3259 100.942ZM65.7271 106.081C65.2471 106.081 64.8151 105.976 64.4311 105.766C64.0471 105.55 63.7441 105.247 63.5221 104.857C63.3061 104.467 63.1981 104.017 63.1981 103.507C63.1981 102.997 63.3091 102.547 63.5311 102.157C63.7591 101.767 64.0681 101.467 64.4581 101.257C64.8481 101.041 65.2831 100.933 65.7631 100.933C66.2431 100.933 66.6781 101.041 67.0681 101.257C67.4581 101.467 67.7641 101.767 67.9861 102.157C68.2141 102.547 68.3281 102.997 68.3281 103.507C68.3281 104.017 68.2111 104.467 67.9771 104.857C67.7491 105.247 67.4371 105.55 67.0411 105.766C66.6511 105.976 66.2131 106.081 65.7271 106.081ZM65.7271 104.983C65.9551 104.983 66.1681 104.929 66.3661 104.821C66.5701 104.707 66.7321 104.539 66.8521 104.317C66.9721 104.095 67.0321 103.825 67.0321 103.507C67.0321 103.033 66.9061 102.67 66.6541 102.418C66.4081 102.16 66.1051 102.031 65.7451 102.031C65.3851 102.031 65.0821 102.16 64.8361 102.418C64.5961 102.67 64.4761 103.033 64.4761 103.507C64.4761 103.981 64.5931 104.347 64.8271 104.605C65.0671 104.857 65.3671 104.983 65.7271 104.983ZM74.2049 100.942C74.5829 100.942 74.9189 101.026 75.2129 101.194C75.5069 101.356 75.7349 101.599 75.8969 101.923C76.0649 102.241 76.1489 102.625 76.1489 103.075V106H74.8889V103.246C74.8889 102.85 74.7899 102.547 74.5919 102.337C74.3939 102.121 74.1239 102.013 73.7819 102.013C73.4339 102.013 73.1579 102.121 72.9539 102.337C72.7559 102.547 72.6569 102.85 72.6569 103.246V106H71.3969V99.34H72.6569V101.635C72.8189 101.419 73.0349 101.251 73.3049 101.131C73.5749 101.005 73.8749 100.942 74.2049 100.942ZM77.9861 100.42C77.7641 100.42 77.5781 100.351 77.4281 100.213C77.2841 100.069 77.2121 99.892 77.2121 99.682C77.2121 99.472 77.2841 99.298 77.4281 99.16C77.5781 99.016 77.7641 98.944 77.9861 98.944C78.2081 98.944 78.3911 99.016 78.5351 99.16C78.6851 99.298 78.7601 99.472 78.7601 99.682C78.7601 99.892 78.6851 100.069 78.5351 100.213C78.3911 100.351 78.2081 100.42 77.9861 100.42ZM78.6071 101.014V106H77.3471V101.014H78.6071ZM81.76 106.081C81.352 106.081 80.986 106.009 80.662 105.865C80.338 105.715 80.08 105.514 79.888 105.262C79.702 105.01 79.6 104.731 79.582 104.425H80.851C80.875 104.617 80.968 104.776 81.13 104.902C81.298 105.028 81.505 105.091 81.751 105.091C81.991 105.091 82.177 105.043 82.309 104.947C82.447 104.851 82.516 104.728 82.516 104.578C82.516 104.416 82.432 104.296 82.264 104.218C82.102 104.134 81.841 104.044 81.481 103.948C81.109 103.858 80.803 103.765 80.563 103.669C80.329 103.573 80.125 103.426 79.951 103.228C79.783 103.03 79.699 102.763 79.699 102.427C79.699 102.151 79.777 101.899 79.933 101.671C80.095 101.443 80.323 101.263 80.617 101.131C80.917 100.999 81.268 100.933 81.67 100.933C82.264 100.933 82.738 101.083 83.092 101.383C83.446 101.677 83.641 102.076 83.677 102.58H82.471C82.453 102.382 82.369 102.226 82.219 102.112C82.075 101.992 81.88 101.932 81.634 101.932C81.406 101.932 81.229 101.974 81.103 102.058C80.983 102.142 80.923 102.259 80.923 102.409C80.923 102.577 81.007 102.706 81.175 102.796C81.343 102.88 81.604 102.967 81.958 103.057C82.318 103.147 82.615 103.24 82.849 103.336C83.083 103.432 83.284 103.582 83.452 103.786C83.626 103.984 83.716 104.248 83.722 104.578C83.722 104.866 83.641 105.124 83.479 105.352C83.323 105.58 83.095 105.76 82.795 105.892C82.501 106.018 82.156 106.081 81.76 106.081ZM86.2233 102.049V104.461C86.2233 104.629 86.2623 104.752 86.3403 104.83C86.4243 104.902 86.5623 104.938 86.7543 104.938H87.3393V106H86.5473C85.4853 106 84.9543 105.484 84.9543 104.452V102.049H84.3603V101.014H84.9543V99.781H86.2233V101.014H87.3393V102.049H86.2233ZM90.4595 106.081C89.9795 106.081 89.5475 105.976 89.1635 105.766C88.7795 105.55 88.4765 105.247 88.2545 104.857C88.0385 104.467 87.9305 104.017 87.9305 103.507C87.9305 102.997 88.0415 102.547 88.2635 102.157C88.4915 101.767 88.8005 101.467 89.1905 101.257C89.5805 101.041 90.0155 100.933 90.4955 100.933C90.9755 100.933 91.4105 101.041 91.8005 101.257C92.1905 101.467 92.4965 101.767 92.7185 102.157C92.9465 102.547 93.0605 102.997 93.0605 103.507C93.0605 104.017 92.9435 104.467 92.7095 104.857C92.4815 105.247 92.1695 105.55 91.7735 105.766C91.3835 105.976 90.9455 106.081 90.4595 106.081ZM90.4595 104.983C90.6875 104.983 90.9005 104.929 91.0985 104.821C91.3025 104.707 91.4645 104.539 91.5845 104.317C91.7045 104.095 91.7645 103.825 91.7645 103.507C91.7645 103.033 91.6385 102.67 91.3865 102.418C91.1405 102.16 90.8375 102.031 90.4775 102.031C90.1175 102.031 89.8145 102.16 89.5685 102.418C89.3285 102.67 89.2085 103.033 89.2085 103.507C89.2085 103.981 89.3255 104.347 89.5595 104.605C89.7995 104.857 90.0995 104.983 90.4595 104.983ZM95.2448 101.788C95.4068 101.524 95.6168 101.317 95.8748 101.167C96.1388 101.017 96.4388 100.942 96.7748 100.942V102.265H96.4418C96.0458 102.265 95.7458 102.358 95.5418 102.544C95.3438 102.73 95.2448 103.054 95.2448 103.516V106H93.9848V101.014H95.2448V101.788ZM102.393 101.014L99.3064 108.358H97.9654L99.0454 105.874L97.0474 101.014H98.4604L99.7474 104.497L101.052 101.014H102.393ZM107.503 102.049H106.63V106H105.352V102.049H104.785V101.014H105.352V100.762C105.352 100.15 105.526 99.7 105.874 99.412C106.222 99.124 106.747 98.989 107.449 99.007V100.069C107.143 100.063 106.93 100.114 106.81 100.222C106.69 100.33 106.63 100.525 106.63 100.807V101.014H107.503V102.049ZM110.534 106.081C110.054 106.081 109.622 105.976 109.238 105.766C108.854 105.55 108.551 105.247 108.329 104.857C108.113 104.467 108.005 104.017 108.005 103.507C108.005 102.997 108.116 102.547 108.338 102.157C108.566 101.767 108.875 101.467 109.265 101.257C109.655 101.041 110.09 100.933 110.57 100.933C111.05 100.933 111.485 101.041 111.875 101.257C112.265 101.467 112.571 101.767 112.793 102.157C113.021 102.547 113.135 102.997 113.135 103.507C113.135 104.017 113.018 104.467 112.784 104.857C112.556 105.247 112.244 105.55 111.848 105.766C111.458 105.976 111.02 106.081 110.534 106.081ZM110.534 104.983C110.762 104.983 110.975 104.929 111.173 104.821C111.377 104.707 111.539 104.539 111.659 104.317C111.779 104.095 111.839 103.825 111.839 103.507C111.839 103.033 111.713 102.67 111.461 102.418C111.215 102.16 110.912 102.031 110.552 102.031C110.192 102.031 109.889 102.16 109.643 102.418C109.403 102.67 109.283 103.033 109.283 103.507C109.283 103.981 109.4 104.347 109.634 104.605C109.874 104.857 110.174 104.983 110.534 104.983ZM118.766 101.014V106H117.497V105.37C117.335 105.586 117.122 105.757 116.858 105.883C116.6 106.003 116.318 106.063 116.012 106.063C115.622 106.063 115.277 105.982 114.977 105.82C114.677 105.652 114.44 105.409 114.266 105.091C114.098 104.767 114.014 104.383 114.014 103.939V101.014H115.274V103.759C115.274 104.155 115.373 104.461 115.571 104.677C115.769 104.887 116.039 104.992 116.381 104.992C116.729 104.992 117.002 104.887 117.2 104.677C117.398 104.461 117.497 104.155 117.497 103.759V101.014H118.766ZM122.772 100.942C123.366 100.942 123.846 101.131 124.212 101.509C124.578 101.881 124.761 102.403 124.761 103.075V106H123.501V103.246C123.501 102.85 123.402 102.547 123.204 102.337C123.006 102.121 122.736 102.013 122.394 102.013C122.046 102.013 121.77 102.121 121.566 102.337C121.368 102.547 121.269 102.85 121.269 103.246V106H120.009V101.014H121.269V101.635C121.437 101.419 121.65 101.251 121.908 101.131C122.172 101.005 122.46 100.942 122.772 100.942ZM125.635 103.489C125.635 102.985 125.734 102.538 125.932 102.148C126.136 101.758 126.412 101.458 126.76 101.248C127.108 101.038 127.495 100.933 127.921 100.933C128.245 100.933 128.554 101.005 128.848 101.149C129.142 101.287 129.376 101.473 129.55 101.707V99.34H130.828V106H129.55V105.262C129.394 105.508 129.175 105.706 128.893 105.856C128.611 106.006 128.284 106.081 127.912 106.081C127.492 106.081 127.108 105.973 126.76 105.757C126.412 105.541 126.136 105.238 125.932 104.848C125.734 104.452 125.635 103.999 125.635 103.489ZM129.559 103.507C129.559 103.201 129.499 102.94 129.379 102.724C129.259 102.502 129.097 102.334 128.893 102.22C128.689 102.1 128.47 102.04 128.236 102.04C128.002 102.04 127.786 102.097 127.588 102.211C127.39 102.325 127.228 102.493 127.102 102.715C126.982 102.931 126.922 103.189 126.922 103.489C126.922 103.789 126.982 104.053 127.102 104.281C127.228 104.503 127.39 104.674 127.588 104.794C127.792 104.914 128.008 104.974 128.236 104.974C128.47 104.974 128.689 104.917 128.893 104.803C129.097 104.683 129.259 104.515 129.379 104.299C129.499 104.077 129.559 103.813 129.559 103.507Z" fill="#747474"/>
</svg>
