<svg width="16" height="16" viewBox="0 0 16 16" fill="none" xmlns="http://www.w3.org/2000/svg">
<path d="M7.9985 14.3307C7.12254 14.3307 6.29918 14.1645 5.52843 13.832C4.75766 13.4996 4.08721 13.0484 3.51706 12.4785C2.94691 11.9086 2.49553 11.2385 2.16295 10.468C1.83036 9.69764 1.66406 8.87445 1.66406 7.9985C1.66406 7.12254 1.83028 6.29918 2.16273 5.52843C2.49517 4.75766 2.94634 4.08721 3.51623 3.51706C4.08613 2.94691 4.75629 2.49554 5.52671 2.16295C6.29712 1.83036 7.12031 1.66406 7.99626 1.66406C8.87222 1.66406 9.69557 1.83029 10.4663 2.16273C11.2371 2.49517 11.9076 2.94634 12.4777 3.51623C13.0479 4.08613 13.4992 4.75629 13.8318 5.52671C14.1644 6.29712 14.3307 7.12031 14.3307 7.99626C14.3307 8.87222 14.1645 9.69557 13.832 10.4663C13.4996 11.2371 13.0484 11.9076 12.4785 12.4777C11.9086 13.0479 11.2385 13.4992 10.468 13.8318C9.69764 14.1644 8.87445 14.3307 7.9985 14.3307ZM7.99738 13.3307C8.62286 13.3307 9.22517 13.2249 9.80431 13.0134C10.3835 12.8019 10.9128 12.4957 11.3923 12.0948L3.89995 4.6025C3.50337 5.08199 3.19824 5.6113 2.98456 6.19045C2.77088 6.76959 2.66405 7.3719 2.66405 7.99738C2.66405 9.48627 3.18071 10.7474 4.21405 11.7807C5.24738 12.814 6.50849 13.3307 7.99738 13.3307ZM12.0948 11.3923C12.4957 10.9128 12.8019 10.3835 13.0134 9.80431C13.2249 9.22517 13.3307 8.62286 13.3307 7.99738C13.3307 6.50849 12.814 5.24738 11.7807 4.21405C10.7474 3.18071 9.48627 2.66405 7.99738 2.66405C7.3704 2.66405 6.76665 2.76875 6.18611 2.97815C5.60558 3.18756 5.07771 3.49482 4.6025 3.89995L12.0948 11.3923Z" fill="#1B1B1B"/>
</svg>
