<svg width="27" height="27" viewBox="0 0 27 27" fill="none" xmlns="http://www.w3.org/2000/svg">
<g opacity="0.2" clip-path="url(#clip0_4259_26874)">
<path d="M24.9398 13.2846L14.1006 3.16797L3.26138 13.2846C2.9196 13.6035 3.14527 14.1762 3.61259 14.1762H6.23754V25.1845H21.9636V14.1762H24.5886C25.0559 14.1762 25.2816 13.6035 24.9398 13.2846ZM14.1006 11.8173C15.4035 11.8173 16.4595 12.8733 16.4595 14.1762C16.4595 15.4791 15.4035 16.5351 14.1006 16.5351C12.7977 16.5351 11.7417 15.4791 11.7417 14.1762C11.7417 12.8733 12.7977 11.8173 14.1006 11.8173ZM18.0321 22.0393H10.1691V19.6804C10.1691 18.3775 11.2251 17.3215 12.528 17.3215H15.6732C16.9761 17.3215 18.0321 18.3775 18.0321 19.6804V22.0393Z" fill="white"/>
</g>
<defs>
<clipPath id="clip0_4259_26874">
<rect width="26.0937" height="26.0937" fill="white" transform="translate(0.650391 0.722656)"/>
</clipPath>
</defs>
</svg>
