<svg width="32" height="32" viewBox="0 0 32 32" fill="none" xmlns="http://www.w3.org/2000/svg">
<g clip-path="url(#clip0_3073_35073)">
<path d="M29.7873 15.4065L16.4947 3L3.20198 15.4065C2.78283 15.7977 3.05958 16.5 3.63269 16.5H6.8518V30H26.1375V16.5H29.3566C29.9297 16.5 30.2065 15.7977 29.7873 15.4065ZM16.4947 13.6071C18.0925 13.6071 19.3875 14.9022 19.3875 16.5C19.3875 18.0978 18.0925 19.3929 16.4947 19.3929C14.8968 19.3929 13.6018 18.0978 13.6018 16.5C13.6018 14.9022 14.8968 13.6071 16.4947 13.6071ZM21.3161 26.1429H11.6732V23.25C11.6732 21.6522 12.9683 20.3571 14.5661 20.3571H18.4232C20.021 20.3571 21.3161 21.6522 21.3161 23.25V26.1429Z" fill="white"/>
</g>
<defs>
<clipPath id="clip0_3073_35073">
<rect width="32" height="32" fill="white"/>
</clipPath>
</defs>
</svg>
