<svg width="107" height="69" viewBox="0 0 107 69" fill="none" xmlns="http://www.w3.org/2000/svg">
<rect width="107" height="69" fill="#D4D4D4"/>
<path d="M44.3094 46.2284C43.6139 46.2284 43.0251 45.9875 42.5432 45.5055C42.0613 45.0236 41.8203 44.4349 41.8203 43.7393V25.3094C41.8203 24.6139 42.0613 24.0251 42.5432 23.5432C43.0251 23.0613 43.6139 22.8203 44.3094 22.8203H62.7393C63.4349 22.8203 64.0236 23.0613 64.5055 23.5432C64.9875 24.0251 65.2284 24.6139 65.2284 25.3094V43.7393C65.2284 44.4349 64.9875 45.0236 64.5055 45.5055C64.0236 45.9875 63.4349 46.2284 62.7393 46.2284H44.3094ZM47.54 41.0649H59.6147C59.8636 41.0649 60.0481 40.9519 60.1681 40.7259C60.2882 40.5 60.2696 40.2811 60.1125 40.0692L56.829 35.671C56.7002 35.5051 56.5342 35.4221 56.3312 35.4221C56.1282 35.4221 55.9623 35.5051 55.8334 35.671L52.4652 40.0587L50.2091 37.1671C50.0803 37.01 49.9165 36.9314 49.7179 36.9314C49.5193 36.9314 49.3556 37.0144 49.2267 37.1804L47.0554 40.0692C46.8895 40.2811 46.8665 40.5 46.9866 40.7259C47.1066 40.9519 47.2911 41.0649 47.54 41.0649Z" fill="#747474"/>
</svg>
