<svg width="16" height="16" viewBox="0 0 16 16" fill="none" xmlns="http://www.w3.org/2000/svg">
<path d="M2.20515 13.6668C1.87267 13.6668 1.5887 13.5491 1.35323 13.3136C1.11774 13.0781 1 12.7941 1 12.4617V9.53864C1 9.20616 1.11774 8.92219 1.35322 8.68672C1.58868 8.45124 1.87266 8.33351 2.20513 8.33351H2.33333V5.34889H2.26923C2.0906 5.27368 1.94552 5.15808 1.83398 5.0021C1.72244 4.84613 1.66667 4.66173 1.66667 4.4489V3.69249C1.66667 3.4113 1.76517 3.1722 1.96218 2.9752C2.15918 2.77819 2.39828 2.67969 2.67947 2.67969H5.98717C6.26836 2.67969 6.50745 2.77819 6.70445 2.9752C6.90146 3.1722 6.99997 3.4113 6.99997 3.69249V4.4489C6.99997 4.66173 6.94419 4.84613 6.83265 5.0021C6.72112 5.15808 6.57603 5.27368 6.3974 5.34889H6.3333V8.33351H9.66667V5.34889H9.60257C9.42393 5.27368 9.27885 5.15808 9.16732 5.0021C9.05577 4.84613 9 4.66173 9 4.4489V3.69249C9 3.4113 9.09851 3.1722 9.29552 2.9752C9.49252 2.77819 9.73161 2.67969 10.0128 2.67969H13.3205C13.6017 2.67969 13.8408 2.77819 14.0378 2.9752C14.2348 3.1722 14.3333 3.4113 14.3333 3.69249V4.4489C14.3333 4.66173 14.2775 4.84613 14.166 5.0021C14.0545 5.15808 13.9094 5.27368 13.7307 5.34889H13.6666V8.33351H13.7948C14.1273 8.33351 14.4113 8.45124 14.6468 8.68672C14.8822 8.92219 15 9.20616 15 9.53864V12.4617C15 12.7941 14.8822 13.0781 14.6468 13.3136C14.4113 13.5491 14.1273 13.6668 13.7948 13.6668H2.20515ZM10 4.46172H13.3333V3.67967H10V4.46172ZM2.66667 4.46172H6V3.67967H2.66667V4.46172ZM10.6667 8.33351H12.6667V5.4617H10.6667V8.33351ZM3.33333 8.33351H5.33333V5.4617H3.33333V8.33351ZM2.20515 12.6668H13.7949C13.8547 12.6668 13.9038 12.6476 13.9423 12.6091C13.9808 12.5707 14 12.5215 14 12.4617V9.53864C14 9.4788 13.9808 9.42966 13.9423 9.39119C13.9038 9.35272 13.8547 9.33349 13.7949 9.33349H2.20515C2.14532 9.33349 2.09617 9.35272 2.0577 9.39119C2.01923 9.42966 2 9.4788 2 9.53864V12.4617C2 12.5215 2.01923 12.5707 2.0577 12.6091C2.09617 12.6476 2.14532 12.6668 2.20515 12.6668Z" fill="#1B1B1B"/>
</svg>
