<svg width="40" height="32" viewBox="0 0 40 32" fill="none" xmlns="http://www.w3.org/2000/svg">
<rect width="40" height="32" rx="4" fill="white"/>
<path d="M17.0033 12.3724C16.7721 12.3724 16.5752 12.4533 16.4129 12.6152C16.2505 12.7771 16.1693 12.9737 16.1693 13.2049C16.1693 13.4362 16.2502 13.6331 16.4121 13.7954C16.574 13.9578 16.7706 14.039 17.0018 14.039C17.2331 14.039 17.4299 13.9581 17.5923 13.7962C17.7547 13.6343 17.8359 13.4377 17.8359 13.2065C17.8359 12.9752 17.755 12.7784 17.5931 12.616C17.4312 12.4536 17.2346 12.3724 17.0033 12.3724ZM17.0033 18.6288C16.7721 18.6288 16.5752 18.7097 16.4129 18.8716C16.2505 19.0335 16.1693 19.2301 16.1693 19.4613C16.1693 19.6926 16.2502 19.8894 16.4121 20.0518C16.574 20.2142 16.7706 20.2954 17.0018 20.2954C17.2331 20.2954 17.4299 20.2145 17.5923 20.0526C17.7547 19.8907 17.8359 19.6941 17.8359 19.4628C17.8359 19.2316 17.755 19.0347 17.5931 18.8723C17.4312 18.71 17.2346 18.6288 17.0033 18.6288ZM14.9257 10.5391H25.0795C25.2466 10.5391 25.3867 10.5954 25.4997 10.7081C25.6127 10.8209 25.6692 10.9606 25.6692 11.1272V15.2441C25.6692 15.4245 25.6127 15.5743 25.4997 15.6935C25.3867 15.8127 25.2466 15.8723 25.0795 15.8723H14.9257C14.7586 15.8723 14.6185 15.8127 14.5055 15.6935C14.3925 15.5743 14.3359 15.4245 14.3359 15.2441V11.1272C14.3359 10.9606 14.3925 10.8209 14.5055 10.7081C14.6185 10.5954 14.7586 10.5391 14.9257 10.5391ZM15.3359 11.539V14.8724H24.6693V11.539H15.3359ZM14.9257 16.7954H25.0667C25.2427 16.7954 25.3872 16.8544 25.5 16.9724C25.6128 17.0903 25.6692 17.2365 25.6692 17.4108V21.4877C25.6692 21.6766 25.6128 21.8307 25.5 21.9499C25.3872 22.0691 25.2427 22.1287 25.0667 22.1287H14.9385C14.7624 22.1287 14.618 22.0691 14.5052 21.9499C14.3923 21.8307 14.3359 21.6766 14.3359 21.4877V17.4108C14.3359 17.2365 14.3902 17.0903 14.4988 16.9724C14.6073 16.8544 14.7496 16.7954 14.9257 16.7954ZM15.3359 17.7954V21.1287H24.6693V17.7954H15.3359Z" fill="#1B1B1B"/>
</svg>
