<svg width="16" height="16" viewBox="0 0 16 16" fill="none" xmlns="http://www.w3.org/2000/svg">
<path d="M5.00334 4.37238C4.77207 4.37238 4.57524 4.45332 4.41285 4.61521C4.25047 4.7771 4.16927 4.97368 4.16927 5.20495C4.16927 5.43622 4.25022 5.63306 4.4121 5.79545C4.57399 5.95783 4.77057 6.03903 5.00184 6.03903C5.2331 6.03903 5.42993 5.95808 5.59232 5.7962C5.75471 5.63431 5.8359 5.43773 5.8359 5.20646C5.8359 4.9752 5.75496 4.77836 5.59307 4.61596C5.43118 4.45357 5.2346 4.37238 5.00334 4.37238ZM5.00334 10.6288C4.77207 10.6288 4.57524 10.7097 4.41285 10.8716C4.25047 11.0335 4.16927 11.2301 4.16927 11.4613C4.16927 11.6926 4.25022 11.8894 4.4121 12.0518C4.57399 12.2142 4.77057 12.2954 5.00184 12.2954C5.2331 12.2954 5.42993 12.2145 5.59232 12.0526C5.75471 11.8907 5.8359 11.6941 5.8359 11.4628C5.8359 11.2316 5.75496 11.0347 5.59307 10.8723C5.43118 10.71 5.2346 10.6288 5.00334 10.6288ZM2.92569 2.53906H13.0795C13.2466 2.53906 13.3867 2.59542 13.4997 2.70815C13.6127 2.82088 13.6692 2.96056 13.6692 3.1272V7.24415C13.6692 7.42449 13.6127 7.57427 13.4997 7.6935C13.3867 7.81273 13.2466 7.87235 13.0795 7.87235H2.92569C2.75859 7.87235 2.61852 7.81273 2.50549 7.6935C2.39245 7.57427 2.33594 7.42449 2.33594 7.24415V3.1272C2.33594 2.96056 2.39245 2.82088 2.50549 2.70815C2.61852 2.59542 2.75859 2.53906 2.92569 2.53906ZM3.33592 3.53905V6.87238H12.6693V3.53905H3.33592ZM2.92569 8.79545H13.0667C13.2427 8.79545 13.3872 8.85442 13.5 8.97236C13.6128 9.09032 13.6692 9.23647 13.6692 9.41083V13.4877C13.6692 13.6766 13.6128 13.8307 13.5 13.9499C13.3872 14.0691 13.2427 14.1287 13.0667 14.1287H2.9385C2.76244 14.1287 2.61799 14.0691 2.50517 13.9499C2.39235 13.8307 2.33594 13.6766 2.33594 13.4877V9.41083C2.33594 9.23647 2.39022 9.09032 2.49877 8.97236C2.60732 8.85442 2.74962 8.79545 2.92569 8.79545ZM3.33592 9.79541V13.1287H12.6693V9.79541H3.33592Z" fill="white"/>
</svg>
