<svg width="40" height="41" viewBox="0 0 40 41" fill="none" xmlns="http://www.w3.org/2000/svg">
<circle cx="20" cy="20.5" r="20" fill="#5B4DB7"/>
<path d="M29.8 16.6L27.6 13C27.2 12.4 26.6 12 25.9 12H14.1C13.4 12 12.8 12.4 12.4 13L10.2 16.6C10.1 16.8 10 17.2 10 17.5V28C10 29.1 10.9 30 12 30H28C29.1 30 30 29.1 30 28V17.5C30 17.2 29.9 16.8 29.8 16.6ZM23 21H17C16.4 21 16 20.6 16 20C16 19.4 16.4 19 17 19H23C23.6 19 24 19.4 24 20C24 20.6 23.6 21 23 21ZM12.2 17L13.9 14H26.1L27.8 17H12.2Z" fill="white"/>
</svg>
