<svg width="16" height="17" viewBox="0 0 16 17" fill="none" xmlns="http://www.w3.org/2000/svg">
<path d="M15.7753 15.0349L12.8091 12.0904C13.9605 10.6537 14.5181 8.83014 14.3672 6.99464C14.2164 5.15914 13.3685 3.45124 11.998 2.22213C10.6275 0.993015 8.83851 0.33611 6.9989 0.386486C5.15928 0.436863 3.40887 1.19069 2.10758 2.49297C0.806291 3.79525 0.0530336 5.54699 0.00269517 7.388C-0.0476432 9.22902 0.608763 11.0194 1.83694 12.3909C3.06512 13.7625 4.77172 14.611 6.60583 14.7619C8.43994 14.9129 10.2621 14.3549 11.6978 13.2026L14.64 16.1471C14.7143 16.2221 14.8028 16.2816 14.9002 16.3223C14.9976 16.3629 15.1021 16.3838 15.2077 16.3838C15.3132 16.3838 15.4177 16.3629 15.5152 16.3223C15.6126 16.2816 15.701 16.2221 15.7753 16.1471C15.9194 15.9979 16 15.7985 16 15.591C16 15.3835 15.9194 15.1841 15.7753 15.0349ZM7.21243 13.2026C6.10552 13.2026 5.02346 12.8741 4.10309 12.2587C3.18272 11.6433 2.46538 10.7685 2.04178 9.74508C1.61818 8.72165 1.50735 7.59549 1.7233 6.50902C1.93925 5.42254 2.47228 4.42455 3.25499 3.64125C4.0377 2.85795 5.03493 2.32451 6.12058 2.1084C7.20622 1.89228 8.33153 2.0032 9.35419 2.42712C10.3768 2.85104 11.2509 3.56893 11.8659 4.48999C12.4809 5.41106 12.8091 6.49394 12.8091 7.6017C12.8091 9.08716 12.2195 10.5118 11.1699 11.5622C10.1203 12.6125 8.69676 13.2026 7.21243 13.2026Z" fill="#1B1B1B"/>
</svg>
