<svg width="16" height="16" viewBox="0 0 16 16" fill="none" xmlns="http://www.w3.org/2000/svg">
<path d="M5.33317 14.1464C4.48543 14.1464 3.76282 13.8476 3.16533 13.2501C2.56783 12.6526 2.26908 11.93 2.26908 11.0823V5.12716C1.9366 5.12716 1.65263 5.00916 1.41716 4.77316C1.1817 4.53716 1.06396 4.25346 1.06396 3.92204V2.80668C1.06396 2.47527 1.18196 2.19156 1.41796 1.95556C1.65396 1.71956 1.93767 1.60156 2.26908 1.60156H8.39725C8.72866 1.60156 9.01237 1.71956 9.24837 1.95556C9.48437 2.19156 9.60236 2.47527 9.60236 2.80668V3.92204C9.60236 4.25346 9.48437 4.53716 9.24837 4.77316C9.01237 5.00916 8.72866 5.12716 8.39725 5.12716V7.71439C8.07589 7.93746 7.7994 8.20562 7.56778 8.51886C7.33617 8.83209 7.16652 9.18657 7.05883 9.58228H5.99983C5.85817 9.58228 5.73942 9.53434 5.6436 9.43848C5.54777 9.3426 5.49985 9.22379 5.49985 9.08206C5.49985 8.94034 5.54777 8.82162 5.6436 8.72589C5.73942 8.63017 5.85817 8.58231 5.99983 8.58231H7.39727V7.58228H5.99983C5.85817 7.58228 5.73942 7.53434 5.6436 7.43848C5.54777 7.3426 5.49985 7.22379 5.49985 7.08206C5.49985 6.94034 5.54777 6.82162 5.6436 6.72589C5.73942 6.63017 5.85817 6.58231 5.99983 6.58231H7.39727V5.12716H3.26906V11.0823C3.26906 11.6557 3.46949 12.143 3.87035 12.5444C4.2712 12.9457 4.75795 13.1464 5.3306 13.1464C5.67419 13.1464 5.98808 13.072 6.27227 12.9233C6.55645 12.7746 6.79513 12.5725 6.9883 12.3169C7.05277 12.4888 7.12529 12.652 7.20587 12.8067C7.28645 12.9614 7.38102 13.1139 7.48957 13.2643C7.21093 13.5404 6.88794 13.7564 6.52058 13.9124C6.15324 14.0684 5.75743 14.1464 5.33317 14.1464ZM6.84087 11.5823H5.99983C5.85817 11.5823 5.73942 11.5343 5.6436 11.4385C5.54777 11.3426 5.49985 11.2238 5.49985 11.0821C5.49985 10.9403 5.54777 10.8216 5.6436 10.7259C5.73942 10.6302 5.85817 10.5823 5.99983 10.5823H6.79215C6.7742 10.749 6.76929 10.9146 6.7774 11.0791C6.78552 11.2436 6.80668 11.4113 6.84087 11.5823ZM2.26908 4.1272H8.39725C8.45708 4.1272 8.50623 4.10796 8.5447 4.0695C8.58317 4.03103 8.6024 3.98188 8.6024 3.92204V2.80668C8.6024 2.74684 8.58317 2.6977 8.5447 2.65923C8.50623 2.62077 8.45708 2.60155 8.39725 2.60155H2.26908C2.20925 2.60155 2.1601 2.62077 2.12163 2.65923C2.08316 2.6977 2.06393 2.74684 2.06393 2.80668V3.92204C2.06393 3.98188 2.08316 4.03103 2.12163 4.0695C2.1601 4.10796 2.20925 4.1272 2.26908 4.1272ZM10.9998 12.7682C11.4921 12.7682 11.9101 12.5964 12.2537 12.2528C12.5973 11.9092 12.7691 11.4913 12.7691 10.999C12.7691 10.5067 12.5973 10.0887 12.2537 9.74513C11.9101 9.40154 11.4921 9.22974 10.9998 9.22974C10.5075 9.22974 10.0896 9.40154 9.74598 9.74513C9.40239 10.0887 9.2306 10.5067 9.2306 10.999C9.2306 11.4913 9.40239 11.9092 9.74598 12.2528C10.0896 12.5964 10.5075 12.7682 10.9998 12.7682ZM10.9998 13.7682C10.2306 13.7682 9.57677 13.499 9.0383 12.9605C8.49984 12.422 8.23062 11.7682 8.23062 10.999C8.23062 10.2298 8.49984 9.57591 9.0383 9.03745C9.57677 8.49899 10.2306 8.22976 10.9998 8.22976C11.7691 8.22976 12.4229 8.49899 12.9614 9.03745C13.4998 9.57591 13.769 10.2298 13.769 10.999C13.769 11.2849 13.727 11.5598 13.6428 11.8236C13.5586 12.0875 13.4344 12.3374 13.2703 12.5733L14.7511 14.0477C14.8434 14.1396 14.8896 14.2566 14.8896 14.3987C14.8896 14.5408 14.8436 14.6579 14.7516 14.7502C14.6596 14.8426 14.5425 14.8887 14.4003 14.8887C14.2581 14.8887 14.1409 14.8426 14.0486 14.7502L12.5742 13.2695C12.3383 13.4336 12.0884 13.5577 11.8245 13.6419C11.5606 13.7261 11.2857 13.7682 10.9998 13.7682Z" fill="#1B1B1B"/>
</svg>
