<svg width="16" height="16" viewBox="0 0 16 16" fill="none" xmlns="http://www.w3.org/2000/svg">
<path d="M2.87115 13C2.53439 13 2.24935 12.8833 2.01602 12.65C1.78268 12.4167 1.66602 12.1316 1.66602 11.7949V4.20516C1.66602 3.86841 1.78268 3.58336 2.01602 3.35003C2.24935 3.1167 2.53439 3.00003 2.87115 3.00003H6.03267C6.19334 3.00003 6.34783 3.03123 6.49612 3.09363C6.6444 3.15602 6.77325 3.24191 6.88265 3.35131L7.8647 4.33336H13.1275C13.4643 4.33336 13.7493 4.45003 13.9827 4.68336C14.216 4.9167 14.3327 5.20174 14.3327 5.5385V11.7949C14.3327 12.1316 14.216 12.4167 13.9827 12.65C13.7493 12.8833 13.4643 13 13.1275 13H2.87115ZM2.87115 12H13.1275C13.1873 12 13.2365 11.9808 13.275 11.9423C13.3134 11.9038 13.3327 11.8547 13.3327 11.7949V5.5385C13.3327 5.47866 13.3134 5.42951 13.275 5.39105C13.2365 5.35258 13.1873 5.33335 13.1275 5.33335H7.45575L6.1801 4.05771C6.15873 4.03635 6.1363 4.02139 6.1128 4.01283C6.08929 4.00429 6.06471 4.00001 6.03907 4.00001H2.87115C2.81132 4.00001 2.76217 4.01925 2.7237 4.05771C2.68523 4.09618 2.666 4.14533 2.666 4.20516V11.7949C2.666 11.8547 2.68523 11.9038 2.7237 11.9423C2.76217 11.9808 2.81132 12 2.87115 12ZM8.53013 9.16666L7.70192 9.9949C7.6096 10.0872 7.56238 10.2032 7.56025 10.343C7.55812 10.4827 7.60534 10.6009 7.70192 10.6974C7.79849 10.794 7.91558 10.8423 8.05318 10.8423C8.19078 10.8423 8.30787 10.794 8.40445 10.6974L10.0134 9.08846C10.1339 8.96795 10.1942 8.82736 10.1942 8.66668C10.1942 8.506 10.1339 8.36541 10.0134 8.2449L8.40445 6.63593C8.31215 6.54362 8.19613 6.4964 8.05638 6.49426C7.91665 6.49213 7.79849 6.53935 7.70192 6.63593C7.60534 6.73251 7.55705 6.8496 7.55705 6.9872C7.55705 7.1248 7.60534 7.24189 7.70192 7.33846L8.53013 8.1667H6.06343C5.92157 8.1667 5.80277 8.21456 5.70703 8.31028C5.61131 8.406 5.56345 8.5248 5.56345 8.66668C5.56345 8.80856 5.61131 8.92736 5.70703 9.02308C5.80277 9.1188 5.92157 9.16666 6.06343 9.16666H8.53013Z" fill="white"/>
</svg>
