<svg width="16" height="16" viewBox="0 0 16 16" fill="none" xmlns="http://www.w3.org/2000/svg">
<path d="M2.87115 13C2.53439 13 2.24935 12.8833 2.01602 12.65C1.78268 12.4166 1.66602 12.1316 1.66602 11.7948V4.20513C1.66602 3.86838 1.78268 3.58333 2.01602 3.35C2.24935 3.11667 2.53439 3 2.87115 3H6.03267C6.19334 3 6.34783 3.0312 6.49612 3.0936C6.6444 3.15599 6.77325 3.24188 6.88265 3.35128L7.8647 4.33333H13.1275C13.4643 4.33333 13.7493 4.45 13.9827 4.68333C14.216 4.91667 14.3327 5.20171 14.3327 5.53847V11.7948C14.3327 12.1316 14.216 12.4166 13.9827 12.65C13.7493 12.8833 13.4643 13 13.1275 13H2.87115ZM2.87115 12H13.1275C13.1873 12 13.2365 11.9808 13.275 11.9423C13.3134 11.9038 13.3327 11.8547 13.3327 11.7948V5.53847C13.3327 5.47863 13.3134 5.42948 13.275 5.39102C13.2365 5.35255 13.1873 5.33332 13.1275 5.33332H7.45575L6.1801 4.05768C6.15873 4.03632 6.1363 4.02136 6.1128 4.0128C6.08929 4.00426 6.06471 3.99998 6.03907 3.99998H2.87115C2.81132 3.99998 2.76217 4.01922 2.7237 4.05768C2.68523 4.09615 2.666 4.1453 2.666 4.20513V11.7948C2.666 11.8547 2.68523 11.9038 2.7237 11.9423C2.76217 11.9808 2.81132 12 2.87115 12ZM8.53013 9.16663L7.70192 9.99487C7.6096 10.0872 7.56238 10.2032 7.56025 10.3429C7.55812 10.4827 7.60534 10.6008 7.70192 10.6974C7.79849 10.794 7.91558 10.8423 8.05318 10.8423C8.19078 10.8423 8.30787 10.794 8.40445 10.6974L10.0134 9.08843C10.1339 8.96792 10.1942 8.82733 10.1942 8.66665C10.1942 8.50597 10.1339 8.36538 10.0134 8.24487L8.40445 6.6359C8.31215 6.54359 8.19613 6.49637 8.05638 6.49423C7.91665 6.4921 7.79849 6.53932 7.70192 6.6359C7.60534 6.73248 7.55705 6.84957 7.55705 6.98717C7.55705 7.12477 7.60534 7.24186 7.70192 7.33843L8.53013 8.16667H6.06343C5.92157 8.16667 5.80277 8.21453 5.70703 8.31025C5.61131 8.40597 5.56345 8.52477 5.56345 8.66665C5.56345 8.80853 5.61131 8.92733 5.70703 9.02305C5.80277 9.11877 5.92157 9.16663 6.06343 9.16663H8.53013Z" fill="#1B1B1B"/>
</svg>
