<svg width="129" height="110" viewBox="0 0 129 110" fill="none" xmlns="http://www.w3.org/2000/svg">
<path d="M33.7687 29.1741H83.0617C83.778 29.1741 84.3591 29.7521 84.3591 30.4645L80.8759 74.2C80.7509 75.7995 80.0684 77.2646 79.0109 78.3165C77.967 79.3548 76.5581 80 74.9465 80H41.887C40.2754 80 38.8666 79.3548 37.8193 78.3165C36.7584 77.2613 36.0827 75.7995 35.9543 74.1966L32.4745 30.5618C32.4204 29.8527 32.9542 29.231 33.6671 29.1773L33.7684 29.1705L33.7687 29.1741ZM40.3367 13.1785L39.7049 10.8362C39.2859 9.27702 39.5461 7.68081 40.3029 6.377C41.0597 5.06649 42.3199 4.04493 43.8909 3.62822L56.8109 0.187192C58.3651 -0.21269 59.9496 0.0460585 61.2504 0.792057C62.568 1.54478 63.5917 2.79818 64.014 4.35739L64.6458 6.69962L76.2209 3.61482C77.765 3.20486 79.336 3.4468 80.6367 4.16592L80.7212 4.2096C82.0354 4.96569 83.0659 6.21908 83.4882 7.78845L84.316 10.8565C84.4984 11.542 84.0896 12.251 83.397 12.4325L26.9719 27.4698C26.2827 27.6512 25.5698 27.2446 25.3874 26.5557L24.5596 23.4877C24.1474 21.9554 24.3907 20.3894 25.1137 19.0957L25.1576 19.0117C25.9178 17.7045 27.178 16.6796 28.7558 16.2595L40.3344 13.1747L40.3367 13.1785ZM62.1454 7.36501L61.4934 4.95224C61.2467 4.10879 60.6791 3.42666 59.9595 3.01667C59.2433 2.60334 58.3648 2.45549 57.5033 2.66719L44.5634 6.11493C43.6816 6.35015 42.9721 6.92478 42.5464 7.66072C42.1207 8.39328 41.9754 9.29048 42.2119 10.171L42.8437 12.5098L62.1486 7.36505L62.1454 7.36501ZM27.5593 24.6476L81.4814 10.2787L80.9915 8.45401C80.755 7.57362 80.1739 6.86451 79.4306 6.43774L79.3731 6.40413C78.6434 6.00425 77.7616 5.87319 76.8933 6.10506L29.4312 18.7534C28.5461 18.9887 27.8332 19.5666 27.4041 20.3059L27.3703 20.3631C26.9682 21.0889 26.8365 21.966 27.0696 22.8262L27.5593 24.6476ZM66.3991 42.6425C66.3991 41.9301 66.9802 41.3521 67.6964 41.3521C68.4127 41.3521 68.9938 41.9301 68.9938 42.6425V66.5249C68.9938 67.2373 68.4127 67.8153 67.6964 67.8153C66.9802 67.8153 66.3991 67.2373 66.3991 66.5249V42.6425ZM47.8476 42.6425C47.8476 41.9301 48.4287 41.3521 49.1449 41.3521C49.8612 41.3521 50.4423 41.9301 50.4423 42.6425V66.5249C50.4423 67.2373 49.8612 67.8153 49.1449 67.8153C48.4287 67.8153 47.8476 67.2373 47.8476 66.5249V42.6425ZM57.122 38.2673C57.122 37.5549 57.7031 36.9769 58.4194 36.9769C59.1356 36.9769 59.7167 37.5549 59.7167 38.2673V70.9003C59.7167 71.6127 59.1356 72.1907 58.4194 72.1907C57.7031 72.1907 57.122 71.6127 57.122 70.9003V38.2673ZM81.6604 31.7515H35.1749L38.5433 73.9945C38.621 74.9757 39.0264 75.8628 39.6582 76.4912C40.2326 77.0624 41.0063 77.4186 41.8914 77.4186H74.951C75.8327 77.4186 76.6065 77.0624 77.1808 76.4912C77.8126 75.8628 78.2214 74.9757 78.2957 73.9978L81.6641 31.7549L81.6604 31.7515Z" fill="black"/>
<path fill-rule="evenodd" clip-rule="evenodd" d="M91.0462 26.4471L99.1897 29.8536C99.6279 30.035 100.153 29.8373 100.364 29.4278C100.57 29.0023 100.382 28.504 99.9418 28.3231L91.804 24.9322C91.3658 24.7508 90.8367 24.9325 90.6301 25.358C90.4218 25.7839 90.608 26.2657 91.0462 26.4471ZM89.2751 14.6764L94.9038 7.89148C95.2052 7.51068 95.1444 6.99795 94.7636 6.71726C94.3868 6.45263 93.83 6.52169 93.5263 6.88601L87.9 13.6875C87.5963 14.0518 87.6554 14.5649 88.0379 14.8452C88.4146 15.1098 88.9715 15.0408 89.2751 14.6764ZM92.7379 20.105L101.101 18.0428C101.575 17.9259 101.873 17.4779 101.762 17.0285C101.655 16.5952 101.18 16.3209 100.706 16.4378L92.3421 18.5C91.8699 18.6165 91.5745 19.0809 91.6813 19.5143C91.7922 19.9637 92.2656 20.2215 92.7379 20.105Z" fill="#747474"/>
<path d="M9.25181 106H7.99181L5.13881 101.689V106H3.87881V99.709H5.13881L7.99181 104.029V99.709H9.25181V106ZM12.711 106.081C12.231 106.081 11.799 105.976 11.415 105.766C11.031 105.55 10.728 105.247 10.506 104.857C10.29 104.467 10.182 104.017 10.182 103.507C10.182 102.997 10.293 102.547 10.515 102.157C10.743 101.767 11.052 101.467 11.442 101.257C11.832 101.041 12.267 100.933 12.747 100.933C13.227 100.933 13.662 101.041 14.052 101.257C14.442 101.467 14.748 101.767 14.97 102.157C15.198 102.547 15.312 102.997 15.312 103.507C15.312 104.017 15.195 104.467 14.961 104.857C14.733 105.247 14.421 105.55 14.025 105.766C13.635 105.976 13.197 106.081 12.711 106.081ZM12.711 104.983C12.939 104.983 13.152 104.929 13.35 104.821C13.554 104.707 13.716 104.539 13.836 104.317C13.956 104.095 14.016 103.825 14.016 103.507C14.016 103.033 13.89 102.67 13.638 102.418C13.392 102.16 13.089 102.031 12.729 102.031C12.369 102.031 12.066 102.16 11.82 102.418C11.58 102.67 11.46 103.033 11.46 103.507C11.46 103.981 11.577 104.347 11.811 104.605C12.051 104.857 12.351 104.983 12.711 104.983ZM18.0568 103.489C18.0568 102.985 18.1558 102.538 18.3538 102.148C18.5578 101.758 18.8338 101.458 19.1818 101.248C19.5298 101.038 19.9168 100.933 20.3428 100.933C20.6668 100.933 20.9758 101.005 21.2698 101.149C21.5638 101.287 21.7978 101.473 21.9718 101.707V99.34H23.2498V106H21.9718V105.262C21.8158 105.508 21.5968 105.706 21.3148 105.856C21.0328 106.006 20.7058 106.081 20.3338 106.081C19.9138 106.081 19.5298 105.973 19.1818 105.757C18.8338 105.541 18.5578 105.238 18.3538 104.848C18.1558 104.452 18.0568 103.999 18.0568 103.489ZM21.9808 103.507C21.9808 103.201 21.9208 102.94 21.8008 102.724C21.6808 102.502 21.5188 102.334 21.3148 102.22C21.1108 102.1 20.8918 102.04 20.6578 102.04C20.4238 102.04 20.2078 102.097 20.0098 102.211C19.8118 102.325 19.6498 102.493 19.5238 102.715C19.4038 102.931 19.3438 103.189 19.3438 103.489C19.3438 103.789 19.4038 104.053 19.5238 104.281C19.6498 104.503 19.8118 104.674 20.0098 104.794C20.2138 104.914 20.4298 104.974 20.6578 104.974C20.8918 104.974 21.1108 104.917 21.3148 104.803C21.5188 104.683 21.6808 104.515 21.8008 104.299C21.9208 104.077 21.9808 103.813 21.9808 103.507ZM29.1154 103.399C29.1154 103.579 29.1034 103.741 29.0794 103.885H25.4344C25.4644 104.245 25.5904 104.527 25.8124 104.731C26.0344 104.935 26.3074 105.037 26.6314 105.037C27.0994 105.037 27.4324 104.836 27.6304 104.434H28.9894C28.8454 104.914 28.5694 105.31 28.1614 105.622C27.7534 105.928 27.2524 106.081 26.6584 106.081C26.1784 106.081 25.7464 105.976 25.3624 105.766C24.9844 105.55 24.6874 105.247 24.4714 104.857C24.2614 104.467 24.1564 104.017 24.1564 103.507C24.1564 102.991 24.2614 102.538 24.4714 102.148C24.6814 101.758 24.9754 101.458 25.3534 101.248C25.7314 101.038 26.1664 100.933 26.6584 100.933C27.1324 100.933 27.5554 101.035 27.9274 101.239C28.3054 101.443 28.5964 101.734 28.8004 102.112C29.0104 102.484 29.1154 102.913 29.1154 103.399ZM27.8104 103.039C27.8044 102.715 27.6874 102.457 27.4594 102.265C27.2314 102.067 26.9524 101.968 26.6224 101.968C26.3104 101.968 26.0464 102.064 25.8304 102.256C25.6204 102.442 25.4914 102.703 25.4434 103.039H27.8104ZM31.2951 99.34V106H30.0351V99.34H31.2951ZM37.1749 103.399C37.1749 103.579 37.1629 103.741 37.1389 103.885H33.4939C33.5239 104.245 33.6499 104.527 33.8719 104.731C34.0939 104.935 34.3669 105.037 34.6909 105.037C35.1589 105.037 35.4919 104.836 35.6899 104.434H37.0489C36.9049 104.914 36.6289 105.31 36.2209 105.622C35.8129 105.928 35.3119 106.081 34.7179 106.081C34.2379 106.081 33.8059 105.976 33.4219 105.766C33.0439 105.55 32.7469 105.247 32.5309 104.857C32.3209 104.467 32.2159 104.017 32.2159 103.507C32.2159 102.991 32.3209 102.538 32.5309 102.148C32.7409 101.758 33.0349 101.458 33.4129 101.248C33.7909 101.038 34.2259 100.933 34.7179 100.933C35.1919 100.933 35.6149 101.035 35.9869 101.239C36.3649 101.443 36.6559 101.734 36.8599 102.112C37.0699 102.484 37.1749 102.913 37.1749 103.399ZM35.8699 103.039C35.8639 102.715 35.7469 102.457 35.5189 102.265C35.2909 102.067 35.0119 101.968 34.6819 101.968C34.3699 101.968 34.1059 102.064 33.8899 102.256C33.6799 102.442 33.5509 102.703 33.5029 103.039H35.8699ZM39.5616 102.049V104.461C39.5616 104.629 39.6006 104.752 39.6786 104.83C39.7626 104.902 39.9006 104.938 40.0926 104.938H40.6776V106H39.8856C38.8236 106 38.2926 105.484 38.2926 104.452V102.049H37.6986V101.014H38.2926V99.781H39.5616V101.014H40.6776V102.049H39.5616ZM46.2189 103.399C46.2189 103.579 46.2069 103.741 46.1829 103.885H42.5379C42.5679 104.245 42.6939 104.527 42.9159 104.731C43.1379 104.935 43.4109 105.037 43.7349 105.037C44.2029 105.037 44.5359 104.836 44.7339 104.434H46.0929C45.9489 104.914 45.6729 105.31 45.2649 105.622C44.8569 105.928 44.3559 106.081 43.7619 106.081C43.2819 106.081 42.8499 105.976 42.4659 105.766C42.0879 105.55 41.7909 105.247 41.5749 104.857C41.3649 104.467 41.2599 104.017 41.2599 103.507C41.2599 102.991 41.3649 102.538 41.5749 102.148C41.7849 101.758 42.0789 101.458 42.4569 101.248C42.8349 101.038 43.2699 100.933 43.7619 100.933C44.2359 100.933 44.6589 101.035 45.0309 101.239C45.4089 101.443 45.6999 101.734 45.9039 102.112C46.1139 102.484 46.2189 102.913 46.2189 103.399ZM44.9139 103.039C44.9079 102.715 44.7909 102.457 44.5629 102.265C44.3349 102.067 44.0559 101.968 43.7259 101.968C43.4139 101.968 43.1499 102.064 42.9339 102.256C42.7239 102.442 42.5949 102.703 42.5469 103.039H44.9139ZM46.8146 103.489C46.8146 102.985 46.9136 102.538 47.1116 102.148C47.3156 101.758 47.5916 101.458 47.9396 101.248C48.2876 101.038 48.6746 100.933 49.1006 100.933C49.4246 100.933 49.7336 101.005 50.0276 101.149C50.3216 101.287 50.5556 101.473 50.7296 101.707V99.34H52.0076V106H50.7296V105.262C50.5736 105.508 50.3546 105.706 50.0726 105.856C49.7906 106.006 49.4636 106.081 49.0916 106.081C48.6716 106.081 48.2876 105.973 47.9396 105.757C47.5916 105.541 47.3156 105.238 47.1116 104.848C46.9136 104.452 46.8146 103.999 46.8146 103.489ZM50.7386 103.507C50.7386 103.201 50.6786 102.94 50.5586 102.724C50.4386 102.502 50.2766 102.334 50.0726 102.22C49.8686 102.1 49.6496 102.04 49.4156 102.04C49.1816 102.04 48.9656 102.097 48.7676 102.211C48.5696 102.325 48.4076 102.493 48.2816 102.715C48.1616 102.931 48.1016 103.189 48.1016 103.489C48.1016 103.789 48.1616 104.053 48.2816 104.281C48.4076 104.503 48.5696 104.674 48.7676 104.794C48.9716 104.914 49.1876 104.974 49.4156 104.974C49.6496 104.974 49.8686 104.917 50.0726 104.803C50.2766 104.683 50.4386 104.515 50.5586 104.299C50.6786 104.077 50.7386 103.813 50.7386 103.507ZM60.0177 103.399C60.0177 103.579 60.0057 103.741 59.9817 103.885H56.3367C56.3667 104.245 56.4927 104.527 56.7147 104.731C56.9367 104.935 57.2097 105.037 57.5337 105.037C58.0017 105.037 58.3347 104.836 58.5327 104.434H59.8917C59.7477 104.914 59.4717 105.31 59.0637 105.622C58.6557 105.928 58.1547 106.081 57.5607 106.081C57.0807 106.081 56.6487 105.976 56.2647 105.766C55.8867 105.55 55.5897 105.247 55.3737 104.857C55.1637 104.467 55.0587 104.017 55.0587 103.507C55.0587 102.991 55.1637 102.538 55.3737 102.148C55.5837 101.758 55.8777 101.458 56.2557 101.248C56.6337 101.038 57.0687 100.933 57.5607 100.933C58.0347 100.933 58.4577 101.035 58.8297 101.239C59.2077 101.443 59.4987 101.734 59.7027 102.112C59.9127 102.484 60.0177 102.913 60.0177 103.399ZM58.7127 103.039C58.7067 102.715 58.5897 102.457 58.3617 102.265C58.1337 102.067 57.8547 101.968 57.5247 101.968C57.2127 101.968 56.9487 102.064 56.7327 102.256C56.5227 102.442 56.3937 102.703 56.3457 103.039H58.7127ZM63.7004 100.942C64.2944 100.942 64.7744 101.131 65.1404 101.509C65.5064 101.881 65.6894 102.403 65.6894 103.075V106H64.4294V103.246C64.4294 102.85 64.3304 102.547 64.1324 102.337C63.9344 102.121 63.6644 102.013 63.3224 102.013C62.9744 102.013 62.6984 102.121 62.4944 102.337C62.2964 102.547 62.1974 102.85 62.1974 103.246V106H60.9374V101.014H62.1974V101.635C62.3654 101.419 62.5784 101.251 62.8364 101.131C63.1004 101.005 63.3884 100.942 63.7004 100.942ZM68.3546 102.049V104.461C68.3546 104.629 68.3936 104.752 68.4716 104.83C68.5556 104.902 68.6936 104.938 68.8856 104.938H69.4706V106H68.6786C67.6166 106 67.0856 105.484 67.0856 104.452V102.049H66.4916V101.014H67.0856V99.781H68.3546V101.014H69.4706V102.049H68.3546ZM71.6369 101.788C71.7989 101.524 72.0089 101.317 72.2669 101.167C72.5309 101.017 72.8309 100.942 73.1669 100.942V102.265H72.8339C72.4379 102.265 72.1379 102.358 71.9339 102.544C71.7359 102.73 71.6369 103.054 71.6369 103.516V106H70.3769V101.014H71.6369V101.788ZM74.6545 100.42C74.4325 100.42 74.2465 100.351 74.0965 100.213C73.9525 100.069 73.8805 99.892 73.8805 99.682C73.8805 99.472 73.9525 99.298 74.0965 99.16C74.2465 99.016 74.4325 98.944 74.6545 98.944C74.8765 98.944 75.0595 99.016 75.2035 99.16C75.3535 99.298 75.4285 99.472 75.4285 99.682C75.4285 99.892 75.3535 100.069 75.2035 100.213C75.0595 100.351 74.8765 100.42 74.6545 100.42ZM75.2755 101.014V106H74.0155V101.014H75.2755ZM81.1554 103.399C81.1554 103.579 81.1434 103.741 81.1194 103.885H77.4744C77.5044 104.245 77.6304 104.527 77.8524 104.731C78.0744 104.935 78.3474 105.037 78.6714 105.037C79.1394 105.037 79.4724 104.836 79.6704 104.434H81.0294C80.8854 104.914 80.6094 105.31 80.2014 105.622C79.7934 105.928 79.2924 106.081 78.6984 106.081C78.2184 106.081 77.7864 105.976 77.4024 105.766C77.0244 105.55 76.7274 105.247 76.5114 104.857C76.3014 104.467 76.1964 104.017 76.1964 103.507C76.1964 102.991 76.3014 102.538 76.5114 102.148C76.7214 101.758 77.0154 101.458 77.3934 101.248C77.7714 101.038 78.2064 100.933 78.6984 100.933C79.1724 100.933 79.5954 101.035 79.9674 101.239C80.3454 101.443 80.6364 101.734 80.8404 102.112C81.0504 102.484 81.1554 102.913 81.1554 103.399ZM79.8504 103.039C79.8444 102.715 79.7274 102.457 79.4994 102.265C79.2714 102.067 78.9924 101.968 78.6624 101.968C78.3504 101.968 78.0864 102.064 77.8704 102.256C77.6604 102.442 77.5314 102.703 77.4834 103.039H79.8504ZM83.9831 106.081C83.5751 106.081 83.2091 106.009 82.8851 105.865C82.5611 105.715 82.3031 105.514 82.1111 105.262C81.9251 105.01 81.8231 104.731 81.8051 104.425H83.0741C83.0981 104.617 83.1911 104.776 83.3531 104.902C83.5211 105.028 83.7281 105.091 83.9741 105.091C84.2141 105.091 84.4001 105.043 84.5321 104.947C84.6701 104.851 84.7391 104.728 84.7391 104.578C84.7391 104.416 84.6551 104.296 84.4871 104.218C84.3251 104.134 84.0641 104.044 83.7041 103.948C83.3321 103.858 83.0261 103.765 82.7861 103.669C82.5521 103.573 82.3481 103.426 82.1741 103.228C82.0061 103.03 81.9221 102.763 81.9221 102.427C81.9221 102.151 82.0001 101.899 82.1561 101.671C82.3181 101.443 82.5461 101.263 82.8401 101.131C83.1401 100.999 83.4911 100.933 83.8931 100.933C84.4871 100.933 84.9611 101.083 85.3151 101.383C85.6691 101.677 85.8641 102.076 85.9001 102.58H84.6941C84.6761 102.382 84.5921 102.226 84.4421 102.112C84.2981 101.992 84.1031 101.932 83.8571 101.932C83.6291 101.932 83.4521 101.974 83.3261 102.058C83.2061 102.142 83.1461 102.259 83.1461 102.409C83.1461 102.577 83.2301 102.706 83.3981 102.796C83.5661 102.88 83.8271 102.967 84.1811 103.057C84.5411 103.147 84.8381 103.24 85.0721 103.336C85.3061 103.432 85.5071 103.582 85.6751 103.786C85.8491 103.984 85.9391 104.248 85.9451 104.578C85.9451 104.866 85.8641 105.124 85.7021 105.352C85.5461 105.58 85.3181 105.76 85.0181 105.892C84.7241 106.018 84.3791 106.081 83.9831 106.081ZM90.3839 99.34V106H89.1239V99.34H90.3839ZM93.8428 106.081C93.3628 106.081 92.9308 105.976 92.5468 105.766C92.1628 105.55 91.8598 105.247 91.6378 104.857C91.4218 104.467 91.3138 104.017 91.3138 103.507C91.3138 102.997 91.4248 102.547 91.6468 102.157C91.8748 101.767 92.1838 101.467 92.5738 101.257C92.9638 101.041 93.3988 100.933 93.8788 100.933C94.3588 100.933 94.7938 101.041 95.1838 101.257C95.5738 101.467 95.8798 101.767 96.1018 102.157C96.3298 102.547 96.4438 102.997 96.4438 103.507C96.4438 104.017 96.3268 104.467 96.0928 104.857C95.8648 105.247 95.5528 105.55 95.1568 105.766C94.7668 105.976 94.3288 106.081 93.8428 106.081ZM93.8428 104.983C94.0708 104.983 94.2838 104.929 94.4818 104.821C94.6858 104.707 94.8478 104.539 94.9678 104.317C95.0878 104.095 95.1478 103.825 95.1478 103.507C95.1478 103.033 95.0218 102.67 94.7698 102.418C94.5238 102.16 94.2208 102.031 93.8608 102.031C93.5008 102.031 93.1978 102.16 92.9518 102.418C92.7118 102.67 92.5918 103.033 92.5918 103.507C92.5918 103.981 92.7088 104.347 92.9428 104.605C93.1828 104.857 93.4828 104.983 93.8428 104.983ZM97.0441 103.507C97.0441 102.991 97.1491 102.541 97.3591 102.157C97.5691 101.767 97.8601 101.467 98.2321 101.257C98.6041 101.041 99.0301 100.933 99.5101 100.933C100.128 100.933 100.638 101.089 101.04 101.401C101.448 101.707 101.721 102.139 101.859 102.697H100.5C100.428 102.481 100.305 102.313 100.131 102.193C99.9631 102.067 99.7531 102.004 99.5011 102.004C99.1411 102.004 98.8561 102.136 98.6461 102.4C98.4361 102.658 98.3311 103.027 98.3311 103.507C98.3311 103.981 98.4361 104.35 98.6461 104.614C98.8561 104.872 99.1411 105.001 99.5011 105.001C100.011 105.001 100.344 104.773 100.5 104.317H101.859C101.721 104.857 101.448 105.286 101.04 105.604C100.632 105.922 100.122 106.081 99.5101 106.081C99.0301 106.081 98.6041 105.976 98.2321 105.766C97.8601 105.55 97.5691 105.25 97.3591 104.866C97.1491 104.476 97.0441 104.023 97.0441 103.507ZM102.458 103.489C102.458 102.985 102.557 102.538 102.755 102.148C102.959 101.758 103.232 101.458 103.574 101.248C103.922 101.038 104.309 100.933 104.735 100.933C105.107 100.933 105.431 101.008 105.707 101.158C105.989 101.308 106.214 101.497 106.382 101.725V101.014H107.651V106H106.382V105.271C106.22 105.505 105.995 105.7 105.707 105.856C105.425 106.006 105.098 106.081 104.726 106.081C104.306 106.081 103.922 105.973 103.574 105.757C103.232 105.541 102.959 105.238 102.755 104.848C102.557 104.452 102.458 103.999 102.458 103.489ZM106.382 103.507C106.382 103.201 106.322 102.94 106.202 102.724C106.082 102.502 105.92 102.334 105.716 102.22C105.512 102.1 105.293 102.04 105.059 102.04C104.825 102.04 104.609 102.097 104.411 102.211C104.213 102.325 104.051 102.493 103.925 102.715C103.805 102.931 103.745 103.189 103.745 103.489C103.745 103.789 103.805 104.053 103.925 104.281C104.051 104.503 104.213 104.674 104.411 104.794C104.615 104.914 104.831 104.974 105.059 104.974C105.293 104.974 105.512 104.917 105.716 104.803C105.92 104.683 106.082 104.515 106.202 104.299C106.322 104.077 106.382 103.813 106.382 103.507ZM110.349 102.049V104.461C110.349 104.629 110.388 104.752 110.466 104.83C110.55 104.902 110.688 104.938 110.88 104.938H111.465V106H110.673C109.611 106 109.08 105.484 109.08 104.452V102.049H108.486V101.014H109.08V99.781H110.349V101.014H111.465V102.049H110.349ZM117.006 103.399C117.006 103.579 116.994 103.741 116.97 103.885H113.325C113.355 104.245 113.481 104.527 113.703 104.731C113.925 104.935 114.198 105.037 114.522 105.037C114.99 105.037 115.323 104.836 115.521 104.434H116.88C116.736 104.914 116.46 105.31 116.052 105.622C115.644 105.928 115.143 106.081 114.549 106.081C114.069 106.081 113.637 105.976 113.253 105.766C112.875 105.55 112.578 105.247 112.362 104.857C112.152 104.467 112.047 104.017 112.047 103.507C112.047 102.991 112.152 102.538 112.362 102.148C112.572 101.758 112.866 101.458 113.244 101.248C113.622 101.038 114.057 100.933 114.549 100.933C115.023 100.933 115.446 101.035 115.818 101.239C116.196 101.443 116.487 101.734 116.691 102.112C116.901 102.484 117.006 102.913 117.006 103.399ZM115.701 103.039C115.695 102.715 115.578 102.457 115.35 102.265C115.122 102.067 114.843 101.968 114.513 101.968C114.201 101.968 113.937 102.064 113.721 102.256C113.511 102.442 113.382 102.703 113.334 103.039H115.701ZM117.602 103.489C117.602 102.985 117.701 102.538 117.899 102.148C118.103 101.758 118.379 101.458 118.727 101.248C119.075 101.038 119.462 100.933 119.888 100.933C120.212 100.933 120.521 101.005 120.815 101.149C121.109 101.287 121.343 101.473 121.517 101.707V99.34H122.795V106H121.517V105.262C121.361 105.508 121.142 105.706 120.86 105.856C120.578 106.006 120.251 106.081 119.879 106.081C119.459 106.081 119.075 105.973 118.727 105.757C118.379 105.541 118.103 105.238 117.899 104.848C117.701 104.452 117.602 103.999 117.602 103.489ZM121.526 103.507C121.526 103.201 121.466 102.94 121.346 102.724C121.226 102.502 121.064 102.334 120.86 102.22C120.656 102.1 120.437 102.04 120.203 102.04C119.969 102.04 119.753 102.097 119.555 102.211C119.357 102.325 119.195 102.493 119.069 102.715C118.949 102.931 118.889 103.189 118.889 103.489C118.889 103.789 118.949 104.053 119.069 104.281C119.195 104.503 119.357 104.674 119.555 104.794C119.759 104.914 119.975 104.974 120.203 104.974C120.437 104.974 120.656 104.917 120.86 104.803C121.064 104.683 121.226 104.515 121.346 104.299C121.466 104.077 121.526 103.813 121.526 103.507ZM124.583 106.063C124.355 106.063 124.166 105.994 124.016 105.856C123.872 105.712 123.8 105.535 123.8 105.325C123.8 105.115 123.872 104.941 124.016 104.803C124.166 104.659 124.355 104.587 124.583 104.587C124.805 104.587 124.988 104.659 125.132 104.803C125.276 104.941 125.348 105.115 125.348 105.325C125.348 105.535 125.276 105.712 125.132 105.856C124.988 105.994 124.805 106.063 124.583 106.063Z" fill="#747474"/>
</svg>
