<svg width="14" height="14" viewBox="0 0 14 14" fill="none" xmlns="http://www.w3.org/2000/svg">
<path d="M2.625 11.0147V10.1397H3.67949V5.78714C3.67949 5.00264 3.92161 4.309 4.40584 3.70622C4.89009 3.10344 5.51175 2.71792 6.27083 2.54966V2.1862C6.27083 1.98365 6.34166 1.81149 6.48331 1.66972C6.62497 1.52793 6.79697 1.45703 6.99933 1.45703C7.20169 1.45703 7.37391 1.52793 7.516 1.66972C7.65809 1.81149 7.72914 1.98365 7.72914 2.1862V2.54966C8.48822 2.71792 9.10988 3.10344 9.59413 3.70622C10.0784 4.309 10.3205 5.00264 10.3205 5.78714V10.1397H11.375V11.0147H2.625ZM6.99899 12.6525C6.70874 12.6525 6.46059 12.5493 6.25456 12.3428C6.04853 12.1363 5.94551 11.888 5.94551 11.598H8.05446C8.05446 11.889 7.95112 12.1374 7.74442 12.3435C7.53773 12.5495 7.28925 12.6525 6.99899 12.6525Z" fill="white"/>
<circle cx="9.5" cy="5.5" r="2.5" fill="#D62424"/>
</svg>
