<svg width="12" height="13" viewBox="0 0 12 13" fill="none" xmlns="http://www.w3.org/2000/svg">
<path d="M1.73595 5.04688C1.18411 5.81883 0.859375 6.76424 0.859375 7.78551C0.859375 10.3892 2.97008 12.4999 5.57377 12.4999C8.17745 12.4999 10.2882 10.3892 10.2882 7.78551C10.2882 6.76424 9.96343 5.81883 9.41158 5.04688L9.13316 5.9935C9.07991 5.98229 9.02648 5.97135 8.97289 5.96068C9.26516 6.50397 9.431 7.12537 9.431 7.78551C9.431 9.9158 7.70406 11.6427 5.57377 11.6427C3.44348 11.6427 1.71654 9.9158 1.71654 7.78551C1.71654 7.12537 1.88237 6.50397 2.17465 5.96068C2.12105 5.97135 2.06762 5.98229 2.01437 5.9935L1.73595 5.04688Z" fill="white"/>
<path d="M0.945882 2.36833L2.01222 5.99389C3.12431 5.7598 4.31088 5.64299 5.57162 5.64299C6.83236 5.64299 8.01892 5.7598 9.13101 5.99389L10.1977 2.36719C8.62769 1.68985 7.08676 1.35409 5.57249 1.35718C4.05763 1.36027 2.51619 1.69645 0.945882 2.36833ZM0.250381 1.73888C2.04594 0.917617 3.82033 0.503594 5.57074 0.500023C7.32229 0.49645 9.09773 0.91072 10.8941 1.73946C11.0872 1.82852 11.1857 2.04561 11.1258 2.24956L9.84001 6.62108C9.77561 6.84005 9.5509 6.97013 9.32894 6.91692C8.17076 6.63929 6.91846 6.50015 5.57162 6.50015C4.22478 6.50015 2.97247 6.63929 1.81429 6.91692C1.59234 6.97013 1.36763 6.84005 1.30322 6.62108L0.0174805 2.24956C-0.0426537 2.0451 0.0565756 1.82752 0.250381 1.73888Z" fill="white"/>
<path d="M5.14062 2.64342V4.35775C5.14062 4.59445 5.33251 4.78633 5.56921 4.78633C5.8059 4.78633 5.99779 4.59445 5.99779 4.35775V2.64342C5.99779 2.40673 5.8059 2.21484 5.56921 2.21484C5.33251 2.21484 5.14062 2.40673 5.14062 2.64342Z" fill="white"/>
<path d="M4.71764 3.92747H6.43197C6.66867 3.92747 6.86055 3.73559 6.86055 3.49889C6.86055 3.26219 6.66867 3.07031 6.43197 3.07031H4.71764C4.48094 3.07031 4.28906 3.26219 4.28906 3.49889C4.28906 3.73559 4.48094 3.92747 4.71764 3.92747Z" fill="white"/>
</svg>
