<svg width="16" height="16" viewBox="0 0 16 16" fill="none" xmlns="http://www.w3.org/2000/svg">
<circle cx="8" cy="8" r="8" fill="#F3F4F8"/>
<path d="M7.99823 10.5086C7.90799 10.5086 7.82399 10.4942 7.74624 10.4654C7.66848 10.4366 7.59456 10.3872 7.52448 10.3171L4.1592 6.95182C4.05551 6.84815 4.00247 6.71783 4.00008 6.56087C3.99767 6.40391 4.05071 6.27119 4.1592 6.16271C4.26768 6.05424 4.39919 6 4.55374 6C4.7083 6 4.83981 6.05424 4.94829 6.16271L7.99823 9.21266L11.0482 6.16271C11.1519 6.05904 11.2822 6.006 11.4391 6.00359C11.5961 6.0012 11.7288 6.05424 11.8373 6.16271C11.9458 6.27119 12 6.40271 12 6.55728C12 6.71183 11.9458 6.84334 11.8373 6.95182L8.47198 10.3171C8.40191 10.3872 8.32799 10.4366 8.25022 10.4654C8.17247 10.4942 8.08848 10.5086 7.99823 10.5086Z" fill="black"/>
</svg>
