<svg width="17" height="17" viewBox="0 0 17 17" fill="none" xmlns="http://www.w3.org/2000/svg">
<path d="M5.20017 11.0928C5.00491 11.2881 5.00491 11.6047 5.20017 11.7999C5.39543 11.9952 5.71201 11.9952 5.90728 11.7999L5.20017 11.0928ZM11.9463 5.5538C11.9463 5.27766 11.7224 5.0538 11.4463 5.0538H6.94628C6.67014 5.0538 6.44628 5.27766 6.44628 5.5538C6.44628 5.82995 6.67014 6.0538 6.94628 6.0538H10.9463V10.0538C10.9463 10.3299 11.1701 10.5538 11.4463 10.5538C11.7224 10.5538 11.9463 10.3299 11.9463 10.0538V5.5538ZM4.33333 1.5H12.6667V0.5H4.33333V1.5ZM15.5 4.33333V12.6667H16.5V4.33333H15.5ZM12.6667 15.5H4.33333V16.5H12.6667V15.5ZM1.5 12.6667V4.33333H0.5V12.6667H1.5ZM4.33333 15.5C2.76853 15.5 1.5 14.2315 1.5 12.6667H0.5C0.5 14.7838 2.21624 16.5 4.33333 16.5V15.5ZM15.5 12.6667C15.5 14.2315 14.2315 15.5 12.6667 15.5V16.5C14.7838 16.5 16.5 14.7838 16.5 12.6667H15.5ZM12.6667 1.5C14.2315 1.5 15.5 2.76853 15.5 4.33333H16.5C16.5 2.21624 14.7838 0.5 12.6667 0.5V1.5ZM4.33333 0.5C2.21624 0.5 0.5 2.21624 0.5 4.33333H1.5C1.5 2.76853 2.76853 1.5 4.33333 1.5V0.5ZM5.90728 11.7999L11.7998 5.90736L11.0927 5.20025L5.20017 11.0928L5.90728 11.7999Z" fill="#594585"/>
</svg>
