<svg width="29" height="32" viewBox="0 0 29 32" fill="none" xmlns="http://www.w3.org/2000/svg">
<path d="M1.66346 32.0008H27.4696C27.8216 32.0008 28.1096 31.7129 28.1096 31.3608C28.1096 27.8662 26.6247 24.6405 24.1606 22.3876C22.919 21.2483 21.4276 20.3587 19.7508 19.8082C19.4308 19.7058 19.0916 19.8658 18.9571 20.1731C18.9123 20.2883 17.8115 22.8484 15.2642 23.258C15.0401 23.2964 14.8097 23.3156 14.5665 23.3156C14.3233 23.3156 14.0865 23.2964 13.8689 23.258C11.3152 22.8484 10.2207 20.2883 10.1695 20.1731C10.0479 19.8658 9.69587 19.7058 9.38223 19.8082C7.69898 20.3587 6.20132 21.2547 4.95322 22.4004C2.50191 24.6532 1.02344 27.8726 1.02344 31.3608C1.02344 31.7129 1.31143 32.0008 1.66346 32.0008ZM20.1055 26.7916H21.1381V25.759C21.1381 25.4055 21.4243 25.119 21.7781 25.119C22.1319 25.119 22.4181 25.4055 22.4181 25.759V26.7916H23.4507C23.8045 26.7916 24.0907 27.0781 24.0907 27.4316C24.0907 27.785 23.8045 28.0716 23.4507 28.0716H22.4181V29.1042C22.4181 29.4576 22.1319 29.7442 21.7781 29.7442C21.4243 29.7442 21.1381 29.4576 21.1381 29.1042V28.0716H20.1055C19.7518 28.0716 19.4655 27.785 19.4655 27.4316C19.4655 27.0781 19.7518 26.7916 20.1055 26.7916Z" fill="#855EDB"/>
<path d="M18.9023 18.6165C19.1071 18.5333 19.3311 18.4949 19.5551 18.4949C19.7536 18.4949 19.9519 18.5269 20.144 18.5909C21.744 19.1158 23.1969 19.9158 24.477 20.9655C26.5123 11.4097 26.3458 5.47028 23.9714 2.83973C22.3585 1.05402 20.1504 1.32922 19.0879 1.47007C18.9535 1.48287 18.8383 1.50206 18.7423 1.50846C17.9231 1.14364 14.0061 -0.501267 11.0427 0.151597C9.28264 0.535609 6.83132 1.58528 5.15442 4.38862C2.94632 8.0688 2.75429 13.6562 4.59757 21.023C5.89046 19.935 7.36892 19.1158 8.98819 18.5909C9.18022 18.5269 9.3786 18.4949 9.57703 18.4949C9.80745 18.4949 10.0251 18.5333 10.2298 18.6165C9.41704 17.7973 8.6938 16.7604 8.12415 15.5699C7.92577 15.2628 6.78648 13.4387 6.94008 11.7938C7.04254 10.7505 7.84255 9.86085 8.98819 9.53447C10.1467 9.20164 10.9595 7.36475 11.1708 6.68634C11.2539 6.43029 11.4907 6.2511 11.7659 6.2447C12.0667 6.2447 12.2844 6.3983 12.3804 6.65431C12.4571 6.85269 14.3965 11.6146 20.2656 9.61764C20.432 9.56006 20.6176 9.57925 20.7712 9.66247C21.4752 10.0401 21.9424 10.6289 22.1217 11.3586C22.5505 13.1122 21.264 15.1859 21.0144 15.5699C20.4384 16.7604 19.7151 17.7973 18.9023 18.6165Z" fill="#855EDB"/>
</svg>
