<svg width="16" height="16" viewBox="0 0 16 16" fill="none" xmlns="http://www.w3.org/2000/svg">
<path d="M6.47692 6.96673H7.2205C7.3876 6.96673 7.52767 6.91021 7.6407 6.79718C7.75374 6.68414 7.81025 6.54408 7.81025 6.37699V5.63339C7.81025 5.4663 7.75374 5.32624 7.6407 5.21321C7.52767 5.10018 7.3876 5.04366 7.2205 5.04366H6.18205C6.10342 5.04366 6.03462 5.07314 5.97564 5.13211C5.91666 5.19109 5.88717 5.25989 5.88717 5.33853V8.00519C5.88717 8.08383 5.91666 8.15263 5.97564 8.21159C6.03462 8.27057 6.10342 8.30006 6.18205 8.30006C6.26068 8.30006 6.32948 8.27057 6.38845 8.21159C6.44743 8.15263 6.47692 8.08383 6.47692 8.00519V6.96673ZM6.47692 6.37699V5.63339H7.2205V6.37699H6.47692ZM9.79742 8.30006C9.96452 8.30006 10.1046 8.24354 10.2176 8.13051C10.3307 8.01748 10.3872 7.87741 10.3872 7.71033V5.63339C10.3872 5.4663 10.3307 5.32624 10.2176 5.21321C10.1046 5.10018 9.96452 5.04366 9.79742 5.04366H8.7846C8.70597 5.04366 8.63717 5.07314 8.5782 5.13211C8.51923 5.19109 8.48974 5.25989 8.48974 5.33853V8.00519C8.48974 8.08383 8.51923 8.15263 8.5782 8.21159C8.63717 8.27057 8.70597 8.30006 8.7846 8.30006H9.79742ZM9.07947 7.71033V5.63339H9.79742V7.71033H9.07947ZM11.7205 6.96673H12.2205C12.2991 6.96673 12.3679 6.93724 12.4269 6.87828C12.4859 6.8193 12.5154 6.75049 12.5154 6.67186C12.5154 6.59323 12.4859 6.52442 12.4269 6.46544C12.3679 6.40648 12.2991 6.37699 12.2205 6.37699H11.7205V5.63339H12.2205C12.2991 5.63339 12.3679 5.60391 12.4269 5.54494C12.4859 5.48596 12.5154 5.41716 12.5154 5.33853C12.5154 5.25989 12.4859 5.19109 12.4269 5.13211C12.3679 5.07314 12.2991 5.04366 12.2205 5.04366H11.4256C11.347 5.04366 11.2782 5.07314 11.2192 5.13211C11.1602 5.19109 11.1308 5.25989 11.1308 5.33853V8.00519C11.1308 8.08383 11.1602 8.15263 11.2192 8.21159C11.2782 8.27057 11.347 8.30006 11.4256 8.30006C11.5043 8.30006 11.5731 8.27057 11.632 8.21159C11.691 8.15263 11.7205 8.08383 11.7205 8.00519V6.96673ZM5.37437 11.6718C5.03762 11.6718 4.75258 11.5552 4.51925 11.3218C4.28592 11.0885 4.16925 10.8035 4.16925 10.4667V2.87701C4.16925 2.54025 4.28592 2.25521 4.51925 2.02188C4.75258 1.78854 5.03762 1.67188 5.37437 1.67188H12.9641C13.3008 1.67188 13.5859 1.78854 13.8192 2.02188C14.0525 2.25521 14.1692 2.54025 14.1692 2.87701V10.4667C14.1692 10.8035 14.0525 11.0885 13.8192 11.3218C13.5859 11.5552 13.3008 11.6718 12.9641 11.6718H5.37437ZM5.37437 10.6719H12.9641C13.0154 10.6719 13.0624 10.6505 13.1051 10.6078C13.1479 10.565 13.1692 10.518 13.1692 10.4667V2.87701C13.1692 2.82572 13.1479 2.7787 13.1051 2.73596C13.0624 2.69323 13.0154 2.67186 12.9641 2.67186H5.37437C5.32308 2.67186 5.27607 2.69323 5.23334 2.73596C5.19059 2.7787 5.16922 2.82572 5.16922 2.87701V10.4667C5.16922 10.518 5.19059 10.565 5.23334 10.6078C5.27607 10.6505 5.32308 10.6719 5.37437 10.6719ZM3.04105 14.0051C2.70431 14.0051 2.41927 13.8885 2.18594 13.6551C1.9526 13.4218 1.83594 13.1368 1.83594 12.8V4.71033C1.83594 4.56866 1.88388 4.44991 1.97975 4.35408C2.07563 4.25825 2.19443 4.21034 2.33615 4.21034C2.47788 4.21034 2.5966 4.25825 2.69234 4.35408C2.78806 4.44991 2.83592 4.56866 2.83592 4.71033V12.8C2.83592 12.8513 2.85729 12.8983 2.90002 12.9411C2.94277 12.9838 2.98978 13.0052 3.04105 13.0052H11.1308C11.2724 13.0052 11.3912 13.0531 11.487 13.149C11.5828 13.2449 11.6308 13.3637 11.6308 13.5054C11.6308 13.6471 11.5828 13.7658 11.487 13.8616C11.3912 13.9573 11.2724 14.0051 11.1308 14.0051H3.04105Z" fill="black"/>
</svg>
