<svg width="32" height="32" viewBox="0 0 32 32" fill="none" xmlns="http://www.w3.org/2000/svg">
<path d="M10.5309 17.1467C9.43753 18.48 8.1842 20 9.7042 23.6533C9.7042 23.68 9.73087 23.7067 9.73087 23.7067C9.73087 23.7333 10.6909 25.4667 11.1175 27.76C11.1442 27.8933 11.2509 28 11.4109 28H18.8775C19.0375 28 19.1975 27.8667 19.1709 27.68C19.1175 26.5333 19.5442 25.3867 20.4242 24.56C21.6509 23.36 22.6109 22.0267 23.3042 20.56C24.1309 18.7467 24.2109 16.6933 23.4909 14.9067C22.5842 12.6133 20.7175 11.2533 19.2509 10.5067C19.3309 10.4533 19.3842 10.4267 19.4642 10.3733C20.5575 9.54667 20.6909 8.13333 20.7175 8.05333C20.7442 7.92 20.6909 7.76 20.6109 7.65333C19.6775 6.29333 18.9575 5.97333 18.1842 5.62667C17.9175 5.49333 17.6242 5.38667 17.3042 5.17333C16.9309 4.93333 16.4775 4.50667 16.0242 4.02667C15.9442 4.02667 15.8909 4 15.8375 4H9.49087C9.35753 4 9.27753 4.10667 9.27753 4.21333C9.27753 5.62667 9.5442 7.76 10.7709 9.76C11.3309 10.64 11.6775 11.5733 11.8375 12.48C12.0242 13.4933 11.9709 14.4533 11.7042 15.2533C11.4375 16 10.9842 16.56 10.5309 17.1467ZM16.2909 13.8933C17.5175 13.3867 18.9575 13.6 19.9975 14.4533C20.9575 15.2267 21.7309 16.6667 20.7442 19.28C19.9175 21.44 19.0375 22.4533 18.3175 22.88C17.8909 23.1733 17.3309 23.3067 16.7709 23.2267C16.2109 23.1467 15.7309 22.8533 15.3842 22.4267C14.8242 21.7867 14.2909 20.56 14.1309 18.2667C13.9709 15.4933 15.1442 14.3733 16.2909 13.8933Z" fill="#1B1B1B"/>
<path d="M16.6377 22.241C16.6377 22.241 18.1844 22.6943 18.3444 20.881C18.3444 20.881 18.3977 19.9743 18.8244 19.8143C18.9577 19.761 19.0644 19.7343 19.1977 19.6543C19.651 19.361 20.5844 18.6143 20.7444 17.361C20.7444 17.3343 20.7444 17.3343 20.7444 17.3077C20.7977 17.1477 21.1177 15.7343 19.3844 15.361H19.3577L18.691 15.1477C18.691 15.1477 18.691 15.1477 18.6644 15.1477C18.5844 15.121 17.7844 14.801 17.3044 15.0143C16.851 15.201 16.7177 15.4143 17.011 15.5743C17.091 15.6277 17.1977 15.601 17.2777 15.5743C18.9044 15.281 19.2777 16.801 18.9577 17.4943C18.851 17.7077 18.5844 17.7343 18.451 17.5477C18.3177 17.361 18.1577 17.1743 17.971 17.041L17.9444 17.0143C17.7844 16.9343 16.9044 16.5077 16.6644 17.0943C16.6644 17.0943 16.5044 17.3343 16.8777 17.281C16.8777 17.281 18.2377 16.961 17.9977 18.2143C17.9977 18.2677 17.9977 18.2943 17.971 18.3477C17.971 18.4277 17.9177 18.561 17.7844 18.5343C17.731 18.5343 17.6777 18.5077 17.651 18.4543C17.491 18.2943 16.8244 17.7343 16.3977 18.641C16.3444 18.721 16.2644 18.801 16.1577 18.801C15.8377 18.8543 15.1177 19.0677 14.9844 20.161V20.1877C14.9844 20.3743 14.9844 21.921 16.6377 22.241Z" fill="#1B1B1B"/>
</svg>
