<svg width="253" height="158" viewBox="0 0 253 158" fill="none" xmlns="http://www.w3.org/2000/svg">
<g clip-path="url(#clip0_4658_117451)">
<g opacity="0.25">
<path d="M141.018 58.4471C141.087 58.5675 141.202 58.6554 141.337 58.6914C141.471 58.7274 141.614 58.7085 141.735 58.639L142.955 57.9352L142.427 57.0209L141.206 57.7247C141.146 57.7594 141.094 57.8058 141.051 57.861C141.009 57.9162 140.979 57.9793 140.961 58.0465C140.943 58.1137 140.939 58.1837 140.949 58.2525C140.959 58.3213 140.982 58.3874 141.018 58.4471ZM138.552 54.1804C138.622 54.3008 138.736 54.3887 138.871 54.4247C139.005 54.4607 139.148 54.4418 139.269 54.3723L140.489 53.6685L139.961 52.7542L138.741 53.458C138.68 53.4927 138.628 53.5391 138.585 53.5943C138.543 53.6495 138.513 53.7126 138.495 53.7798C138.477 53.847 138.473 53.917 138.483 53.9858C138.493 54.0546 138.516 54.1207 138.552 54.1804ZM136.086 49.9137C136.156 50.0341 136.27 50.122 136.405 50.158C136.539 50.194 136.682 50.1751 136.803 50.1056L138.023 49.4018L137.495 48.4875L136.275 49.1913C136.214 49.226 136.162 49.2724 136.119 49.3276C136.077 49.3829 136.047 49.4459 136.029 49.5131C136.012 49.5803 136.008 49.6503 136.017 49.7191C136.027 49.7879 136.05 49.854 136.086 49.9137ZM147.428 40.9343C147.24 40.62 146.937 40.3912 146.583 40.2965C146.229 40.2017 145.852 40.2485 145.532 40.4268L136.776 45.4767C136.461 45.6644 136.232 45.9672 136.137 46.3208C136.042 46.6744 136.089 47.051 136.268 47.3707L136.601 47.9467L137.443 47.4611C137.549 47.4 137.675 47.3834 137.793 47.415C137.911 47.4467 138.012 47.5239 138.073 47.6298L139.059 49.3365C139.121 49.4424 139.137 49.5682 139.106 49.6863C139.074 49.8044 138.997 49.9051 138.891 49.9663L138.049 50.4519L139.067 52.2134L139.909 51.7278C140.015 51.6667 140.141 51.6501 140.259 51.6817C140.377 51.7134 140.478 51.7906 140.539 51.8965L141.525 53.6032C141.587 53.7091 141.603 53.8349 141.572 53.953C141.54 54.0711 141.463 54.1718 141.357 54.233L140.514 54.7186L141.533 56.4801L142.375 55.9945C142.481 55.9334 142.607 55.9168 142.725 55.9484C142.843 55.9801 142.944 56.0573 143.005 56.1632L143.991 57.8699C144.053 57.9758 144.069 58.1016 144.038 58.2197C144.006 58.3378 143.928 58.4385 143.822 58.4996L142.98 58.9853L143.305 59.546C143.492 59.8603 143.796 60.0891 144.15 60.1838C144.504 60.2786 144.881 60.2319 145.201 60.0536L153.956 55.0036C154.271 54.8159 154.5 54.5131 154.595 54.1595C154.69 53.8059 154.643 53.4293 154.465 53.1096L147.428 40.9343Z" fill="url(#paint0_radial_4658_117451)"/>
<path d="M130.867 19.1398C130.863 19.2171 130.83 19.29 130.773 19.3424C130.716 19.3948 130.64 19.4224 130.563 19.4193L129.78 19.3871L129.804 18.8003L130.587 18.8324C130.626 18.834 130.664 18.8433 130.699 18.8596C130.734 18.876 130.765 18.8991 130.791 18.9277C130.817 18.9563 130.837 18.9898 130.85 19.0262C130.863 19.0626 130.869 19.1012 130.867 19.1398ZM130.979 16.4013C130.976 16.4786 130.942 16.5514 130.885 16.6038C130.828 16.6562 130.753 16.6839 130.676 16.6807L129.892 16.6485L129.916 16.0617L130.7 16.0939C130.738 16.0955 130.776 16.1047 130.811 16.1211C130.846 16.1374 130.878 16.1606 130.904 16.1892C130.93 16.2178 130.95 16.2512 130.963 16.2876C130.976 16.3241 130.981 16.3627 130.979 16.4013ZM131.092 13.6627C131.089 13.74 131.055 13.8129 130.998 13.8653C130.941 13.9177 130.866 13.9454 130.788 13.9422L130.005 13.91L130.029 13.3232L130.812 13.3553C130.851 13.3569 130.889 13.3662 130.924 13.3825C130.959 13.3989 130.991 13.422 131.017 13.4506C131.043 13.4792 131.063 13.5127 131.076 13.5491C131.089 13.5855 131.094 13.6241 131.092 13.6627ZM123.182 12.1621C123.194 11.9587 123.284 11.7678 123.434 11.6299C123.584 11.4919 123.782 11.4177 123.986 11.4231L129.606 11.654C129.809 11.6654 130 11.7555 130.138 11.9053C130.276 12.0551 130.351 12.2528 130.345 12.4564L130.33 12.8261L129.79 12.8039C129.722 12.8011 129.655 12.8254 129.605 12.8715C129.555 12.9176 129.525 12.9816 129.523 13.0496L129.478 14.145C129.475 14.213 129.499 14.2793 129.545 14.3293C129.591 14.3793 129.655 14.409 129.723 14.4118L130.264 14.434L130.217 15.5646L129.677 15.5424C129.609 15.5396 129.543 15.5639 129.492 15.61C129.442 15.6561 129.413 15.7202 129.41 15.7881L129.365 16.8835C129.362 16.9515 129.386 17.0178 129.432 17.0678C129.479 17.1179 129.543 17.1475 129.611 17.1503L130.151 17.1725L130.105 18.3032L129.564 18.281C129.496 18.2782 129.43 18.3025 129.38 18.3486C129.33 18.3946 129.3 18.4587 129.297 18.5267L129.252 19.6221C129.249 19.6901 129.274 19.7563 129.32 19.8064C129.366 19.8564 129.43 19.8861 129.498 19.8889L130.038 19.9111L130.024 20.271C130.012 20.4743 129.922 20.6652 129.772 20.8032C129.622 20.9412 129.424 21.0154 129.22 21.01L123.6 20.7791C123.397 20.7677 123.206 20.6775 123.068 20.5277C122.93 20.3779 122.855 20.1803 122.861 19.9767L123.182 12.1621Z" fill="url(#paint1_radial_4658_117451)"/>
<path d="M166.387 13.2167C166.383 13.3091 166.342 13.3961 166.274 13.4587C166.206 13.5213 166.116 13.5543 166.024 13.5505L165.088 13.5121L165.117 12.8112L166.053 12.8496C166.099 12.8515 166.144 12.8626 166.186 12.8821C166.228 12.9016 166.265 12.9293 166.296 12.9634C166.327 12.9976 166.351 13.0376 166.367 13.0811C166.382 13.1245 166.389 13.1707 166.387 13.2167ZM166.521 9.94599C166.517 10.0383 166.477 10.1253 166.409 10.1879C166.341 10.2505 166.251 10.2836 166.158 10.2798L165.223 10.2413L165.252 9.54045L166.187 9.57889C166.233 9.58079 166.279 9.59182 166.321 9.61135C166.362 9.63089 166.4 9.65854 166.431 9.69269C166.462 9.72684 166.486 9.76682 166.502 9.8103C166.517 9.85379 166.524 9.89991 166.521 9.94599ZM166.656 6.67523C166.652 6.76755 166.612 6.85458 166.544 6.91718C166.476 6.97978 166.386 7.01281 166.293 7.00901L165.358 6.97057L165.386 6.2697L166.322 6.30814C166.368 6.31003 166.413 6.32106 166.455 6.3406C166.497 6.36013 166.535 6.38778 166.566 6.42193C166.597 6.45608 166.621 6.49606 166.636 6.53955C166.652 6.58303 166.658 6.62915 166.656 6.67523ZM157.209 4.88294C157.223 4.64009 157.331 4.4121 157.51 4.24732C157.689 4.08254 157.925 3.99395 158.168 4.00032L164.881 4.27612C165.124 4.28973 165.352 4.39741 165.517 4.57633C165.682 4.75524 165.77 4.99131 165.764 5.23446L165.746 5.67601L165.1 5.64949C165.019 5.64615 164.94 5.67519 164.88 5.73023C164.82 5.78526 164.785 5.86178 164.781 5.94295L164.728 7.25125C164.724 7.33242 164.753 7.4116 164.808 7.47135C164.864 7.53111 164.94 7.56655 165.021 7.56989L165.667 7.59641L165.611 8.94677L164.966 8.92025C164.884 8.91691 164.805 8.94595 164.745 9.00099C164.686 9.05602 164.65 9.13254 164.647 9.21371L164.593 10.522C164.59 10.6032 164.619 10.6824 164.674 10.7421C164.729 10.8019 164.805 10.8373 164.887 10.8406L165.532 10.8672L165.477 12.2175L164.831 12.191C164.75 12.1877 164.671 12.2167 164.611 12.2717C164.551 12.3268 164.515 12.4033 164.512 12.4845L164.458 13.7928C164.455 13.8739 164.484 13.9531 164.539 14.0129C164.594 14.0726 164.671 14.1081 164.752 14.1114L165.397 14.1379L165.38 14.5678C165.366 14.8107 165.258 15.0386 165.079 15.2034C164.9 15.3682 164.664 15.4568 164.42 15.4504L157.708 15.1746C157.465 15.161 157.237 15.0533 157.072 14.8744C156.907 14.6955 156.818 14.4594 156.825 14.2163L157.209 4.88294Z" fill="url(#paint2_radial_4658_117451)"/>
<path d="M200.418 103.244C200.488 103.364 200.602 103.452 200.737 103.488C200.871 103.524 201.015 103.505 201.135 103.435L202.356 102.732L201.827 101.817L200.607 102.521C200.547 102.556 200.494 102.602 200.452 102.657C200.41 102.713 200.379 102.776 200.361 102.843C200.344 102.91 200.34 102.98 200.35 103.049C200.359 103.118 200.383 103.184 200.418 103.244ZM197.952 98.9769C198.022 99.0973 198.136 99.1852 198.271 99.2212C198.405 99.2572 198.549 99.2383 198.669 99.1688L199.89 98.465L199.361 97.5507L198.141 98.2545C198.081 98.2892 198.028 98.3355 197.986 98.3908C197.944 98.446 197.913 98.5091 197.895 98.5763C197.878 98.6435 197.874 98.7135 197.884 98.7823C197.893 98.851 197.917 98.9172 197.952 98.9769ZM195.486 94.7102C195.556 94.8306 195.671 94.9185 195.805 94.9545C195.939 94.9905 196.083 94.9716 196.203 94.9021L197.424 94.1983L196.895 93.284L195.675 93.9878C195.615 94.0225 195.562 94.0688 195.52 94.1241C195.478 94.1793 195.447 94.2424 195.429 94.3096C195.412 94.3768 195.408 94.4468 195.418 94.5156C195.427 94.5843 195.451 94.6505 195.486 94.7102ZM206.828 85.7307C206.64 85.4165 206.337 85.1877 205.983 85.093C205.629 84.9982 205.252 85.0449 204.932 85.2232L196.176 90.2732C195.862 90.4609 195.633 90.7637 195.538 91.1173C195.443 91.4709 195.49 91.8475 195.668 92.1672L196.001 92.7432L196.843 92.2576C196.949 92.1964 197.075 92.1799 197.193 92.2115C197.311 92.2432 197.412 92.3204 197.473 92.4263L198.46 94.133C198.521 94.2389 198.538 94.3647 198.506 94.4828C198.474 94.6009 198.397 94.7016 198.291 94.7627L197.449 95.2484L198.467 97.0099L199.309 96.5243C199.415 96.4631 199.541 96.4466 199.659 96.4782C199.777 96.5098 199.878 96.5871 199.939 96.693L200.926 98.3997C200.987 98.5056 201.004 98.6314 200.972 98.7495C200.94 98.8676 200.863 98.9683 200.757 99.0294L199.915 99.5151L200.933 101.277L201.775 100.791C201.881 100.73 202.007 100.713 202.125 100.745C202.243 100.777 202.344 100.854 202.405 100.96L203.392 102.666C203.453 102.772 203.47 102.898 203.438 103.016C203.406 103.134 203.329 103.235 203.223 103.296L202.381 103.782L202.705 104.343C202.893 104.657 203.196 104.886 203.55 104.98C203.904 105.075 204.281 105.028 204.601 104.85L213.357 99.8001C213.671 99.6124 213.9 99.3096 213.995 98.956C214.09 98.6024 214.043 98.2258 213.865 97.9061L206.828 85.7307Z" fill="url(#paint3_radial_4658_117451)"/>
<path d="M228.411 129.806C228.379 129.861 228.327 129.901 228.265 129.917C228.204 129.934 228.139 129.925 228.084 129.894L227.527 129.573L227.768 129.156L228.325 129.477C228.352 129.493 228.376 129.514 228.395 129.539C228.414 129.564 228.428 129.593 228.436 129.623C228.444 129.654 228.446 129.686 228.442 129.717C228.437 129.749 228.427 129.779 228.411 129.806ZM229.535 127.861C229.503 127.916 229.451 127.956 229.389 127.973C229.328 127.989 229.263 127.98 229.208 127.949L228.652 127.628L228.892 127.211L229.449 127.532C229.476 127.548 229.5 127.569 229.519 127.594C229.539 127.619 229.553 127.648 229.561 127.679C229.569 127.709 229.57 127.741 229.566 127.772C229.561 127.804 229.551 127.834 229.535 127.861ZM230.659 125.916C230.627 125.971 230.575 126.011 230.513 126.028C230.452 126.044 230.387 126.036 230.332 126.004L229.776 125.683L230.016 125.266L230.573 125.587C230.6 125.603 230.624 125.624 230.643 125.649C230.663 125.674 230.677 125.703 230.685 125.734C230.693 125.764 230.694 125.796 230.69 125.828C230.686 125.859 230.675 125.889 230.659 125.916ZM225.489 121.823C225.574 121.68 225.713 121.576 225.874 121.533C226.035 121.489 226.207 121.511 226.353 121.592L230.344 123.894C230.488 123.979 230.592 124.117 230.635 124.279C230.678 124.44 230.657 124.611 230.576 124.757L230.424 125.02L230.04 124.798C229.992 124.771 229.934 124.763 229.881 124.777C229.827 124.792 229.781 124.827 229.753 124.875L229.303 125.653C229.275 125.702 229.268 125.759 229.282 125.813C229.297 125.867 229.332 125.912 229.38 125.94L229.764 126.162L229.3 126.965L228.916 126.743C228.868 126.715 228.81 126.708 228.757 126.722C228.703 126.737 228.657 126.772 228.629 126.82L228.179 127.598C228.151 127.646 228.144 127.704 228.158 127.758C228.173 127.811 228.208 127.857 228.256 127.885L228.64 128.107L228.176 128.909L227.792 128.688C227.744 128.66 227.686 128.653 227.633 128.667C227.579 128.682 227.533 128.717 227.505 128.765L227.055 129.543C227.027 129.591 227.02 129.649 227.034 129.702C227.049 129.756 227.084 129.802 227.132 129.83L227.516 130.051L227.368 130.307C227.283 130.45 227.144 130.554 226.983 130.598C226.822 130.641 226.65 130.62 226.504 130.538L222.513 128.236C222.369 128.151 222.265 128.013 222.222 127.852C222.179 127.691 222.2 127.519 222.281 127.373L225.489 121.823Z" fill="url(#paint4_radial_4658_117451)"/>
<path d="M201.003 153.642C200.891 153.725 200.751 153.759 200.613 153.739C200.475 153.718 200.351 153.644 200.269 153.532L199.431 152.4L200.281 151.772L201.119 152.905C201.16 152.96 201.19 153.024 201.206 153.091C201.223 153.159 201.226 153.229 201.215 153.297C201.204 153.366 201.18 153.432 201.144 153.491C201.107 153.55 201.059 153.601 201.003 153.642ZM204.97 150.715C204.858 150.797 204.717 150.832 204.58 150.811C204.442 150.791 204.318 150.716 204.236 150.604L203.398 149.472L204.248 148.845L205.086 149.977C205.127 150.033 205.157 150.097 205.173 150.164C205.19 150.231 205.193 150.302 205.182 150.37C205.171 150.439 205.147 150.505 205.11 150.564C205.074 150.623 205.026 150.674 204.97 150.715ZM208.937 147.787C208.825 147.87 208.684 147.905 208.547 147.884C208.409 147.863 208.285 147.789 208.203 147.677L207.365 146.545L208.215 145.918L209.053 147.05C209.094 147.106 209.124 147.169 209.14 147.237C209.157 147.304 209.16 147.374 209.149 147.443C209.138 147.511 209.114 147.577 209.077 147.636C209.041 147.696 208.993 147.747 208.937 147.787ZM202.13 135.029C202.428 134.816 202.798 134.728 203.16 134.782C203.522 134.836 203.849 135.03 204.071 135.321L210.079 143.444C210.292 143.742 210.381 144.111 210.326 144.473C210.272 144.835 210.078 145.162 209.787 145.384L209.251 145.779L208.674 144.998C208.601 144.899 208.492 144.834 208.371 144.816C208.25 144.797 208.127 144.828 208.028 144.901L206.442 146.072C206.343 146.144 206.278 146.253 206.259 146.374C206.241 146.495 206.272 146.618 206.345 146.716L206.922 147.498L205.284 148.706L204.707 147.925C204.634 147.827 204.525 147.761 204.404 147.743C204.283 147.725 204.16 147.755 204.061 147.828L202.475 148.999C202.376 149.072 202.311 149.18 202.292 149.301C202.274 149.422 202.305 149.545 202.378 149.644L202.955 150.425L201.318 151.633L200.74 150.852C200.667 150.754 200.558 150.688 200.437 150.67C200.316 150.652 200.193 150.683 200.094 150.755L198.508 151.926C198.409 151.999 198.344 152.108 198.325 152.229C198.307 152.349 198.338 152.473 198.411 152.571L198.988 153.352L198.467 153.737C198.169 153.95 197.8 154.039 197.437 153.984C197.075 153.93 196.748 153.737 196.526 153.446L190.519 145.322C190.305 145.024 190.216 144.655 190.271 144.293C190.325 143.931 190.519 143.605 190.81 143.383L202.13 135.029Z" fill="url(#paint5_radial_4658_117451)"/>
<path d="M185.02 34.0247C185.09 34.1451 185.204 34.233 185.339 34.269C185.473 34.305 185.617 34.2862 185.737 34.2166L186.957 33.5128L186.429 32.5985L185.209 33.3023C185.148 33.3371 185.096 33.3834 185.054 33.4386C185.011 33.4939 184.981 33.5569 184.963 33.6241C184.946 33.6913 184.942 33.7614 184.951 33.8301C184.961 33.8989 184.985 33.965 185.02 34.0247ZM182.554 29.758C182.624 29.8784 182.738 29.9663 182.873 30.0023C183.007 30.0383 183.151 30.0195 183.271 29.9499L184.492 29.2461L183.963 28.3318L182.743 29.0356C182.683 29.0704 182.63 29.1167 182.588 29.1719C182.546 29.2272 182.515 29.2902 182.497 29.3574C182.48 29.4246 182.476 29.4947 182.485 29.5634C182.495 29.6322 182.519 29.6983 182.554 29.758ZM180.088 25.4913C180.158 25.6118 180.272 25.6996 180.407 25.7356C180.541 25.7716 180.685 25.7528 180.805 25.6832L182.026 24.9794L181.497 24.0651L180.277 24.7689C180.217 24.8037 180.164 24.85 180.122 24.9052C180.08 24.9605 180.049 25.0235 180.031 25.0907C180.014 25.1579 180.01 25.228 180.019 25.2967C180.029 25.3655 180.053 25.4316 180.088 25.4913ZM191.43 16.5119C191.242 16.1976 190.939 15.9689 190.585 15.8741C190.231 15.7794 189.854 15.8261 189.534 16.0044L180.778 21.0543C180.463 21.2421 180.234 21.5448 180.14 21.8984C180.045 22.252 180.091 22.6286 180.27 22.9484L180.603 23.5244L181.445 23.0387C181.551 22.9776 181.677 22.961 181.795 22.9927C181.913 23.0243 182.014 23.1016 182.075 23.2075L183.062 24.9141C183.123 25.02 183.139 25.1459 183.108 25.264C183.076 25.3821 182.999 25.4827 182.893 25.5439L182.051 26.0295L183.069 27.7911L183.911 27.3054C184.017 27.2443 184.143 27.2277 184.261 27.2594C184.379 27.291 184.48 27.3683 184.541 27.4742L185.528 29.1808C185.589 29.2867 185.605 29.4126 185.574 29.5307C185.542 29.6488 185.465 29.7494 185.359 29.8106L184.517 30.2962L185.535 32.0578L186.377 31.5721C186.483 31.511 186.609 31.4944 186.727 31.5261C186.845 31.5577 186.946 31.635 187.007 31.7409L187.994 33.4475C188.055 33.5534 188.071 33.6793 188.04 33.7974C188.008 33.9154 187.931 34.0161 187.825 34.0773L186.983 34.5629L187.307 35.1237C187.495 35.4379 187.798 35.6667 188.152 35.7615C188.506 35.8562 188.883 35.8095 189.203 35.6312L197.959 30.5813C198.273 30.3935 198.502 30.0907 198.597 29.7371C198.692 29.3835 198.645 29.0069 198.467 28.6872L191.43 16.5119Z" fill="url(#paint6_radial_4658_117451)"/>
<path d="M225.358 21.8332C225.32 21.8718 225.267 21.8935 225.213 21.8935C225.158 21.8935 225.106 21.8718 225.067 21.8332L224.676 21.4428L224.969 21.15L225.36 21.5404C225.379 21.5597 225.395 21.5826 225.405 21.6078C225.415 21.633 225.421 21.66 225.42 21.6872C225.42 21.7145 225.415 21.7414 225.404 21.7665C225.393 21.7915 225.378 21.8142 225.358 21.8332ZM226.726 20.4668C226.687 20.5053 226.635 20.527 226.58 20.527C226.526 20.527 226.474 20.5053 226.435 20.4668L226.044 20.0764L226.337 19.7836L226.728 20.174C226.747 20.1932 226.763 20.2161 226.773 20.2413C226.783 20.2665 226.789 20.2935 226.788 20.3208C226.788 20.348 226.783 20.375 226.772 20.4C226.761 20.4251 226.746 20.4478 226.726 20.4668ZM228.094 19.1003C228.055 19.1389 228.003 19.1606 227.948 19.1606C227.894 19.1606 227.841 19.1389 227.803 19.1003L227.412 18.7099L227.705 18.4171L228.096 18.8075C228.115 18.8268 228.13 18.8497 228.141 18.8749C228.151 18.9001 228.156 18.9271 228.156 18.9543C228.156 18.9816 228.15 19.0085 228.14 19.0336C228.129 19.0586 228.113 19.0813 228.094 19.1003ZM224.709 14.5482C224.813 14.4481 224.951 14.3922 225.094 14.3922C225.238 14.3922 225.376 14.4481 225.479 14.5482L228.283 17.3493C228.384 17.4524 228.44 17.5903 228.44 17.7339C228.44 17.8775 228.384 18.0154 228.283 18.1185L228.099 18.3029L227.829 18.0335C227.795 17.9996 227.749 17.9806 227.701 17.9806C227.653 17.9806 227.607 17.9996 227.573 18.0335L227.026 18.5801C226.992 18.614 226.973 18.66 226.973 18.708C226.973 18.7559 226.992 18.8019 227.026 18.8358L227.296 19.1052L226.731 19.6694L226.461 19.4C226.427 19.3661 226.381 19.347 226.333 19.347C226.285 19.347 226.239 19.3661 226.205 19.4L225.658 19.9466C225.624 19.9805 225.605 20.0265 225.605 20.0744C225.605 20.1224 225.624 20.1684 225.658 20.2023L225.928 20.4717L225.363 21.0358L225.093 20.7664C225.059 20.7325 225.013 20.7135 224.965 20.7135C224.917 20.7135 224.871 20.7325 224.837 20.7664L224.29 21.313C224.256 21.3469 224.237 21.3929 224.237 21.4409C224.237 21.4888 224.256 21.5348 224.29 21.5687L224.56 21.8381L224.38 22.0177C224.277 22.1177 224.139 22.1736 223.995 22.1736C223.851 22.1736 223.713 22.1177 223.61 22.0177L220.806 19.2165C220.706 19.1135 220.65 18.9755 220.65 18.8319C220.65 18.6883 220.706 18.5504 220.806 18.4474L224.709 14.5482Z" fill="url(#paint7_radial_4658_117451)"/>
<path d="M100.638 42.5408C100.695 42.4139 100.699 42.2696 100.649 42.1396C100.6 42.0097 100.5 41.9047 100.373 41.8479L99.0875 41.2723L98.6553 42.2357L99.9412 42.8113C100.005 42.8397 100.073 42.8552 100.143 42.857C100.212 42.8587 100.281 42.8467 100.346 42.8215C100.411 42.7963 100.47 42.7586 100.52 42.7104C100.57 42.6622 100.61 42.6045 100.638 42.5408ZM98.621 47.0368C98.678 46.9099 98.6821 46.7656 98.6325 46.6356C98.5829 46.5057 98.4837 46.4007 98.3567 46.3439L97.0707 45.7683L96.6386 46.7317L97.9245 47.3073C97.988 47.3357 98.0564 47.3513 98.1259 47.353C98.1954 47.3548 98.2646 47.3427 98.3294 47.3175C98.3942 47.2924 98.4533 47.2546 98.5034 47.2064C98.5535 47.1582 98.5935 47.1006 98.621 47.0368ZM96.6043 51.5328C96.6612 51.4059 96.6654 51.2616 96.6158 51.1317C96.5662 51.0017 96.467 50.8968 96.3399 50.8399L95.054 50.2643L94.6219 51.2277L95.9078 51.8033C95.9712 51.8318 96.0397 51.8473 96.1092 51.849C96.1787 51.8508 96.2479 51.8387 96.3127 51.8136C96.3775 51.7884 96.4366 51.7506 96.4867 51.7024C96.5367 51.6542 96.5767 51.5966 96.6043 51.5328ZM82.675 47.6115C82.5301 47.9478 82.5221 48.3272 82.6526 48.6693C82.7831 49.0114 83.0419 49.2892 83.374 49.4438L92.6006 53.5738C92.9372 53.7185 93.317 53.7265 93.6594 53.5961C94.0018 53.4658 94.28 53.2073 94.4348 52.8755L94.707 52.2685L93.8197 51.8713C93.708 51.8213 93.6208 51.7291 93.5772 51.6148C93.5336 51.5006 93.5373 51.3737 93.5873 51.2621L94.394 49.4637C94.4441 49.3521 94.5364 49.265 94.6508 49.2214C94.7652 49.1779 94.8922 49.1815 95.0039 49.2315L95.8911 49.6287L96.7238 47.7725L95.8365 47.3753C95.7248 47.3253 95.6375 47.233 95.594 47.1188C95.5504 47.0045 95.554 46.8777 95.604 46.7661L96.4107 44.9677C96.4608 44.8561 96.5532 44.769 96.6675 44.7254C96.7819 44.6819 96.9089 44.6855 97.0206 44.7355L97.9079 45.1327L98.7405 43.2764L97.8532 42.8793C97.7415 42.8293 97.6543 42.737 97.6107 42.6228C97.5671 42.5085 97.5707 42.3816 97.6208 42.2701L98.4275 40.4717C98.4775 40.3601 98.5699 40.2729 98.6843 40.2294C98.7986 40.1858 98.9256 40.1895 99.0373 40.2395L99.9246 40.6366L100.19 40.0457C100.335 39.7095 100.343 39.3301 100.212 38.988C100.082 38.6459 99.8227 38.3681 99.4906 38.2134L90.2641 34.0835C89.9274 33.9388 89.5476 33.9308 89.2052 34.0611C88.8628 34.1915 88.5847 34.45 88.4299 34.7818L82.675 47.6115Z" fill="url(#paint8_radial_4658_117451)"/>
<path d="M47.8415 52.7459C47.8122 52.6805 47.8101 52.606 47.8356 52.539C47.8612 52.4719 47.9124 52.4178 47.9779 52.3884L48.6414 52.0915L48.8644 52.5885L48.2009 52.8855C48.1682 52.9002 48.1329 52.9082 48.097 52.9091C48.0611 52.91 48.0255 52.9038 47.992 52.8908C47.9586 52.8778 47.9281 52.8583 47.9022 52.8334C47.8764 52.8086 47.8558 52.7788 47.8415 52.7459ZM48.882 55.0656C48.8527 55.0001 48.8505 54.9257 48.8761 54.8586C48.9017 54.7916 48.9529 54.7374 49.0184 54.7081L49.6819 54.4111L49.9049 54.9082L49.2414 55.2051C49.2087 55.2198 49.1734 55.2278 49.1375 55.2287C49.1016 55.2296 49.066 55.2234 49.0325 55.2104C48.9991 55.1974 48.9686 55.1779 48.9427 55.1531C48.9169 55.1282 48.8963 55.0985 48.882 55.0656ZM49.9225 57.3852C49.8932 57.3197 49.891 57.2453 49.9166 57.1783C49.9422 57.1112 49.9934 57.0571 50.0589 57.0277L50.7224 56.7308L50.9454 57.2278L50.2819 57.5248C50.2492 57.5394 50.2139 57.5475 50.178 57.5484C50.1421 57.5493 50.1064 57.5431 50.073 57.5301C50.0396 57.5171 50.0091 57.4976 49.9832 57.4727C49.9574 57.4479 49.9368 57.4181 49.9225 57.3852ZM57.1091 55.3621C57.1839 55.5356 57.188 55.7313 57.1207 55.9078C57.0534 56.0843 56.9198 56.2277 56.7485 56.3074L51.9882 58.4382C51.8145 58.5129 51.6186 58.517 51.4419 58.4498C51.2652 58.3825 51.1218 58.2491 51.0419 58.0779L50.9014 57.7648L51.3592 57.5599C51.4168 57.5341 51.4618 57.4865 51.4843 57.4275C51.5068 57.3686 51.5049 57.3031 51.4791 57.2456L51.0629 56.3177C51.0371 56.2601 50.9894 56.2152 50.9304 56.1927C50.8714 56.1702 50.8059 56.1721 50.7483 56.1979L50.2905 56.4028L49.8609 55.4451L50.3187 55.2402C50.3763 55.2144 50.4213 55.1668 50.4438 55.1079C50.4663 55.0489 50.4644 54.9835 50.4386 54.9259L50.0224 53.9981C49.9966 53.9405 49.9489 53.8955 49.8899 53.8731C49.8309 53.8506 49.7654 53.8525 49.7078 53.8783L49.25 54.0832L48.8204 53.1255L49.2782 52.9206C49.3358 52.8948 49.3808 52.8472 49.4033 52.7882C49.4258 52.7293 49.4239 52.6638 49.3981 52.6063L48.9819 51.6784C48.9561 51.6208 48.9084 51.5759 48.8494 51.5534C48.7904 51.5309 48.7249 51.5328 48.6673 51.5586L48.2095 51.7635L48.0727 51.4587C47.998 51.2852 47.9939 51.0894 48.0612 50.9129C48.1285 50.7364 48.262 50.5931 48.4334 50.5133L53.1937 48.3825C53.3674 48.3079 53.5633 48.3037 53.74 48.371C53.9166 48.4383 54.0601 48.5716 54.14 48.7428L57.1091 55.3621Z" fill="url(#paint9_radial_4658_117451)"/>
<path d="M30.7105 18.8657C30.6866 18.7287 30.7181 18.5878 30.7981 18.474C30.8781 18.3602 31.0002 18.2829 31.1373 18.2589L32.5254 18.0168L32.7072 19.0568L31.3191 19.2989C31.2506 19.3109 31.1804 19.3091 31.1126 19.2938C31.0448 19.2784 30.9807 19.2497 30.9241 19.2094C30.8675 19.1691 30.8195 19.118 30.7828 19.059C30.7461 18.9999 30.7216 18.9343 30.7105 18.8657ZM31.559 23.719C31.535 23.582 31.5665 23.4411 31.6466 23.3273C31.7266 23.2135 31.8486 23.1362 31.9857 23.1122L33.3739 22.8701L33.5557 23.9101L32.1676 24.1522C32.0991 24.1642 32.0289 24.1624 31.9611 24.1471C31.8933 24.1317 31.8292 24.103 31.7726 24.0627C31.716 24.0224 31.6679 23.9713 31.6312 23.9123C31.5946 23.8533 31.57 23.7876 31.559 23.719ZM32.4074 28.5723C32.3835 28.4353 32.415 28.2944 32.495 28.1806C32.5751 28.0668 32.6971 27.9895 32.8342 27.9656L34.2223 27.7234L34.4041 28.7634L33.016 29.0055C32.9475 29.0175 32.8773 29.0157 32.8095 29.0004C32.7417 28.985 32.6777 28.9563 32.621 28.916C32.5644 28.8757 32.5164 28.8246 32.4797 28.7656C32.443 28.7066 32.4185 28.6409 32.4074 28.5723ZM46.8743 28.1919C46.9319 28.5534 46.8464 28.9232 46.6357 29.2227C46.425 29.5222 46.1058 29.728 45.7458 29.7963L35.7861 31.5338C35.4242 31.5914 35.054 31.5059 34.7542 31.2955C34.4544 31.085 34.2484 30.7661 34.18 30.4065L34.0654 29.7513L35.0232 29.5842C35.1438 29.5632 35.2511 29.4951 35.3214 29.3951C35.3918 29.2951 35.4195 29.1712 35.3985 29.0508L35.0591 27.1094C35.038 26.989 34.9699 26.8818 34.8698 26.8115C34.7696 26.7413 34.6456 26.7136 34.5251 26.7346L33.5673 26.9017L33.217 24.898L34.1748 24.7309C34.2954 24.7099 34.4026 24.6418 34.473 24.5418C34.5434 24.4418 34.5711 24.3179 34.55 24.1975L34.2106 22.2561C34.1896 22.1357 34.1215 22.0285 34.0213 21.9582C33.9212 21.8879 33.7972 21.8603 33.6766 21.8813L32.7188 22.0484L32.3685 20.0447L33.3263 19.8776C33.4469 19.8566 33.5542 19.7885 33.6245 19.6885C33.6949 19.5885 33.7226 19.4646 33.7015 19.3441L33.3622 17.4028C33.3411 17.2824 33.273 17.1752 33.1729 17.1049C33.0727 17.0346 32.9487 17.007 32.8282 17.028L31.8704 17.1951L31.7589 16.5572C31.7012 16.1957 31.7868 15.826 31.9975 15.5265C32.2082 15.2269 32.5274 15.0212 32.8874 14.9528L42.8471 13.2153C43.209 13.1577 43.5791 13.2432 43.8789 13.4537C44.1788 13.6642 44.3847 13.983 44.4532 14.3427L46.8743 28.1919Z" fill="url(#paint10_radial_4658_117451)"/>
<path d="M25.6239 80.129C25.6606 80.0164 25.7406 79.923 25.8462 79.8693C25.9519 79.8156 26.0745 79.8061 26.1872 79.8427L27.328 80.2138L27.0494 81.0685L25.9086 80.6974C25.8524 80.6791 25.8003 80.6498 25.7554 80.6112C25.7105 80.5726 25.6738 80.5255 25.6473 80.4727C25.6208 80.4198 25.6051 80.3622 25.6011 80.3032C25.5971 80.2442 25.6048 80.185 25.6239 80.129ZM24.3239 84.1175C24.3606 84.0049 24.4405 83.9115 24.5462 83.8578C24.6518 83.8042 24.7745 83.7946 24.8872 83.8312L26.028 84.2023L25.7494 85.057L24.6086 84.6859C24.5523 84.6676 24.5002 84.6383 24.4554 84.5998C24.4105 84.5612 24.3738 84.5141 24.3473 84.4612C24.3208 84.4083 24.3051 84.3507 24.3011 84.2917C24.297 84.2327 24.3048 84.1735 24.3239 84.1175ZM23.0239 88.1061C23.0605 87.9935 23.1405 87.9001 23.2462 87.8464C23.3518 87.7927 23.4745 87.7831 23.5872 87.8198L24.7279 88.1908L24.4494 89.0455L23.3086 88.6745C23.2523 88.6562 23.2002 88.6269 23.1553 88.5883C23.1105 88.5497 23.0737 88.5026 23.0472 88.4497C23.0208 88.3969 23.005 88.3392 23.001 88.2803C22.997 88.2213 23.0048 88.162 23.0239 88.1061ZM34.057 93.5853C33.956 93.8802 33.744 94.1242 33.4659 94.2655C33.1878 94.4068 32.8655 94.4344 32.5675 94.3423L24.3824 91.68C24.0872 91.5791 23.8429 91.3673 23.7015 91.0895C23.56 90.8117 23.5324 90.4898 23.6246 90.1921L23.8001 89.6536L24.5872 89.9096C24.6863 89.9419 24.7942 89.9334 24.887 89.8862C24.9799 89.839 25.0502 89.7569 25.0825 89.6579L25.6025 88.0625C25.6348 87.9635 25.6263 87.8558 25.5791 87.763C25.5318 87.6702 25.4496 87.6 25.3505 87.5678L24.5634 87.3118L25.1001 85.6651L25.8873 85.9211C25.9863 85.9533 26.0942 85.9449 26.1871 85.8977C26.2799 85.8505 26.3503 85.7684 26.3825 85.6694L26.9025 84.074C26.9348 83.975 26.9264 83.8673 26.8791 83.7745C26.8319 83.6817 26.7497 83.6115 26.6506 83.5793L25.8634 83.3232L26.4002 81.6765L27.1873 81.9325C27.2864 81.9648 27.3942 81.9564 27.4871 81.9092C27.58 81.862 27.6503 81.7798 27.6825 81.6809L28.2026 80.0854C28.2348 79.9865 28.2264 79.8787 28.1792 79.7859C28.1319 79.6932 28.0497 79.6229 27.9506 79.5907L27.1635 79.3347L27.3343 78.8105C27.4353 78.5156 27.6474 78.2716 27.9254 78.1303C28.2035 77.9889 28.5258 77.9614 28.8239 78.0535L37.0089 80.7157C37.3041 80.8166 37.5484 81.0285 37.6899 81.3062C37.8313 81.584 37.8589 81.906 37.7667 82.2037L34.057 93.5853Z" fill="url(#paint11_radial_4658_117451)"/>
<path d="M40.8091 132.936C40.9435 133.029 41.1091 133.064 41.2695 133.034C41.4299 133.005 41.572 132.913 41.6645 132.778L42.6006 131.419L41.5803 130.718L40.6442 132.077C40.598 132.144 40.5656 132.22 40.5489 132.299C40.5322 132.379 40.5315 132.461 40.5468 132.541C40.5621 132.621 40.5932 132.697 40.6383 132.765C40.6833 132.833 40.7413 132.891 40.8091 132.936ZM36.0478 129.663C36.1822 129.756 36.3478 129.791 36.5082 129.761C36.6687 129.732 36.8107 129.64 36.9032 129.505L37.8393 128.146L36.819 127.445L35.8829 128.804C35.8367 128.871 35.8043 128.947 35.7876 129.026C35.7709 129.106 35.7702 129.188 35.7855 129.268C35.8009 129.348 35.8319 129.424 35.877 129.492C35.922 129.56 35.98 129.618 36.0478 129.663ZM31.2865 126.39C31.4209 126.483 31.5865 126.518 31.7469 126.488C31.9074 126.459 32.0494 126.367 32.1419 126.233L33.078 124.874L32.0577 124.172L31.1216 125.531C31.0754 125.598 31.043 125.674 31.0263 125.753C31.0096 125.833 31.0089 125.915 31.0242 125.995C31.0396 126.075 31.0706 126.151 31.1157 126.219C31.1607 126.287 31.2187 126.345 31.2865 126.39ZM38.7566 111.181C38.3992 110.943 37.9632 110.853 37.5409 110.931C37.1186 111.009 36.7433 111.249 36.4946 111.598L29.7781 121.349C29.54 121.706 29.4504 122.141 29.5285 122.563C29.6065 122.985 29.8459 123.36 30.1961 123.608L30.8388 124.05L31.4847 123.113C31.566 122.995 31.691 122.914 31.832 122.888C31.973 122.862 32.1187 122.893 32.2368 122.974L34.1413 124.283C34.2595 124.364 34.3405 124.489 34.3666 124.63C34.3926 124.771 34.3616 124.916 34.2803 125.034L33.6344 125.972L35.6001 127.323L36.246 126.385C36.3273 126.267 36.4523 126.186 36.5933 126.16C36.7343 126.134 36.88 126.165 36.9981 126.247L38.9026 127.556C39.0208 127.637 39.1018 127.762 39.1279 127.903C39.1539 128.044 39.1229 128.189 39.0416 128.307L38.3957 129.245L40.3614 130.596L41.0073 129.658C41.0886 129.54 41.2136 129.459 41.3546 129.433C41.4956 129.407 41.6413 129.438 41.7594 129.52L43.6639 130.829C43.7821 130.91 43.8631 131.035 43.8892 131.176C43.9152 131.316 43.8842 131.462 43.8029 131.58L43.157 132.518L43.7828 132.948C44.1401 133.186 44.5762 133.275 44.9985 133.197C45.4208 133.119 45.7961 132.88 46.0448 132.53L52.7612 122.78C52.9994 122.423 53.0889 121.987 53.0109 121.565C52.9329 121.144 52.6934 120.769 52.3433 120.52L38.7566 111.181Z" fill="url(#paint12_radial_4658_117451)"/>
</g>
<g filter="url(#filter0_f_4658_117451)">
<rect x="94.8994" y="96.4531" width="65.1511" height="7.66484" fill="#855EDB"/>
</g>
<path d="M107.825 90.9402H146.485C147.307 90.9402 147.995 90.6611 148.551 90.1029C149.107 89.5446 149.385 88.8529 149.385 88.0277C149.385 87.2024 149.107 86.5111 148.551 85.9537C147.995 85.3963 147.307 85.1176 146.485 85.1176H107.825C107.003 85.1176 106.315 85.3967 105.759 85.9549C105.203 86.5132 104.925 87.205 104.925 88.0302C104.925 88.8555 105.203 89.5468 105.759 90.1042C106.315 90.6615 107.003 90.9402 107.825 90.9402ZM107.825 79.2947H146.485C147.307 79.2947 147.995 79.0155 148.551 78.4573C149.107 77.8991 149.385 77.2073 149.385 76.3821C149.385 75.5568 149.107 74.8655 148.551 74.3081C147.995 73.7508 147.307 73.4721 146.485 73.4721H107.825C107.003 73.4721 106.315 73.7512 105.759 74.3094C105.203 74.8677 104.925 75.5594 104.925 76.3846C104.925 77.2099 105.203 77.9012 105.759 78.4586C106.315 79.016 107.003 79.2947 107.825 79.2947ZM107.825 67.6491H146.485C147.307 67.6491 147.995 67.37 148.551 66.8118C149.107 66.2535 149.385 65.5617 149.385 64.7365C149.385 63.9112 149.107 63.2199 148.551 62.6626C147.995 62.1052 147.307 61.8265 146.485 61.8265H107.825C107.003 61.8265 106.315 62.1056 105.759 62.6638C105.203 63.2221 104.925 63.9138 104.925 64.7391C104.925 65.5643 105.203 66.2557 105.759 66.813C106.315 67.3704 107.003 67.6491 107.825 67.6491ZM97.4164 105.497C95.4635 105.497 93.8105 104.818 92.4574 103.459C91.1043 102.101 90.4277 100.441 90.4277 98.48V54.2868C90.4277 52.3259 91.1043 50.6662 92.4574 49.3075C93.8105 47.9489 95.4635 47.2695 97.4164 47.2695H156.894C158.847 47.2695 160.5 47.9489 161.853 49.3075C163.206 50.6662 163.882 52.3259 163.882 54.2868V110.753C163.882 112.317 163.167 113.404 161.737 114.013C160.307 114.621 159.042 114.373 157.942 113.268L150.203 105.497H97.4164Z" fill="#855EDB"/>
<path d="M20.0836 140.144C20.0836 140.568 19.9836 140.968 19.7836 141.344C19.5836 141.72 19.2636 142.028 18.8236 142.268C18.3836 142.5 17.8196 142.616 17.1316 142.616H15.6196V146H14.2516V137.66H17.1316C17.7716 137.66 18.3116 137.772 18.7516 137.996C19.1996 138.212 19.5316 138.508 19.7476 138.884C19.9716 139.26 20.0836 139.68 20.0836 140.144ZM17.1316 141.5C17.6516 141.5 18.0396 141.384 18.2956 141.152C18.5516 140.912 18.6796 140.576 18.6796 140.144C18.6796 139.232 18.1636 138.776 17.1316 138.776H15.6196V141.5H17.1316ZM24.2563 146.108C23.6323 146.108 23.0683 145.968 22.5643 145.688C22.0603 145.4 21.6643 145 21.3763 144.488C21.0883 143.968 20.9443 143.368 20.9443 142.688C20.9443 142.016 21.0923 141.42 21.3883 140.9C21.6843 140.38 22.0883 139.98 22.6003 139.7C23.1123 139.42 23.6843 139.28 24.3163 139.28C24.9483 139.28 25.5203 139.42 26.0323 139.7C26.5443 139.98 26.9483 140.38 27.2443 140.9C27.5403 141.42 27.6883 142.016 27.6883 142.688C27.6883 143.36 27.5363 143.956 27.2323 144.476C26.9283 144.996 26.5123 145.4 25.9843 145.688C25.4643 145.968 24.8883 146.108 24.2563 146.108ZM24.2563 144.92C24.6083 144.92 24.9363 144.836 25.2403 144.668C25.5523 144.5 25.8043 144.248 25.9963 143.912C26.1883 143.576 26.2843 143.168 26.2843 142.688C26.2843 142.208 26.1923 141.804 26.0083 141.476C25.8243 141.14 25.5803 140.888 25.2763 140.72C24.9723 140.552 24.6443 140.468 24.2923 140.468C23.9403 140.468 23.6123 140.552 23.3083 140.72C23.0123 140.888 22.7763 141.14 22.6003 141.476C22.4243 141.804 22.3363 142.208 22.3363 142.688C22.3363 143.4 22.5163 143.952 22.8763 144.344C23.2443 144.728 23.7043 144.92 24.2563 144.92ZM31.4406 146.108C30.9206 146.108 30.4526 146.016 30.0366 145.832C29.6286 145.64 29.3046 145.384 29.0646 145.064C28.8246 144.736 28.6966 144.372 28.6806 143.972H30.0966C30.1206 144.252 30.2526 144.488 30.4926 144.68C30.7406 144.864 31.0486 144.956 31.4166 144.956C31.8006 144.956 32.0966 144.884 32.3046 144.74C32.5206 144.588 32.6286 144.396 32.6286 144.164C32.6286 143.916 32.5086 143.732 32.2686 143.612C32.0366 143.492 31.6646 143.36 31.1526 143.216C30.6566 143.08 30.2526 142.948 29.9406 142.82C29.6286 142.692 29.3566 142.496 29.1246 142.232C28.9006 141.968 28.7886 141.62 28.7886 141.188C28.7886 140.836 28.8926 140.516 29.1006 140.228C29.3086 139.932 29.6046 139.7 29.9886 139.532C30.3806 139.364 30.8286 139.28 31.3326 139.28C32.0846 139.28 32.6886 139.472 33.1446 139.856C33.6086 140.232 33.8566 140.748 33.8886 141.404H32.5206C32.4966 141.108 32.3766 140.872 32.1606 140.696C31.9446 140.52 31.6526 140.432 31.2846 140.432C30.9246 140.432 30.6486 140.5 30.4566 140.636C30.2646 140.772 30.1686 140.952 30.1686 141.176C30.1686 141.352 30.2326 141.5 30.3606 141.62C30.4886 141.74 30.6446 141.836 30.8286 141.908C31.0126 141.972 31.2846 142.056 31.6446 142.16C32.1246 142.288 32.5166 142.42 32.8206 142.556C33.1326 142.684 33.4006 142.876 33.6246 143.132C33.8486 143.388 33.9646 143.728 33.9726 144.152C33.9726 144.528 33.8686 144.864 33.6606 145.16C33.4526 145.456 33.1566 145.688 32.7726 145.856C32.3966 146.024 31.9526 146.108 31.4406 146.108ZM37.0468 140.504V144.164C37.0468 144.412 37.1028 144.592 37.2148 144.704C37.3348 144.808 37.5348 144.86 37.8148 144.86H38.6548V146H37.5748C36.9588 146 36.4868 145.856 36.1588 145.568C35.8308 145.28 35.6668 144.812 35.6668 144.164V140.504H34.8868V139.388H35.6668V137.744H37.0468V139.388H38.6548V140.504H37.0468ZM42.5768 142.664C42.5768 142 42.7128 141.412 42.9848 140.9C43.2648 140.388 43.6408 139.992 44.1128 139.712C44.5928 139.424 45.1208 139.28 45.6968 139.28C46.2168 139.28 46.6688 139.384 47.0528 139.592C47.4448 139.792 47.7568 140.044 47.9888 140.348V139.388H49.3688V146H47.9888V145.016C47.7568 145.328 47.4408 145.588 47.0408 145.796C46.6408 146.004 46.1848 146.108 45.6728 146.108C45.1048 146.108 44.5848 145.964 44.1128 145.676C43.6408 145.38 43.2648 144.972 42.9848 144.452C42.7128 143.924 42.5768 143.328 42.5768 142.664ZM47.9888 142.688C47.9888 142.232 47.8928 141.836 47.7008 141.5C47.5168 141.164 47.2728 140.908 46.9688 140.732C46.6648 140.556 46.3368 140.468 45.9848 140.468C45.6328 140.468 45.3048 140.556 45.0008 140.732C44.6968 140.9 44.4488 141.152 44.2568 141.488C44.0728 141.816 43.9808 142.208 43.9808 142.664C43.9808 143.12 44.0728 143.52 44.2568 143.864C44.4488 144.208 44.6968 144.472 45.0008 144.656C45.3128 144.832 45.6408 144.92 45.9848 144.92C46.3368 144.92 46.6648 144.832 46.9688 144.656C47.2728 144.48 47.5168 144.224 47.7008 143.888C47.8928 143.544 47.9888 143.144 47.9888 142.688ZM53.8268 142.688C53.8268 142.008 53.9628 141.412 54.2348 140.9C54.5148 140.38 54.8988 139.98 55.3868 139.7C55.8748 139.42 56.4348 139.28 57.0668 139.28C57.8668 139.28 58.5268 139.472 59.0468 139.856C59.5748 140.232 59.9308 140.772 60.1148 141.476H58.6388C58.5188 141.148 58.3268 140.892 58.0628 140.708C57.7988 140.524 57.4668 140.432 57.0668 140.432C56.5068 140.432 56.0588 140.632 55.7228 141.032C55.3948 141.424 55.2308 141.976 55.2308 142.688C55.2308 143.4 55.3948 143.956 55.7228 144.356C56.0588 144.756 56.5068 144.956 57.0668 144.956C57.8588 144.956 58.3828 144.608 58.6388 143.912H60.1148C59.9228 144.584 59.5628 145.12 59.0348 145.52C58.5068 145.912 57.8508 146.108 57.0668 146.108C56.4348 146.108 55.8748 145.968 55.3868 145.688C54.8988 145.4 54.5148 145 54.2348 144.488C53.9628 143.968 53.8268 143.368 53.8268 142.688ZM64.3461 146.108C63.7221 146.108 63.1581 145.968 62.6541 145.688C62.1501 145.4 61.7541 145 61.4661 144.488C61.1781 143.968 61.0341 143.368 61.0341 142.688C61.0341 142.016 61.1821 141.42 61.4781 140.9C61.7741 140.38 62.1781 139.98 62.6901 139.7C63.2021 139.42 63.7741 139.28 64.4061 139.28C65.0381 139.28 65.6101 139.42 66.1221 139.7C66.6341 139.98 67.0381 140.38 67.3341 140.9C67.6301 141.42 67.7781 142.016 67.7781 142.688C67.7781 143.36 67.6261 143.956 67.3221 144.476C67.0181 144.996 66.6021 145.4 66.0741 145.688C65.5541 145.968 64.9781 146.108 64.3461 146.108ZM64.3461 144.92C64.6981 144.92 65.0261 144.836 65.3301 144.668C65.6421 144.5 65.8941 144.248 66.0861 143.912C66.2781 143.576 66.3741 143.168 66.3741 142.688C66.3741 142.208 66.2821 141.804 66.0981 141.476C65.9141 141.14 65.6701 140.888 65.3661 140.72C65.0621 140.552 64.7341 140.468 64.3821 140.468C64.0301 140.468 63.7021 140.552 63.3981 140.72C63.1021 140.888 62.8661 141.14 62.6901 141.476C62.5141 141.804 62.4261 142.208 62.4261 142.688C62.4261 143.4 62.6061 143.952 62.9661 144.344C63.3341 144.728 63.7941 144.92 64.3461 144.92ZM77.1345 139.28C77.6545 139.28 78.1185 139.388 78.5265 139.604C78.9425 139.82 79.2665 140.14 79.4985 140.564C79.7385 140.988 79.8585 141.5 79.8585 142.1V146H78.5025V142.304C78.5025 141.712 78.3545 141.26 78.0585 140.948C77.7625 140.628 77.3585 140.468 76.8465 140.468C76.3345 140.468 75.9265 140.628 75.6225 140.948C75.3265 141.26 75.1785 141.712 75.1785 142.304V146H73.8225V142.304C73.8225 141.712 73.6745 141.26 73.3785 140.948C73.0825 140.628 72.6785 140.468 72.1665 140.468C71.6545 140.468 71.2465 140.628 70.9425 140.948C70.6465 141.26 70.4985 141.712 70.4985 142.304V146H69.1305V139.388H70.4985V140.144C70.7225 139.872 71.0065 139.66 71.3505 139.508C71.6945 139.356 72.0625 139.28 72.4545 139.28C72.9825 139.28 73.4545 139.392 73.8705 139.616C74.2865 139.84 74.6065 140.164 74.8305 140.588C75.0305 140.188 75.3425 139.872 75.7665 139.64C76.1905 139.4 76.6465 139.28 77.1345 139.28ZM89.6032 139.28C90.1232 139.28 90.5872 139.388 90.9952 139.604C91.4112 139.82 91.7352 140.14 91.9672 140.564C92.2072 140.988 92.3272 141.5 92.3272 142.1V146H90.9712V142.304C90.9712 141.712 90.8232 141.26 90.5272 140.948C90.2312 140.628 89.8272 140.468 89.3152 140.468C88.8032 140.468 88.3952 140.628 88.0912 140.948C87.7952 141.26 87.6472 141.712 87.6472 142.304V146H86.2912V142.304C86.2912 141.712 86.1432 141.26 85.8472 140.948C85.5512 140.628 85.1472 140.468 84.6352 140.468C84.1232 140.468 83.7152 140.628 83.4112 140.948C83.1152 141.26 82.9672 141.712 82.9672 142.304V146H81.5992V139.388H82.9672V140.144C83.1912 139.872 83.4752 139.66 83.8192 139.508C84.1632 139.356 84.5312 139.28 84.9232 139.28C85.4512 139.28 85.9232 139.392 86.3392 139.616C86.7552 139.84 87.0752 140.164 87.2992 140.588C87.4992 140.188 87.8112 139.872 88.2352 139.64C88.6592 139.4 89.1152 139.28 89.6032 139.28ZM100.128 142.532C100.128 142.78 100.112 143.004 100.08 143.204H95.028C95.068 143.732 95.264 144.156 95.616 144.476C95.968 144.796 96.4 144.956 96.912 144.956C97.648 144.956 98.168 144.648 98.472 144.032H99.948C99.748 144.64 99.384 145.14 98.856 145.532C98.336 145.916 97.688 146.108 96.912 146.108C96.28 146.108 95.712 145.968 95.208 145.688C94.712 145.4 94.32 145 94.032 144.488C93.752 143.968 93.612 143.368 93.612 142.688C93.612 142.008 93.748 141.412 94.02 140.9C94.3 140.38 94.688 139.98 95.184 139.7C95.688 139.42 96.264 139.28 96.912 139.28C97.536 139.28 98.092 139.416 98.58 139.688C99.068 139.96 99.448 140.344 99.72 140.84C99.992 141.328 100.128 141.892 100.128 142.532ZM98.7 142.1C98.692 141.596 98.512 141.192 98.16 140.888C97.808 140.584 97.372 140.432 96.852 140.432C96.38 140.432 95.976 140.584 95.64 140.888C95.304 141.184 95.104 141.588 95.04 142.1H98.7ZM104.81 139.28C105.33 139.28 105.794 139.388 106.202 139.604C106.618 139.82 106.942 140.14 107.174 140.564C107.406 140.988 107.522 141.5 107.522 142.1V146H106.166V142.304C106.166 141.712 106.018 141.26 105.722 140.948C105.426 140.628 105.022 140.468 104.51 140.468C103.998 140.468 103.59 140.628 103.286 140.948C102.99 141.26 102.842 141.712 102.842 142.304V146H101.474V139.388H102.842V140.144C103.066 139.872 103.35 139.66 103.694 139.508C104.046 139.356 104.418 139.28 104.81 139.28ZM110.863 140.504V144.164C110.863 144.412 110.919 144.592 111.031 144.704C111.151 144.808 111.351 144.86 111.631 144.86H112.471V146H111.391C110.775 146 110.303 145.856 109.975 145.568C109.647 145.28 109.483 144.812 109.483 144.164V140.504H108.703V139.388H109.483V137.744H110.863V139.388H112.471V140.504H110.863ZM118.445 140.504V144.164C118.445 144.412 118.501 144.592 118.613 144.704C118.733 144.808 118.933 144.86 119.213 144.86H120.053V146H118.973C118.357 146 117.885 145.856 117.557 145.568C117.229 145.28 117.065 144.812 117.065 144.164V140.504H116.285V139.388H117.065V137.744H118.445V139.388H120.053V140.504H118.445ZM124.182 146.108C123.558 146.108 122.994 145.968 122.49 145.688C121.986 145.4 121.59 145 121.302 144.488C121.014 143.968 120.87 143.368 120.87 142.688C120.87 142.016 121.018 141.42 121.314 140.9C121.61 140.38 122.014 139.98 122.526 139.7C123.038 139.42 123.61 139.28 124.242 139.28C124.874 139.28 125.446 139.42 125.958 139.7C126.47 139.98 126.874 140.38 127.17 140.9C127.466 141.42 127.614 142.016 127.614 142.688C127.614 143.36 127.462 143.956 127.158 144.476C126.854 144.996 126.438 145.4 125.91 145.688C125.39 145.968 124.814 146.108 124.182 146.108ZM124.182 144.92C124.534 144.92 124.862 144.836 125.166 144.668C125.478 144.5 125.73 144.248 125.922 143.912C126.114 143.576 126.21 143.168 126.21 142.688C126.21 142.208 126.118 141.804 125.934 141.476C125.75 141.14 125.506 140.888 125.202 140.72C124.898 140.552 124.57 140.468 124.218 140.468C123.866 140.468 123.538 140.552 123.234 140.72C122.938 140.888 122.702 141.14 122.526 141.476C122.35 141.804 122.262 142.208 122.262 142.688C122.262 143.4 122.442 143.952 122.802 144.344C123.17 144.728 123.63 144.92 124.182 144.92ZM134.484 146.108C133.964 146.108 133.496 146.016 133.08 145.832C132.672 145.64 132.348 145.384 132.108 145.064C131.868 144.736 131.74 144.372 131.724 143.972H133.14C133.164 144.252 133.296 144.488 133.536 144.68C133.784 144.864 134.092 144.956 134.46 144.956C134.844 144.956 135.14 144.884 135.348 144.74C135.564 144.588 135.672 144.396 135.672 144.164C135.672 143.916 135.552 143.732 135.312 143.612C135.08 143.492 134.708 143.36 134.196 143.216C133.7 143.08 133.296 142.948 132.984 142.82C132.672 142.692 132.4 142.496 132.168 142.232C131.944 141.968 131.832 141.62 131.832 141.188C131.832 140.836 131.936 140.516 132.144 140.228C132.352 139.932 132.648 139.7 133.032 139.532C133.424 139.364 133.872 139.28 134.376 139.28C135.128 139.28 135.732 139.472 136.188 139.856C136.652 140.232 136.9 140.748 136.932 141.404H135.564C135.54 141.108 135.42 140.872 135.204 140.696C134.988 140.52 134.696 140.432 134.328 140.432C133.968 140.432 133.692 140.5 133.5 140.636C133.308 140.772 133.212 140.952 133.212 141.176C133.212 141.352 133.276 141.5 133.404 141.62C133.532 141.74 133.688 141.836 133.872 141.908C134.056 141.972 134.328 142.056 134.688 142.16C135.168 142.288 135.56 142.42 135.864 142.556C136.176 142.684 136.444 142.876 136.668 143.132C136.892 143.388 137.008 143.728 137.016 144.152C137.016 144.528 136.912 144.864 136.704 145.16C136.496 145.456 136.2 145.688 135.816 145.856C135.44 146.024 134.996 146.108 134.484 146.108ZM140.09 140.504V144.164C140.09 144.412 140.146 144.592 140.258 144.704C140.378 144.808 140.578 144.86 140.858 144.86H141.698V146H140.618C140.002 146 139.53 145.856 139.202 145.568C138.874 145.28 138.71 144.812 138.71 144.164V140.504H137.93V139.388H138.71V137.744H140.09V139.388H141.698V140.504H140.09ZM142.503 142.664C142.503 142 142.639 141.412 142.911 140.9C143.191 140.388 143.567 139.992 144.039 139.712C144.519 139.424 145.047 139.28 145.623 139.28C146.143 139.28 146.595 139.384 146.979 139.592C147.371 139.792 147.683 140.044 147.915 140.348V139.388H149.295V146H147.915V145.016C147.683 145.328 147.367 145.588 146.967 145.796C146.567 146.004 146.111 146.108 145.599 146.108C145.031 146.108 144.511 145.964 144.039 145.676C143.567 145.38 143.191 144.972 142.911 144.452C142.639 143.924 142.503 143.328 142.503 142.664ZM147.915 142.688C147.915 142.232 147.819 141.836 147.627 141.5C147.443 141.164 147.199 140.908 146.895 140.732C146.591 140.556 146.263 140.468 145.911 140.468C145.559 140.468 145.231 140.556 144.927 140.732C144.623 140.9 144.375 141.152 144.183 141.488C143.999 141.816 143.907 142.208 143.907 142.664C143.907 143.12 143.999 143.52 144.183 143.864C144.375 144.208 144.623 144.472 144.927 144.656C145.239 144.832 145.567 144.92 145.911 144.92C146.263 144.92 146.591 144.832 146.895 144.656C147.199 144.48 147.443 144.224 147.627 143.888C147.819 143.544 147.915 143.144 147.915 142.688ZM152.459 140.348C152.659 140.012 152.923 139.752 153.251 139.568C153.587 139.376 153.983 139.28 154.439 139.28V140.696H154.091C153.555 140.696 153.147 140.832 152.867 141.104C152.595 141.376 152.459 141.848 152.459 142.52V146H151.091V139.388H152.459V140.348ZM157.293 140.504V144.164C157.293 144.412 157.349 144.592 157.461 144.704C157.581 144.808 157.781 144.86 158.061 144.86H158.901V146H157.821C157.205 146 156.733 145.856 156.405 145.568C156.077 145.28 155.913 144.812 155.913 144.164V140.504H155.133V139.388H155.913V137.744H157.293V139.388H158.901V140.504H157.293ZM162.823 142.664C162.823 142 162.959 141.412 163.231 140.9C163.511 140.388 163.887 139.992 164.359 139.712C164.839 139.424 165.367 139.28 165.943 139.28C166.463 139.28 166.915 139.384 167.299 139.592C167.691 139.792 168.003 140.044 168.235 140.348V139.388H169.615V146H168.235V145.016C168.003 145.328 167.687 145.588 167.287 145.796C166.887 146.004 166.431 146.108 165.919 146.108C165.351 146.108 164.831 145.964 164.359 145.676C163.887 145.38 163.511 144.972 163.231 144.452C162.959 143.924 162.823 143.328 162.823 142.664ZM168.235 142.688C168.235 142.232 168.139 141.836 167.947 141.5C167.763 141.164 167.519 140.908 167.215 140.732C166.911 140.556 166.583 140.468 166.231 140.468C165.879 140.468 165.551 140.556 165.247 140.732C164.943 140.9 164.695 141.152 164.503 141.488C164.319 141.816 164.227 142.208 164.227 142.664C164.227 143.12 164.319 143.52 164.503 143.864C164.695 144.208 164.943 144.472 165.247 144.656C165.559 144.832 165.887 144.92 166.231 144.92C166.583 144.92 166.911 144.832 167.215 144.656C167.519 144.48 167.763 144.224 167.947 143.888C168.139 143.544 168.235 143.144 168.235 142.688ZM174.073 142.664C174.073 142 174.209 141.412 174.481 140.9C174.761 140.388 175.137 139.992 175.609 139.712C176.089 139.424 176.621 139.28 177.205 139.28C177.637 139.28 178.061 139.376 178.477 139.568C178.901 139.752 179.237 140 179.485 140.312V137.12H180.865V146H179.485V145.004C179.261 145.324 178.949 145.588 178.549 145.796C178.157 146.004 177.705 146.108 177.193 146.108C176.617 146.108 176.089 145.964 175.609 145.676C175.137 145.38 174.761 144.972 174.481 144.452C174.209 143.924 174.073 143.328 174.073 142.664ZM179.485 142.688C179.485 142.232 179.389 141.836 179.197 141.5C179.013 141.164 178.769 140.908 178.465 140.732C178.161 140.556 177.833 140.468 177.481 140.468C177.129 140.468 176.801 140.556 176.497 140.732C176.193 140.9 175.945 141.152 175.753 141.488C175.569 141.816 175.477 142.208 175.477 142.664C175.477 143.12 175.569 143.52 175.753 143.864C175.945 144.208 176.193 144.472 176.497 144.656C176.809 144.832 177.137 144.92 177.481 144.92C177.833 144.92 178.161 144.832 178.465 144.656C178.769 144.48 179.013 144.224 179.197 143.888C179.389 143.544 179.485 143.144 179.485 142.688ZM183.358 138.512C183.11 138.512 182.902 138.428 182.734 138.26C182.566 138.092 182.482 137.884 182.482 137.636C182.482 137.388 182.566 137.18 182.734 137.012C182.902 136.844 183.11 136.76 183.358 136.76C183.598 136.76 183.802 136.844 183.97 137.012C184.138 137.18 184.222 137.388 184.222 137.636C184.222 137.884 184.138 138.092 183.97 138.26C183.802 138.428 183.598 138.512 183.358 138.512ZM184.03 139.388V146H182.662V139.388H184.03ZM188.226 146.108C187.706 146.108 187.238 146.016 186.822 145.832C186.414 145.64 186.09 145.384 185.85 145.064C185.61 144.736 185.482 144.372 185.466 143.972H186.882C186.906 144.252 187.038 144.488 187.278 144.68C187.526 144.864 187.834 144.956 188.202 144.956C188.586 144.956 188.882 144.884 189.09 144.74C189.306 144.588 189.414 144.396 189.414 144.164C189.414 143.916 189.294 143.732 189.054 143.612C188.822 143.492 188.45 143.36 187.938 143.216C187.442 143.08 187.038 142.948 186.726 142.82C186.414 142.692 186.142 142.496 185.91 142.232C185.686 141.968 185.574 141.62 185.574 141.188C185.574 140.836 185.678 140.516 185.886 140.228C186.094 139.932 186.39 139.7 186.774 139.532C187.166 139.364 187.614 139.28 188.118 139.28C188.87 139.28 189.474 139.472 189.93 139.856C190.394 140.232 190.642 140.748 190.674 141.404H189.306C189.282 141.108 189.162 140.872 188.946 140.696C188.73 140.52 188.438 140.432 188.07 140.432C187.71 140.432 187.434 140.5 187.242 140.636C187.05 140.772 186.954 140.952 186.954 141.176C186.954 141.352 187.018 141.5 187.146 141.62C187.274 141.74 187.43 141.836 187.614 141.908C187.798 141.972 188.07 142.056 188.43 142.16C188.91 142.288 189.302 142.42 189.606 142.556C189.918 142.684 190.186 142.876 190.41 143.132C190.634 143.388 190.75 143.728 190.758 144.152C190.758 144.528 190.654 144.864 190.446 145.16C190.238 145.456 189.942 145.688 189.558 145.856C189.182 146.024 188.738 146.108 188.226 146.108ZM191.78 142.688C191.78 142.008 191.916 141.412 192.188 140.9C192.468 140.38 192.852 139.98 193.34 139.7C193.828 139.42 194.388 139.28 195.02 139.28C195.82 139.28 196.48 139.472 197 139.856C197.528 140.232 197.884 140.772 198.068 141.476H196.592C196.472 141.148 196.28 140.892 196.016 140.708C195.752 140.524 195.42 140.432 195.02 140.432C194.46 140.432 194.012 140.632 193.676 141.032C193.348 141.424 193.184 141.976 193.184 142.688C193.184 143.4 193.348 143.956 193.676 144.356C194.012 144.756 194.46 144.956 195.02 144.956C195.812 144.956 196.336 144.608 196.592 143.912H198.068C197.876 144.584 197.516 145.12 196.988 145.52C196.46 145.912 195.804 146.108 195.02 146.108C194.388 146.108 193.828 145.968 193.34 145.688C192.852 145.4 192.468 145 192.188 144.488C191.916 143.968 191.78 143.368 191.78 142.688ZM205.419 139.388V146H204.051V145.22C203.835 145.492 203.551 145.708 203.199 145.868C202.855 146.02 202.487 146.096 202.095 146.096C201.575 146.096 201.107 145.988 200.691 145.772C200.283 145.556 199.959 145.236 199.719 144.812C199.487 144.388 199.371 143.876 199.371 143.276V139.388H200.727V143.072C200.727 143.664 200.875 144.12 201.171 144.44C201.467 144.752 201.871 144.908 202.383 144.908C202.895 144.908 203.299 144.752 203.595 144.44C203.899 144.12 204.051 143.664 204.051 143.072V139.388H205.419ZM209.624 146.108C209.104 146.108 208.636 146.016 208.22 145.832C207.812 145.64 207.488 145.384 207.248 145.064C207.008 144.736 206.88 144.372 206.864 143.972H208.28C208.304 144.252 208.436 144.488 208.676 144.68C208.924 144.864 209.232 144.956 209.6 144.956C209.984 144.956 210.28 144.884 210.488 144.74C210.704 144.588 210.812 144.396 210.812 144.164C210.812 143.916 210.692 143.732 210.452 143.612C210.22 143.492 209.848 143.36 209.336 143.216C208.84 143.08 208.436 142.948 208.124 142.82C207.812 142.692 207.54 142.496 207.308 142.232C207.084 141.968 206.972 141.62 206.972 141.188C206.972 140.836 207.076 140.516 207.284 140.228C207.492 139.932 207.788 139.7 208.172 139.532C208.564 139.364 209.012 139.28 209.516 139.28C210.268 139.28 210.872 139.472 211.328 139.856C211.792 140.232 212.04 140.748 212.072 141.404H210.704C210.68 141.108 210.56 140.872 210.344 140.696C210.128 140.52 209.836 140.432 209.468 140.432C209.108 140.432 208.832 140.5 208.64 140.636C208.448 140.772 208.352 140.952 208.352 141.176C208.352 141.352 208.416 141.5 208.544 141.62C208.672 141.74 208.828 141.836 209.012 141.908C209.196 141.972 209.468 142.056 209.828 142.16C210.308 142.288 210.7 142.42 211.004 142.556C211.316 142.684 211.584 142.876 211.808 143.132C212.032 143.388 212.148 143.728 212.156 144.152C212.156 144.528 212.052 144.864 211.844 145.16C211.636 145.456 211.34 145.688 210.956 145.856C210.58 146.024 210.136 146.108 209.624 146.108ZM216.034 146.108C215.514 146.108 215.046 146.016 214.63 145.832C214.222 145.64 213.898 145.384 213.658 145.064C213.418 144.736 213.29 144.372 213.274 143.972H214.69C214.714 144.252 214.846 144.488 215.086 144.68C215.334 144.864 215.642 144.956 216.01 144.956C216.394 144.956 216.69 144.884 216.898 144.74C217.114 144.588 217.222 144.396 217.222 144.164C217.222 143.916 217.102 143.732 216.862 143.612C216.63 143.492 216.258 143.36 215.746 143.216C215.25 143.08 214.846 142.948 214.534 142.82C214.222 142.692 213.95 142.496 213.718 142.232C213.494 141.968 213.382 141.62 213.382 141.188C213.382 140.836 213.486 140.516 213.694 140.228C213.902 139.932 214.198 139.7 214.582 139.532C214.974 139.364 215.422 139.28 215.926 139.28C216.678 139.28 217.282 139.472 217.738 139.856C218.202 140.232 218.45 140.748 218.482 141.404H217.114C217.09 141.108 216.97 140.872 216.754 140.696C216.538 140.52 216.246 140.432 215.878 140.432C215.518 140.432 215.242 140.5 215.05 140.636C214.858 140.772 214.762 140.952 214.762 141.176C214.762 141.352 214.826 141.5 214.954 141.62C215.082 141.74 215.238 141.836 215.422 141.908C215.606 141.972 215.878 142.056 216.238 142.16C216.718 142.288 217.11 142.42 217.414 142.556C217.726 142.684 217.994 142.876 218.218 143.132C218.442 143.388 218.558 143.728 218.566 144.152C218.566 144.528 218.462 144.864 218.254 145.16C218.046 145.456 217.75 145.688 217.366 145.856C216.99 146.024 216.546 146.108 216.034 146.108ZM220.741 138.512C220.493 138.512 220.285 138.428 220.117 138.26C219.949 138.092 219.865 137.884 219.865 137.636C219.865 137.388 219.949 137.18 220.117 137.012C220.285 136.844 220.493 136.76 220.741 136.76C220.981 136.76 221.185 136.844 221.353 137.012C221.521 137.18 221.605 137.388 221.605 137.636C221.605 137.884 221.521 138.092 221.353 138.26C221.185 138.428 220.981 138.512 220.741 138.512ZM221.413 139.388V146H220.045V139.388H221.413ZM226.077 146.108C225.453 146.108 224.889 145.968 224.385 145.688C223.881 145.4 223.485 145 223.197 144.488C222.909 143.968 222.765 143.368 222.765 142.688C222.765 142.016 222.913 141.42 223.209 140.9C223.505 140.38 223.909 139.98 224.421 139.7C224.933 139.42 225.505 139.28 226.137 139.28C226.769 139.28 227.341 139.42 227.853 139.7C228.365 139.98 228.769 140.38 229.065 140.9C229.361 141.42 229.509 142.016 229.509 142.688C229.509 143.36 229.357 143.956 229.053 144.476C228.749 144.996 228.333 145.4 227.805 145.688C227.285 145.968 226.709 146.108 226.077 146.108ZM226.077 144.92C226.429 144.92 226.757 144.836 227.061 144.668C227.373 144.5 227.625 144.248 227.817 143.912C228.009 143.576 228.105 143.168 228.105 142.688C228.105 142.208 228.013 141.804 227.829 141.476C227.645 141.14 227.401 140.888 227.097 140.72C226.793 140.552 226.465 140.468 226.113 140.468C225.761 140.468 225.433 140.552 225.129 140.72C224.833 140.888 224.597 141.14 224.421 141.476C224.245 141.804 224.157 142.208 224.157 142.688C224.157 143.4 224.337 143.952 224.697 144.344C225.065 144.728 225.525 144.92 226.077 144.92ZM234.197 139.28C234.717 139.28 235.181 139.388 235.589 139.604C236.005 139.82 236.329 140.14 236.561 140.564C236.793 140.988 236.909 141.5 236.909 142.1V146H235.553V142.304C235.553 141.712 235.405 141.26 235.109 140.948C234.813 140.628 234.409 140.468 233.897 140.468C233.385 140.468 232.977 140.628 232.673 140.948C232.377 141.26 232.229 141.712 232.229 142.304V146H230.861V139.388H232.229V140.144C232.453 139.872 232.737 139.66 233.081 139.508C233.433 139.356 233.805 139.28 234.197 139.28ZM239.206 146.084C238.958 146.084 238.75 146 238.582 145.832C238.414 145.664 238.33 145.456 238.33 145.208C238.33 144.96 238.414 144.752 238.582 144.584C238.75 144.416 238.958 144.332 239.206 144.332C239.446 144.332 239.65 144.416 239.818 144.584C239.986 144.752 240.07 144.96 240.07 145.208C240.07 145.456 239.986 145.664 239.818 145.832C239.65 146 239.446 146.084 239.206 146.084Z" fill="#1B1B1B"/>
</g>
<defs>
<filter id="filter0_f_4658_117451" x="80.1421" y="81.6958" width="94.6659" height="37.1786" filterUnits="userSpaceOnUse" color-interpolation-filters="sRGB">
<feFlood flood-opacity="0" result="BackgroundImageFix"/>
<feBlend mode="normal" in="SourceGraphic" in2="BackgroundImageFix" result="shape"/>
<feGaussianBlur stdDeviation="7.37864" result="effect1_foregroundBlur_4658_117451"/>
</filter>
<radialGradient id="paint0_radial_4658_117451" cx="0" cy="0" r="1" gradientUnits="userSpaceOnUse" gradientTransform="translate(127.011 99.912) rotate(1.92464) scale(139.945 193.365)">
<stop stop-color="#747474"/>
<stop offset="0.369792" stop-color="#747474" stop-opacity="0.5"/>
<stop offset="0.666667" stop-color="#747474" stop-opacity="0.1"/>
<stop offset="1" stop-color="#747474" stop-opacity="0"/>
</radialGradient>
<radialGradient id="paint1_radial_4658_117451" cx="0" cy="0" r="1" gradientUnits="userSpaceOnUse" gradientTransform="translate(127.011 99.912) rotate(1.92464) scale(139.945 193.365)">
<stop stop-color="#747474"/>
<stop offset="0.369792" stop-color="#747474" stop-opacity="0.5"/>
<stop offset="0.666667" stop-color="#747474" stop-opacity="0.1"/>
<stop offset="1" stop-color="#747474" stop-opacity="0"/>
</radialGradient>
<radialGradient id="paint2_radial_4658_117451" cx="0" cy="0" r="1" gradientUnits="userSpaceOnUse" gradientTransform="translate(127.011 99.912) rotate(1.92464) scale(139.945 193.365)">
<stop stop-color="#747474"/>
<stop offset="0.369792" stop-color="#747474" stop-opacity="0.5"/>
<stop offset="0.666667" stop-color="#747474" stop-opacity="0.1"/>
<stop offset="1" stop-color="#747474" stop-opacity="0"/>
</radialGradient>
<radialGradient id="paint3_radial_4658_117451" cx="0" cy="0" r="1" gradientUnits="userSpaceOnUse" gradientTransform="translate(127.011 99.912) rotate(1.92464) scale(139.945 193.365)">
<stop stop-color="#747474"/>
<stop offset="0.369792" stop-color="#747474" stop-opacity="0.5"/>
<stop offset="0.666667" stop-color="#747474" stop-opacity="0.1"/>
<stop offset="1" stop-color="#747474" stop-opacity="0"/>
</radialGradient>
<radialGradient id="paint4_radial_4658_117451" cx="0" cy="0" r="1" gradientUnits="userSpaceOnUse" gradientTransform="translate(127.011 99.912) rotate(1.92464) scale(139.945 193.365)">
<stop stop-color="#747474"/>
<stop offset="0.369792" stop-color="#747474" stop-opacity="0.5"/>
<stop offset="0.666667" stop-color="#747474" stop-opacity="0.1"/>
<stop offset="1" stop-color="#747474" stop-opacity="0"/>
</radialGradient>
<radialGradient id="paint5_radial_4658_117451" cx="0" cy="0" r="1" gradientUnits="userSpaceOnUse" gradientTransform="translate(127.011 99.912) rotate(1.92464) scale(139.945 193.365)">
<stop stop-color="#747474"/>
<stop offset="0.369792" stop-color="#747474" stop-opacity="0.5"/>
<stop offset="0.666667" stop-color="#747474" stop-opacity="0.1"/>
<stop offset="1" stop-color="#747474" stop-opacity="0"/>
</radialGradient>
<radialGradient id="paint6_radial_4658_117451" cx="0" cy="0" r="1" gradientUnits="userSpaceOnUse" gradientTransform="translate(127.011 99.912) rotate(1.92464) scale(139.945 193.365)">
<stop stop-color="#747474"/>
<stop offset="0.369792" stop-color="#747474" stop-opacity="0.5"/>
<stop offset="0.666667" stop-color="#747474" stop-opacity="0.1"/>
<stop offset="1" stop-color="#747474" stop-opacity="0"/>
</radialGradient>
<radialGradient id="paint7_radial_4658_117451" cx="0" cy="0" r="1" gradientUnits="userSpaceOnUse" gradientTransform="translate(127.011 99.912) rotate(1.92464) scale(139.945 193.365)">
<stop stop-color="#747474"/>
<stop offset="0.369792" stop-color="#747474" stop-opacity="0.5"/>
<stop offset="0.666667" stop-color="#747474" stop-opacity="0.1"/>
<stop offset="1" stop-color="#747474" stop-opacity="0"/>
</radialGradient>
<radialGradient id="paint8_radial_4658_117451" cx="0" cy="0" r="1" gradientUnits="userSpaceOnUse" gradientTransform="translate(127.011 99.912) rotate(1.92464) scale(139.945 193.365)">
<stop stop-color="#747474"/>
<stop offset="0.369792" stop-color="#747474" stop-opacity="0.5"/>
<stop offset="0.666667" stop-color="#747474" stop-opacity="0.1"/>
<stop offset="1" stop-color="#747474" stop-opacity="0"/>
</radialGradient>
<radialGradient id="paint9_radial_4658_117451" cx="0" cy="0" r="1" gradientUnits="userSpaceOnUse" gradientTransform="translate(127.011 99.912) rotate(1.92464) scale(139.945 193.365)">
<stop stop-color="#747474"/>
<stop offset="0.369792" stop-color="#747474" stop-opacity="0.5"/>
<stop offset="0.666667" stop-color="#747474" stop-opacity="0.1"/>
<stop offset="1" stop-color="#747474" stop-opacity="0"/>
</radialGradient>
<radialGradient id="paint10_radial_4658_117451" cx="0" cy="0" r="1" gradientUnits="userSpaceOnUse" gradientTransform="translate(127.011 99.912) rotate(1.92464) scale(139.945 193.365)">
<stop stop-color="#747474"/>
<stop offset="0.369792" stop-color="#747474" stop-opacity="0.5"/>
<stop offset="0.666667" stop-color="#747474" stop-opacity="0.1"/>
<stop offset="1" stop-color="#747474" stop-opacity="0"/>
</radialGradient>
<radialGradient id="paint11_radial_4658_117451" cx="0" cy="0" r="1" gradientUnits="userSpaceOnUse" gradientTransform="translate(127.011 99.912) rotate(1.92464) scale(139.945 193.365)">
<stop stop-color="#747474"/>
<stop offset="0.369792" stop-color="#747474" stop-opacity="0.5"/>
<stop offset="0.666667" stop-color="#747474" stop-opacity="0.1"/>
<stop offset="1" stop-color="#747474" stop-opacity="0"/>
</radialGradient>
<radialGradient id="paint12_radial_4658_117451" cx="0" cy="0" r="1" gradientUnits="userSpaceOnUse" gradientTransform="translate(127.011 99.912) rotate(1.92464) scale(139.945 193.365)">
<stop stop-color="#747474"/>
<stop offset="0.369792" stop-color="#747474" stop-opacity="0.5"/>
<stop offset="0.666667" stop-color="#747474" stop-opacity="0.1"/>
<stop offset="1" stop-color="#747474" stop-opacity="0"/>
</radialGradient>
<clipPath id="clip0_4658_117451">
<rect width="253" height="158" fill="white"/>
</clipPath>
</defs>
</svg>
