<svg width="21" height="20" viewBox="0 0 21 20" fill="none" xmlns="http://www.w3.org/2000/svg">
<path d="M7.5173 17.0833C7.10304 17.0833 6.74841 16.9358 6.45341 16.6408C6.15839 16.3458 6.01089 15.9912 6.01089 15.5769V13.75H4.42436C4.0101 13.75 3.65547 13.6025 3.36047 13.3075C3.06547 13.0125 2.91797 12.6578 2.91797 12.2436V9.0064C2.91797 8.41613 3.11962 7.92135 3.52293 7.52204C3.92623 7.12275 4.41901 6.92311 5.00126 6.92311H16.1871C16.7774 6.92311 17.2722 7.12275 17.6715 7.52204C18.0708 7.92135 18.2704 8.41613 18.2704 9.0064V12.2436C18.2704 12.6578 18.1229 13.0125 17.8279 13.3075C17.5329 13.6025 17.1783 13.75 16.764 13.75H15.1775V15.5769C15.1775 15.9912 15.03 16.3458 14.735 16.6408C14.44 16.9358 14.0854 17.0833 13.6711 17.0833H7.5173ZM4.42436 12.5H6.01089C6.02158 12.0951 6.17286 11.7481 6.46472 11.4591C6.75658 11.1701 7.10744 11.0256 7.5173 11.0256H13.6711C14.081 11.0256 14.4318 11.1701 14.7237 11.4591C15.0155 11.7481 15.1668 12.0951 15.1775 12.5H16.764C16.8388 12.5 16.9003 12.476 16.9483 12.4279C16.9964 12.3798 17.0205 12.3184 17.0205 12.2436V9.0064C17.0205 8.77029 16.9406 8.57237 16.7809 8.41265C16.6212 8.25293 16.4232 8.17306 16.1871 8.17306H5.00126C4.76515 8.17306 4.56723 8.25293 4.40751 8.41265C4.24779 8.57237 4.16793 8.77029 4.16793 9.0064V12.2436C4.16793 12.3184 4.19197 12.3798 4.24005 12.4279C4.28814 12.476 4.34957 12.5 4.42436 12.5ZM13.9275 6.92311V4.67952C13.9275 4.60473 13.9035 4.54329 13.8554 4.49521C13.8073 4.44714 13.7459 4.42311 13.6711 4.42311H7.5173C7.44251 4.42311 7.38107 4.44714 7.33299 4.49521C7.28491 4.54329 7.26086 4.60473 7.26086 4.67952V6.92311H6.01089V4.67952C6.01089 4.26527 6.15839 3.91064 6.45341 3.61563C6.74841 3.32063 7.10304 3.17313 7.5173 3.17313H13.6711C14.0854 3.17313 14.44 3.32063 14.735 3.61563C15.03 3.91064 15.1775 4.26527 15.1775 4.67952V6.92311H13.9275ZM15.4339 10.2564C15.67 10.2564 15.868 10.1765 16.0277 10.0168C16.1874 9.85709 16.2673 9.65918 16.2673 9.42306C16.2673 9.18695 16.1874 8.98904 16.0277 8.82931C15.868 8.66959 15.67 8.58973 15.4339 8.58973C15.1978 8.58973 14.9999 8.66959 14.8402 8.82931C14.6805 8.98904 14.6006 9.18695 14.6006 9.42306C14.6006 9.65918 14.6805 9.85709 14.8402 10.0168C14.9999 10.1765 15.1978 10.2564 15.4339 10.2564ZM13.9275 15.5769V12.5321C13.9275 12.4573 13.9035 12.3958 13.8554 12.3478C13.8073 12.2997 13.7459 12.2756 13.6711 12.2756H7.5173C7.44251 12.2756 7.38107 12.2997 7.33299 12.3478C7.28491 12.3958 7.26086 12.4573 7.26086 12.5321V15.5769C7.26086 15.6517 7.28491 15.7131 7.33299 15.7612C7.38107 15.8093 7.44251 15.8333 7.5173 15.8333H13.6711C13.7459 15.8333 13.8073 15.8093 13.8554 15.7612C13.9035 15.7131 13.9275 15.6517 13.9275 15.5769ZM4.42436 8.17306H4.16793H17.0205H4.42436Z" fill="#1B1B1B"/>
</svg>
