<svg width="24" height="24" viewBox="0 0 24 24" fill="none" xmlns="http://www.w3.org/2000/svg">
<path d="M7.25642 20.7505C6.83547 20.7505 6.47917 20.6047 6.1875 20.313C5.89583 20.0213 5.75 19.665 5.75 19.2441V10.5903C5.75 10.1694 5.89583 9.81306 6.1875 9.5214C6.47917 9.22973 6.83547 9.0839 7.25642 9.0839H9.38779V10.3339H7.25642C7.19231 10.3339 7.13353 10.3606 7.0801 10.414C7.02669 10.4674 6.99998 10.5262 6.99998 10.5903V19.2441C6.99998 19.3082 7.02669 19.367 7.0801 19.4204C7.13353 19.4738 7.19231 19.5005 7.25642 19.5005H16.7435C16.8077 19.5005 16.8664 19.4738 16.9199 19.4204C16.9733 19.367 17 19.3082 17 19.2441V10.5903C17 10.5262 16.9733 10.4674 16.9199 10.414C16.8664 10.3606 16.8077 10.3339 16.7435 10.3339H14.6122V9.0839H16.7435C17.1645 9.0839 17.5208 9.22973 17.8125 9.5214C18.1041 9.81306 18.25 10.1694 18.25 10.5903V19.2441C18.25 19.665 18.1041 20.0214 17.8125 20.313C17.5208 20.6047 17.1645 20.7505 16.7435 20.7505H7.25642V20.7505ZM11.375 15.1255V5.93325L9.83331 7.47492L8.95512 6.5839L12 3.53906L15.0448 6.5839L14.1666 7.47492L12.625 5.93323V15.1255L11.375 15.1255Z" fill="#1B1B1B"/>
</svg>
