<svg width="17" height="16" viewBox="0 0 17 16" fill="none" xmlns="http://www.w3.org/2000/svg">
<path d="M3.11426 12.591V11.5911H4.31939V6.61667C4.31939 5.72009 4.5961 4.92736 5.14951 4.23847C5.70293 3.54958 6.4134 3.10899 7.28092 2.91669V2.5013C7.28092 2.26982 7.36187 2.07307 7.52376 1.91104C7.68565 1.74899 7.88222 1.66797 8.11349 1.66797C8.34476 1.66797 8.54159 1.74899 8.70397 1.91104C8.86636 2.07307 8.94756 2.26982 8.94756 2.5013V2.91669C9.81508 3.10899 10.5256 3.54958 11.079 4.23847C11.6324 4.92736 11.9091 5.72009 11.9091 6.61667V11.5911H13.1142V12.591H3.11426ZM8.11311 14.4628C7.78139 14.4628 7.49779 14.3448 7.26232 14.1088C7.02686 13.8728 6.90912 13.5891 6.90912 13.2577H9.31936C9.31936 13.5902 9.20125 13.8741 8.96502 14.1096C8.7288 14.3451 8.44483 14.4628 8.11311 14.4628ZM7.61426 8.60385H8.61422V5.33462H7.61426V8.60385ZM8.11424 10.5397C8.26681 10.5397 8.39469 10.4881 8.49789 10.3849C8.60109 10.2817 8.65269 10.1539 8.65269 10.0013C8.65269 9.84872 8.60109 9.72084 8.49789 9.61764C8.39469 9.51444 8.26681 9.46284 8.11424 9.46284C7.96167 9.46284 7.83379 9.51444 7.73059 9.61764C7.62739 9.72084 7.57579 9.84872 7.57579 10.0013C7.57579 10.1539 7.62739 10.2817 7.73059 10.3849C7.83379 10.4881 7.96167 10.5397 8.11424 10.5397Z" fill="white"/>
</svg>
