<svg width="16" height="16" viewBox="0 0 16 16" fill="none" xmlns="http://www.w3.org/2000/svg">
<path d="M4.6897 11.0239C3.85261 11.0239 3.13906 10.7289 2.54906 10.139C1.95906 9.54908 1.66406 8.83563 1.66406 7.99864C1.66406 7.16165 1.95906 6.44807 2.54906 5.85791C3.13906 5.26774 3.85261 4.97266 4.6897 4.97266H6.70251C6.84418 4.97266 6.96292 5.02059 7.05875 5.11647C7.15458 5.21234 7.2025 5.33114 7.2025 5.47287C7.2025 5.6146 7.15458 5.73332 7.05875 5.82904C6.96292 5.92476 6.84418 5.97262 6.70251 5.97262H4.68893C4.12961 5.97262 3.6523 6.17027 3.257 6.56557C2.8617 6.96087 2.66405 7.43844 2.66405 7.99827C2.66405 8.55811 2.8617 9.03567 3.257 9.43097C3.6523 9.82627 4.12961 10.0239 4.68893 10.0239H6.70251C6.84418 10.0239 6.96292 10.0719 7.05875 10.1677C7.15458 10.2636 7.2025 10.3824 7.2025 10.5241C7.2025 10.6659 7.15458 10.7846 7.05875 10.8803C6.96292 10.976 6.84418 11.0239 6.70251 11.0239H4.6897ZM5.99738 8.49826C5.85571 8.49826 5.73697 8.45032 5.64115 8.35446C5.54531 8.25858 5.4974 8.13978 5.4974 7.99806C5.4974 7.85632 5.54531 7.7376 5.64115 7.64187C5.73697 7.54615 5.85571 7.49829 5.99738 7.49829H9.99738C10.139 7.49829 10.2578 7.54622 10.3536 7.64209C10.4495 7.73797 10.4974 7.85677 10.4974 7.99849C10.4974 8.14022 10.4495 8.25895 10.3536 8.35467C10.2578 8.4504 10.139 8.49826 9.99738 8.49826H5.99738ZM9.29225 11.0239C9.15058 11.0239 9.03184 10.976 8.93601 10.8801C8.84018 10.7842 8.79226 10.6654 8.79226 10.5237C8.79226 10.382 8.84018 10.2632 8.93601 10.1675C9.03184 10.0718 9.15058 10.0239 9.29225 10.0239H11.3058C11.8652 10.0239 12.3425 9.82627 12.7378 9.43097C13.1331 9.03567 13.3307 8.55811 13.3307 7.99827C13.3307 7.43844 13.1331 6.96087 12.7378 6.56557C12.3425 6.17027 11.8652 5.97262 11.3058 5.97262H9.29225C9.15058 5.97262 9.03184 5.92469 8.93601 5.82882C8.84018 5.73295 8.79226 5.61414 8.79226 5.47242C8.79226 5.33069 8.84018 5.21196 8.93601 5.11624C9.03184 5.02052 9.15058 4.97266 9.29225 4.97266H11.3051C12.1422 4.97266 12.8557 5.26762 13.4457 5.85754C14.0357 6.44746 14.3307 7.16092 14.3307 7.99791C14.3307 8.8349 14.0357 9.54847 13.4457 10.1386C12.8557 10.7288 12.1422 11.0239 11.3051 11.0239H9.29225Z" fill="#747474"/>
</svg>
