<svg width="12" height="14" viewBox="0 0 12 14" fill="none" xmlns="http://www.w3.org/2000/svg">
<path d="M1.54107 13.3334C1.20432 13.3334 0.919271 13.2167 0.685938 12.9834C0.452604 12.7501 0.335938 12.465 0.335938 12.1283V3.20523C0.335938 2.86847 0.452604 2.58343 0.685938 2.35009C0.919271 2.11676 1.20432 2.00009 1.54107 2.00009H2.46415V0.589844H3.48977V2.00009H8.54104V0.589844H9.54102V2.00009H10.4641C10.8009 2.00009 11.0859 2.11676 11.3192 2.35009C11.5526 2.58343 11.6692 2.86847 11.6692 3.20523V12.1283C11.6692 12.465 11.5526 12.7501 11.3192 12.9834C11.0859 13.2167 10.8009 13.3334 10.4641 13.3334H1.54107ZM1.33592 12.1283C1.33592 12.1795 1.35729 12.2266 1.40002 12.2693C1.44277 12.312 1.48978 12.3334 1.54107 12.3334H10.4641C10.5154 12.3334 10.5624 12.312 10.6052 12.2693C10.6479 12.2266 10.6693 12.1795 10.6693 12.1283V3.20523C10.6693 3.15394 10.6479 3.10692 10.6052 3.06418C10.5624 3.02144 10.5154 3.00008 10.4641 3.00008H1.54107C1.48978 3.00008 1.44277 3.02144 1.40002 3.06418C1.35729 3.10692 1.33592 3.15394 1.33592 3.20523V12.1283ZM4.20774 12.3334V10.9988L2.95644 9.52826C2.84704 9.41459 2.75046 9.26503 2.6667 9.07956C2.58295 8.89408 2.54107 8.67955 2.54107 8.43598C2.54107 8.30008 2.55496 8.16802 2.58274 8.03981C2.61052 7.91161 2.6556 7.78725 2.71799 7.66674C2.66243 7.55307 2.61905 7.43213 2.58785 7.30393C2.55667 7.17573 2.54107 7.04026 2.54107 6.89751C2.54107 6.65393 2.58295 6.4394 2.6667 6.25393C2.75046 6.06846 2.84704 5.91889 2.95644 5.80523L4.20774 4.33471V3.00008H5.00259V4.44751C5.00259 4.50307 4.9637 4.60862 4.88592 4.76418L3.55259 6.33084C3.47481 6.41973 3.41925 6.5114 3.38592 6.60584C3.35259 6.70029 3.33592 6.79751 3.33592 6.89751C3.33592 7.11973 3.40814 7.3114 3.55259 7.47251C3.69703 7.63362 3.88037 7.71418 4.10259 7.71418C4.20259 7.71418 4.29597 7.69751 4.38272 7.66418C4.46947 7.63084 4.54831 7.57529 4.61925 7.49751C4.80814 7.30862 5.02203 7.16418 5.26092 7.06418C5.49981 6.96418 5.74703 6.91418 6.00259 6.91418C6.25814 6.91418 6.50537 6.96418 6.74425 7.06418C6.98314 7.16418 7.19703 7.30862 7.38592 7.49751C7.4637 7.57529 7.54703 7.63084 7.63592 7.66418C7.72481 7.69751 7.8137 7.71418 7.90259 7.71418C8.12481 7.71418 8.30814 7.63362 8.45259 7.47251C8.59703 7.3114 8.66925 7.12529 8.66925 6.91418C8.66925 6.81418 8.64981 6.71695 8.61092 6.62251C8.57203 6.52807 8.51925 6.4364 8.45259 6.34751L7.11925 4.76418C7.07481 4.71973 7.04425 4.66973 7.02759 4.61418C7.01092 4.55862 7.00259 4.50307 7.00259 4.44751V3.00008H7.79744V4.34111L9.05899 5.83214C9.19744 5.98855 9.29958 6.15885 9.36539 6.34304C9.4312 6.52722 9.4641 6.7176 9.4641 6.91418C9.4641 7.05008 9.4468 7.18213 9.41219 7.31034C9.37758 7.43854 9.33249 7.55734 9.27694 7.66674C9.33933 7.78725 9.38612 7.91161 9.41732 8.03981C9.44851 8.16802 9.4641 8.30008 9.4641 8.43598C9.4641 8.67955 9.42223 8.89408 9.33847 9.07956C9.25471 9.26503 9.15814 9.41459 9.04874 9.52826L7.79744 10.9988V12.3334H7.00259V10.886C7.00259 10.8193 7.04148 10.7138 7.11925 10.5693L8.45259 9.00264C8.53891 8.90093 8.59874 8.79046 8.63207 8.67123C8.6654 8.55199 8.67139 8.43383 8.65002 8.31673C8.53634 8.38084 8.41947 8.42892 8.29939 8.46096C8.1793 8.49302 8.05259 8.50904 7.91925 8.50904C7.72268 8.50904 7.52717 8.46994 7.33272 8.39173C7.13828 8.31353 6.96627 8.19622 6.8167 8.03981C6.71756 7.92955 6.59683 7.84686 6.45452 7.79173C6.31221 7.7366 6.16157 7.70904 6.00259 7.70904C5.85472 7.70904 5.70857 7.7366 5.56412 7.79173C5.41968 7.84686 5.29446 7.92955 5.18847 8.03981C5.04317 8.19622 4.87394 8.31353 4.68079 8.39173C4.48762 8.46994 4.29275 8.50904 4.09617 8.50904C3.96284 8.50904 3.83442 8.49302 3.71092 8.46096C3.58742 8.42892 3.46883 8.38084 3.35515 8.31673C3.33379 8.43383 3.33977 8.55199 3.3731 8.67123C3.40644 8.79046 3.46627 8.90093 3.55259 9.00264L4.88592 10.5693C4.91925 10.6249 4.94703 10.6776 4.96925 10.7276C4.99148 10.7776 5.00259 10.8304 5.00259 10.886V12.3334H4.20774ZM1.33592 12.1283V12.3334V3.00008V12.1283Z" fill="white"/>
</svg>
