<svg width="40" height="41" viewBox="0 0 40 41" fill="none" xmlns="http://www.w3.org/2000/svg">
<circle cx="20" cy="20.5" r="20" fill="#42ADC7"/>
<path d="M26.654 30.4737C26.5335 30.4737 26.4213 30.4545 26.3175 30.416C26.2137 30.3776 26.1149 30.3115 26.0213 30.218L20.979 25.1853C20.8854 25.0917 20.8194 24.993 20.781 24.8891C20.7425 24.7853 20.7233 24.6731 20.7233 24.5526C20.7233 24.4321 20.7425 24.3199 20.781 24.216C20.8194 24.1122 20.8854 24.0135 20.979 23.9199L22.8733 22.0257C22.9668 21.9321 23.0655 21.8661 23.1694 21.8276C23.2733 21.7891 23.3854 21.7699 23.5059 21.7699C23.6264 21.7699 23.7386 21.7891 23.8425 21.8276C23.9463 21.8661 24.045 21.9321 24.1386 22.0257L29.1809 27.068C29.2745 27.1616 29.3406 27.2603 29.379 27.3641C29.4175 27.468 29.4367 27.5802 29.4367 27.7007C29.4367 27.8212 29.4175 27.9334 29.379 28.0372C29.3406 28.1411 29.2745 28.2398 29.1809 28.3333L27.2867 30.218C27.1931 30.3115 27.0944 30.3776 26.9906 30.416C26.8867 30.4545 26.7745 30.4737 26.654 30.4737ZM13.3137 30.4891C13.1932 30.4891 13.0784 30.4673 12.9694 30.4237C12.8605 30.3801 12.7592 30.3115 12.6656 30.218L10.7868 28.3487C10.6932 28.2551 10.6246 28.1539 10.581 28.0449C10.5374 27.9359 10.5156 27.8212 10.5156 27.7007C10.5156 27.5802 10.5374 27.4664 10.581 27.3593C10.6246 27.2523 10.6932 27.1519 10.7868 27.0583L16.0099 21.8353H18.1156L18.9271 21.0238L14.7445 16.8411H13.3194L10.5445 14.0661L13.0233 11.5872L15.7983 14.3622V15.7872L19.981 19.9699L22.9387 17.0122L21.479 15.5526L22.7444 14.2872H20.1982L19.6425 13.7411L22.8367 10.5469L23.3829 11.093V13.6488L24.6482 12.3834L28.4098 16.1257C28.6739 16.3834 28.8729 16.677 29.0069 17.0065C29.1409 17.336 29.2079 17.6847 29.2079 18.0526C29.2079 18.3757 29.1521 18.6869 29.0406 18.9863C28.929 19.2856 28.7668 19.5577 28.554 19.8026L26.4675 17.7161L25.0579 19.1257L23.9983 18.0661L19.1598 22.9045V25.0141L13.9464 30.218C13.8528 30.3115 13.7541 30.3801 13.6502 30.4237C13.5464 30.4673 13.4342 30.4891 13.3137 30.4891Z" fill="white"/>
</svg>
