<svg width="40" height="41" viewBox="0 0 40 41" fill="none" xmlns="http://www.w3.org/2000/svg">
<circle cx="20" cy="20.5" r="20" fill="#42ADC7"/>
<path d="M13.3077 26.0047C12.8026 26.0047 12.375 25.8297 12.025 25.4797C11.675 25.1297 11.5 24.7022 11.5 24.197V18.8125C11.5 18.3073 11.675 17.8798 12.025 17.5298C12.375 17.1798 12.8026 17.0048 13.3077 17.0048H26.6923C27.1974 17.0048 27.625 17.1798 27.975 17.5298C28.325 17.8798 28.5 18.3073 28.5 18.8125V24.197C28.5 24.7022 28.325 25.1297 27.975 25.4797C27.625 25.8297 27.1974 26.0047 26.6923 26.0047H13.3077ZM11.5 14.8125V13.3125H28.5V14.8125H11.5ZM11.5 29.697V28.197H28.5V29.697H11.5Z" fill="white"/>
</svg>
