<svg width="13" height="12" viewBox="0 0 13 12" fill="none" xmlns="http://www.w3.org/2000/svg">
<path d="M6.54831 4.72161C5.26954 4.72161 4.1875 3.63958 4.1875 2.36081C4.1875 1.08204 5.26954 0 6.54831 0C7.82708 0 8.90911 1.08204 8.90911 2.36081C8.90911 3.63958 7.82708 4.72161 6.54831 4.72161ZM6.54831 0.98367C5.81055 0.98367 5.17117 1.62305 5.17117 2.36081C5.17117 3.09856 5.81055 3.73794 6.54831 3.73794C7.28606 3.73794 7.92544 3.09856 7.92544 2.36081C7.92544 1.62305 7.28606 0.98367 6.54831 0.98367Z" fill="white"/>
<path d="M11.4024 10.2339H1.66406L1.71325 9.69285C1.8608 7.13531 3.97569 5.16797 6.53323 5.16797C9.09077 5.16797 11.2057 7.18449 11.3532 9.69285L11.4024 10.2339ZM2.7461 9.2502H10.2712C9.92689 7.47959 8.35302 6.15164 6.48404 6.15164C4.71344 6.15164 3.13957 7.47959 2.7461 9.2502Z" fill="white"/>
<path d="M12.9283 11.0156H0.140625V11.9993H12.9283V11.0156Z" fill="white"/>
</svg>
