<svg width="40" height="41" viewBox="0 0 40 41" fill="none" xmlns="http://www.w3.org/2000/svg">
<circle cx="20" cy="20.5" r="20" fill="#A51515"/>
<path d="M25.5577 27.9423H26.4423V25.4423H28.9423V24.5577H26.4423V22.0577H25.5577V24.5577H23.0577V25.4423H25.5577V27.9423ZM26 29.5C24.7513 29.5 23.6891 29.0622 22.8135 28.1865C21.9378 27.3109 21.5 26.2487 21.5 25C21.5 23.7513 21.9378 22.6891 22.8135 21.8135C23.6891 20.9379 24.7513 20.5 26 20.5C27.2487 20.5 28.3109 20.9379 29.1865 21.8135C30.0621 22.6891 30.5 23.7513 30.5 25C30.5 26.2487 30.0621 27.3109 29.1865 28.1865C28.3109 29.0622 27.2487 29.5 26 29.5ZM12.5 27.5V16.25L20 10.6058L27.5 16.25V18.3096C27.25 18.2449 27 18.1963 26.75 18.164C26.5 18.1316 26.25 18.1154 26 18.1154C24.0821 18.1154 22.4552 18.7834 21.1193 20.1193C19.7833 21.4553 19.1154 23.0822 19.1154 25C19.1154 25.4372 19.1567 25.8641 19.2394 26.2808C19.3221 26.6974 19.4481 27.1038 19.6173 27.5H12.5Z" fill="white"/>
</svg>
