<svg width="20" height="20" viewBox="0 0 20 20" fill="none" xmlns="http://www.w3.org/2000/svg">
<path d="M9.99933 17.9166C9.01643 17.9166 8.09549 17.7307 7.23652 17.3589C6.37754 16.9871 5.62861 16.4818 4.98972 15.8429C4.35085 15.204 3.84552 14.4551 3.47372 13.5961C3.10192 12.7372 2.91602 11.8162 2.91602 10.8333C2.91602 10.656 2.97585 10.5075 3.09552 10.3878C3.21517 10.2682 3.36367 10.2084 3.54102 10.2084C3.71836 10.2084 3.86686 10.2682 3.98652 10.3878C4.10617 10.5075 4.16599 10.656 4.16599 10.8333C4.16599 12.4583 4.73197 13.8368 5.86391 14.9687C6.99586 16.1007 8.37433 16.6667 9.99933 16.6667C11.6243 16.6667 13.0028 16.1007 14.1347 14.9687C15.2667 13.8368 15.8327 12.4583 15.8327 10.8333C15.8327 9.20833 15.2667 7.82986 14.1347 6.69791C13.0028 5.56597 11.6243 5 9.99933 5H9.77816L10.6628 5.88462C10.7867 6.00855 10.8479 6.15358 10.8463 6.31971C10.8447 6.48583 10.7835 6.63353 10.6628 6.76281C10.5335 6.89207 10.385 6.95884 10.2173 6.96312C10.0496 6.9674 9.90106 6.9049 9.77179 6.77562L7.89841 4.89425C7.74777 4.74361 7.67245 4.56786 7.67245 4.367C7.67245 4.16615 7.74777 3.99041 7.89841 3.83977L9.78783 1.95837C9.91174 1.83444 10.0589 1.77327 10.2293 1.77487C10.3997 1.77648 10.5496 1.84192 10.6788 1.97118C10.7996 2.10046 10.8621 2.24683 10.8663 2.41029C10.8706 2.57375 10.8081 2.72011 10.6788 2.84937L9.77816 3.75002H9.99933C10.9822 3.75002 11.9032 3.93592 12.7621 4.30773C13.6211 4.67952 14.37 5.18485 15.0089 5.82373C15.6478 6.46262 16.1531 7.21155 16.5249 8.07052C16.8967 8.92949 17.0826 9.85043 17.0826 10.8333C17.0826 11.8162 16.8967 12.7372 16.5249 13.5961C16.1531 14.4551 15.6478 15.204 15.0089 15.8429C14.37 16.4818 13.6211 16.9871 12.7621 17.3589C11.9032 17.7307 10.9822 17.9166 9.99933 17.9166Z" fill="#1B1B1B"/>
</svg>
