<svg width="13" height="10" viewBox="0 0 13 10" fill="none" xmlns="http://www.w3.org/2000/svg">
<path d="M2.01334 5.17881L4.3672 2.82493C4.47254 2.7196 4.52453 2.59632 4.52317 2.45511C4.5218 2.3139 4.46618 2.18836 4.35631 2.07848C4.24642 1.97586 4.12201 1.92273 3.98307 1.91911C3.84413 1.91547 3.71972 1.9686 3.60985 2.07848L0.42644 5.26189C0.298397 5.38994 0.234375 5.53932 0.234375 5.71004C0.234375 5.88076 0.298397 6.03014 0.42644 6.15818L3.60985 9.34159C3.70792 9.43967 3.82937 9.48985 3.97422 9.49211C4.11906 9.49439 4.24642 9.44422 4.35631 9.34159C4.46618 9.23172 4.52112 9.10549 4.52112 8.96292C4.52112 8.82035 4.46618 8.69413 4.35631 8.58424L2.01334 6.24127H8.65532C9.58524 6.24127 10.3785 5.91299 11.035 5.25642C11.6916 4.59986 12.0199 3.80662 12.0199 2.87671V0.928806C12.0199 0.778062 11.969 0.651836 11.8673 0.550132C11.7656 0.448415 11.6394 0.397556 11.4887 0.397556C11.3379 0.397556 11.2117 0.448415 11.11 0.550132C11.0083 0.651836 10.9574 0.778062 10.9574 0.928806V2.87671C10.9574 3.51239 10.7327 4.05499 10.2831 4.50453C9.83362 4.95405 9.29102 5.17881 8.65532 5.17881H2.01334Z" fill="#1B1B1B"/>
</svg>
