<svg width="41" height="41" viewBox="0 0 41 41" fill="none" xmlns="http://www.w3.org/2000/svg">
<path d="M12.6795 34.6644C11.851 34.6644 11.1417 34.3693 10.5517 33.7793C9.96168 33.1893 9.66667 32.48 9.66667 31.6515V10.4977H9.25C8.89583 10.4977 8.59896 10.3779 8.35938 10.1382C8.11979 9.89852 8 9.60152 8 9.24719C8 8.89288 8.11979 8.59608 8.35938 8.35677C8.59896 8.11744 8.89583 7.99777 9.25 7.99777H15.5C15.5 7.58966 15.6437 7.24191 15.931 6.95452C16.2184 6.66713 16.5662 6.52344 16.9743 6.52344H24.0256C24.4337 6.52344 24.7815 6.66713 25.0689 6.95452C25.3563 7.24191 25.5 7.58966 25.5 7.99777H31.7499C32.1041 7.99777 32.401 8.11762 32.6405 8.35731C32.8801 8.59701 32.9999 8.89401 32.9999 9.24831C32.9999 9.60264 32.8801 9.89947 32.6405 10.1388C32.401 10.3781 32.1041 10.4977 31.7499 10.4977H31.3333V31.6515C31.3333 32.48 31.0382 33.1893 30.4482 33.7793C29.8582 34.3693 29.1489 34.6644 28.3204 34.6644H12.6795ZM19.25 19.222V25.3375C19.25 25.6916 19.3698 25.9885 19.6095 26.2281C19.8492 26.4676 20.1462 26.5874 20.5005 26.5874C20.8548 26.5874 21.1517 26.4676 21.391 26.2281C21.6303 25.9885 21.7499 25.6916 21.7499 25.3375V19.222L23.9551 21.4016C24.1859 21.6323 24.4717 21.7504 24.8125 21.7557C25.1533 21.7611 25.4541 21.6333 25.715 21.3724C25.9541 21.1333 26.0737 20.8417 26.0737 20.4977C26.0737 20.1537 25.9529 19.861 25.7115 19.6196L21.5544 15.4625C21.2531 15.1612 20.9017 15.0106 20.5 15.0106C20.0983 15.0106 19.7468 15.1612 19.4455 15.4625L15.2885 19.6196C15.0577 19.8503 14.9353 20.1361 14.9215 20.4769C14.9076 20.8177 15.0311 21.1185 15.2919 21.3794C15.5311 21.6185 15.8183 21.7424 16.1538 21.7509C16.4893 21.7595 16.7863 21.643 17.0448 21.4016L19.25 19.222Z" fill="#594585"/>
</svg>
