<svg width="40" height="41" viewBox="0 0 40 41" fill="none" xmlns="http://www.w3.org/2000/svg">
<circle cx="20" cy="20.5" r="20" fill="#FF5347"/>
<path d="M19.25 21.7462L17.9269 20.4577C17.782 20.3192 17.6089 20.2484 17.4077 20.2452C17.2064 20.242 17.0275 20.3186 16.871 20.4752C16.7275 20.6186 16.6557 20.7936 16.6557 21C16.6557 21.2064 16.7282 21.382 16.8731 21.5269L19.3673 24.0211C19.5481 24.2019 19.759 24.2923 20 24.2923C20.241 24.2923 20.4519 24.2019 20.6327 24.0211L23.1269 21.5269C23.2653 21.3884 23.3387 21.217 23.3471 21.0125C23.3554 20.808 23.283 20.6292 23.1298 20.476C22.9894 20.3356 22.817 20.2628 22.6125 20.2577C22.408 20.2526 22.2282 20.3192 22.0731 20.4577L20.75 21.7462V18.0961C20.75 17.8836 20.6781 17.7055 20.5343 17.5618C20.3904 17.418 20.2122 17.3462 19.9997 17.3462C19.7871 17.3462 19.609 17.418 19.4654 17.5618C19.3218 17.7055 19.25 17.8836 19.25 18.0961V21.7462ZM13.3077 29.5C12.8106 29.5 12.385 29.3229 12.031 28.9689C11.677 28.6149 11.5 28.1894 11.5 27.6923V14.3077C11.5 13.8106 11.677 13.385 12.031 13.031C12.385 12.677 12.8106 12.5 13.3077 12.5H17.7577C17.8205 11.9449 18.0628 11.4728 18.4846 11.0837C18.9064 10.6946 19.4131 10.5 20.0048 10.5C20.5964 10.5 21.1032 10.6946 21.525 11.0837C21.9468 11.4728 22.1859 11.9449 22.2423 12.5H26.6923C27.1894 12.5 27.6149 12.677 27.9689 13.031C28.3229 13.385 28.5 13.8106 28.5 14.3077V27.6923C28.5 28.1894 28.3229 28.6149 27.9689 28.9689C27.6149 29.3229 27.1894 29.5 26.6923 29.5H13.3077ZM20 13.3461C20.2166 13.3461 20.3958 13.2753 20.5375 13.1336C20.6791 12.992 20.75 12.8128 20.75 12.5961C20.75 12.3795 20.6791 12.2003 20.5375 12.0586C20.3958 11.917 20.2166 11.8461 20 11.8461C19.7833 11.8461 19.6041 11.917 19.4625 12.0586C19.3208 12.2003 19.25 12.3795 19.25 12.5961C19.25 12.8128 19.3208 12.992 19.4625 13.1336C19.6041 13.2753 19.7833 13.3461 20 13.3461Z" fill="white"/>
</svg>
