<svg width="14" height="12" viewBox="0 0 14 12" fill="none" xmlns="http://www.w3.org/2000/svg">
<g clip-path="url(#clip0_7131_130281)">
<path d="M3.75537 11.2537C3.15537 11.2537 2.59537 11.1577 2.07537 10.9657C1.56337 10.7737 1.14737 10.4857 0.827375 10.1017C0.515375 9.71769 0.359375 9.23369 0.359375 8.64969C0.359375 8.52969 0.371375 8.36169 0.395375 8.14569C0.427375 7.92169 0.491375 7.65369 0.587375 7.34169C0.683375 7.02969 0.835375 6.68569 1.04338 6.30969L1.87137 6.71769C1.75137 6.96569 1.65138 7.19369 1.57138 7.40169C1.49138 7.60169 1.43137 7.78969 1.39137 7.96569C1.35937 8.13369 1.34337 8.30169 1.34337 8.46969C1.34337 8.87769 1.45137 9.21369 1.66737 9.47769C1.89137 9.74969 2.18738 9.94969 2.55538 10.0777C2.93138 10.2057 3.34338 10.2697 3.79138 10.2697C4.51938 10.2697 5.09137 10.1257 5.50737 9.83769C5.92337 9.55769 6.21537 9.14969 6.38337 8.61369C6.55137 8.06969 6.61937 7.41769 6.58737 6.65769L6.35938 0.429688H7.35537L7.54737 6.51369C7.56337 7.13769 7.51537 7.73369 7.40337 8.30169C7.29137 8.86969 7.09137 9.37369 6.80337 9.81369C6.51537 10.2617 6.11938 10.6137 5.61538 10.8697C5.11938 11.1257 4.49937 11.2537 3.75537 11.2537ZM11.0874 11.2417C10.9114 11.2417 10.7634 11.1817 10.6434 11.0617C10.5234 10.9417 10.4634 10.7977 10.4634 10.6297C10.4634 10.4537 10.5234 10.3017 10.6434 10.1737C10.7634 10.0537 10.9114 9.99369 11.0874 9.99369C11.2554 9.99369 11.3994 10.0537 11.5194 10.1737C11.6394 10.3017 11.6994 10.4537 11.6994 10.6297C11.6994 10.7977 11.6394 10.9417 11.5194 11.0617C11.3994 11.1817 11.2554 11.2417 11.0874 11.2417ZM12.6354 11.2417C12.4594 11.2417 12.3114 11.1817 12.1914 11.0617C12.0714 10.9417 12.0114 10.7977 12.0114 10.6297C12.0114 10.4537 12.0714 10.3017 12.1914 10.1737C12.3114 10.0537 12.4594 9.99369 12.6354 9.99369C12.8034 9.99369 12.9474 10.0537 13.0674 10.1737C13.1874 10.3017 13.2474 10.4537 13.2474 10.6297C13.2474 10.7977 13.1874 10.9417 13.0674 11.0617C12.9474 11.1817 12.8034 11.2417 12.6354 11.2417ZM4.16337 7.56969C3.75537 7.56969 3.42738 7.49369 3.17938 7.34169C2.93938 7.18169 2.76337 6.97369 2.65137 6.71769C2.53937 6.46169 2.48338 6.18969 2.48338 5.90169C2.48338 5.53369 2.58337 5.11369 2.78337 4.64169C2.98337 4.16969 3.31538 3.70169 3.77938 3.23769L4.48737 3.77769C4.21537 4.06569 3.97537 4.38969 3.76737 4.74969C3.56737 5.10169 3.46737 5.43769 3.46737 5.75769C3.46737 5.99769 3.53537 6.18569 3.67137 6.32169C3.80737 6.45769 4.00338 6.52569 4.25938 6.52569C4.45938 6.52569 4.65937 6.48169 4.85938 6.39369C5.06738 6.29769 5.29938 6.14969 5.55538 5.94969C5.81138 5.74969 6.11537 5.48569 6.46737 5.15769C6.81937 4.82969 7.24737 4.43369 7.75137 3.96969C8.35937 3.40969 8.85938 2.96569 9.25138 2.63769C9.64338 2.30169 9.98338 2.06169 10.2714 1.91769C10.5674 1.76569 10.8634 1.68969 11.1594 1.68969C11.5674 1.68969 11.9314 1.81769 12.2514 2.07369C12.5794 2.32169 12.7994 2.72569 12.9114 3.28569L12.0954 3.60969C12.0314 3.42569 11.9554 3.26569 11.8674 3.12969C11.7874 2.99369 11.6874 2.88969 11.5674 2.81769C11.4554 2.74569 11.3154 2.70969 11.1474 2.70969C10.9794 2.70969 10.8074 2.74969 10.6314 2.82969C10.4554 2.90969 10.2554 3.03369 10.0314 3.20169C9.81537 3.36969 9.55938 3.58969 9.26338 3.86169C8.97538 4.13369 8.62738 4.45769 8.21938 4.83369C7.60338 5.40969 7.08737 5.87769 6.67137 6.23769C6.26337 6.58969 5.91537 6.86569 5.62737 7.06569C5.33937 7.25769 5.08338 7.38969 4.85938 7.46169C4.63537 7.53369 4.40337 7.56969 4.16337 7.56969ZM11.1714 9.05769C10.5634 9.05769 10.0874 8.99369 9.74338 8.86569C9.39938 8.73769 9.15538 8.52169 9.01138 8.21769C8.86738 7.91369 8.78738 7.50569 8.77138 6.99369L8.53137 0.429688H9.51538L9.75537 6.60969C9.77137 6.90569 9.79538 7.14969 9.82738 7.34169C9.85938 7.52569 9.92338 7.67369 10.0194 7.78569C10.1154 7.88969 10.2634 7.96569 10.4634 8.01369C10.6634 8.05369 10.9354 8.07369 11.2794 8.07369C11.7274 8.07369 12.0634 8.04969 12.2874 8.00169C12.5194 7.94569 12.6754 7.84569 12.7554 7.70169C12.8434 7.54969 12.8874 7.32969 12.8874 7.04169C12.8874 6.73769 12.8154 6.35769 12.6714 5.90169C12.5354 5.43769 12.3794 4.97769 12.2034 4.52169L13.1754 4.16169C13.2794 4.41769 13.3754 4.70969 13.4634 5.03769C13.5594 5.36569 13.6394 5.68969 13.7034 6.00969C13.7674 6.32969 13.7994 6.60969 13.7994 6.84969C13.7994 7.24969 13.7434 7.58969 13.6314 7.86969C13.5274 8.14969 13.3674 8.37769 13.1514 8.55369C12.9354 8.72969 12.6634 8.85769 12.3354 8.93769C12.0074 9.01769 11.6194 9.05769 11.1714 9.05769Z" fill="#1B1B1B"/>
</g>
<defs>
<clipPath id="clip0_7131_130281">
<rect width="14" height="12" fill="white"/>
</clipPath>
</defs>
</svg>
