<svg width="16" height="16" viewBox="0 0 16 16" fill="none" xmlns="http://www.w3.org/2000/svg">
<path d="M3.54107 13.6653C3.20432 13.6653 2.91927 13.5487 2.68594 13.3153C2.4526 13.082 2.33594 12.797 2.33594 12.4602V3.53717C2.33594 3.20041 2.4526 2.91536 2.68594 2.68203C2.91927 2.4487 3.20432 2.33203 3.54107 2.33203H10.6962C10.8568 2.33203 11.0113 2.36323 11.1596 2.42563C11.3079 2.48802 11.4368 2.57392 11.5462 2.68332L13.318 4.4551C13.4274 4.5645 13.5132 4.69335 13.5756 4.84165C13.638 4.98994 13.6692 5.14442 13.6692 5.3051V12.4602C13.6692 12.797 13.5526 13.082 13.3192 13.3153C13.0859 13.5487 12.8009 13.6653 12.4641 13.6653H3.54107ZM12.6693 5.23202L10.7693 3.33202H3.54107C3.48124 3.33202 3.43209 3.35125 3.39362 3.38971C3.35515 3.42818 3.33592 3.47733 3.33592 3.53717V12.4602C3.33592 12.52 3.35515 12.5692 3.39362 12.6076C3.43209 12.6461 3.48124 12.6653 3.54107 12.6653H12.4641C12.5239 12.6653 12.5731 12.6461 12.6116 12.6076C12.65 12.5692 12.6693 12.52 12.6693 12.4602V5.23202ZM8.00259 11.5115C8.46412 11.5115 8.85728 11.3491 9.18205 11.0243C9.50684 10.6995 9.66924 10.3064 9.66924 9.84483C9.66924 9.3833 9.50684 8.99014 9.18205 8.66535C8.85728 8.34057 8.46412 8.17818 8.00259 8.17818C7.54105 8.17818 7.1479 8.34057 6.82312 8.66535C6.49833 8.99014 6.33594 9.3833 6.33594 9.84483C6.33594 10.3064 6.49833 10.6995 6.82312 11.0243C7.1479 11.3491 7.54105 11.5115 8.00259 11.5115ZM4.86157 6.58841H9.13077C9.30257 6.58841 9.44595 6.53094 9.5609 6.41598C9.67586 6.30103 9.73334 6.15765 9.73334 5.98587V4.85767C9.73334 4.68588 9.67586 4.5425 9.5609 4.42755C9.44595 4.31259 9.30257 4.25511 9.13077 4.25511H4.86157C4.68978 4.25511 4.54641 4.31259 4.43145 4.42755C4.3165 4.5425 4.25902 4.68588 4.25902 4.85767V5.98587C4.25902 6.15765 4.3165 6.30103 4.43145 6.41598C4.54641 6.53094 4.68978 6.58841 4.86157 6.58841ZM3.33592 5.23202V12.6653V3.33202V5.23202Z" fill="#1B1B1B"/>
</svg>
