<svg width="16" height="16" viewBox="0 0 16 16" fill="none" xmlns="http://www.w3.org/2000/svg">
<path d="M3.5383 14.3346C3.20583 14.3346 2.92185 14.2169 2.68639 13.9814C2.45091 13.7459 2.33317 13.4619 2.33317 13.1295V5.6641C2.13745 5.56325 1.97741 5.41987 1.85305 5.23397C1.72869 5.04807 1.6665 4.83375 1.6665 4.59102V2.8731C1.6665 2.54063 1.78424 2.25665 2.01972 2.02119C2.25519 1.78571 2.53916 1.66797 2.87164 1.66797H13.128C13.4605 1.66797 13.7445 1.78571 13.9799 2.02119C14.2154 2.25665 14.3331 2.54063 14.3331 2.8731V4.59102C14.3331 4.83375 14.271 5.04807 14.1466 5.23397C14.0222 5.41987 13.8622 5.56325 13.6665 5.6641V13.1295C13.6665 13.4619 13.5487 13.7459 13.3133 13.9814C13.0778 14.2169 12.7938 14.3346 12.4613 14.3346H3.5383ZM2.87164 4.79617H13.128C13.1878 4.79617 13.237 4.77694 13.2755 4.73847C13.3139 4.7 13.3332 4.65085 13.3332 4.59102V2.8731C13.3332 2.81327 13.3139 2.76412 13.2755 2.72565C13.237 2.68719 13.1878 2.66795 13.128 2.66795H2.87164C2.8118 2.66795 2.76265 2.68719 2.72419 2.72565C2.68572 2.76412 2.66649 2.81327 2.66649 2.8731V4.59102C2.66649 4.65085 2.68572 4.7 2.72419 4.73847C2.76265 4.77694 2.8118 4.79617 2.87164 4.79617Z" fill="#855EDB"/>
</svg>
