<svg width="16" height="16" viewBox="0 0 16 16" fill="none" xmlns="http://www.w3.org/2000/svg">
<path d="M3.53586 14.3346C3.20338 14.3346 2.91941 14.2169 2.68395 13.9814C2.44847 13.7459 2.33073 13.4619 2.33073 13.1295V5.6641C2.13501 5.56325 1.97497 5.41987 1.85061 5.23397C1.72625 5.04807 1.66406 4.83375 1.66406 4.59102V2.8731C1.66406 2.54063 1.7818 2.25665 2.01728 2.02119C2.25275 1.78571 2.53672 1.66797 2.8692 1.66797H13.1256C13.458 1.66797 13.742 1.78571 13.9775 2.02119C14.213 2.25665 14.3307 2.54063 14.3307 2.8731V4.59102C14.3307 4.83375 14.2685 5.04807 14.1441 5.23397C14.0198 5.41987 13.8598 5.56325 13.664 5.6641V13.1295C13.664 13.4619 13.5463 13.7459 13.3108 13.9814C13.0753 14.2169 12.7914 14.3346 12.4589 14.3346H3.53586ZM2.8692 4.79617H13.1256C13.1854 4.79617 13.2345 4.77694 13.273 4.73847C13.3115 4.7 13.3307 4.65085 13.3307 4.59102V2.8731C13.3307 2.81327 13.3115 2.76412 13.273 2.72565C13.2345 2.68719 13.1854 2.66795 13.1256 2.66795H2.8692C2.80936 2.66795 2.76021 2.68719 2.72175 2.72565C2.68328 2.76412 2.66405 2.81327 2.66405 2.8731V4.59102C2.66405 4.65085 2.68328 4.7 2.72175 4.73847C2.76021 4.77694 2.80936 4.79617 2.8692 4.79617Z" fill="#855EDB"/>
</svg>
