<svg width="16" height="16" viewBox="0 0 16 16" fill="none" xmlns="http://www.w3.org/2000/svg">
<path d="M7.99885 14.4616C7.66713 14.4616 7.38353 14.3436 7.14807 14.1076C6.9126 13.8716 6.79487 13.5879 6.79487 13.2565H9.2051C9.2051 13.5889 9.08699 13.8729 8.85077 14.1084C8.61454 14.3438 8.33057 14.4616 7.99885 14.4616ZM3 12.5898V11.5898H4.20513V6.61545C4.20513 5.71887 4.48184 4.92614 5.03525 4.23725C5.58867 3.54836 6.29914 3.10777 7.16667 2.91547V2.50008C7.16667 2.2686 7.24761 2.07185 7.4095 1.90982C7.57139 1.74777 7.76797 1.66675 7.99923 1.66675C8.2305 1.66675 8.42733 1.74777 8.58972 1.90982C8.75211 2.07185 8.8333 2.2686 8.8333 2.50008V2.91547C8.98117 2.9488 9.12305 2.98811 9.25895 3.03341C9.39485 3.07871 9.5269 3.13555 9.6551 3.20392L8.87437 3.97442C8.73333 3.92655 8.59252 3.88894 8.45192 3.8616C8.31132 3.83424 8.16067 3.82056 7.99998 3.82056C7.22818 3.82056 6.56942 4.09343 6.0237 4.63917C5.47797 5.18489 5.2051 5.84365 5.2051 6.61545V11.5898H10.7949V9.6962L11.7948 8.69623V11.5898H13V12.5898H3ZM8.07692 8.5898V6.82828L11.6961 3.22573C11.779 3.14282 11.8686 3.08449 11.9647 3.05073C12.0608 3.01696 12.1569 3.00008 12.253 3.00008C12.3578 3.00008 12.4592 3.01974 12.5572 3.05906C12.6551 3.09838 12.7442 3.15735 12.8243 3.23598L13.441 3.85906C13.5128 3.94196 13.5683 4.0317 13.6077 4.12828C13.647 4.22486 13.6666 4.32144 13.6666 4.41803C13.6666 4.51461 13.6487 4.61289 13.6128 4.71288C13.5769 4.81288 13.5196 4.90434 13.441 4.98725L9.83843 8.5898H8.07692ZM8.87177 7.79495H9.5051L11.6692 5.62058L11.3628 5.30392L11.0526 4.99108L8.87177 7.16162V7.79495ZM11.3628 5.30392L11.0526 4.99108L11.6692 5.62058L11.3628 5.30392Z" fill="#1B1B1B"/>
</svg>
