<svg width="16" height="16" viewBox="0 0 16 16" fill="none" xmlns="http://www.w3.org/2000/svg">
<path d="M4.89468 13.2995C4.54938 13.2995 4.25879 13.1766 4.0229 12.9309C3.787 12.6852 3.66905 12.3897 3.66905 12.0444V6.23062L2.50368 3.47262H1.65623C1.51457 3.47262 1.39582 3.42468 1.3 3.32881C1.20417 3.23294 1.15625 3.11414 1.15625 2.97241C1.15625 2.83068 1.20417 2.71196 1.3 2.61624C1.39582 2.52052 1.51457 2.47266 1.65623 2.47266H2.77418C2.89504 2.47266 3.00582 2.50736 3.10653 2.57676C3.20726 2.64616 3.28279 2.73538 3.33315 2.84444L4.24083 4.99827H13.5331C13.7636 4.99827 13.9389 5.09422 14.0591 5.28611C14.1794 5.47798 14.1848 5.67435 14.0754 5.87519L12.3229 9.30979C12.8211 9.37303 13.2384 9.59269 13.5748 9.96877C13.9111 10.3449 14.0793 10.7884 14.0793 11.2995C14.0793 11.8519 13.8866 12.3233 13.5013 12.7138C13.116 13.1043 12.6474 13.2995 12.0956 13.2995C11.5343 13.2995 11.0607 13.1043 10.6748 12.7138C10.2889 12.3233 10.096 11.8519 10.096 11.2995C10.096 11.0805 10.128 10.8778 10.1921 10.6916C10.2562 10.5054 10.3468 10.332 10.4639 10.1713L7.8126 9.93284L5.97928 12.6764C5.85621 12.8644 5.69857 13.0153 5.50638 13.129C5.31421 13.2427 5.11031 13.2995 4.89468 13.2995ZM11.2357 9.24826L12.8857 5.99826H4.65622L5.50237 7.99826C5.59364 8.22048 5.73911 8.40659 5.93877 8.55659C6.13843 8.70659 6.37887 8.79484 6.66007 8.82134L11.2357 9.24826ZM4.90493 12.2828C4.96134 12.2828 5.04126 12.2294 5.14468 12.1226L6.69083 9.83157C6.1934 9.77602 5.79554 9.6508 5.49725 9.45592C5.19896 9.26106 4.97417 9.03114 4.82288 8.76617L4.66903 8.40717V12.0546C4.66903 12.1238 4.69126 12.1791 4.7357 12.2206C4.78014 12.2621 4.83656 12.2828 4.90493 12.2828ZM12.0793 12.3059C12.3682 12.3059 12.607 12.2087 12.7959 12.0143C12.9848 11.8198 13.0793 11.5837 13.0793 11.3059C13.0793 11.017 12.9848 10.7781 12.7959 10.5893C12.607 10.4004 12.3682 10.3059 12.0793 10.3059C11.8015 10.3059 11.5654 10.4004 11.3709 10.5893C11.1765 10.7781 11.0793 11.017 11.0793 11.3059C11.0793 11.5837 11.1765 11.8198 11.3709 12.0143C11.5654 12.2087 11.8015 12.3059 12.0793 12.3059Z" fill="#8B8B8B"/>
</svg>
