<svg width="16" height="17" viewBox="0 0 16 17" fill="none" xmlns="http://www.w3.org/2000/svg">
<path d="M2.8692 13.9687C2.53244 13.9687 2.2474 13.8521 2.01406 13.6187C1.78073 13.3854 1.66406 13.1003 1.66406 12.7636V5.17388C1.66406 4.83713 1.78073 4.55208 2.01406 4.31875C2.2474 4.08542 2.53244 3.96875 2.8692 3.96875H6.03071C6.19139 3.96875 6.34587 3.99995 6.49416 4.06235C6.64245 4.12474 6.7713 4.21063 6.8807 4.32003L7.86275 5.30208H13.1256C13.4623 5.30208 13.7474 5.41875 13.9807 5.65208C14.214 5.88542 14.3307 6.17046 14.3307 6.50722V12.7636C14.3307 13.1003 14.214 13.3854 13.9807 13.6187C13.7474 13.8521 13.4623 13.9687 13.1256 13.9687H2.8692ZM2.8692 12.9687H13.1256C13.1854 12.9687 13.2345 12.9495 13.273 12.911C13.3115 12.8726 13.3307 12.8234 13.3307 12.7636V6.50722C13.3307 6.44738 13.3115 6.39823 13.273 6.35977C13.2345 6.3213 13.1854 6.30207 13.1256 6.30207H7.4538L6.17815 5.02643C6.15678 5.00507 6.13435 4.99011 6.11085 4.98155C6.08734 4.97301 6.06276 4.96873 6.03711 4.96873H2.8692C2.80936 4.96873 2.76021 4.98797 2.72175 5.02643C2.68328 5.0649 2.66405 5.11405 2.66405 5.17388V12.7636C2.66405 12.8234 2.68328 12.8726 2.72175 12.911C2.76021 12.9495 2.80936 12.9687 2.8692 12.9687Z" fill="#747474"/>
</svg>
