<svg width="40" height="32" viewBox="0 0 40 32" fill="none" xmlns="http://www.w3.org/2000/svg">
<rect width="40" height="32" rx="4" fill="#594585"/>
<path d="M24.4641 21.6692H15.5411C15.2043 21.6692 14.9193 21.5526 14.6859 21.3192C14.4526 21.0859 14.3359 20.8009 14.3359 20.4641V11.5411C14.3359 11.2043 14.4526 10.9193 14.6859 10.6859C14.9193 10.4526 15.2043 10.3359 15.5411 10.3359H24.4641C24.8009 10.3359 25.0859 10.4526 25.3192 10.6859C25.5526 10.9193 25.6692 11.2043 25.6692 11.5411V20.4641C25.6692 20.8009 25.5526 21.0859 25.3192 21.3192C25.0859 21.5526 24.8009 21.6692 24.4641 21.6692ZM15.3359 13.5026H24.6693V11.5411C24.6693 11.4898 24.6479 11.4428 24.6052 11.4C24.5624 11.3573 24.5154 11.3359 24.4641 11.3359H15.5411C15.4898 11.3359 15.4428 11.3573 15.4 11.4C15.3573 11.4428 15.3359 11.4898 15.3359 11.5411V13.5026ZM17.1308 14.5026H15.3359V20.4641C15.3359 20.5154 15.3573 20.5624 15.4 20.6052C15.4428 20.6479 15.4898 20.6693 15.5411 20.6693H17.1308V14.5026ZM22.8744 14.5026V20.6693H24.4641C24.5154 20.6693 24.5624 20.6479 24.6052 20.6052C24.6479 20.5624 24.6693 20.5154 24.6693 20.4641V14.5026H22.8744ZM21.8744 14.5026H18.1308V20.6693H21.8744V14.5026Z" fill="white"/>
</svg>
