<svg width="16" height="16" viewBox="0 0 16 16" fill="none" xmlns="http://www.w3.org/2000/svg">
<path d="M12.4641 13.6692H3.54107C3.20432 13.6692 2.91927 13.5526 2.68594 13.3192C2.4526 13.0859 2.33594 12.8009 2.33594 12.4641V3.54107C2.33594 3.20432 2.4526 2.91927 2.68594 2.68594C2.91927 2.4526 3.20432 2.33594 3.54107 2.33594H12.4641C12.8009 2.33594 13.0859 2.4526 13.3192 2.68594C13.5526 2.91927 13.6692 3.20432 13.6692 3.54107V12.4641C13.6692 12.8009 13.5526 13.0859 13.3192 13.3192C13.0859 13.5526 12.8009 13.6692 12.4641 13.6692ZM3.33592 5.5026H12.6693V3.54107C12.6693 3.48978 12.6479 3.44277 12.6052 3.40002C12.5624 3.35729 12.5154 3.33592 12.4641 3.33592H3.54107C3.48978 3.33592 3.44277 3.35729 3.40002 3.40002C3.35729 3.44277 3.33592 3.48978 3.33592 3.54107V5.5026ZM5.1308 6.50257H3.33592V12.4641C3.33592 12.5154 3.35729 12.5624 3.40002 12.6052C3.44277 12.6479 3.48978 12.6693 3.54107 12.6693H5.1308V6.50257ZM10.8744 6.50257V12.6693H12.4641C12.5154 12.6693 12.5624 12.6479 12.6052 12.6052C12.6479 12.5624 12.6693 12.5154 12.6693 12.4641V6.50257H10.8744ZM9.8744 6.50257H6.13077V12.6693H9.8744V6.50257Z" fill="white"/>
</svg>
