<svg width="12" height="12" viewBox="0 0 12 12" fill="none" xmlns="http://www.w3.org/2000/svg">
<path d="M5.99887 10.75C5.34191 10.75 4.72439 10.6253 4.14632 10.376C3.56825 10.1266 3.06541 9.78827 2.6378 9.36085C2.21018 8.93343 1.87165 8.4308 1.62221 7.85299C1.37277 7.27518 1.24805 6.65779 1.24805 6.00083C1.24805 5.34386 1.37273 4.72634 1.62211 4.14828C1.87148 3.5702 2.20992 3.06736 2.63742 2.63975C3.06492 2.21213 3.56763 1.8736 4.14555 1.62416C4.72346 1.37472 5.34095 1.25 5.99803 1.25C6.41406 1.25 6.81726 1.30305 7.20765 1.40914C7.59804 1.51523 7.97144 1.6686 8.32785 1.86924C8.424 1.92309 8.48682 2.00065 8.51631 2.10193C8.54579 2.20321 8.52849 2.29776 8.46439 2.38558C8.40029 2.47339 8.31551 2.52836 8.21006 2.55048C8.10462 2.57259 8.00286 2.55673 7.90478 2.50288C7.61248 2.33942 7.30494 2.21474 6.98217 2.12884C6.65941 2.04294 6.33137 1.99999 5.99803 1.99999C4.8897 1.99999 3.94595 2.38957 3.16678 3.16874C2.38762 3.9479 1.99803 4.89165 1.99803 5.99999C1.99803 7.10832 2.38762 8.05207 3.16678 8.83124C3.94595 9.61041 4.8897 9.99999 5.99803 9.99999C7.10637 9.99999 8.05012 9.61041 8.82929 8.83124C9.60845 8.05207 9.99804 7.10832 9.99804 5.99999C9.99804 5.90322 9.99435 5.80948 9.98697 5.71875C9.97961 5.62803 9.96695 5.53492 9.949 5.4394C9.93233 5.33293 9.9506 5.23115 10.0038 5.13406C10.057 5.03699 10.1371 4.97403 10.2441 4.94518C10.3448 4.91633 10.4382 4.92883 10.5245 4.98268C10.6107 5.03653 10.6621 5.11409 10.6788 5.21536C10.7019 5.34165 10.7192 5.46938 10.7307 5.59858C10.7423 5.72777 10.748 5.86157 10.748 5.99999C10.748 6.65707 10.6234 7.27457 10.374 7.85248C10.1247 8.43039 9.78631 8.9331 9.3589 9.3606C8.93147 9.7881 8.42885 10.1265 7.85104 10.3759C7.27323 10.6253 6.65584 10.75 5.99887 10.75ZM5.28842 7.07308L9.95765 2.39615C10.0269 2.32693 10.1126 2.29023 10.2149 2.28606C10.3171 2.2819 10.4074 2.31894 10.4856 2.3972C10.5573 2.46893 10.5932 2.5564 10.5932 2.65961C10.5932 2.76281 10.557 2.85063 10.4846 2.92306L5.60476 7.81055C5.51438 7.90093 5.40893 7.94613 5.28842 7.94613C5.16791 7.94613 5.06246 7.90093 4.97207 7.81055L3.59996 6.43844C3.53073 6.36921 3.49532 6.2822 3.49371 6.17739C3.49211 6.07259 3.52753 5.98397 3.59996 5.91154C3.67239 5.8391 3.76021 5.80288 3.86342 5.80288C3.96662 5.80288 4.05444 5.8391 4.12687 5.91154L5.28842 7.07308Z" fill="#1B1B1B"/>
</svg>
