<svg width="17" height="16" viewBox="0 0 17 16" fill="none" xmlns="http://www.w3.org/2000/svg">
<path d="M1.0625 13.4882V12.4882H15.2163V13.4882H1.0625ZM3.01122 11.8216C2.67446 11.8216 2.38942 11.7049 2.15608 11.4716C1.92275 11.2382 1.80608 10.9532 1.80608 10.6164V3.6934C1.80608 3.35665 1.92275 3.07161 2.15608 2.83828C2.38942 2.60495 2.67446 2.48828 3.01122 2.48828H13.2676C13.6043 2.48828 13.8894 2.60495 14.1227 2.83828C14.3561 3.07161 14.4727 3.35665 14.4727 3.6934V10.6164C14.4727 10.9532 14.3561 11.2382 14.1227 11.4716C13.8894 11.7049 13.6043 11.8216 13.2676 11.8216H3.01122ZM3.01122 10.8216H13.2676C13.3189 10.8216 13.3659 10.8002 13.4086 10.7575C13.4514 10.7147 13.4727 10.6677 13.4727 10.6164V3.6934C13.4727 3.64211 13.4514 3.5951 13.4086 3.55237C13.3659 3.50962 13.3189 3.48825 13.2676 3.48825H3.01122C2.95993 3.48825 2.91291 3.50962 2.87017 3.55237C2.82743 3.5951 2.80607 3.64211 2.80607 3.6934V10.6164C2.80607 10.6677 2.82743 10.7147 2.87017 10.7575C2.91291 10.8002 2.95993 10.8216 3.01122 10.8216Z" fill="white"/>
</svg>
