<svg width="12" height="13" viewBox="0 0 12 13" fill="none" xmlns="http://www.w3.org/2000/svg">
<path d="M6.00082 11.25C5.34386 11.25 4.72634 11.1253 4.14828 10.876C3.5702 10.6266 3.06736 10.2883 2.63975 9.86085C2.21213 9.43343 1.8736 8.93081 1.62416 8.35299C1.37472 7.77518 1.25 7.15779 1.25 6.50083C1.25 5.84386 1.37469 5.22634 1.62406 4.64828C1.87344 4.0702 2.21188 3.56736 2.63938 3.13975C3.06688 2.71213 3.56958 2.3736 4.1475 2.12416C4.72541 1.87472 5.3429 1.75 5.99999 1.75C6.41601 1.75 6.81922 1.80305 7.2096 1.90914C7.59999 2.01523 7.97339 2.1686 8.3298 2.36924C8.42595 2.42309 8.48877 2.50065 8.51826 2.60193C8.54775 2.70321 8.53044 2.79776 8.46634 2.88558C8.40224 2.97339 8.31746 3.02836 8.21201 3.05048C8.10657 3.07259 8.00481 3.05673 7.90674 3.00288C7.61443 2.83942 7.30689 2.71474 6.98413 2.62884C6.66137 2.54294 6.33332 2.49999 5.99999 2.49999C4.89165 2.49999 3.9479 2.88957 3.16874 3.66874C2.38957 4.4479 1.99999 5.39165 1.99999 6.49999C1.99999 7.60832 2.38957 8.55207 3.16874 9.33124C3.9479 10.1104 4.89165 10.5 5.99999 10.5C7.10832 10.5 8.05207 10.1104 8.83124 9.33124C9.6104 8.55207 9.99999 7.60832 9.99999 6.49999C9.99999 6.40322 9.9963 6.30948 9.98893 6.21875C9.98156 6.12803 9.9689 6.03492 9.95095 5.9394C9.93429 5.83293 9.95255 5.73115 10.0058 5.63406C10.059 5.53699 10.1391 5.47403 10.2461 5.44518C10.3467 5.41633 10.4402 5.42883 10.5264 5.48268C10.6126 5.53653 10.6641 5.61409 10.6807 5.71536C10.7038 5.84165 10.7211 5.96938 10.7327 6.09858C10.7442 6.22777 10.75 6.36157 10.75 6.49999C10.75 7.15707 10.6253 7.77457 10.376 8.35248C10.1266 8.93039 9.78827 9.4331 9.36085 9.8606C8.93343 10.2881 8.43081 10.6265 7.85299 10.8759C7.27518 11.1253 6.65779 11.25 6.00082 11.25ZM5.29038 7.57308L9.9596 2.89615C10.0288 2.82693 10.1146 2.79023 10.2168 2.78606C10.3191 2.7819 10.4093 2.81894 10.4876 2.8972C10.5593 2.96893 10.5952 3.0564 10.5952 3.15961C10.5952 3.26281 10.5589 3.35063 10.4865 3.42306L5.60671 8.31055C5.51633 8.40093 5.41088 8.44613 5.29038 8.44613C5.16986 8.44613 5.06441 8.40093 4.97403 8.31055L3.60191 6.93844C3.53269 6.86921 3.49727 6.7822 3.49566 6.67739C3.49406 6.57259 3.52948 6.48397 3.60191 6.41154C3.67435 6.3391 3.76217 6.30288 3.86538 6.30288C3.96858 6.30288 4.05639 6.3391 4.12883 6.41154L5.29038 7.57308Z" fill="#1B1B1B"/>
</svg>
