<svg width="12" height="12" viewBox="0 0 12 12" fill="none" xmlns="http://www.w3.org/2000/svg">
<path d="M7.90187 10.25C7.69739 10.25 7.52127 10.1761 7.37352 10.0283C7.22577 9.88059 7.1519 9.70447 7.1519 9.49999V7.40383C7.1519 7.19934 7.22577 7.02323 7.37352 6.87548C7.52127 6.72773 7.69739 6.65385 7.90187 6.65385H9.99804C10.2025 6.65385 10.3786 6.72773 10.5264 6.87548C10.6741 7.02323 10.748 7.19934 10.748 7.40383V9.49999C10.748 9.70447 10.6741 9.88059 10.5264 10.0283C10.3786 10.1761 10.2025 10.25 9.99804 10.25H7.90187ZM7.90187 9.49999H9.99804V7.40383H7.90187V9.49999ZM1.62305 8.8269C1.5168 8.8269 1.42773 8.79095 1.35586 8.71904C1.28398 8.64714 1.24805 8.55804 1.24805 8.45174C1.24805 8.34545 1.28398 8.2564 1.35586 8.1846C1.42773 8.11281 1.5168 8.07691 1.62305 8.07691H5.18073C5.28698 8.07691 5.37605 8.11287 5.44792 8.18478C5.5198 8.25668 5.55573 8.34578 5.55573 8.45208C5.55573 8.55837 5.5198 8.64741 5.44792 8.71921C5.37605 8.791 5.28698 8.8269 5.18073 8.8269H1.62305ZM7.90187 5.34613C7.69739 5.34613 7.52127 5.27225 7.37352 5.1245C7.22577 4.97675 7.1519 4.80063 7.1519 4.59615V2.49999C7.1519 2.2955 7.22577 2.11939 7.37352 1.97164C7.52127 1.82388 7.69739 1.75 7.90187 1.75H9.99804C10.2025 1.75 10.3786 1.82388 10.5264 1.97164C10.6741 2.11939 10.748 2.2955 10.748 2.49999V4.59615C10.748 4.80063 10.6741 4.97675 10.5264 5.1245C10.3786 5.27225 10.2025 5.34613 9.99804 5.34613H7.90187ZM7.90187 4.59615H9.99804V2.49999H7.90187V4.59615ZM1.62305 3.92306C1.5168 3.92306 1.42773 3.88711 1.35586 3.8152C1.28398 3.74329 1.24805 3.65419 1.24805 3.5479C1.24805 3.44161 1.28398 3.35256 1.35586 3.28076C1.42773 3.20897 1.5168 3.17308 1.62305 3.17308H5.18073C5.28698 3.17308 5.37605 3.20903 5.44792 3.28094C5.5198 3.35284 5.55573 3.44194 5.55573 3.54824C5.55573 3.65453 5.5198 3.74358 5.44792 3.81538C5.37605 3.88717 5.28698 3.92306 5.18073 3.92306H1.62305Z" fill="#1B1B1B"/>
</svg>
