<svg width="12" height="12" viewBox="0 0 12 12" fill="none" xmlns="http://www.w3.org/2000/svg">
<path d="M7.90383 10.25C7.69934 10.25 7.52323 10.1761 7.37548 10.0283C7.22773 9.88059 7.15385 9.70447 7.15385 9.49999V7.40383C7.15385 7.19934 7.22773 7.02323 7.37548 6.87548C7.52323 6.72773 7.69934 6.65385 7.90383 6.65385H9.99999C10.2045 6.65385 10.3806 6.72773 10.5283 6.87548C10.6761 7.02323 10.75 7.19934 10.75 7.40383V9.49999C10.75 9.70447 10.6761 9.88059 10.5283 10.0283C10.3806 10.1761 10.2045 10.25 9.99999 10.25H7.90383ZM7.90383 9.49999H9.99999V7.40383H7.90383V9.49999ZM1.625 8.8269C1.51875 8.8269 1.42969 8.79095 1.35781 8.71904C1.28594 8.64714 1.25 8.55804 1.25 8.45174C1.25 8.34545 1.28594 8.2564 1.35781 8.1846C1.42969 8.11281 1.51875 8.07691 1.625 8.07691H5.18269C5.28894 8.07691 5.378 8.11287 5.44988 8.18478C5.52175 8.25668 5.55769 8.34578 5.55769 8.45208C5.55769 8.55837 5.52175 8.64741 5.44988 8.71921C5.378 8.791 5.28894 8.8269 5.18269 8.8269H1.625ZM7.90383 5.34613C7.69934 5.34613 7.52323 5.27225 7.37548 5.1245C7.22773 4.97675 7.15385 4.80063 7.15385 4.59615V2.49999C7.15385 2.2955 7.22773 2.11939 7.37548 1.97164C7.52323 1.82388 7.69934 1.75 7.90383 1.75H9.99999C10.2045 1.75 10.3806 1.82388 10.5283 1.97164C10.6761 2.11939 10.75 2.2955 10.75 2.49999V4.59615C10.75 4.80063 10.6761 4.97675 10.5283 5.1245C10.3806 5.27225 10.2045 5.34613 9.99999 5.34613H7.90383ZM7.90383 4.59615H9.99999V2.49999H7.90383V4.59615ZM1.625 3.92306C1.51875 3.92306 1.42969 3.88711 1.35781 3.8152C1.28594 3.74329 1.25 3.65419 1.25 3.5479C1.25 3.44161 1.28594 3.35256 1.35781 3.28076C1.42969 3.20897 1.51875 3.17308 1.625 3.17308H5.18269C5.28894 3.17308 5.378 3.20903 5.44988 3.28094C5.52175 3.35284 5.55769 3.44194 5.55769 3.54824C5.55769 3.65453 5.52175 3.74358 5.44988 3.81538C5.378 3.88717 5.28894 3.92306 5.18269 3.92306H1.625Z" fill="#F3F4F8"/>
</svg>
