<svg width="16" height="16" viewBox="0 0 16 16" fill="none" xmlns="http://www.w3.org/2000/svg">
<path d="M3.53912 13.6666C3.20236 13.6666 2.91732 13.55 2.68398 13.3166C2.45065 13.0833 2.33398 12.7983 2.33398 12.4615V3.53848C2.33398 3.20172 2.45065 2.91668 2.68398 2.68334C2.91732 2.45001 3.20236 2.33334 3.53912 2.33334H12.4622C12.7989 2.33334 13.084 2.45001 13.3173 2.68334C13.5506 2.91668 13.6673 3.20172 13.6673 3.53848V12.4615C13.6673 12.7983 13.5506 13.0833 13.3173 13.3166C13.084 13.55 12.7989 13.6666 12.4622 13.6666H3.53912ZM3.53912 12.6667H12.4622C12.5134 12.6667 12.5605 12.6453 12.6032 12.6026C12.6459 12.5598 12.6673 12.5128 12.6673 12.4615V3.53848C12.6673 3.51283 12.662 3.48826 12.6513 3.46474C12.6406 3.44124 12.6246 3.41881 12.6032 3.39743L3.39807 12.6026C3.41945 12.6239 3.44188 12.6399 3.46538 12.6506C3.4889 12.6613 3.51347 12.6667 3.53912 12.6667ZM9.76987 10.5641H8.83397C8.71916 10.5641 8.62422 10.5266 8.54915 10.4516C8.47407 10.3765 8.43653 10.2817 8.43653 10.167C8.43653 10.0522 8.47407 9.95727 8.54915 9.88204C8.62422 9.80683 8.71916 9.76923 8.83397 9.76923H9.76987V8.83333C9.76987 8.71852 9.80738 8.62358 9.8824 8.54851C9.95741 8.47343 10.0523 8.43589 10.167 8.43589C10.2817 8.43589 10.3767 8.47343 10.4519 8.54851C10.5271 8.62358 10.5647 8.71852 10.5647 8.83333V9.76923H11.5006C11.6154 9.76923 11.7104 9.80674 11.7855 9.88176C11.8605 9.95677 11.8981 10.0516 11.8981 10.1664C11.8981 10.2811 11.8605 10.3761 11.7855 10.4513C11.7104 10.5265 11.6154 10.5641 11.5006 10.5641H10.5647V11.5C10.5647 11.6148 10.5272 11.7097 10.4522 11.7848C10.3772 11.8599 10.2823 11.8974 10.1676 11.8974C10.0529 11.8974 9.95791 11.8599 9.88268 11.7848C9.80747 11.7097 9.76987 11.6148 9.76987 11.5V10.5641ZM6.83397 5.56409C6.94878 5.56409 7.04372 5.52658 7.11878 5.45156C7.19386 5.37655 7.2314 5.28168 7.2314 5.16696C7.2314 5.05224 7.19386 4.95727 7.11878 4.88204C7.04372 4.80683 6.94878 4.76923 6.83397 4.76923H4.50063C4.38582 4.76923 4.29088 4.80674 4.21582 4.88176C4.14074 4.95677 4.1032 5.05164 4.1032 5.16636C4.1032 5.28108 4.14074 5.37606 4.21582 5.45128C4.29088 5.52649 4.38582 5.56409 4.50063 5.56409H6.83397Z" fill="white"/>
</svg>
