<svg width="16" height="16" viewBox="0 0 16 16" fill="none" xmlns="http://www.w3.org/2000/svg">
<path d="M3.53912 13.6668C3.20236 13.6668 2.91732 13.5501 2.68398 13.3168C2.45065 13.0835 2.33398 12.7984 2.33398 12.4617V3.53863C2.33398 3.20187 2.45065 2.91683 2.68398 2.6835C2.91732 2.45016 3.20236 2.3335 3.53912 2.3335H12.4622C12.7989 2.3335 13.084 2.45016 13.3173 2.6835C13.5506 2.91683 13.6673 3.20187 13.6673 3.53863V12.4617C13.6673 12.7984 13.5506 13.0835 13.3173 13.3168C13.084 13.5501 12.7989 13.6668 12.4622 13.6668H3.53912ZM3.53912 12.6668H12.4622C12.5134 12.6668 12.5605 12.6454 12.6032 12.6027C12.6459 12.56 12.6673 12.513 12.6673 12.4617V3.53863C12.6673 3.51299 12.662 3.48841 12.6513 3.4649C12.6406 3.4414 12.6246 3.41896 12.6032 3.39758L3.39807 12.6027C3.41945 12.6241 3.44188 12.6401 3.46538 12.6508C3.4889 12.6615 3.51347 12.6668 3.53912 12.6668ZM9.76987 10.5642H8.83397C8.71916 10.5642 8.62422 10.5267 8.54915 10.4517C8.47407 10.3767 8.43653 10.2818 8.43653 10.1671C8.43653 10.0524 8.47407 9.95742 8.54915 9.8822C8.62422 9.80699 8.71916 9.76938 8.83397 9.76938H9.76987V8.83348C9.76987 8.71867 9.80738 8.62373 9.8824 8.54866C9.95741 8.47359 10.0523 8.43605 10.167 8.43605C10.2817 8.43605 10.3767 8.47359 10.4519 8.54866C10.5271 8.62373 10.5647 8.71867 10.5647 8.83348V9.76938H11.5006C11.6154 9.76938 11.7104 9.80689 11.7855 9.88191C11.8605 9.95692 11.8981 10.0518 11.8981 10.1665C11.8981 10.2812 11.8605 10.3762 11.7855 10.4514C11.7104 10.5266 11.6154 10.5642 11.5006 10.5642H10.5647V11.5001C10.5647 11.615 10.5272 11.7099 10.4522 11.785C10.3772 11.86 10.2823 11.8976 10.1676 11.8976C10.0529 11.8976 9.95791 11.86 9.88268 11.785C9.80747 11.7099 9.76987 11.615 9.76987 11.5001V10.5642ZM6.83397 5.56425C6.94878 5.56425 7.04372 5.52674 7.11878 5.45171C7.19386 5.3767 7.2314 5.28184 7.2314 5.16711C7.2314 5.05239 7.19386 4.95742 7.11878 4.8822C7.04372 4.80699 6.94878 4.76938 6.83397 4.76938H4.50063C4.38582 4.76938 4.29088 4.80689 4.21582 4.88191C4.14074 4.95692 4.1032 5.05179 4.1032 5.16651C4.1032 5.28124 4.14074 5.37621 4.21582 5.45143C4.29088 5.52664 4.38582 5.56425 4.50063 5.56425H6.83397Z" fill="#1B1B1B"/>
</svg>
