<svg width="22" height="22" viewBox="0 0 22 22" fill="none" xmlns="http://www.w3.org/2000/svg">
<g clip-path="url(#clip0_2657_552)">
<path d="M10.3888 13.4453C10.3888 13.2832 10.4532 13.1278 10.5678 13.0132C10.6824 12.8986 10.8378 12.8342 10.9999 12.8342H15.8888V3.66753C15.8888 3.34338 15.76 3.0325 15.5308 2.80329C15.3016 2.57408 14.9907 2.44531 14.6666 2.44531H6.64267L2.44434 6.63753V18.3342C2.44434 18.6584 2.57311 18.9692 2.80232 19.1984C3.03153 19.4277 3.3424 19.5564 3.66656 19.5564H14.6666C14.9907 19.5564 15.3016 19.4277 15.5308 19.1984C15.76 18.9692 15.8888 18.6584 15.8888 18.3342V14.0564H10.9999C10.8378 14.0564 10.6824 13.992 10.5678 13.8774C10.4532 13.7628 10.3888 13.6074 10.3888 13.4453ZM7.33322 7.3342H3.66656V7.13865L7.14378 3.66753H7.33322V7.3342Z" fill="#594585"/>
<path d="M17.9176 9.9907C17.8007 9.89058 17.6503 9.83827 17.4965 9.84421C17.3427 9.85015 17.1968 9.91391 17.0879 10.0227C16.9791 10.1316 16.9153 10.2775 16.9094 10.4313C16.9035 10.5851 16.9558 10.7355 17.0559 10.8524L19.042 12.8324H15.8887V14.0546H19.0603L17.0559 16.059C16.9919 16.1138 16.94 16.1812 16.9033 16.257C16.8666 16.3329 16.846 16.4154 16.8427 16.4996C16.8395 16.5838 16.8537 16.6677 16.8844 16.7461C16.9151 16.8245 16.9617 16.8958 17.0213 16.9553C17.0808 17.0149 17.1521 17.0615 17.2305 17.0922C17.3089 17.1229 17.3928 17.1371 17.477 17.1339C17.5611 17.1306 17.6437 17.11 17.7195 17.0733C17.7954 17.0366 17.8628 16.9847 17.9176 16.9207L21.3887 13.4435L17.9176 9.9907Z" fill="#594585"/>
</g>
<defs>
<clipPath id="clip0_2657_552">
<rect width="22" height="22" fill="white"/>
</clipPath>
</defs>
</svg>
