<svg width="22" height="22" viewBox="0 0 22 22" fill="none" xmlns="http://www.w3.org/2000/svg">
<path d="M15.583 11.9173H11.9163V15.584H10.083V11.9173H6.41634V10.084H10.083V6.41732H11.9163V10.084H15.583M10.9997 1.83398C9.79589 1.83398 8.60389 2.07109 7.49174 2.53176C6.37959 2.99242 5.36907 3.66764 4.51786 4.51884C2.79878 6.23792 1.83301 8.5695 1.83301 11.0007C1.83301 13.4318 2.79878 15.7634 4.51786 17.4825C5.36907 18.3337 6.37959 19.0089 7.49174 19.4695C8.60389 19.9302 9.79589 20.1673 10.9997 20.1673C13.4308 20.1673 15.7624 19.2015 17.4815 17.4825C19.2006 15.7634 20.1663 13.4318 20.1663 11.0007C20.1663 9.79687 19.9292 8.60487 19.4686 7.49272C19.0079 6.38057 18.3327 5.37004 17.4815 4.51884C16.6303 3.66764 15.6198 2.99242 14.5076 2.53176C13.3955 2.07109 12.2035 1.83398 10.9997 1.83398Z" fill="white"/>
</svg>
