<svg width="16" height="16" viewBox="0 0 16 16" fill="none" xmlns="http://www.w3.org/2000/svg">
<path d="M8.00016 13.334C5.06016 13.334 2.66683 10.9406 2.66683 8.00065C2.66683 5.06065 5.06016 2.66732 8.00016 2.66732C10.9402 2.66732 13.3335 5.06065 13.3335 8.00065C13.3335 10.9406 10.9402 13.334 8.00016 13.334ZM8.00016 1.33398C7.12468 1.33398 6.25778 1.50642 5.44894 1.84145C4.6401 2.17649 3.90517 2.66755 3.28612 3.28661C2.03587 4.53685 1.3335 6.23254 1.3335 8.00065C1.3335 9.76876 2.03587 11.4645 3.28612 12.7147C3.90517 13.3338 4.6401 13.8248 5.44894 14.1598C6.25778 14.4949 7.12468 14.6673 8.00016 14.6673C9.76827 14.6673 11.464 13.9649 12.7142 12.7147C13.9644 11.4645 14.6668 9.76876 14.6668 8.00065C14.6668 7.12517 14.4944 6.25827 14.1594 5.44943C13.8243 4.64059 13.3333 3.90566 12.7142 3.28661C12.0951 2.66755 11.3602 2.17649 10.5514 1.84145C9.74255 1.50642 8.87564 1.33398 8.00016 1.33398ZM8.66683 4.66732H7.3335V7.33398H4.66683V8.66732H7.3335V11.334H8.66683V8.66732H11.3335V7.33398H8.66683V4.66732Z" fill="#594585"/>
</svg>
