<svg width="24" height="24" viewBox="0 0 24 24" fill="none" xmlns="http://www.w3.org/2000/svg">
<path d="M6.5 2C5.83696 2 5.20107 2.26339 4.73223 2.73223C4.26339 3.20107 4 3.83696 4 4.5V19.5C4 20.163 4.26339 20.7989 4.73223 21.2678C5.20107 21.7366 5.83696 22 6.5 22H19.25C19.4489 22 19.6397 21.921 19.7803 21.7803C19.921 21.6397 20 21.4489 20 21.25C20 21.0511 19.921 20.8603 19.7803 20.7197C19.6397 20.579 19.4489 20.5 19.25 20.5H6.5C6.23478 20.5 5.98043 20.3946 5.79289 20.2071C5.60536 20.0196 5.5 19.7652 5.5 19.5H19.25C19.4489 19.5 19.6397 19.421 19.7803 19.2803C19.921 19.1397 20 18.9489 20 18.75V4.5C20 3.83696 19.7366 3.20107 19.2678 2.73223C18.7989 2.26339 18.163 2 17.5 2H6.5ZM5.5 18V4.5C5.5 4.23478 5.60536 3.98043 5.79289 3.79289C5.98043 3.60536 6.23478 3.5 6.5 3.5H17.5C17.7652 3.5 18.0196 3.60536 18.2071 3.79289C18.3946 3.98043 18.5 4.23478 18.5 4.5V18H5.5ZM14 8C14 8.53043 13.7893 9.03914 13.4142 9.41421C13.0391 9.78929 12.5304 10 12 10C11.4696 10 10.9609 9.78929 10.5858 9.41421C10.2107 9.03914 10 8.53043 10 8C10 7.46957 10.2107 6.96086 10.5858 6.58579C10.9609 6.21071 11.4696 6 12 6C12.5304 6 13.0391 6.21071 13.4142 6.58579C13.7893 6.96086 14 7.46957 14 8ZM15.5 12.5C15.5 13.745 14.5 15 12 15C9.5 15 8.5 13.75 8.5 12.5C8.5 12.1022 8.65804 11.7206 8.93934 11.4393C9.22064 11.158 9.60218 11 10 11H14C14.3978 11 14.7794 11.158 15.0607 11.4393C15.342 11.7206 15.5 12.1022 15.5 12.5Z" fill="#787A7A"/>
</svg>
