<svg width="20" height="20" viewBox="0 0 20 20" fill="none" xmlns="http://www.w3.org/2000/svg">
<path d="M5.83366 3.33268C5.83366 2.89065 6.00925 2.46673 6.32181 2.15417C6.63437 1.84161 7.0583 1.66602 7.50032 1.66602H12.5003C12.9424 1.66602 13.3663 1.84161 13.6788 2.15417C13.9914 2.46673 14.167 2.89065 14.167 3.33268V4.99935H17.5003C17.7213 4.99935 17.9333 5.08715 18.0896 5.24343C18.2459 5.39971 18.3337 5.61167 18.3337 5.83268C18.3337 6.0537 18.2459 6.26566 18.0896 6.42194C17.9333 6.57822 17.7213 6.66601 17.5003 6.66601H16.6095L15.887 16.7843C15.8571 17.2048 15.6689 17.5984 15.3604 17.8857C15.0519 18.173 14.646 18.3327 14.2245 18.3327H5.77532C5.35377 18.3327 4.94788 18.173 4.6394 17.8857C4.33091 17.5984 4.14276 17.2048 4.11283 16.7843L3.39199 6.66601H2.50033C2.27931 6.66601 2.06735 6.57822 1.91107 6.42194C1.75479 6.26566 1.66699 6.0537 1.66699 5.83268C1.66699 5.61167 1.75479 5.39971 1.91107 5.24343C2.06735 5.08715 2.27931 4.99935 2.50033 4.99935H5.83366V3.33268ZM7.50032 4.99935H12.5003V3.33268H7.50032V4.99935ZM5.06199 6.66601L5.77616 16.666H14.2253L14.9395 6.66601H5.06199ZM8.33366 8.33268C8.55467 8.33268 8.76663 8.42048 8.92291 8.57676C9.07919 8.73304 9.16699 8.945 9.16699 9.16601V14.166C9.16699 14.387 9.07919 14.599 8.92291 14.7553C8.76663 14.9115 8.55467 14.9993 8.33366 14.9993C8.11264 14.9993 7.90068 14.9115 7.7444 14.7553C7.58812 14.599 7.50032 14.387 7.50032 14.166V9.16601C7.50032 8.945 7.58812 8.73304 7.7444 8.57676C7.90068 8.42048 8.11264 8.33268 8.33366 8.33268ZM11.667 8.33268C11.888 8.33268 12.1 8.42048 12.2562 8.57676C12.4125 8.73304 12.5003 8.945 12.5003 9.16601V14.166C12.5003 14.387 12.4125 14.599 12.2562 14.7553C12.1 14.9115 11.888 14.9993 11.667 14.9993C11.446 14.9993 11.234 14.9115 11.0777 14.7553C10.9215 14.599 10.8337 14.387 10.8337 14.166V9.16601C10.8337 8.945 10.9215 8.73304 11.0777 8.57676C11.234 8.42048 11.446 8.33268 11.667 8.33268Z" fill="#FD717A"/>
</svg>
