<svg width="17" height="15" viewBox="0 0 17 15" fill="none" xmlns="http://www.w3.org/2000/svg">
<g clip-path="url(#clip0_2540_15907)">
<path d="M12.5 13.125C12.5 12.9557 12.4381 12.8092 12.3145 12.6855C12.1908 12.5618 12.0443 12.5 11.875 12.5C11.7057 12.5 11.5592 12.5618 11.4355 12.6855C11.3118 12.8092 11.25 12.9557 11.25 13.125C11.25 13.2943 11.3118 13.4408 11.4355 13.5645C11.5592 13.6882 11.7057 13.75 11.875 13.75C12.0443 13.75 12.1908 13.6882 12.3145 13.5645C12.4381 13.4408 12.5 13.2943 12.5 13.125ZM15 13.125C15 12.9557 14.9381 12.8092 14.8145 12.6855C14.6908 12.5618 14.5443 12.5 14.375 12.5C14.2057 12.5 14.0592 12.5618 13.9355 12.6855C13.8118 12.8092 13.75 12.9557 13.75 13.125C13.75 13.2943 13.8118 13.4408 13.9355 13.5645C14.0592 13.6882 14.2057 13.75 14.375 13.75C14.5443 13.75 14.6908 13.6882 14.8145 13.5645C14.9381 13.4408 15 13.2943 15 13.125ZM16.25 10.9375V14.0625C16.25 14.3229 16.1589 14.5443 15.9766 14.7266C15.7943 14.9089 15.5729 15 15.3125 15H0.9375C0.677083 15 0.455729 14.9089 0.273437 14.7266C0.0911458 14.5443 0 14.3229 0 14.0625V10.9375C0 10.6771 0.0911458 10.4557 0.273437 10.2734C0.455729 10.0911 0.677083 10 0.9375 10H5.47851L6.79687 11.3281C7.17448 11.6927 7.61719 11.875 8.125 11.875C8.63281 11.875 9.07552 11.6927 9.45312 11.3281L10.7812 10H15.3125C15.5729 10 15.7943 10.0911 15.9766 10.2734C16.1589 10.4557 16.25 10.6771 16.25 10.9375ZM13.0762 5.38086C13.1868 5.64779 13.1413 5.87565 12.9395 6.06445L8.56445 10.4395C8.44726 10.5632 8.30078 10.625 8.125 10.625C7.94922 10.625 7.80273 10.5632 7.68555 10.4395L3.31055 6.06445C3.10872 5.87565 3.06315 5.64779 3.17383 5.38086C3.2845 5.12695 3.47656 5 3.75 5H6.25V0.625C6.25 0.455729 6.31185 0.309245 6.43555 0.185547C6.55924 0.061849 6.70573 0 6.875 0H9.375C9.54427 0 9.69075 0.061849 9.81445 0.185547C9.93815 0.309245 10 0.455729 10 0.625V5H12.5C12.7734 5 12.9655 5.12695 13.0762 5.38086Z" fill="#594585"/>
</g>
<defs>
<clipPath id="clip0_2540_15907">
<rect width="16.25" height="15" fill="white"/>
</clipPath>
</defs>
</svg>
