<svg width="24" height="24" viewBox="0 0 24 24" fill="none" xmlns="http://www.w3.org/2000/svg">
<path fill-rule="evenodd" clip-rule="evenodd" d="M6.99931 9.49907C6.99952 7.80647 7.57227 6.1637 8.62442 4.83786C9.67657 3.51201 11.1463 2.58105 12.7946 2.19632C14.4429 1.81159 16.1728 1.99573 17.7032 2.71878C19.2336 3.44184 20.4744 4.6613 21.2239 6.17891C21.9734 7.69652 22.1875 9.42303 21.8315 11.0778C21.4754 12.7325 20.5701 14.2181 19.2627 15.2931C17.9553 16.3681 16.3227 16.9693 14.6304 16.9989C12.9381 17.0284 11.2855 16.4847 9.94131 15.4561L8.15331 17.2431L9.57931 18.6691C9.67482 18.7613 9.751 18.8717 9.80341 18.9937C9.85582 19.1157 9.88341 19.2469 9.88456 19.3797C9.88572 19.5124 9.86041 19.6441 9.81013 19.767C9.75985 19.8899 9.6856 20.0016 9.59171 20.0955C9.49781 20.1894 9.38616 20.2636 9.26327 20.3139C9.14037 20.3642 9.00869 20.3895 8.87591 20.3883C8.74313 20.3872 8.61191 20.3596 8.48991 20.3072C8.3679 20.2548 8.25756 20.1786 8.16531 20.0831L6.73931 18.6581L4.61931 20.7781C4.43167 20.9656 4.17723 21.0709 3.91196 21.0708C3.64669 21.0707 3.39232 20.9652 3.20481 20.7776C3.0173 20.5899 2.91202 20.3355 2.91211 20.0702C2.9122 19.8049 3.01767 19.5506 3.20531 19.3631L5.32531 17.2431L3.92231 15.8401C3.8268 15.7478 3.75062 15.6375 3.69821 15.5155C3.6458 15.3935 3.61822 15.2622 3.61706 15.1295C3.61591 14.9967 3.64121 14.865 3.69149 14.7421C3.74177 14.6192 3.81602 14.5076 3.90992 14.4137C4.00381 14.3198 4.11546 14.2455 4.23836 14.1952C4.36125 14.145 4.49293 14.1197 4.62571 14.1208C4.75849 14.122 4.88971 14.1496 5.01172 14.202C5.13372 14.2544 5.24407 14.3306 5.33631 14.4261L6.73931 15.8291L8.52931 14.0391C7.53449 12.7349 6.99681 11.1394 6.99931 9.49907ZM14.4993 3.99907C13.0406 3.99907 11.6417 4.57853 10.6102 5.60998C9.57877 6.64143 8.99931 8.04038 8.99931 9.49907C8.99931 10.9578 9.57877 12.3567 10.6102 13.3882C11.6417 14.4196 13.0406 14.9991 14.4993 14.9991C15.958 14.9991 17.3569 14.4196 18.3884 13.3882C19.4198 12.3567 19.9993 10.9578 19.9993 9.49907C19.9993 8.04038 19.4198 6.64143 18.3884 5.60998C17.3569 4.57853 15.958 3.99907 14.4993 3.99907Z" fill="white"/>
</svg>
