<svg width="42" height="42" viewBox="0 0 42 42" fill="none" xmlns="http://www.w3.org/2000/svg">
<path d="M10.2183 17.7371C6.36563 18.6533 3.5 22.1174 3.5 26.25C3.5 31.0826 7.41738 35 12.25 35C13.0786 35 13.881 34.8845 14.6414 34.6693M31.5481 17.7371C35.4008 18.6533 38.2655 22.1174 38.2655 26.25C38.2655 31.0826 34.3481 35 29.5155 35C28.6869 35 27.8845 34.8845 27.125 34.6693M31.5 17.5C31.5 11.7014 26.7986 7 21 7C15.2014 7 10.5 11.7014 10.5 17.5M14.9319 24.3959L21 18.3085L27.2405 24.5M21 33.25V21.4043" stroke="#A99ACA" stroke-width="3" stroke-linecap="round" stroke-linejoin="round"/>
</svg>
