<svg width="15" height="15" viewBox="0 0 15 15" fill="none" xmlns="http://www.w3.org/2000/svg">
<path d="M13.4619 12.9077C13.7402 13.1391 14.1299 13.1919 14.4609 13.0366C14.792 12.8813 15 12.5503 15 12.187V2.81197C15 2.44869 14.7891 2.11764 14.4609 1.96237C14.1328 1.80709 13.7432 1.8569 13.4619 2.09127L8.4375 6.27779V7.49947V8.72115L13.4619 12.9077ZM7.5 10.312V7.49947V3.74947V2.81197C7.5 2.44869 7.28906 2.11764 6.96094 1.96237C6.63281 1.80709 6.24316 1.8569 5.96191 2.09127L0.336914 6.77877C0.123047 6.95748 0 7.22115 0 7.49947C0 7.77779 0.123047 8.04147 0.336914 8.22018L5.96191 12.9077C6.24023 13.1391 6.62988 13.1919 6.96094 13.0366C7.29199 12.8813 7.5 12.5503 7.5 12.187V10.312Z" fill="#594585"/>
</svg>
