<svg width="16" height="16" viewBox="0 0 16 16" fill="none" xmlns="http://www.w3.org/2000/svg">
<path d="M7.3335 11.334H8.66683V7.33398H7.3335V11.334ZM8.00016 6.00065C8.18905 6.00065 8.3475 5.93665 8.4755 5.80865C8.6035 5.68065 8.66727 5.52243 8.66683 5.33398C8.66639 5.14554 8.60239 4.98732 8.47483 4.85932C8.34727 4.73132 8.18905 4.66732 8.00016 4.66732C7.81127 4.66732 7.65305 4.73132 7.5255 4.85932C7.39794 4.98732 7.33394 5.14554 7.3335 5.33398C7.33305 5.52243 7.39705 5.68087 7.5255 5.80932C7.65394 5.93776 7.81216 6.00154 8.00016 6.00065ZM8.00016 14.6673C7.07794 14.6673 6.21128 14.4922 5.40016 14.142C4.58905 13.7918 3.8835 13.3169 3.2835 12.7173C2.6835 12.1178 2.20861 11.4122 1.85883 10.6006C1.50905 9.78909 1.33394 8.92243 1.3335 8.00065C1.33305 7.07887 1.50816 6.21221 1.85883 5.40065C2.2095 4.5891 2.68439 3.88354 3.2835 3.28398C3.88261 2.68443 4.58816 2.20954 5.40016 1.85932C6.21216 1.5091 7.07883 1.33398 8.00016 1.33398C8.9215 1.33398 9.78816 1.5091 10.6002 1.85932C11.4122 2.20954 12.1177 2.68443 12.7168 3.28398C13.3159 3.88354 13.7911 4.5891 14.1422 5.40065C14.4933 6.21221 14.6682 7.07887 14.6668 8.00065C14.6655 8.92243 14.4904 9.78909 14.1415 10.6006C13.7926 11.4122 13.3177 12.1178 12.7168 12.7173C12.1159 13.3169 11.4104 13.792 10.6002 14.1426C9.78994 14.4933 8.92327 14.6682 8.00016 14.6673Z" fill="#B1CBD4"/>
</svg>
