<svg width="18" height="18" viewBox="0 0 18 18" fill="none" xmlns="http://www.w3.org/2000/svg">
<path d="M15.75 9.00044C15.5511 9.00044 15.3603 9.07946 15.2197 9.22011C15.079 9.36076 15 9.55153 15 9.75044V14.2504C15 14.4494 14.921 14.6401 14.7803 14.7808C14.6397 14.9214 14.4489 15.0004 14.25 15.0004H3.75C3.55109 15.0004 3.36032 14.9214 3.21967 14.7808C3.07902 14.6401 3 14.4494 3 14.2504V3.75044C3 3.55153 3.07902 3.36076 3.21967 3.22011C3.36032 3.07946 3.55109 3.00044 3.75 3.00044H8.25C8.44891 3.00044 8.63968 2.92142 8.78033 2.78077C8.92098 2.64012 9 2.44935 9 2.25044C9 2.05153 8.92098 1.86076 8.78033 1.72011C8.63968 1.57946 8.44891 1.50044 8.25 1.50044H3.75C3.15326 1.50044 2.58097 1.7375 2.15901 2.15945C1.73705 2.58141 1.5 3.15371 1.5 3.75044V14.2504C1.5 14.8472 1.73705 15.4195 2.15901 15.8414C2.58097 16.2634 3.15326 16.5004 3.75 16.5004H14.25C14.8467 16.5004 15.419 16.2634 15.841 15.8414C16.2629 15.4195 16.5 14.8472 16.5 14.2504V9.75044C16.5 9.55153 16.421 9.36076 16.2803 9.22011C16.1397 9.07946 15.9489 9.00044 15.75 9.00044ZM4.5 9.57044V12.7504C4.5 12.9494 4.57902 13.1401 4.71967 13.2808C4.86032 13.4214 5.05109 13.5004 5.25 13.5004H8.43C8.5287 13.501 8.62655 13.4821 8.71793 13.4448C8.80931 13.4074 8.89242 13.3525 8.9625 13.2829L14.1525 8.08544L16.2825 6.00044C16.3528 5.93072 16.4086 5.84777 16.4467 5.75638C16.4847 5.66498 16.5043 5.56695 16.5043 5.46794C16.5043 5.36893 16.4847 5.2709 16.4467 5.17951C16.4086 5.08812 16.3528 5.00516 16.2825 4.93544L13.1025 1.71794C13.0328 1.64765 12.9498 1.59185 12.8584 1.55377C12.767 1.5157 12.669 1.49609 12.57 1.49609C12.471 1.49609 12.373 1.5157 12.2816 1.55377C12.1902 1.59185 12.1072 1.64765 12.0375 1.71794L9.9225 3.84044L4.7175 9.03794C4.64799 9.10802 4.59299 9.19113 4.55567 9.28251C4.51835 9.37389 4.49943 9.47174 4.5 9.57044ZM12.57 3.30794L14.6925 5.43044L13.6275 6.49544L11.505 4.37294L12.57 3.30794ZM6 9.87794L10.4475 5.43044L12.57 7.55294L8.1225 12.0004H6V9.87794Z" fill="#594585"/>
</svg>
